<svg width="20" height="20" viewBox="0 0 20 20" fill="none" xmlns="http://www.w3.org/2000/svg">
<circle cx="10" cy="10" r="9.5" stroke="#484E53"/>
<path d="M6.24 13.1C5.59333 13.1 5.06667 12.97 4.66 12.71C4.26 12.45 3.96667 12.0767 3.78 11.59C3.59333 11.1033 3.5 10.5267 3.5 9.86C3.5 9.14 3.58667 8.52667 3.76 8.02C3.93333 7.51333 4.22 7.12667 4.62 6.86C5.02 6.59333 5.56 6.46 6.24 6.46C6.91333 6.46 7.45 6.59333 7.85 6.86C8.25 7.12667 8.53667 7.51333 8.71 8.02C8.88333 8.52667 8.97 9.14 8.97 9.86C8.97 10.5267 8.87667 11.1033 8.69 11.59C8.51 12.0767 8.22 12.45 7.82 12.71C7.42 12.97 6.89333 13.1 6.24 13.1ZM6.24 12.4C6.71333 12.4 7.08667 12.2967 7.36 12.09C7.64 11.8767 7.84 11.58 7.96 11.2C8.08667 10.8133 8.15 10.3667 8.15 9.86C8.15 8.98667 8.01 8.32 7.73 7.86C7.45667 7.39333 6.96 7.16 6.24 7.16C5.76 7.16 5.38 7.26333 5.1 7.47C4.82 7.67667 4.62 7.98333 4.5 8.39C4.38 8.79 4.32 9.28 4.32 9.86C4.32 10.3667 4.38 10.8133 4.5 11.2C4.62667 11.58 4.83 11.8767 5.11 12.09C5.39667 12.2967 5.77333 12.4 6.24 12.4ZM12.0646 13.1C11.7579 13.1 11.4813 13.08 11.2346 13.04C10.9946 13.0067 10.7779 12.9567 10.5846 12.89V12.18C10.7779 12.2467 10.9913 12.3 11.2246 12.34C11.4646 12.38 11.7313 12.4 12.0246 12.4C12.6779 12.4 13.1513 12.2333 13.4446 11.9C13.7379 11.5667 13.8846 11.1267 13.8846 10.58V10.09C13.6246 10.2767 13.3346 10.4167 13.0146 10.51C12.7013 10.6033 12.4146 10.65 12.1546 10.65C11.4213 10.65 10.8746 10.47 10.5146 10.11C10.1546 9.75 9.97461 9.23667 9.97461 8.57C9.97461 7.93667 10.1679 7.42667 10.5546 7.04C10.9413 6.65333 11.5279 6.46 12.3146 6.46C13.0879 6.46 13.6713 6.65667 14.0646 7.05C14.4646 7.43667 14.6646 8.05667 14.6646 8.91V10.43C14.6646 10.9633 14.5579 11.43 14.3446 11.83C14.1379 12.23 13.8379 12.5433 13.4446 12.77C13.0579 12.99 12.5979 13.1 12.0646 13.1ZM12.2246 10.01C12.5513 10.01 12.8546 9.96 13.1346 9.86C13.4146 9.75333 13.6646 9.62 13.8846 9.46V8.68C13.8846 7.63333 13.3613 7.11 12.3146 7.11C11.7813 7.11 11.3813 7.24 11.1146 7.5C10.8479 7.75333 10.7146 8.10333 10.7146 8.55C10.7146 8.85 10.7579 9.11 10.8446 9.33C10.9313 9.55 11.0846 9.72 11.3046 9.84C11.5246 9.95333 11.8313 10.01 12.2246 10.01Z" fill="#3D3A3A"/>
</svg>
