<svg width="340" height="16" viewBox="0 0 340 16" fill="none" xmlns="http://www.w3.org/2000/svg">
<path d="M1.568 12.3359V1.13594H5.952C6.752 1.13594 7.472 1.26927 8.112 1.53594C8.76267 1.8026 9.31733 2.1866 9.776 2.68794C10.2347 3.18927 10.5867 3.78127 10.832 4.46394C11.0773 5.1466 11.2 5.90394 11.2 6.73594C11.2 7.56794 11.0773 8.3306 10.832 9.02394C10.5867 9.7066 10.2347 10.2986 9.776 10.7999C9.328 11.2906 8.77867 11.6693 8.128 11.9359C7.47733 12.2026 6.752 12.3359 5.952 12.3359H1.568ZM3.296 10.8479L3.248 10.6719H5.872C6.43733 10.6719 6.93867 10.5813 7.376 10.3999C7.824 10.2186 8.19733 9.9626 8.496 9.63194C8.80533 9.2906 9.04 8.8746 9.2 8.38394C9.36 7.89327 9.44 7.34394 9.44 6.73594C9.44 6.12794 9.36 5.58394 9.2 5.10394C9.04 4.61327 8.80533 4.19727 8.496 3.85594C8.18667 3.5146 7.81333 3.25327 7.376 3.07194C6.93867 2.8906 6.43733 2.79994 5.872 2.79994H3.2L3.296 2.65594V10.8479ZM13.3928 12.3359V3.93594H15.0408V12.3359H13.3928ZM14.1928 2.07994C13.8408 2.07994 13.5688 1.98927 13.3768 1.80794C13.1848 1.6266 13.0888 1.3706 13.0888 1.03994C13.0888 0.730604 13.1848 0.479937 13.3768 0.287937C13.5794 0.0959371 13.8514 -6.29425e-05 14.1928 -6.29425e-05C14.5448 -6.29425e-05 14.8168 0.0906038 15.0088 0.271937C15.2008 0.45327 15.2968 0.70927 15.2968 1.03994C15.2968 1.34927 15.1954 1.59994 14.9928 1.79194C14.8008 1.98394 14.5341 2.07994 14.1928 2.07994ZM17.5419 12.3359V3.93594H19.2059V5.72794L18.9019 5.91994C18.9872 5.6426 19.1205 5.37594 19.3019 5.11994C19.4939 4.86394 19.7232 4.63994 19.9899 4.44794C20.2672 4.24527 20.5605 4.08527 20.8699 3.96794C21.1899 3.8506 21.5152 3.79194 21.8459 3.79194C22.3259 3.79194 22.7472 3.87194 23.1099 4.03194C23.4725 4.19194 23.7712 4.43194 24.0059 4.75194C24.2405 5.07194 24.4112 5.47194 24.5179 5.95194L24.2619 5.88794L24.3739 5.61594C24.4912 5.3706 24.6512 5.14127 24.8539 4.92794C25.0672 4.70394 25.3072 4.5066 25.5739 4.33594C25.8405 4.16527 26.1232 4.03194 26.4219 3.93594C26.7205 3.83994 27.0139 3.79194 27.3019 3.79194C27.9312 3.79194 28.4485 3.91994 28.8539 4.17594C29.2699 4.43194 29.5792 4.82127 29.7819 5.34394C29.9952 5.8666 30.1019 6.51727 30.1019 7.29594V12.3359H28.4379V7.39194C28.4379 6.91194 28.3739 6.5226 28.2459 6.22394C28.1285 5.9146 27.9472 5.68527 27.7019 5.53594C27.4565 5.3866 27.1419 5.31194 26.7579 5.31194C26.4592 5.31194 26.1765 5.36527 25.9099 5.47194C25.6539 5.56794 25.4299 5.7066 25.2379 5.88794C25.0459 6.06927 24.8965 6.2826 24.7899 6.52794C24.6832 6.7626 24.6299 7.02394 24.6299 7.31194V12.3359H22.9659V7.35994C22.9659 6.9226 22.9019 6.5546 22.7739 6.25594C22.6459 5.9466 22.4592 5.71194 22.2139 5.55194C21.9685 5.39194 21.6699 5.31194 21.3179 5.31194C21.0192 5.31194 20.7419 5.36527 20.4859 5.47194C20.2299 5.56794 20.0059 5.7066 19.8139 5.88794C19.6219 6.0586 19.4725 6.2666 19.3659 6.51194C19.2592 6.7466 19.2059 7.0026 19.2059 7.27994V12.3359H17.5419ZM36.2283 12.4959C35.3643 12.4959 34.5963 12.3146 33.9243 11.9519C33.2629 11.5786 32.7403 11.0719 32.3563 10.4319C31.9829 9.79194 31.7963 9.05594 31.7963 8.22394C31.7963 7.5626 31.9029 6.95994 32.1163 6.41594C32.3296 5.87194 32.6229 5.4026 32.9963 5.00794C33.3803 4.6026 33.8336 4.29327 34.3563 4.07994C34.8896 3.85594 35.4656 3.74394 36.0843 3.74394C36.6283 3.74394 37.1349 3.8506 37.6043 4.06394C38.0736 4.2666 38.4789 4.54927 38.8203 4.91194C39.1723 5.2746 39.4389 5.7066 39.6203 6.20794C39.8123 6.6986 39.9029 7.23727 39.8923 7.82394L39.8763 8.52794H33.0123L32.6443 7.21594H38.4523L38.2123 7.48794V7.10394C38.1803 6.75194 38.0629 6.43727 37.8603 6.15994C37.6576 5.8826 37.4016 5.66394 37.0923 5.50394C36.7829 5.34394 36.4469 5.26394 36.0843 5.26394C35.5083 5.26394 35.0229 5.37594 34.6283 5.59994C34.2336 5.81327 33.9349 6.13327 33.7323 6.55994C33.5296 6.97594 33.4283 7.49327 33.4283 8.11194C33.4283 8.6986 33.5509 9.2106 33.7963 9.64794C34.0416 10.0746 34.3883 10.4053 34.8363 10.6399C35.2843 10.8746 35.8016 10.9919 36.3883 10.9919C36.8043 10.9919 37.1883 10.9226 37.5403 10.7839C37.9029 10.6453 38.2923 10.3946 38.7083 10.0319L39.5403 11.1999C39.2843 11.4559 38.9696 11.6799 38.5963 11.8719C38.2336 12.0639 37.8443 12.2186 37.4283 12.3359C37.0229 12.4426 36.6229 12.4959 36.2283 12.4959ZM41.6833 12.3359V3.93594H43.3313V5.66394L43.0433 5.85594C43.1499 5.4826 43.3579 5.14127 43.6673 4.83194C43.9766 4.51194 44.3446 4.25594 44.7713 4.06394C45.1979 3.86127 45.6353 3.75994 46.0833 3.75994C46.7233 3.75994 47.2566 3.88794 47.6833 4.14394C48.1099 4.38927 48.4299 4.76794 48.6433 5.27994C48.8566 5.79194 48.9633 6.43727 48.9633 7.21594V12.3359H47.3153V7.32794C47.3153 6.84794 47.2513 6.45327 47.1233 6.14394C46.9953 5.82394 46.7979 5.5946 46.5313 5.45594C46.2646 5.3066 45.9339 5.2426 45.5393 5.26394C45.2193 5.26394 44.9259 5.31727 44.6593 5.42394C44.3926 5.51994 44.1579 5.6586 43.9553 5.83994C43.7633 6.02127 43.6086 6.2346 43.4913 6.47994C43.3846 6.7146 43.3313 6.9706 43.3313 7.24794V12.3359H42.5153C42.3766 12.3359 42.2379 12.3359 42.0993 12.3359C41.9606 12.3359 41.8219 12.3359 41.6833 12.3359ZM53.9989 12.4959C53.2949 12.4959 52.6602 12.3733 52.0949 12.1279C51.5295 11.8826 51.0602 11.5199 50.6869 11.0399L51.8069 10.0799C52.1269 10.4533 52.4735 10.7253 52.8469 10.8959C53.2309 11.0559 53.6629 11.1359 54.1429 11.1359C54.3349 11.1359 54.5109 11.1146 54.6709 11.0719C54.8415 11.0186 54.9855 10.9439 55.1029 10.8479C55.2309 10.7519 55.3269 10.6399 55.3909 10.5119C55.4549 10.3733 55.4869 10.2239 55.4869 10.0639C55.4869 9.7866 55.3855 9.5626 55.1829 9.39194C55.0762 9.31727 54.9055 9.23727 54.6709 9.15194C54.4469 9.05594 54.1535 8.95994 53.7909 8.86394C53.1722 8.70394 52.6655 8.5226 52.2709 8.31994C51.8762 8.11727 51.5722 7.88794 51.3589 7.63194C51.1989 7.42927 51.0815 7.2106 51.0069 6.97594C50.9322 6.7306 50.8949 6.46394 50.8949 6.17594C50.8949 5.82394 50.9695 5.50394 51.1189 5.21594C51.2789 4.91727 51.4922 4.66127 51.7589 4.44794C52.0362 4.22394 52.3562 4.05327 52.7189 3.93594C53.0922 3.8186 53.4869 3.75994 53.9029 3.75994C54.2975 3.75994 54.6869 3.81327 55.0709 3.91994C55.4655 4.0266 55.8282 4.18127 56.1589 4.38394C56.4895 4.5866 56.7669 4.8266 56.9909 5.10394L56.0469 6.14394C55.8442 5.94127 55.6202 5.76527 55.3749 5.61594C55.1402 5.45594 54.9002 5.33327 54.6549 5.24794C54.4095 5.1626 54.1855 5.11994 53.9829 5.11994C53.7589 5.11994 53.5562 5.14127 53.3749 5.18394C53.1935 5.2266 53.0389 5.2906 52.9109 5.37594C52.7935 5.46127 52.7029 5.56794 52.6389 5.69594C52.5749 5.82394 52.5429 5.96794 52.5429 6.12794C52.5535 6.2666 52.5855 6.39994 52.6389 6.52794C52.7029 6.64527 52.7882 6.7466 52.8949 6.83194C53.0122 6.91727 53.1882 7.00794 53.4229 7.10394C53.6575 7.19994 53.9562 7.2906 54.3189 7.37594C54.8522 7.5146 55.2895 7.66927 55.6309 7.83994C55.9829 7.99994 56.2602 8.1866 56.4629 8.39994C56.6762 8.6026 56.8255 8.83727 56.9109 9.10394C56.9962 9.3706 57.0389 9.66927 57.0389 9.99994C57.0389 10.4799 56.9002 10.9119 56.6229 11.2959C56.3562 11.6693 55.9935 11.9626 55.5349 12.1759C55.0762 12.3893 54.5642 12.4959 53.9989 12.4959ZM59.1271 12.3359V3.93594H60.7751V12.3359H59.1271ZM59.9271 2.07994C59.5751 2.07994 59.3031 1.98927 59.1111 1.80794C58.9191 1.6266 58.8231 1.3706 58.8231 1.03994C58.8231 0.730604 58.9191 0.479937 59.1111 0.287937C59.3138 0.0959371 59.5858 -6.29425e-05 59.9271 -6.29425e-05C60.2791 -6.29425e-05 60.5511 0.0906038 60.7431 0.271937C60.9351 0.45327 61.0311 0.70927 61.0311 1.03994C61.0311 1.34927 60.9298 1.59994 60.7271 1.79194C60.5351 1.98394 60.2685 2.07994 59.9271 2.07994ZM67.0843 12.4959C66.2629 12.4959 65.5269 12.3093 64.8763 11.9359C64.2363 11.5519 63.7296 11.0346 63.3563 10.3839C62.9829 9.7226 62.7963 8.9706 62.7963 8.12794C62.7963 7.28527 62.9829 6.5386 63.3563 5.88794C63.7296 5.2266 64.2363 4.70927 64.8763 4.33594C65.5269 3.95194 66.2629 3.75994 67.0843 3.75994C67.8949 3.75994 68.6203 3.95194 69.2603 4.33594C69.9109 4.70927 70.4229 5.2266 70.7963 5.88794C71.1696 6.5386 71.3563 7.28527 71.3563 8.12794C71.3563 8.9706 71.1696 9.7226 70.7963 10.3839C70.4229 11.0346 69.9109 11.5519 69.2603 11.9359C68.6203 12.3093 67.8949 12.4959 67.0843 12.4959ZM67.0843 10.9919C67.5856 10.9919 68.0336 10.8693 68.4283 10.6239C68.8229 10.3679 69.1323 10.0266 69.3563 9.59994C69.5803 9.1626 69.6869 8.67194 69.6763 8.12794C69.6869 7.57327 69.5803 7.0826 69.3563 6.65594C69.1323 6.2186 68.8229 5.87727 68.4283 5.63194C68.0336 5.3866 67.5856 5.26394 67.0843 5.26394C66.5829 5.26394 66.1296 5.39194 65.7243 5.64794C65.3296 5.89327 65.0203 6.2346 64.7963 6.67194C64.5723 7.0986 64.4656 7.58394 64.4763 8.12794C64.4656 8.67194 64.5723 9.1626 64.7963 9.59994C65.0203 10.0266 65.3296 10.3679 65.7243 10.6239C66.1296 10.8693 66.5829 10.9919 67.0843 10.9919ZM73.152 12.3359V3.93594H74.8V5.66394L74.512 5.85594C74.6187 5.4826 74.8267 5.14127 75.136 4.83194C75.4453 4.51194 75.8133 4.25594 76.24 4.06394C76.6667 3.86127 77.104 3.75994 77.552 3.75994C78.192 3.75994 78.7253 3.88794 79.152 4.14394C79.5787 4.38927 79.8987 4.76794 80.112 5.27994C80.3253 5.79194 80.432 6.43727 80.432 7.21594V12.3359H78.784V7.32794C78.784 6.84794 78.72 6.45327 78.592 6.14394C78.464 5.82394 78.2667 5.5946 78 5.45594C77.7333 5.3066 77.4027 5.2426 77.008 5.26394C76.688 5.26394 76.3947 5.31727 76.128 5.42394C75.8613 5.51994 75.6267 5.6586 75.424 5.83994C75.232 6.02127 75.0773 6.2346 74.96 6.47994C74.8533 6.7146 74.8 6.9706 74.8 7.24794V12.3359H73.984C73.8453 12.3359 73.7067 12.3359 73.568 12.3359C73.4293 12.3359 73.2907 12.3359 73.152 12.3359ZM85.4676 12.4959C84.7636 12.4959 84.129 12.3733 83.5636 12.1279C82.9983 11.8826 82.529 11.5199 82.1556 11.0399L83.2756 10.0799C83.5956 10.4533 83.9423 10.7253 84.3156 10.8959C84.6996 11.0559 85.1316 11.1359 85.6116 11.1359C85.8036 11.1359 85.9796 11.1146 86.1396 11.0719C86.3103 11.0186 86.4543 10.9439 86.5716 10.8479C86.6996 10.7519 86.7956 10.6399 86.8596 10.5119C86.9236 10.3733 86.9556 10.2239 86.9556 10.0639C86.9556 9.7866 86.8543 9.5626 86.6516 9.39194C86.545 9.31727 86.3743 9.23727 86.1396 9.15194C85.9156 9.05594 85.6223 8.95994 85.2596 8.86394C84.641 8.70394 84.1343 8.5226 83.7396 8.31994C83.345 8.11727 83.041 7.88794 82.8276 7.63194C82.6676 7.42927 82.5503 7.2106 82.4756 6.97594C82.401 6.7306 82.3636 6.46394 82.3636 6.17594C82.3636 5.82394 82.4383 5.50394 82.5876 5.21594C82.7476 4.91727 82.961 4.66127 83.2276 4.44794C83.505 4.22394 83.825 4.05327 84.1876 3.93594C84.561 3.8186 84.9556 3.75994 85.3716 3.75994C85.7663 3.75994 86.1556 3.81327 86.5396 3.91994C86.9343 4.0266 87.297 4.18127 87.6276 4.38394C87.9583 4.5866 88.2356 4.8266 88.4596 5.10394L87.5156 6.14394C87.313 5.94127 87.089 5.76527 86.8436 5.61594C86.609 5.45594 86.369 5.33327 86.1236 5.24794C85.8783 5.1626 85.6543 5.11994 85.4516 5.11994C85.2276 5.11994 85.025 5.14127 84.8436 5.18394C84.6623 5.2266 84.5076 5.2906 84.3796 5.37594C84.2623 5.46127 84.1716 5.56794 84.1076 5.69594C84.0436 5.82394 84.0116 5.96794 84.0116 6.12794C84.0223 6.2666 84.0543 6.39994 84.1076 6.52794C84.1716 6.64527 84.257 6.7466 84.3636 6.83194C84.481 6.91727 84.657 7.00794 84.8916 7.10394C85.1263 7.19994 85.425 7.2906 85.7876 7.37594C86.321 7.5146 86.7583 7.66927 87.0996 7.83994C87.4516 7.99994 87.729 8.1866 87.9316 8.39994C88.145 8.6026 88.2943 8.83727 88.3796 9.10394C88.465 9.3706 88.5076 9.66927 88.5076 9.99994C88.5076 10.4799 88.369 10.9119 88.0916 11.2959C87.825 11.6693 87.4623 11.9626 87.0036 12.1759C86.545 12.3893 86.033 12.4959 85.4676 12.4959ZM95.2243 12.3359V1.13594H99.8963C100.611 1.13594 101.214 1.2426 101.704 1.45594C102.195 1.66927 102.563 1.98927 102.808 2.41594C103.064 2.83194 103.192 3.34394 103.192 3.95194C103.192 4.55994 103.022 5.07727 102.68 5.50394C102.35 5.9306 101.886 6.22394 101.288 6.38394V6.06394C101.79 6.1706 102.227 6.3626 102.6 6.63994C102.974 6.9066 103.262 7.2426 103.464 7.64794C103.678 8.05327 103.784 8.51727 103.784 9.03994C103.784 9.57327 103.699 10.0479 103.528 10.4639C103.368 10.8693 103.123 11.2106 102.792 11.4879C102.472 11.7653 102.083 11.9786 101.624 12.1279C101.166 12.2666 100.643 12.3359 100.056 12.3359H95.2243ZM96.9523 10.6719H99.9603C100.398 10.6719 100.766 10.6079 101.064 10.4799C101.374 10.3519 101.608 10.1653 101.768 9.91994C101.939 9.66394 102.024 9.35994 102.024 9.00794C102.024 8.67727 101.934 8.3946 101.752 8.15994C101.582 7.92527 101.336 7.74927 101.016 7.63194C100.696 7.50394 100.318 7.43994 99.8803 7.43994H96.9523V10.6719ZM96.9523 5.77594H99.8003C100.12 5.77594 100.403 5.71194 100.648 5.58394C100.904 5.45594 101.102 5.27994 101.24 5.05594C101.39 4.83194 101.464 4.57594 101.464 4.28794C101.464 3.80794 101.304 3.43994 100.984 3.18394C100.664 2.92794 100.206 2.79994 99.6083 2.79994H96.9523V5.77594ZM108.009 12.3359V2.79994H104.873V1.13594H112.969V2.79994H109.737V12.3359H108.009ZM123.04 12.4959C122.432 12.4959 121.866 12.4159 121.344 12.2559C120.832 12.0959 120.362 11.8559 119.936 11.5359C119.52 11.2053 119.146 10.7999 118.816 10.3199L120 8.95994C120.522 9.7066 121.024 10.2239 121.504 10.5119C121.984 10.7999 122.554 10.9439 123.216 10.9439C123.621 10.9439 123.989 10.8799 124.32 10.7519C124.65 10.6239 124.912 10.4479 125.104 10.2239C125.296 9.99994 125.392 9.74394 125.392 9.45594C125.392 9.26394 125.36 9.0826 125.296 8.91194C125.232 8.74127 125.13 8.5866 124.992 8.44794C124.864 8.30927 124.693 8.18127 124.48 8.06394C124.277 7.9466 124.037 7.84527 123.76 7.75994C123.482 7.66394 123.162 7.58394 122.8 7.51994C122.224 7.4026 121.722 7.24794 121.296 7.05594C120.869 6.86394 120.512 6.62394 120.224 6.33594C119.936 6.04794 119.722 5.7226 119.584 5.35994C119.445 4.9866 119.376 4.5706 119.376 4.11194C119.376 3.66394 119.472 3.24794 119.664 2.86394C119.866 2.47994 120.138 2.14927 120.48 1.87194C120.832 1.58394 121.242 1.36527 121.712 1.21594C122.181 1.05594 122.688 0.975937 123.232 0.975937C123.808 0.975937 124.336 1.0506 124.816 1.19994C125.296 1.34927 125.722 1.57327 126.096 1.87194C126.469 2.15994 126.778 2.51727 127.024 2.94394L125.808 4.14394C125.594 3.79194 125.354 3.4986 125.088 3.26394C124.821 3.0186 124.528 2.83727 124.208 2.71994C123.888 2.59194 123.546 2.52794 123.184 2.52794C122.768 2.52794 122.405 2.59194 122.096 2.71994C121.786 2.84794 121.541 3.02927 121.36 3.26394C121.189 3.48794 121.104 3.7546 121.104 4.06394C121.104 4.28794 121.146 4.49594 121.232 4.68794C121.317 4.86927 121.445 5.0346 121.616 5.18394C121.797 5.3226 122.037 5.4506 122.336 5.56794C122.634 5.6746 122.992 5.7706 123.408 5.85594C123.994 5.98394 124.517 6.14927 124.976 6.35194C125.434 6.54394 125.824 6.77327 126.144 7.03994C126.464 7.3066 126.704 7.60527 126.864 7.93594C127.034 8.2666 127.12 8.62394 127.12 9.00794C127.12 9.7226 126.954 10.3413 126.624 10.8639C126.293 11.3866 125.824 11.7919 125.216 12.0799C124.608 12.3573 123.882 12.4959 123.04 12.4959ZM129.568 12.3359V1.13594H133.952C134.752 1.13594 135.472 1.26927 136.112 1.53594C136.763 1.8026 137.317 2.1866 137.776 2.68794C138.235 3.18927 138.587 3.78127 138.832 4.46394C139.077 5.1466 139.2 5.90394 139.2 6.73594C139.2 7.56794 139.077 8.3306 138.832 9.02394C138.587 9.7066 138.235 10.2986 137.776 10.7999C137.328 11.2906 136.779 11.6693 136.128 11.9359C135.477 12.2026 134.752 12.3359 133.952 12.3359H129.568ZM131.296 10.8479L131.248 10.6719H133.872C134.437 10.6719 134.939 10.5813 135.376 10.3999C135.824 10.2186 136.197 9.9626 136.496 9.63194C136.805 9.2906 137.04 8.8746 137.2 8.38394C137.36 7.89327 137.44 7.34394 137.44 6.73594C137.44 6.12794 137.36 5.58394 137.2 5.10394C137.04 4.61327 136.805 4.19727 136.496 3.85594C136.187 3.5146 135.813 3.25327 135.376 3.07194C134.939 2.8906 134.437 2.79994 133.872 2.79994H131.2L131.296 2.65594V10.8479ZM146.021 12.3359V1.13594H150.405C151.205 1.13594 151.925 1.26927 152.565 1.53594C153.216 1.8026 153.77 2.1866 154.229 2.68794C154.688 3.18927 155.04 3.78127 155.285 4.46394C155.53 5.1466 155.653 5.90394 155.653 6.73594C155.653 7.56794 155.53 8.3306 155.285 9.02394C155.04 9.7066 154.688 10.2986 154.229 10.7999C153.781 11.2906 153.232 11.6693 152.581 11.9359C151.93 12.2026 151.205 12.3359 150.405 12.3359H146.021ZM147.749 10.8479L147.701 10.6719H150.325C150.89 10.6719 151.392 10.5813 151.829 10.3999C152.277 10.2186 152.65 9.9626 152.949 9.63194C153.258 9.2906 153.493 8.8746 153.653 8.38394C153.813 7.89327 153.893 7.34394 153.893 6.73594C153.893 6.12794 153.813 5.58394 153.653 5.10394C153.493 4.61327 153.258 4.19727 152.949 3.85594C152.64 3.5146 152.266 3.25327 151.829 3.07194C151.392 2.8906 150.89 2.79994 150.325 2.79994H147.653L147.749 2.65594V10.8479ZM157.846 12.3359V3.93594H159.494V12.3359H157.846ZM158.646 2.07994C158.294 2.07994 158.022 1.98927 157.83 1.80794C157.638 1.6266 157.542 1.3706 157.542 1.03994C157.542 0.730604 157.638 0.479937 157.83 0.287937C158.033 0.0959371 158.305 -6.29425e-05 158.646 -6.29425e-05C158.998 -6.29425e-05 159.27 0.0906038 159.462 0.271937C159.654 0.45327 159.75 0.70927 159.75 1.03994C159.75 1.34927 159.649 1.59994 159.446 1.79194C159.254 1.98394 158.987 2.07994 158.646 2.07994ZM162.027 12.3359V3.93594H163.691V6.57594L163.531 5.93594C163.648 5.5306 163.846 5.1626 164.123 4.83194C164.411 4.50127 164.736 4.23994 165.099 4.04794C165.472 3.85594 165.856 3.75994 166.251 3.75994C166.432 3.75994 166.603 3.77594 166.763 3.80794C166.934 3.83994 167.067 3.87727 167.163 3.91994L166.731 5.71194C166.603 5.6586 166.459 5.61594 166.299 5.58394C166.15 5.54127 166 5.51994 165.851 5.51994C165.563 5.51994 165.286 5.5786 165.019 5.69594C164.763 5.8026 164.534 5.95727 164.331 6.15994C164.139 6.35194 163.984 6.58127 163.867 6.84794C163.75 7.10394 163.691 7.3866 163.691 7.69594V12.3359H162.027ZM172.041 12.4959C171.177 12.4959 170.409 12.3146 169.737 11.9519C169.075 11.5786 168.553 11.0719 168.169 10.4319C167.795 9.79194 167.609 9.05594 167.609 8.22394C167.609 7.5626 167.715 6.95994 167.929 6.41594C168.142 5.87194 168.435 5.4026 168.809 5.00794C169.193 4.6026 169.646 4.29327 170.169 4.07994C170.702 3.85594 171.278 3.74394 171.897 3.74394C172.441 3.74394 172.947 3.8506 173.417 4.06394C173.886 4.2666 174.291 4.54927 174.633 4.91194C174.985 5.2746 175.251 5.7066 175.433 6.20794C175.625 6.6986 175.715 7.23727 175.705 7.82394L175.689 8.52794H168.825L168.457 7.21594H174.265L174.025 7.48794V7.10394C173.993 6.75194 173.875 6.43727 173.673 6.15994C173.47 5.8826 173.214 5.66394 172.905 5.50394C172.595 5.34394 172.259 5.26394 171.897 5.26394C171.321 5.26394 170.835 5.37594 170.441 5.59994C170.046 5.81327 169.747 6.13327 169.545 6.55994C169.342 6.97594 169.241 7.49327 169.241 8.11194C169.241 8.6986 169.363 9.2106 169.609 9.64794C169.854 10.0746 170.201 10.4053 170.649 10.6399C171.097 10.8746 171.614 10.9919 172.201 10.9919C172.617 10.9919 173.001 10.9226 173.353 10.7839C173.715 10.6453 174.105 10.3946 174.521 10.0319L175.353 11.1999C175.097 11.4559 174.782 11.6799 174.409 11.8719C174.046 12.0639 173.657 12.2186 173.241 12.3359C172.835 12.4426 172.435 12.4959 172.041 12.4959ZM181.064 12.4959C180.285 12.4959 179.586 12.3039 178.968 11.9199C178.36 11.5359 177.874 11.0133 177.512 10.3519C177.16 9.6906 176.984 8.94927 176.984 8.12794C176.984 7.3066 177.16 6.56527 177.512 5.90394C177.874 5.2426 178.36 4.71994 178.968 4.33594C179.586 3.95194 180.285 3.75994 181.064 3.75994C181.81 3.75994 182.488 3.9146 183.096 4.22394C183.714 4.5226 184.184 4.93327 184.504 5.45594L183.592 6.57594C183.421 6.3306 183.202 6.1066 182.936 5.90394C182.669 5.70127 182.386 5.54127 182.088 5.42394C181.789 5.3066 181.501 5.24794 181.224 5.24794C180.712 5.24794 180.253 5.37594 179.848 5.63194C179.453 5.87727 179.138 6.2186 178.904 6.65594C178.669 7.09327 178.552 7.58394 178.552 8.12794C178.552 8.67194 178.674 9.1626 178.92 9.59994C179.165 10.0266 179.49 10.3679 179.896 10.6239C180.301 10.8799 180.749 11.0079 181.24 11.0079C181.528 11.0079 181.805 10.9599 182.072 10.8639C182.349 10.7679 182.616 10.6239 182.872 10.4319C183.128 10.2399 183.368 10.0053 183.592 9.72794L184.504 10.8479C184.162 11.3279 183.672 11.7226 183.032 12.0319C182.402 12.3413 181.746 12.4959 181.064 12.4959ZM187.098 12.3359V1.79194H188.746V12.3359H187.098ZM185.354 5.53594V3.93594H190.698V5.53594H185.354ZM197.099 12.3359V1.13594H201.483C202.283 1.13594 203.003 1.26927 203.643 1.53594C204.294 1.8026 204.849 2.1866 205.307 2.68794C205.766 3.18927 206.118 3.78127 206.363 4.46394C206.609 5.1466 206.731 5.90394 206.731 6.73594C206.731 7.56794 206.609 8.3306 206.363 9.02394C206.118 9.7066 205.766 10.2986 205.307 10.7999C204.859 11.2906 204.31 11.6693 203.659 11.9359C203.009 12.2026 202.283 12.3359 201.483 12.3359H197.099ZM198.827 10.8479L198.779 10.6719H201.403C201.969 10.6719 202.47 10.5813 202.907 10.3999C203.355 10.2186 203.729 9.9626 204.027 9.63194C204.337 9.2906 204.571 8.8746 204.731 8.38394C204.891 7.89327 204.971 7.34394 204.971 6.73594C204.971 6.12794 204.891 5.58394 204.731 5.10394C204.571 4.61327 204.337 4.19727 204.027 3.85594C203.718 3.5146 203.345 3.25327 202.907 3.07194C202.47 2.8906 201.969 2.79994 201.403 2.79994H198.731L198.827 2.65594V10.8479ZM208.652 12.3359V3.93594H210.316V6.57594L210.156 5.93594C210.273 5.5306 210.471 5.1626 210.748 4.83194C211.036 4.50127 211.361 4.23994 211.724 4.04794C212.097 3.85594 212.481 3.75994 212.876 3.75994C213.057 3.75994 213.228 3.77594 213.388 3.80794C213.559 3.83994 213.692 3.87727 213.788 3.91994L213.356 5.71194C213.228 5.6586 213.084 5.61594 212.924 5.58394C212.775 5.54127 212.625 5.51994 212.476 5.51994C212.188 5.51994 211.911 5.5786 211.644 5.69594C211.388 5.8026 211.159 5.95727 210.956 6.15994C210.764 6.35194 210.609 6.58127 210.492 6.84794C210.375 7.10394 210.316 7.3866 210.316 7.69594V12.3359H208.652ZM215.377 12.3359V3.93594H217.025V12.3359H215.377ZM216.177 2.07994C215.825 2.07994 215.553 1.98927 215.361 1.80794C215.169 1.6266 215.073 1.3706 215.073 1.03994C215.073 0.730604 215.169 0.479937 215.361 0.287937C215.564 0.0959371 215.836 -6.29425e-05 216.177 -6.29425e-05C216.529 -6.29425e-05 216.801 0.0906038 216.993 0.271937C217.185 0.45327 217.281 0.70927 217.281 1.03994C217.281 1.34927 217.18 1.59994 216.977 1.79194C216.785 1.98394 216.518 2.07994 216.177 2.07994ZM222.31 12.3359L218.758 3.93594H220.534L223.094 10.2239L222.79 10.3679L225.526 3.93594H227.222L223.494 12.3359H222.31ZM232.416 12.4959C231.552 12.4959 230.784 12.3146 230.112 11.9519C229.45 11.5786 228.928 11.0719 228.544 10.4319C228.17 9.79194 227.984 9.05594 227.984 8.22394C227.984 7.5626 228.09 6.95994 228.304 6.41594C228.517 5.87194 228.81 5.4026 229.184 5.00794C229.568 4.6026 230.021 4.29327 230.544 4.07994C231.077 3.85594 231.653 3.74394 232.272 3.74394C232.816 3.74394 233.322 3.8506 233.792 4.06394C234.261 4.2666 234.666 4.54927 235.008 4.91194C235.36 5.2746 235.626 5.7066 235.808 6.20794C236 6.6986 236.09 7.23727 236.08 7.82394L236.064 8.52794H229.2L228.832 7.21594H234.64L234.4 7.48794V7.10394C234.368 6.75194 234.25 6.43727 234.048 6.15994C233.845 5.8826 233.589 5.66394 233.28 5.50394C232.97 5.34394 232.634 5.26394 232.272 5.26394C231.696 5.26394 231.21 5.37594 230.816 5.59994C230.421 5.81327 230.122 6.13327 229.92 6.55994C229.717 6.97594 229.616 7.49327 229.616 8.11194C229.616 8.6986 229.738 9.2106 229.984 9.64794C230.229 10.0746 230.576 10.4053 231.024 10.6399C231.472 10.8746 231.989 10.9919 232.576 10.9919C232.992 10.9919 233.376 10.9226 233.728 10.7839C234.09 10.6453 234.48 10.3946 234.896 10.0319L235.728 11.1999C235.472 11.4559 235.157 11.6799 234.784 11.8719C234.421 12.0639 234.032 12.2186 233.616 12.3359C233.21 12.4426 232.81 12.4959 232.416 12.4959ZM245.843 15.3119C244.542 14.5013 243.55 13.4879 242.867 12.2719C242.184 11.0559 241.843 9.70127 241.843 8.20794C241.843 6.72527 242.184 5.37594 242.867 4.15994C243.56 2.93327 244.558 1.9146 245.859 1.10394L246.739 2.09594C245.651 2.85327 244.819 3.75994 244.243 4.81594C243.678 5.86127 243.395 6.99194 243.395 8.20794C243.395 9.42394 243.678 10.5599 244.243 11.6159C244.819 12.6613 245.651 13.5626 246.739 14.3199L245.843 15.3119ZM252.087 12.4959C251.479 12.4959 250.913 12.4159 250.391 12.2559C249.879 12.0959 249.409 11.8559 248.983 11.5359C248.567 11.2053 248.193 10.7999 247.863 10.3199L249.047 8.95994C249.569 9.7066 250.071 10.2239 250.551 10.5119C251.031 10.7999 251.601 10.9439 252.263 10.9439C252.668 10.9439 253.036 10.8799 253.367 10.7519C253.697 10.6239 253.959 10.4479 254.151 10.2239C254.343 9.99994 254.439 9.74394 254.439 9.45594C254.439 9.26394 254.407 9.0826 254.343 8.91194C254.279 8.74127 254.177 8.5866 254.039 8.44794C253.911 8.30927 253.74 8.18127 253.527 8.06394C253.324 7.9466 253.084 7.84527 252.807 7.75994C252.529 7.66394 252.209 7.58394 251.847 7.51994C251.271 7.4026 250.769 7.24794 250.343 7.05594C249.916 6.86394 249.559 6.62394 249.271 6.33594C248.983 6.04794 248.769 5.7226 248.631 5.35994C248.492 4.9866 248.423 4.5706 248.423 4.11194C248.423 3.66394 248.519 3.24794 248.711 2.86394C248.913 2.47994 249.185 2.14927 249.527 1.87194C249.879 1.58394 250.289 1.36527 250.759 1.21594C251.228 1.05594 251.735 0.975937 252.279 0.975937C252.855 0.975937 253.383 1.0506 253.863 1.19994C254.343 1.34927 254.769 1.57327 255.142 1.87194C255.516 2.15994 255.825 2.51727 256.071 2.94394L254.855 4.14394C254.641 3.79194 254.401 3.4986 254.135 3.26394C253.868 3.0186 253.575 2.83727 253.255 2.71994C252.935 2.59194 252.593 2.52794 252.231 2.52794C251.815 2.52794 251.452 2.59194 251.143 2.71994C250.833 2.84794 250.588 3.02927 250.407 3.26394C250.236 3.48794 250.151 3.7546 250.151 4.06394C250.151 4.28794 250.193 4.49594 250.279 4.68794C250.364 4.86927 250.492 5.0346 250.663 5.18394C250.844 5.3226 251.084 5.4506 251.383 5.56794C251.681 5.6746 252.039 5.7706 252.455 5.85594C253.041 5.98394 253.564 6.14927 254.023 6.35194C254.481 6.54394 254.871 6.77327 255.191 7.03994C255.511 7.3066 255.751 7.60527 255.911 7.93594C256.081 8.2666 256.167 8.62394 256.167 9.00794C256.167 9.7226 256.001 10.3413 255.671 10.8639C255.34 11.3866 254.871 11.7919 254.263 12.0799C253.655 12.3573 252.929 12.4959 252.087 12.4959ZM258.615 12.3359V1.13594H265.671V2.79994H260.343V10.6719H265.671V12.3359H258.615ZM259.399 7.42394V5.75994H264.791V7.42394H259.399ZM270.827 12.3359L267.259 1.13594H269.099L271.259 8.14394C271.323 8.3146 271.382 8.51727 271.435 8.75194C271.488 8.97594 271.536 9.20527 271.579 9.43994C271.622 9.6746 271.659 9.89327 271.691 10.0959C271.734 10.2986 271.771 10.4639 271.803 10.5919L271.339 10.5759C271.499 10.0106 271.622 9.57327 271.707 9.26394C271.803 8.9546 271.878 8.71994 271.931 8.55994C271.984 8.38927 272.032 8.24527 272.075 8.12794L274.091 3.07194H275.643L277.595 8.12794C277.702 8.38394 277.792 8.63994 277.867 8.89594C277.952 9.14127 278.027 9.39194 278.091 9.64794C278.155 9.89327 278.224 10.1546 278.299 10.4319L277.883 10.5439C277.936 10.2559 277.974 10.0319 277.995 9.87194C278.027 9.70127 278.054 9.5626 278.075 9.45594C278.096 9.34927 278.118 9.24794 278.139 9.15194C278.16 9.04527 278.192 8.91194 278.235 8.75194C278.288 8.59194 278.358 8.37327 278.443 8.09594L280.571 1.13594H282.427L278.859 12.3359H277.659L274.699 5.32794L274.843 5.39194L271.995 12.3359H270.827ZM284.013 15.3119L283.133 14.3199C284.221 13.5626 285.047 12.6613 285.613 11.6159C286.189 10.5599 286.477 9.42394 286.477 8.20794C286.477 6.99194 286.189 5.86127 285.613 4.81594C285.047 3.75994 284.221 2.85327 283.133 2.09594L284.029 1.10394C285.33 1.9146 286.322 2.92794 287.005 4.14394C287.687 5.35994 288.029 6.7146 288.029 8.20794C288.029 9.6906 287.682 11.0453 286.989 12.2719C286.306 13.4879 285.314 14.5013 284.013 15.3119Z" fill="white"/>
</svg>
