<svg width="325" height="13" viewBox="0 0 325 13" fill="none" xmlns="http://www.w3.org/2000/svg">
<path d="M1.568 12.3359V1.13594H5.952C6.752 1.13594 7.472 1.26927 8.112 1.53594C8.76267 1.8026 9.31733 2.1866 9.776 2.68794C10.2347 3.18927 10.5867 3.78127 10.832 4.46394C11.0773 5.1466 11.2 5.90394 11.2 6.73594C11.2 7.56794 11.0773 8.3306 10.832 9.02394C10.5867 9.7066 10.2347 10.2986 9.776 10.7999C9.328 11.2906 8.77867 11.6693 8.128 11.9359C7.47733 12.2026 6.752 12.3359 5.952 12.3359H1.568ZM3.296 10.8479L3.248 10.6719H5.872C6.43733 10.6719 6.93867 10.5813 7.376 10.3999C7.824 10.2186 8.19733 9.9626 8.496 9.63194C8.80533 9.2906 9.04 8.8746 9.2 8.38394C9.36 7.89327 9.44 7.34394 9.44 6.73594C9.44 6.12794 9.36 5.58394 9.2 5.10394C9.04 4.61327 8.80533 4.19727 8.496 3.85594C8.18667 3.5146 7.81333 3.25327 7.376 3.07194C6.93867 2.8906 6.43733 2.79994 5.872 2.79994H3.2L3.296 2.65594V10.8479ZM13.3928 12.3359V3.93594H15.0408V12.3359H13.3928ZM14.1928 2.07994C13.8408 2.07994 13.5688 1.98927 13.3768 1.80794C13.1848 1.6266 13.0888 1.3706 13.0888 1.03994C13.0888 0.730604 13.1848 0.479937 13.3768 0.287937C13.5794 0.0959371 13.8514 -6.29425e-05 14.1928 -6.29425e-05C14.5448 -6.29425e-05 14.8168 0.0906038 15.0088 0.271937C15.2008 0.45327 15.2968 0.70927 15.2968 1.03994C15.2968 1.34927 15.1954 1.59994 14.9928 1.79194C14.8008 1.98394 14.5341 2.07994 14.1928 2.07994ZM17.5419 12.3359V3.93594H19.2059V5.72794L18.9019 5.91994C18.9872 5.6426 19.1205 5.37594 19.3019 5.11994C19.4939 4.86394 19.7232 4.63994 19.9899 4.44794C20.2672 4.24527 20.5605 4.08527 20.8699 3.96794C21.1899 3.8506 21.5152 3.79194 21.8459 3.79194C22.3259 3.79194 22.7472 3.87194 23.1099 4.03194C23.4725 4.19194 23.7712 4.43194 24.0059 4.75194C24.2405 5.07194 24.4112 5.47194 24.5179 5.95194L24.2619 5.88794L24.3739 5.61594C24.4912 5.3706 24.6512 5.14127 24.8539 4.92794C25.0672 4.70394 25.3072 4.5066 25.5739 4.33594C25.8405 4.16527 26.1232 4.03194 26.4219 3.93594C26.7205 3.83994 27.0139 3.79194 27.3019 3.79194C27.9312 3.79194 28.4485 3.91994 28.8539 4.17594C29.2699 4.43194 29.5792 4.82127 29.7819 5.34394C29.9952 5.8666 30.1019 6.51727 30.1019 7.29594V12.3359H28.4379V7.39194C28.4379 6.91194 28.3739 6.5226 28.2459 6.22394C28.1285 5.9146 27.9472 5.68527 27.7019 5.53594C27.4565 5.3866 27.1419 5.31194 26.7579 5.31194C26.4592 5.31194 26.1765 5.36527 25.9099 5.47194C25.6539 5.56794 25.4299 5.7066 25.2379 5.88794C25.0459 6.06927 24.8965 6.2826 24.7899 6.52794C24.6832 6.7626 24.6299 7.02394 24.6299 7.31194V12.3359H22.9659V7.35994C22.9659 6.9226 22.9019 6.5546 22.7739 6.25594C22.6459 5.9466 22.4592 5.71194 22.2139 5.55194C21.9685 5.39194 21.6699 5.31194 21.3179 5.31194C21.0192 5.31194 20.7419 5.36527 20.4859 5.47194C20.2299 5.56794 20.0059 5.7066 19.8139 5.88794C19.6219 6.0586 19.4725 6.2666 19.3659 6.51194C19.2592 6.7466 19.2059 7.0026 19.2059 7.27994V12.3359H17.5419ZM36.2283 12.4959C35.3643 12.4959 34.5963 12.3146 33.9243 11.9519C33.2629 11.5786 32.7403 11.0719 32.3563 10.4319C31.9829 9.79194 31.7963 9.05594 31.7963 8.22394C31.7963 7.5626 31.9029 6.95994 32.1163 6.41594C32.3296 5.87194 32.6229 5.4026 32.9963 5.00794C33.3803 4.6026 33.8336 4.29327 34.3563 4.07994C34.8896 3.85594 35.4656 3.74394 36.0843 3.74394C36.6283 3.74394 37.1349 3.8506 37.6043 4.06394C38.0736 4.2666 38.4789 4.54927 38.8203 4.91194C39.1723 5.2746 39.4389 5.7066 39.6203 6.20794C39.8123 6.6986 39.9029 7.23727 39.8923 7.82394L39.8763 8.52794H33.0123L32.6443 7.21594H38.4523L38.2123 7.48794V7.10394C38.1803 6.75194 38.0629 6.43727 37.8603 6.15994C37.6576 5.8826 37.4016 5.66394 37.0923 5.50394C36.7829 5.34394 36.4469 5.26394 36.0843 5.26394C35.5083 5.26394 35.0229 5.37594 34.6283 5.59994C34.2336 5.81327 33.9349 6.13327 33.7323 6.55994C33.5296 6.97594 33.4283 7.49327 33.4283 8.11194C33.4283 8.6986 33.5509 9.2106 33.7963 9.64794C34.0416 10.0746 34.3883 10.4053 34.8363 10.6399C35.2843 10.8746 35.8016 10.9919 36.3883 10.9919C36.8043 10.9919 37.1883 10.9226 37.5403 10.7839C37.9029 10.6453 38.2923 10.3946 38.7083 10.0319L39.5403 11.1999C39.2843 11.4559 38.9696 11.6799 38.5963 11.8719C38.2336 12.0639 37.8443 12.2186 37.4283 12.3359C37.0229 12.4426 36.6229 12.4959 36.2283 12.4959ZM41.6833 12.3359V3.93594H43.3313V5.66394L43.0433 5.85594C43.1499 5.4826 43.3579 5.14127 43.6673 4.83194C43.9766 4.51194 44.3446 4.25594 44.7713 4.06394C45.1979 3.86127 45.6353 3.75994 46.0833 3.75994C46.7233 3.75994 47.2566 3.88794 47.6833 4.14394C48.1099 4.38927 48.4299 4.76794 48.6433 5.27994C48.8566 5.79194 48.9633 6.43727 48.9633 7.21594V12.3359H47.3153V7.32794C47.3153 6.84794 47.2513 6.45327 47.1233 6.14394C46.9953 5.82394 46.7979 5.5946 46.5313 5.45594C46.2646 5.3066 45.9339 5.2426 45.5393 5.26394C45.2193 5.26394 44.9259 5.31727 44.6593 5.42394C44.3926 5.51994 44.1579 5.6586 43.9553 5.83994C43.7633 6.02127 43.6086 6.2346 43.4913 6.47994C43.3846 6.7146 43.3313 6.9706 43.3313 7.24794V12.3359H42.5153C42.3766 12.3359 42.2379 12.3359 42.0993 12.3359C41.9606 12.3359 41.8219 12.3359 41.6833 12.3359ZM53.9989 12.4959C53.2949 12.4959 52.6602 12.3733 52.0949 12.1279C51.5295 11.8826 51.0602 11.5199 50.6869 11.0399L51.8069 10.0799C52.1269 10.4533 52.4735 10.7253 52.8469 10.8959C53.2309 11.0559 53.6629 11.1359 54.1429 11.1359C54.3349 11.1359 54.5109 11.1146 54.6709 11.0719C54.8415 11.0186 54.9855 10.9439 55.1029 10.8479C55.2309 10.7519 55.3269 10.6399 55.3909 10.5119C55.4549 10.3733 55.4869 10.2239 55.4869 10.0639C55.4869 9.7866 55.3855 9.5626 55.1829 9.39194C55.0762 9.31727 54.9055 9.23727 54.6709 9.15194C54.4469 9.05594 54.1535 8.95994 53.7909 8.86394C53.1722 8.70394 52.6655 8.5226 52.2709 8.31994C51.8762 8.11727 51.5722 7.88794 51.3589 7.63194C51.1989 7.42927 51.0815 7.2106 51.0069 6.97594C50.9322 6.7306 50.8949 6.46394 50.8949 6.17594C50.8949 5.82394 50.9695 5.50394 51.1189 5.21594C51.2789 4.91727 51.4922 4.66127 51.7589 4.44794C52.0362 4.22394 52.3562 4.05327 52.7189 3.93594C53.0922 3.8186 53.4869 3.75994 53.9029 3.75994C54.2975 3.75994 54.6869 3.81327 55.0709 3.91994C55.4655 4.0266 55.8282 4.18127 56.1589 4.38394C56.4895 4.5866 56.7669 4.8266 56.9909 5.10394L56.0469 6.14394C55.8442 5.94127 55.6202 5.76527 55.3749 5.61594C55.1402 5.45594 54.9002 5.33327 54.6549 5.24794C54.4095 5.1626 54.1855 5.11994 53.9829 5.11994C53.7589 5.11994 53.5562 5.14127 53.3749 5.18394C53.1935 5.2266 53.0389 5.2906 52.9109 5.37594C52.7935 5.46127 52.7029 5.56794 52.6389 5.69594C52.5749 5.82394 52.5429 5.96794 52.5429 6.12794C52.5535 6.2666 52.5855 6.39994 52.6389 6.52794C52.7029 6.64527 52.7882 6.7466 52.8949 6.83194C53.0122 6.91727 53.1882 7.00794 53.4229 7.10394C53.6575 7.19994 53.9562 7.2906 54.3189 7.37594C54.8522 7.5146 55.2895 7.66927 55.6309 7.83994C55.9829 7.99994 56.2602 8.1866 56.4629 8.39994C56.6762 8.6026 56.8255 8.83727 56.9109 9.10394C56.9962 9.3706 57.0389 9.66927 57.0389 9.99994C57.0389 10.4799 56.9002 10.9119 56.6229 11.2959C56.3562 11.6693 55.9935 11.9626 55.5349 12.1759C55.0762 12.3893 54.5642 12.4959 53.9989 12.4959ZM59.1271 12.3359V3.93594H60.7751V12.3359H59.1271ZM59.9271 2.07994C59.5751 2.07994 59.3031 1.98927 59.1111 1.80794C58.9191 1.6266 58.8231 1.3706 58.8231 1.03994C58.8231 0.730604 58.9191 0.479937 59.1111 0.287937C59.3138 0.0959371 59.5858 -6.29425e-05 59.9271 -6.29425e-05C60.2791 -6.29425e-05 60.5511 0.0906038 60.7431 0.271937C60.9351 0.45327 61.0311 0.70927 61.0311 1.03994C61.0311 1.34927 60.9298 1.59994 60.7271 1.79194C60.5351 1.98394 60.2685 2.07994 59.9271 2.07994ZM67.0843 12.4959C66.2629 12.4959 65.5269 12.3093 64.8763 11.9359C64.2363 11.5519 63.7296 11.0346 63.3563 10.3839C62.9829 9.7226 62.7963 8.9706 62.7963 8.12794C62.7963 7.28527 62.9829 6.5386 63.3563 5.88794C63.7296 5.2266 64.2363 4.70927 64.8763 4.33594C65.5269 3.95194 66.2629 3.75994 67.0843 3.75994C67.8949 3.75994 68.6203 3.95194 69.2603 4.33594C69.9109 4.70927 70.4229 5.2266 70.7963 5.88794C71.1696 6.5386 71.3563 7.28527 71.3563 8.12794C71.3563 8.9706 71.1696 9.7226 70.7963 10.3839C70.4229 11.0346 69.9109 11.5519 69.2603 11.9359C68.6203 12.3093 67.8949 12.4959 67.0843 12.4959ZM67.0843 10.9919C67.5856 10.9919 68.0336 10.8693 68.4283 10.6239C68.8229 10.3679 69.1323 10.0266 69.3563 9.59994C69.5803 9.1626 69.6869 8.67194 69.6763 8.12794C69.6869 7.57327 69.5803 7.0826 69.3563 6.65594C69.1323 6.2186 68.8229 5.87727 68.4283 5.63194C68.0336 5.3866 67.5856 5.26394 67.0843 5.26394C66.5829 5.26394 66.1296 5.39194 65.7243 5.64794C65.3296 5.89327 65.0203 6.2346 64.7963 6.67194C64.5723 7.0986 64.4656 7.58394 64.4763 8.12794C64.4656 8.67194 64.5723 9.1626 64.7963 9.59994C65.0203 10.0266 65.3296 10.3679 65.7243 10.6239C66.1296 10.8693 66.5829 10.9919 67.0843 10.9919ZM73.152 12.3359V3.93594H74.8V5.66394L74.512 5.85594C74.6187 5.4826 74.8267 5.14127 75.136 4.83194C75.4453 4.51194 75.8133 4.25594 76.24 4.06394C76.6667 3.86127 77.104 3.75994 77.552 3.75994C78.192 3.75994 78.7253 3.88794 79.152 4.14394C79.5787 4.38927 79.8987 4.76794 80.112 5.27994C80.3253 5.79194 80.432 6.43727 80.432 7.21594V12.3359H78.784V7.32794C78.784 6.84794 78.72 6.45327 78.592 6.14394C78.464 5.82394 78.2667 5.5946 78 5.45594C77.7333 5.3066 77.4027 5.2426 77.008 5.26394C76.688 5.26394 76.3947 5.31727 76.128 5.42394C75.8613 5.51994 75.6267 5.6586 75.424 5.83994C75.232 6.02127 75.0773 6.2346 74.96 6.47994C74.8533 6.7146 74.8 6.9706 74.8 7.24794V12.3359H73.984C73.8453 12.3359 73.7067 12.3359 73.568 12.3359C73.4293 12.3359 73.2907 12.3359 73.152 12.3359ZM90.928 12.4959C90.1067 12.4959 89.3707 12.3093 88.72 11.9359C88.08 11.5519 87.5733 11.0346 87.2 10.3839C86.8267 9.7226 86.64 8.9706 86.64 8.12794C86.64 7.28527 86.8267 6.5386 87.2 5.88794C87.5733 5.2266 88.08 4.70927 88.72 4.33594C89.3707 3.95194 90.1067 3.75994 90.928 3.75994C91.7387 3.75994 92.464 3.95194 93.104 4.33594C93.7547 4.70927 94.2667 5.2266 94.64 5.88794C95.0133 6.5386 95.2 7.28527 95.2 8.12794C95.2 8.9706 95.0133 9.7226 94.64 10.3839C94.2667 11.0346 93.7547 11.5519 93.104 11.9359C92.464 12.3093 91.7387 12.4959 90.928 12.4959ZM90.928 10.9919C91.4293 10.9919 91.8773 10.8693 92.272 10.6239C92.6667 10.3679 92.976 10.0266 93.2 9.59994C93.424 9.1626 93.5307 8.67194 93.52 8.12794C93.5307 7.57327 93.424 7.0826 93.2 6.65594C92.976 6.2186 92.6667 5.87727 92.272 5.63194C91.8773 5.3866 91.4293 5.26394 90.928 5.26394C90.4267 5.26394 89.9733 5.39194 89.568 5.64794C89.1733 5.89327 88.864 6.2346 88.64 6.67194C88.416 7.0986 88.3093 7.58394 88.32 8.12794C88.3093 8.67194 88.416 9.1626 88.64 9.59994C88.864 10.0266 89.1733 10.3679 89.568 10.6239C89.9733 10.8693 90.4267 10.9919 90.928 10.9919ZM97.5953 12.3359V2.99194C97.5953 2.51194 97.7019 2.08527 97.9153 1.71194C98.1286 1.3386 98.4219 1.04527 98.7953 0.831937C99.1686 0.618604 99.6006 0.511937 100.091 0.511937C100.433 0.511937 100.753 0.575937 101.051 0.703937C101.35 0.831937 101.59 1.0026 101.771 1.21594L101.211 2.47994C101.073 2.35194 100.918 2.2506 100.747 2.17594C100.587 2.0906 100.433 2.04794 100.283 2.04794C100.059 2.04794 99.8673 2.08527 99.7073 2.15994C99.5579 2.22394 99.4459 2.3306 99.3713 2.47994C99.2966 2.6186 99.2593 2.78927 99.2593 2.99194V12.3359H98.4273C98.2886 12.3359 98.1499 12.3359 98.0113 12.3359C97.8726 12.3359 97.7339 12.3359 97.5953 12.3359ZM96.2513 5.59994V4.07994H101.243V5.59994H96.2513ZM107.865 12.3359V1.13594H112.249C113.049 1.13594 113.769 1.26927 114.409 1.53594C115.06 1.8026 115.614 2.1866 116.073 2.68794C116.532 3.18927 116.884 3.78127 117.129 4.46394C117.374 5.1466 117.497 5.90394 117.497 6.73594C117.497 7.56794 117.374 8.3306 117.129 9.02394C116.884 9.7066 116.532 10.2986 116.073 10.7999C115.625 11.2906 115.076 11.6693 114.425 11.9359C113.774 12.2026 113.049 12.3359 112.249 12.3359H107.865ZM109.593 10.8479L109.545 10.6719H112.169C112.734 10.6719 113.236 10.5813 113.673 10.3999C114.121 10.2186 114.494 9.9626 114.793 9.63194C115.102 9.2906 115.337 8.8746 115.497 8.38394C115.657 7.89327 115.737 7.34394 115.737 6.73594C115.737 6.12794 115.657 5.58394 115.497 5.10394C115.337 4.61327 115.102 4.19727 114.793 3.85594C114.484 3.5146 114.11 3.25327 113.673 3.07194C113.236 2.8906 112.734 2.79994 112.169 2.79994H109.497L109.593 2.65594V10.8479ZM121.477 12.3359V2.79994H118.341V1.13594H126.437V2.79994H123.205V12.3359H121.477ZM133.052 12.3359V1.13594H137.436C138.236 1.13594 138.956 1.26927 139.596 1.53594C140.247 1.8026 140.802 2.1866 141.26 2.68794C141.719 3.18927 142.071 3.78127 142.316 4.46394C142.562 5.1466 142.684 5.90394 142.684 6.73594C142.684 7.56794 142.562 8.3306 142.316 9.02394C142.071 9.7066 141.719 10.2986 141.26 10.7999C140.812 11.2906 140.263 11.6693 139.612 11.9359C138.962 12.2026 138.236 12.3359 137.436 12.3359H133.052ZM134.78 10.8479L134.732 10.6719H137.356C137.922 10.6719 138.423 10.5813 138.86 10.3999C139.308 10.2186 139.682 9.9626 139.98 9.63194C140.29 9.2906 140.524 8.8746 140.684 8.38394C140.844 7.89327 140.924 7.34394 140.924 6.73594C140.924 6.12794 140.844 5.58394 140.684 5.10394C140.524 4.61327 140.29 4.19727 139.98 3.85594C139.671 3.5146 139.298 3.25327 138.86 3.07194C138.423 2.8906 137.922 2.79994 137.356 2.79994H134.684L134.78 2.65594V10.8479ZM149.565 12.4959C148.786 12.4959 148.072 12.3573 147.421 12.0799C146.77 11.8026 146.205 11.4079 145.725 10.8959C145.245 10.3733 144.872 9.75994 144.605 9.05594C144.349 8.35194 144.221 7.5786 144.221 6.73594C144.221 5.93594 144.36 5.1946 144.637 4.51194C144.925 3.8186 145.32 3.2106 145.821 2.68794C146.322 2.16527 146.904 1.75994 147.565 1.47194C148.226 1.18394 148.941 1.03994 149.709 1.03994C150.253 1.03994 150.781 1.12527 151.293 1.29594C151.816 1.45594 152.285 1.68527 152.701 1.98394C153.128 2.27194 153.474 2.6026 153.741 2.97594L152.589 4.17594C152.28 3.8666 151.965 3.6106 151.645 3.40794C151.336 3.1946 151.016 3.0346 150.685 2.92794C150.365 2.82127 150.04 2.76794 149.709 2.76794C149.186 2.76794 148.696 2.86927 148.237 3.07194C147.789 3.26394 147.394 3.53594 147.053 3.88794C146.722 4.23994 146.461 4.66127 146.269 5.15194C146.077 5.63194 145.981 6.15994 145.981 6.73594C145.981 7.34394 146.072 7.8986 146.253 8.39994C146.445 8.8906 146.712 9.31194 147.053 9.66394C147.394 10.0159 147.8 10.2879 148.269 10.4799C148.749 10.6613 149.277 10.7519 149.853 10.7519C150.205 10.7519 150.552 10.7039 150.893 10.6079C151.234 10.5119 151.554 10.3733 151.853 10.1919C152.152 10.0106 152.424 9.79727 152.669 9.55194L153.533 10.9599C153.288 11.2479 152.952 11.5093 152.525 11.7439C152.109 11.9786 151.64 12.1653 151.117 12.3039C150.605 12.4319 150.088 12.4959 149.565 12.4959ZM159.337 12.4959C158.729 12.4959 158.163 12.4159 157.641 12.2559C157.129 12.0959 156.659 11.8559 156.233 11.5359C155.817 11.2053 155.443 10.7999 155.113 10.3199L156.297 8.95994C156.819 9.7066 157.321 10.2239 157.801 10.5119C158.281 10.7999 158.851 10.9439 159.513 10.9439C159.918 10.9439 160.286 10.8799 160.617 10.7519C160.947 10.6239 161.209 10.4479 161.401 10.2239C161.593 9.99994 161.689 9.74394 161.689 9.45594C161.689 9.26394 161.657 9.0826 161.593 8.91194C161.529 8.74127 161.427 8.5866 161.289 8.44794C161.161 8.30927 160.99 8.18127 160.777 8.06394C160.574 7.9466 160.334 7.84527 160.057 7.75994C159.779 7.66394 159.459 7.58394 159.097 7.51994C158.521 7.4026 158.019 7.24794 157.593 7.05594C157.166 6.86394 156.809 6.62394 156.521 6.33594C156.233 6.04794 156.019 5.7226 155.881 5.35994C155.742 4.9866 155.673 4.5706 155.673 4.11194C155.673 3.66394 155.769 3.24794 155.961 2.86394C156.163 2.47994 156.435 2.14927 156.777 1.87194C157.129 1.58394 157.539 1.36527 158.009 1.21594C158.478 1.05594 158.985 0.975937 159.529 0.975937C160.105 0.975937 160.633 1.0506 161.113 1.19994C161.593 1.34927 162.019 1.57327 162.392 1.87194C162.766 2.15994 163.075 2.51727 163.321 2.94394L162.105 4.14394C161.891 3.79194 161.651 3.4986 161.385 3.26394C161.118 3.0186 160.825 2.83727 160.505 2.71994C160.185 2.59194 159.843 2.52794 159.481 2.52794C159.065 2.52794 158.702 2.59194 158.393 2.71994C158.083 2.84794 157.838 3.02927 157.657 3.26394C157.486 3.48794 157.401 3.7546 157.401 4.06394C157.401 4.28794 157.443 4.49594 157.529 4.68794C157.614 4.86927 157.742 5.0346 157.913 5.18394C158.094 5.3226 158.334 5.4506 158.633 5.56794C158.931 5.6746 159.289 5.7706 159.705 5.85594C160.291 5.98394 160.814 6.14927 161.273 6.35194C161.731 6.54394 162.121 6.77327 162.441 7.03994C162.761 7.3066 163.001 7.60527 163.161 7.93594C163.331 8.2666 163.417 8.62394 163.417 9.00794C163.417 9.7226 163.251 10.3413 162.921 10.8639C162.59 11.3866 162.121 11.7919 161.513 12.0799C160.905 12.3573 160.179 12.4959 159.337 12.4959ZM165.865 12.3359V1.13594H170.633C171.273 1.13594 171.86 1.29594 172.393 1.61594C172.937 1.92527 173.369 2.35194 173.689 2.89594C174.009 3.42927 174.169 4.03194 174.169 4.70394C174.169 5.31194 174.009 5.87727 173.689 6.39994C173.369 6.9226 172.942 7.34394 172.409 7.66394C171.876 7.97327 171.284 8.12794 170.633 8.12794H167.593V12.3359H165.865ZM172.521 12.3359L169.673 7.27994L171.449 6.87994L174.617 12.3519L172.521 12.3359ZM167.593 6.46394H170.793C171.102 6.46394 171.38 6.38927 171.625 6.23994C171.87 6.07994 172.062 5.8666 172.201 5.59994C172.34 5.3226 172.409 5.0186 172.409 4.68794C172.409 4.3146 172.318 3.98927 172.137 3.71194C171.966 3.42394 171.721 3.19994 171.401 3.03994C171.092 2.87994 170.74 2.79994 170.345 2.79994H167.593V6.46394ZM184.77 12.3359L180.29 1.13594H182.258L184.93 7.93594C185.058 8.2666 185.17 8.56527 185.266 8.83194C185.373 9.0986 185.464 9.34394 185.538 9.56794C185.613 9.78127 185.682 9.98394 185.746 10.1759C185.81 10.3679 185.874 10.5599 185.938 10.7519L185.522 10.7679C185.597 10.5119 185.677 10.2453 185.762 9.96794C185.848 9.6906 185.944 9.3866 186.05 9.05594C186.168 8.72527 186.306 8.35194 186.466 7.93594L188.946 1.13594H190.962L186.45 12.3359H184.77ZM192.832 12.3359L192.304 11.0239L195.728 7.16794C195.909 6.97594 196.096 6.75727 196.288 6.51194C196.49 6.25594 196.682 5.9946 196.864 5.72794C197.045 5.46127 197.189 5.19994 197.296 4.94394C197.413 4.67727 197.472 4.4266 197.472 4.19194C197.472 3.8506 197.402 3.5626 197.264 3.32794C197.136 3.0826 196.944 2.89594 196.688 2.76794C196.442 2.63994 196.144 2.57594 195.792 2.57594C195.482 2.57594 195.178 2.6666 194.88 2.84794C194.581 3.02927 194.309 3.28527 194.064 3.61594C193.818 3.9466 193.626 4.3306 193.488 4.76794L192.16 3.93594C192.341 3.31727 192.613 2.78927 192.976 2.35194C193.349 1.90394 193.792 1.5626 194.304 1.32794C194.826 1.09327 195.392 0.975937 196 0.975937C196.629 0.975937 197.189 1.10927 197.68 1.37594C198.17 1.63194 198.554 1.9946 198.832 2.46394C199.109 2.9226 199.248 3.45594 199.248 4.06394C199.248 4.30927 199.221 4.55994 199.168 4.81594C199.114 5.07194 199.029 5.3386 198.912 5.61594C198.794 5.8826 198.645 6.16527 198.464 6.46394C198.282 6.75194 198.064 7.05594 197.808 7.37594C197.562 7.69594 197.28 8.03194 196.96 8.38394L194.416 11.1519L194.096 10.6719H199.6V12.3359H192.832ZM203.805 12.3359V2.79994H200.669V1.13594H208.765V2.79994H205.533V12.3359H203.805ZM210.896 12.3359V1.13594H217.952V2.79994H212.624V10.6719H217.952V12.3359H210.896ZM211.68 7.42394V5.75994H217.072V7.42394H211.68ZM225.209 12.3359V1.13594H229.593C230.393 1.13594 231.113 1.26927 231.753 1.53594C232.403 1.8026 232.958 2.1866 233.417 2.68794C233.875 3.18927 234.227 3.78127 234.473 4.46394C234.718 5.1466 234.841 5.90394 234.841 6.73594C234.841 7.56794 234.718 8.3306 234.473 9.02394C234.227 9.7066 233.875 10.2986 233.417 10.7999C232.969 11.2906 232.419 11.6693 231.769 11.9359C231.118 12.2026 230.393 12.3359 229.593 12.3359H225.209ZM226.937 10.8479L226.889 10.6719H229.513C230.078 10.6719 230.579 10.5813 231.017 10.3999C231.465 10.2186 231.838 9.9626 232.137 9.63194C232.446 9.2906 232.681 8.8746 232.841 8.38394C233.001 7.89327 233.081 7.34394 233.081 6.73594C233.081 6.12794 233.001 5.58394 232.841 5.10394C232.681 4.61327 232.446 4.19727 232.137 3.85594C231.827 3.5146 231.454 3.25327 231.017 3.07194C230.579 2.8906 230.078 2.79994 229.513 2.79994H226.841L226.937 2.65594V10.8479ZM237.033 12.3359V3.93594H238.681V12.3359H237.033ZM237.833 2.07994C237.481 2.07994 237.209 1.98927 237.017 1.80794C236.825 1.6266 236.729 1.3706 236.729 1.03994C236.729 0.730604 236.825 0.479937 237.017 0.287937C237.22 0.0959371 237.492 -6.29425e-05 237.833 -6.29425e-05C238.185 -6.29425e-05 238.457 0.0906038 238.649 0.271937C238.841 0.45327 238.937 0.70927 238.937 1.03994C238.937 1.34927 238.836 1.59994 238.633 1.79194C238.441 1.98394 238.175 2.07994 237.833 2.07994ZM241.215 12.3359V3.93594H242.879V6.57594L242.719 5.93594C242.836 5.5306 243.033 5.1626 243.311 4.83194C243.599 4.50127 243.924 4.23994 244.286 4.04794C244.66 3.85594 245.044 3.75994 245.439 3.75994C245.62 3.75994 245.791 3.77594 245.951 3.80794C246.121 3.83994 246.255 3.87727 246.351 3.91994L245.919 5.71194C245.791 5.6586 245.647 5.61594 245.487 5.58394C245.337 5.54127 245.188 5.51994 245.039 5.51994C244.751 5.51994 244.473 5.5786 244.207 5.69594C243.951 5.8026 243.721 5.95727 243.519 6.15994C243.327 6.35194 243.172 6.58127 243.055 6.84794C242.937 7.10394 242.879 7.3866 242.879 7.69594V12.3359H241.215ZM251.228 12.4959C250.364 12.4959 249.596 12.3146 248.924 11.9519C248.263 11.5786 247.74 11.0719 247.356 10.4319C246.983 9.79194 246.796 9.05594 246.796 8.22394C246.796 7.5626 246.903 6.95994 247.116 6.41594C247.33 5.87194 247.623 5.4026 247.996 5.00794C248.38 4.6026 248.834 4.29327 249.356 4.07994C249.89 3.85594 250.466 3.74394 251.084 3.74394C251.628 3.74394 252.135 3.8506 252.604 4.06394C253.074 4.2666 253.479 4.54927 253.82 4.91194C254.172 5.2746 254.439 5.7066 254.62 6.20794C254.812 6.6986 254.903 7.23727 254.892 7.82394L254.876 8.52794H248.012L247.644 7.21594H253.452L253.212 7.48794V7.10394C253.18 6.75194 253.063 6.43727 252.86 6.15994C252.658 5.8826 252.402 5.66394 252.092 5.50394C251.783 5.34394 251.447 5.26394 251.084 5.26394C250.508 5.26394 250.023 5.37594 249.628 5.59994C249.234 5.81327 248.935 6.13327 248.732 6.55994C248.53 6.97594 248.428 7.49327 248.428 8.11194C248.428 8.6986 248.551 9.2106 248.796 9.64794C249.042 10.0746 249.388 10.4053 249.836 10.6399C250.284 10.8746 250.802 10.9919 251.388 10.9919C251.804 10.9919 252.188 10.9226 252.54 10.7839C252.903 10.6453 253.292 10.3946 253.708 10.0319L254.54 11.1999C254.284 11.4559 253.97 11.6799 253.596 11.8719C253.234 12.0639 252.844 12.2186 252.428 12.3359C252.023 12.4426 251.623 12.4959 251.228 12.4959ZM260.251 12.4959C259.473 12.4959 258.774 12.3039 258.155 11.9199C257.547 11.5359 257.062 11.0133 256.699 10.3519C256.347 9.6906 256.171 8.94927 256.171 8.12794C256.171 7.3066 256.347 6.56527 256.699 5.90394C257.062 5.2426 257.547 4.71994 258.155 4.33594C258.774 3.95194 259.473 3.75994 260.251 3.75994C260.998 3.75994 261.675 3.9146 262.283 4.22394C262.902 4.5226 263.371 4.93327 263.691 5.45594L262.779 6.57594C262.609 6.3306 262.39 6.1066 262.123 5.90394C261.857 5.70127 261.574 5.54127 261.275 5.42394C260.977 5.3066 260.689 5.24794 260.411 5.24794C259.899 5.24794 259.441 5.37594 259.035 5.63194C258.641 5.87727 258.326 6.2186 258.091 6.65594C257.857 7.09327 257.739 7.58394 257.739 8.12794C257.739 8.67194 257.862 9.1626 258.107 9.59994C258.353 10.0266 258.678 10.3679 259.083 10.6239C259.489 10.8799 259.937 11.0079 260.427 11.0079C260.715 11.0079 260.993 10.9599 261.259 10.8639C261.537 10.7679 261.803 10.6239 262.059 10.4319C262.315 10.2399 262.555 10.0053 262.779 9.72794L263.691 10.8479C263.35 11.3279 262.859 11.7226 262.219 12.0319C261.59 12.3413 260.934 12.4959 260.251 12.4959ZM266.286 12.3359V1.79194H267.934V12.3359H266.286ZM264.542 5.53594V3.93594H269.886V5.53594H264.542ZM276.287 12.3359V1.13594H280.671C281.471 1.13594 282.191 1.26927 282.831 1.53594C283.481 1.8026 284.036 2.1866 284.495 2.68794C284.953 3.18927 285.305 3.78127 285.551 4.46394C285.796 5.1466 285.919 5.90394 285.919 6.73594C285.919 7.56794 285.796 8.3306 285.551 9.02394C285.305 9.7066 284.953 10.2986 284.495 10.7999C284.047 11.2906 283.497 11.6693 282.847 11.9359C282.196 12.2026 281.471 12.3359 280.671 12.3359H276.287ZM278.015 10.8479L277.967 10.6719H280.591C281.156 10.6719 281.657 10.5813 282.095 10.3999C282.543 10.2186 282.916 9.9626 283.215 9.63194C283.524 9.2906 283.759 8.8746 283.919 8.38394C284.079 7.89327 284.159 7.34394 284.159 6.73594C284.159 6.12794 284.079 5.58394 283.919 5.10394C283.759 4.61327 283.524 4.19727 283.215 3.85594C282.905 3.5146 282.532 3.25327 282.095 3.07194C281.657 2.8906 281.156 2.79994 280.591 2.79994H277.919L278.015 2.65594V10.8479ZM287.84 12.3359V3.93594H289.504V6.57594L289.344 5.93594C289.461 5.5306 289.658 5.1626 289.936 4.83194C290.224 4.50127 290.549 4.23994 290.911 4.04794C291.285 3.85594 291.669 3.75994 292.064 3.75994C292.245 3.75994 292.416 3.77594 292.576 3.80794C292.746 3.83994 292.88 3.87727 292.976 3.91994L292.544 5.71194C292.416 5.6586 292.272 5.61594 292.112 5.58394C291.962 5.54127 291.813 5.51994 291.664 5.51994C291.376 5.51994 291.098 5.5786 290.832 5.69594C290.576 5.8026 290.346 5.95727 290.144 6.15994C289.952 6.35194 289.797 6.58127 289.68 6.84794C289.562 7.10394 289.504 7.3866 289.504 7.69594V12.3359H287.84ZM294.565 12.3359V3.93594H296.213V12.3359H294.565ZM295.365 2.07994C295.013 2.07994 294.741 1.98927 294.549 1.80794C294.357 1.6266 294.261 1.3706 294.261 1.03994C294.261 0.730604 294.357 0.479937 294.549 0.287937C294.751 0.0959371 295.023 -6.29425e-05 295.365 -6.29425e-05C295.717 -6.29425e-05 295.989 0.0906038 296.181 0.271937C296.373 0.45327 296.469 0.70927 296.469 1.03994C296.469 1.34927 296.367 1.59994 296.165 1.79194C295.973 1.98394 295.706 2.07994 295.365 2.07994ZM301.498 12.3359L297.946 3.93594H299.722L302.282 10.2239L301.978 10.3679L304.714 3.93594H306.41L302.682 12.3359H301.498ZM311.603 12.4959C310.739 12.4959 309.971 12.3146 309.299 11.9519C308.638 11.5786 308.115 11.0719 307.731 10.4319C307.358 9.79194 307.171 9.05594 307.171 8.22394C307.171 7.5626 307.278 6.95994 307.491 6.41594C307.705 5.87194 307.998 5.4026 308.371 5.00794C308.755 4.6026 309.209 4.29327 309.731 4.07994C310.265 3.85594 310.841 3.74394 311.459 3.74394C312.003 3.74394 312.51 3.8506 312.979 4.06394C313.449 4.2666 313.854 4.54927 314.195 4.91194C314.547 5.2746 314.814 5.7066 314.995 6.20794C315.187 6.6986 315.278 7.23727 315.267 7.82394L315.251 8.52794H308.387L308.019 7.21594H313.827L313.587 7.48794V7.10394C313.555 6.75194 313.438 6.43727 313.235 6.15994C313.033 5.8826 312.777 5.66394 312.467 5.50394C312.158 5.34394 311.822 5.26394 311.459 5.26394C310.883 5.26394 310.398 5.37594 310.003 5.59994C309.609 5.81327 309.31 6.13327 309.107 6.55994C308.905 6.97594 308.803 7.49327 308.803 8.11194C308.803 8.6986 308.926 9.2106 309.171 9.64794C309.417 10.0746 309.763 10.4053 310.211 10.6399C310.659 10.8746 311.177 10.9919 311.763 10.9919C312.179 10.9919 312.563 10.9226 312.915 10.7839C313.278 10.6453 313.667 10.3946 314.083 10.0319L314.915 11.1999C314.659 11.4559 314.345 11.6799 313.971 11.8719C313.609 12.0639 313.219 12.2186 312.803 12.3359C312.398 12.4426 311.998 12.4959 311.603 12.4959Z" fill="white"/>
</svg>
