<svg width="253" height="43" viewBox="0 0 253 43" fill="none" xmlns="http://www.w3.org/2000/svg">
<path d="M1.50609 13.0801V0.200077H3.42609L10.1461 9.68008V0.200077H12.3061V13.0801H10.3861L3.68609 3.62008V13.0801H1.50609ZM14.8459 13.0801V0.200077H23.8259V1.90008H17.0259V5.80008H23.0859V7.48008H17.0259V11.4001H23.8259V13.0801H14.8459ZM25.842 13.0801V0.200077H34.822V1.90008H28.022V5.80008H34.082V7.48008H28.022V11.4001H34.822V13.0801H25.842ZM36.8381 13.0801V0.200077H42.0581C43.9648 0.200077 45.3781 0.706744 46.2981 1.72008C47.2181 2.72008 47.6781 4.38674 47.6781 6.72008C47.6781 8.92008 47.2248 10.5334 46.3181 11.5601C45.4115 12.5734 43.9915 13.0801 42.0581 13.0801H36.8381ZM39.0181 11.4001H41.7181C42.5581 11.4001 43.2581 11.2801 43.8181 11.0401C44.3781 10.7867 44.7981 10.3201 45.0781 9.64008C45.3581 8.96008 45.4981 7.98674 45.4981 6.72008C45.4981 5.45341 45.3715 4.47341 45.1181 3.78008C44.8648 3.08674 44.4581 2.60008 43.8981 2.32008C43.3515 2.04008 42.6248 1.90008 41.7181 1.90008H39.0181V11.4001ZM58.3358 13.2801C56.6691 13.2801 55.3291 13.0667 54.3158 12.6401V10.7201C54.8891 10.9334 55.5024 11.1067 56.1558 11.2401C56.8224 11.3734 57.4824 11.4401 58.1358 11.4401C59.1624 11.4401 59.9291 11.3201 60.4358 11.0801C60.9558 10.8401 61.2158 10.3601 61.2158 9.64008C61.2158 9.20008 61.1091 8.84674 60.8958 8.58008C60.6824 8.31341 60.3291 8.08674 59.8358 7.90008C59.3424 7.70008 58.6624 7.49341 57.7958 7.28008C56.4091 6.92008 55.4358 6.46674 54.8758 5.92008C54.3158 5.36008 54.0358 4.59341 54.0358 3.62008C54.0358 2.48674 54.4491 1.60008 55.2758 0.960078C56.1024 0.320077 57.3358 7.72476e-05 58.9758 7.72476e-05C59.7224 7.72476e-05 60.4224 0.0534107 61.0758 0.160078C61.7424 0.266744 62.2624 0.386744 62.6358 0.520078V2.44008C61.6224 2.05341 60.5024 1.86008 59.2758 1.86008C58.3158 1.86008 57.5691 1.98674 57.0358 2.24008C56.5024 2.49341 56.2358 2.95341 56.2358 3.62008C56.2358 4.00674 56.3291 4.32008 56.5158 4.56008C56.7024 4.80008 57.0224 5.00674 57.4758 5.18008C57.9424 5.35341 58.5824 5.54674 59.3958 5.76008C60.4491 6.02674 61.2624 6.34674 61.8358 6.72008C62.4224 7.08008 62.8291 7.50674 63.0558 8.00008C63.2958 8.48008 63.4158 9.02674 63.4158 9.64008C63.4158 10.7734 62.9958 11.6667 62.1558 12.3201C61.3158 12.9601 60.0424 13.2801 58.3358 13.2801ZM71.2295 13.2801C69.1895 13.2801 67.6629 12.7467 66.6495 11.6801C65.6362 10.6001 65.1295 8.93341 65.1295 6.68008C65.1295 4.33341 65.6362 2.63341 66.6495 1.58008C67.6629 0.526744 69.1895 7.72476e-05 71.2295 7.72476e-05C73.2829 7.72476e-05 74.8095 0.526744 75.8095 1.58008C76.8229 2.63341 77.3295 4.33341 77.3295 6.68008C77.3295 8.93341 76.8229 10.6001 75.8095 11.6801C74.8095 12.7467 73.2829 13.2801 71.2295 13.2801ZM71.2295 11.4401C72.5762 11.4401 73.5629 11.0734 74.1895 10.3401C74.8295 9.59341 75.1495 8.37341 75.1495 6.68008C75.1495 4.89341 74.8295 3.64674 74.1895 2.94008C73.5629 2.22008 72.5762 1.86008 71.2295 1.86008C69.8962 1.86008 68.9095 2.22008 68.2695 2.94008C67.6429 3.64674 67.3295 4.89341 67.3295 6.68008C67.3295 8.37341 67.6429 9.59341 68.2695 10.3401C68.9095 11.0734 69.8962 11.4401 71.2295 11.4401ZM79.4553 13.0801V0.200077H81.6953L85.7753 8.54008L89.8353 0.200077H92.0753V13.0801H89.9153V3.74008L86.4353 10.8601H85.1153L81.6153 3.74008V13.0801H79.4553ZM94.592 13.0801V0.200077H103.572V1.90008H96.772V5.80008H102.832V7.48008H96.772V11.4001H103.572V13.0801H94.592ZM108.928 13.0801V1.90008H104.808V0.200077H115.208V1.90008H111.108V13.0801H108.928ZM116.955 13.0801V0.200077H119.135V5.80008H125.335V0.200077H127.515V13.0801H125.335V7.48008H119.135V13.0801H116.955ZM130.041 13.0801V0.200077H132.221V13.0801H130.041ZM134.748 13.0801V0.200077H136.668L143.388 9.68008V0.200077H145.548V13.0801H143.628L136.928 3.62008V13.0801H134.748ZM154.088 13.2801C151.968 13.2801 150.368 12.7067 149.288 11.5601C148.221 10.4134 147.688 8.86008 147.688 6.90008C147.688 5.48674 147.921 4.26674 148.388 3.24008C148.855 2.20008 149.561 1.40008 150.508 0.840077C151.468 0.280077 152.681 7.72476e-05 154.148 7.72476e-05C154.908 7.72476e-05 155.595 0.0534107 156.208 0.160078C156.835 0.25341 157.421 0.393411 157.968 0.580078V2.46008C156.875 2.06008 155.661 1.86008 154.328 1.86008C152.688 1.86008 151.535 2.29341 150.868 3.16008C150.215 4.02674 149.888 5.27341 149.888 6.90008C149.888 8.38008 150.235 9.50674 150.928 10.2801C151.621 11.0534 152.695 11.4401 154.148 11.4401C155.295 11.4401 156.221 11.3067 156.928 11.0401V7.44008H153.708V6.02008H158.788V12.2201C158.375 12.4867 157.781 12.7334 157.008 12.9601C156.248 13.1734 155.275 13.2801 154.088 13.2801ZM169.41 13.2801C167.743 13.2801 166.403 13.0667 165.39 12.6401V10.7201C165.963 10.9334 166.577 11.1067 167.23 11.2401C167.897 11.3734 168.557 11.4401 169.21 11.4401C170.237 11.4401 171.003 11.3201 171.51 11.0801C172.03 10.8401 172.29 10.3601 172.29 9.64008C172.29 9.20008 172.183 8.84674 171.97 8.58008C171.757 8.31341 171.403 8.08674 170.91 7.90008C170.417 7.70008 169.737 7.49341 168.87 7.28008C167.483 6.92008 166.51 6.46674 165.95 5.92008C165.39 5.36008 165.11 4.59341 165.11 3.62008C165.11 2.48674 165.523 1.60008 166.35 0.960078C167.177 0.320077 168.41 7.72476e-05 170.05 7.72476e-05C170.797 7.72476e-05 171.497 0.0534107 172.15 0.160078C172.817 0.266744 173.337 0.386744 173.71 0.520078V2.44008C172.697 2.05341 171.577 1.86008 170.35 1.86008C169.39 1.86008 168.643 1.98674 168.11 2.24008C167.577 2.49341 167.31 2.95341 167.31 3.62008C167.31 4.00674 167.403 4.32008 167.59 4.56008C167.777 4.80008 168.097 5.00674 168.55 5.18008C169.017 5.35341 169.657 5.54674 170.47 5.76008C171.523 6.02674 172.337 6.34674 172.91 6.72008C173.497 7.08008 173.903 7.50674 174.13 8.00008C174.37 8.48008 174.49 9.02674 174.49 9.64008C174.49 10.7734 174.07 11.6667 173.23 12.3201C172.39 12.9601 171.117 13.2801 169.41 13.2801ZM176.604 13.0801V0.200077H182.344C183.33 0.200077 184.144 0.386744 184.784 0.760077C185.424 1.13341 185.897 1.64674 186.204 2.30008C186.51 2.94008 186.664 3.67341 186.664 4.50008C186.664 5.78008 186.264 6.80674 185.464 7.58008C184.677 8.35341 183.61 8.74008 182.264 8.74008H178.784V13.0801H176.604ZM178.784 7.02008H181.864C182.73 7.02008 183.384 6.79341 183.824 6.34008C184.264 5.88674 184.484 5.27341 184.484 4.50008C184.484 3.67341 184.27 3.03341 183.844 2.58008C183.43 2.12674 182.804 1.90008 181.964 1.90008H178.784V7.02008ZM188.401 13.0801V0.200077H197.381V1.90008H190.581V5.80008H196.641V7.48008H190.581V11.4001H197.381V13.0801H188.401ZM199.397 13.0801V0.200077H201.577V13.0801H199.397ZM210.144 13.2801C208.024 13.2801 206.417 12.7001 205.324 11.5401C204.244 10.3801 203.704 8.81341 203.704 6.84008C203.704 5.42674 203.93 4.21341 204.384 3.20008C204.85 2.17341 205.557 1.38674 206.504 0.840077C207.45 0.280077 208.657 7.72476e-05 210.124 7.72476e-05C210.87 7.72476e-05 211.55 0.0600773 212.164 0.180077C212.79 0.286744 213.37 0.433411 213.904 0.620078V2.52008C213.37 2.30674 212.797 2.14674 212.184 2.04008C211.584 1.92008 210.95 1.86008 210.284 1.86008C208.684 1.86008 207.55 2.28674 206.884 3.14008C206.23 3.99341 205.904 5.22674 205.904 6.84008C205.904 8.34674 206.264 9.49341 206.984 10.2801C207.704 11.0534 208.817 11.4401 210.324 11.4401C210.937 11.4401 211.55 11.3934 212.164 11.3001C212.79 11.1934 213.377 11.0334 213.924 10.8201V12.7401C213.39 12.9134 212.81 13.0467 212.184 13.1401C211.57 13.2334 210.89 13.2801 210.144 13.2801ZM214.857 13.0801L219.777 0.200077H222.217L227.097 13.0801H224.857L223.577 9.76008H218.397L217.117 13.0801H214.857ZM218.737 8.08008H223.217L220.977 2.18008L218.737 8.08008ZM229.24 13.0801V0.200077H231.42V11.4001H238.02V13.0801H229.24ZM246.178 9.84008V9.40008C246.178 8.86674 246.291 8.40674 246.518 8.02008C246.744 7.63341 247.024 7.28674 247.358 6.98008C247.704 6.67341 248.051 6.38008 248.398 6.10008C248.824 5.75341 249.184 5.41341 249.478 5.08008C249.771 4.73341 249.918 4.31341 249.918 3.82008C249.918 3.11341 249.711 2.61341 249.298 2.32008C248.884 2.01341 248.158 1.86008 247.118 1.86008C246.558 1.86008 245.998 1.93341 245.438 2.08008C244.878 2.21341 244.384 2.38008 243.958 2.58008V0.740077C244.411 0.513411 244.958 0.333411 245.598 0.200077C246.251 0.0667439 246.944 7.72476e-05 247.678 7.72476e-05C249.144 7.72476e-05 250.251 0.326744 250.998 0.980078C251.744 1.62008 252.118 2.51341 252.118 3.66008C252.118 4.40674 251.938 5.01341 251.578 5.48008C251.231 5.93341 250.764 6.40008 250.178 6.88008C249.818 7.18674 249.498 7.46008 249.218 7.70008C248.951 7.94008 248.738 8.20008 248.578 8.48008C248.431 8.74674 248.358 9.08674 248.358 9.50008V9.84008H246.178ZM246.098 13.0801V11.4401H248.418V13.0801H246.098Z" fill="white"/>
<path d="M97.2322 42.0801L102.152 29.2001H105.112L110.012 42.0801H107.212L105.992 38.9801H101.252L100.052 42.0801H97.2322ZM101.652 36.9001H105.592L103.612 31.7201L101.652 36.9001ZM115.23 42.2801C114.523 42.2801 113.85 42.2267 113.21 42.1201C112.57 42.0267 112.057 41.9067 111.67 41.7601V39.5201C112.137 39.7067 112.663 39.8534 113.25 39.9601C113.837 40.0534 114.377 40.1001 114.87 40.1001C115.537 40.1001 116.003 40.0601 116.27 39.9801C116.55 39.9001 116.69 39.7201 116.69 39.4401C116.69 39.1201 116.477 38.8867 116.05 38.7401C115.637 38.5934 115.017 38.3867 114.19 38.1201C113.323 37.8267 112.657 37.4734 112.19 37.0601C111.723 36.6467 111.49 36.0334 111.49 35.2201C111.49 34.3134 111.817 33.6201 112.47 33.1401C113.137 32.6467 114.203 32.4001 115.67 32.4001C116.257 32.4001 116.81 32.4467 117.33 32.5401C117.85 32.6201 118.29 32.7201 118.65 32.8401V35.0601C118.29 34.8867 117.877 34.7601 117.41 34.6801C116.943 34.5867 116.51 34.5401 116.11 34.5401C115.537 34.5401 115.077 34.5801 114.73 34.6601C114.397 34.7401 114.23 34.9134 114.23 35.1801C114.23 35.4734 114.41 35.6801 114.77 35.8001C115.143 35.9201 115.717 36.1001 116.49 36.3401C117.25 36.5667 117.843 36.8134 118.27 37.0801C118.697 37.3467 118.997 37.6667 119.17 38.0401C119.343 38.4001 119.43 38.8534 119.43 39.4001C119.43 41.3201 118.03 42.2801 115.23 42.2801ZM121.304 42.0801V28.6001H124.004V36.0201L127.544 32.6001H130.624L126.804 36.4801L130.844 42.0801H127.984L125.104 37.9001L124.004 38.9601V42.0801H121.304ZM140.488 42.2801C139.354 42.2801 138.468 41.9667 137.828 41.3401C137.201 40.7001 136.888 39.7667 136.888 38.5401V32.6001H139.588V38.4801C139.588 39.1201 139.741 39.5867 140.048 39.8801C140.354 40.1601 140.814 40.3001 141.428 40.3001C141.894 40.3001 142.321 40.2067 142.708 40.0201C143.108 39.8334 143.448 39.6001 143.728 39.3201V32.6001H146.428V42.0801H143.928L143.828 41.1801C143.428 41.5001 142.954 41.7667 142.408 41.9801C141.874 42.1801 141.234 42.2801 140.488 42.2801ZM152.066 42.2801C151.359 42.2801 150.686 42.2267 150.046 42.1201C149.406 42.0267 148.893 41.9067 148.506 41.7601V39.5201C148.973 39.7067 149.499 39.8534 150.086 39.9601C150.673 40.0534 151.213 40.1001 151.706 40.1001C152.373 40.1001 152.839 40.0601 153.106 39.9801C153.386 39.9001 153.526 39.7201 153.526 39.4401C153.526 39.1201 153.313 38.8867 152.886 38.7401C152.473 38.5934 151.853 38.3867 151.026 38.1201C150.159 37.8267 149.493 37.4734 149.026 37.0601C148.559 36.6467 148.326 36.0334 148.326 35.2201C148.326 34.3134 148.653 33.6201 149.306 33.1401C149.973 32.6467 151.039 32.4001 152.506 32.4001C153.093 32.4001 153.646 32.4467 154.166 32.5401C154.686 32.6201 155.126 32.7201 155.486 32.8401V35.0601C155.126 34.8867 154.713 34.7601 154.246 34.6801C153.779 34.5867 153.346 34.5401 152.946 34.5401C152.373 34.5401 151.913 34.5801 151.566 34.6601C151.233 34.7401 151.066 34.9134 151.066 35.1801C151.066 35.4734 151.246 35.6801 151.606 35.8001C151.979 35.9201 152.553 36.1001 153.326 36.3401C154.086 36.5667 154.679 36.8134 155.106 37.0801C155.533 37.3467 155.833 37.6667 156.006 38.0401C156.179 38.4001 156.266 38.8534 156.266 39.4001C156.266 41.3201 154.866 42.2801 152.066 42.2801Z" fill="white"/>
</svg>
