<svg width="212" height="70" viewBox="0 0 212 70" fill="none" xmlns="http://www.w3.org/2000/svg">
<path d="M3.008 23.6797V1.27969H12.736C14.08 1.27969 15.3067 1.59969 16.416 2.23969C17.5253 2.85835 18.4 3.71169 19.04 4.79969C19.7013 5.86635 20.032 7.07169 20.032 8.41569C20.032 9.69569 19.7013 10.8797 19.04 11.9677C18.4 13.0344 17.5253 13.8877 16.416 14.5277C15.328 15.1464 14.1013 15.4557 12.736 15.4557H7.072V23.6797H3.008ZM16 23.6797L10.304 13.5677L14.592 12.7677L20.928 23.7117L16 23.6797ZM7.072 11.8397H12.768C13.3867 11.8397 13.92 11.701 14.368 11.4237C14.8373 11.125 15.2 10.7197 15.456 10.2077C15.712 9.69569 15.84 9.13035 15.84 8.51169C15.84 7.80769 15.68 7.19969 15.36 6.68769C15.04 6.17569 14.592 5.77035 14.016 5.47169C13.44 5.17302 12.7787 5.02369 12.032 5.02369H7.072V11.8397ZM31.7035 23.9997C30.0182 23.9997 28.5142 23.6264 27.1915 22.8797C25.8688 22.1117 24.8235 21.0664 24.0555 19.7437C23.2875 18.421 22.9035 16.917 22.9035 15.2317C22.9035 13.5464 23.2875 12.0424 24.0555 10.7197C24.8235 9.39702 25.8688 8.36235 27.1915 7.61569C28.5142 6.84769 30.0182 6.46369 31.7035 6.46369C33.3675 6.46369 34.8608 6.84769 36.1835 7.61569C37.5062 8.36235 38.5408 9.39702 39.2875 10.7197C40.0555 12.0424 40.4395 13.5464 40.4395 15.2317C40.4395 16.917 40.0555 18.421 39.2875 19.7437C38.5408 21.0664 37.5062 22.1117 36.1835 22.8797C34.8608 23.6264 33.3675 23.9997 31.7035 23.9997ZM31.7035 20.5117C32.6208 20.5117 33.4315 20.277 34.1355 19.8077C34.8608 19.3384 35.4262 18.709 35.8315 17.9197C36.2582 17.1304 36.4608 16.2344 36.4395 15.2317C36.4608 14.2077 36.2582 13.301 35.8315 12.5117C35.4262 11.7224 34.8608 11.1037 34.1355 10.6557C33.4315 10.1864 32.6208 9.95169 31.7035 9.95169C30.7862 9.95169 29.9542 10.1864 29.2075 10.6557C28.4822 11.1037 27.9168 11.733 27.5115 12.5437C27.1062 13.333 26.9035 14.229 26.9035 15.2317C26.9035 16.2344 27.1062 17.1304 27.5115 17.9197C27.9168 18.709 28.4822 19.3384 29.2075 19.8077C29.9542 20.277 30.7862 20.5117 31.7035 20.5117ZM45.7843 23.6797V2.52769H49.7203V23.6797H45.7843ZM42.4563 10.4637V6.81569H53.4003V10.4637H42.4563ZM62.6095 23.9997C61.2228 23.9997 59.9642 23.6157 58.8335 22.8477C57.7028 22.0797 56.7962 21.0344 56.1135 19.7117C55.4308 18.389 55.0895 16.885 55.0895 15.1997C55.0895 13.5144 55.4308 12.0104 56.1135 10.6877C56.7962 9.36502 57.7242 8.33035 58.8975 7.58369C60.0708 6.83702 61.3935 6.46369 62.8655 6.46369C63.7188 6.46369 64.4975 6.59169 65.2015 6.84769C65.9055 7.08235 66.5242 7.42369 67.0575 7.87169C67.5908 8.31969 68.0282 8.83169 68.3695 9.40769C68.7322 9.98369 68.9775 10.6024 69.1055 11.2637L68.2415 11.0397V6.81569H72.2095V23.6797H68.2095V19.6477L69.1375 19.4877C68.9882 20.0637 68.7108 20.629 68.3055 21.1837C67.9215 21.717 67.4308 22.197 66.8335 22.6237C66.2575 23.029 65.6068 23.3597 64.8815 23.6157C64.1775 23.8717 63.4202 23.9997 62.6095 23.9997ZM63.6975 20.5117C64.6148 20.5117 65.4255 20.2877 66.1295 19.8397C66.8335 19.3917 67.3775 18.773 67.7615 17.9837C68.1668 17.173 68.3695 16.245 68.3695 15.1997C68.3695 14.1757 68.1668 13.269 67.7615 12.4797C67.3775 11.6904 66.8335 11.0717 66.1295 10.6237C65.4255 10.1757 64.6148 9.95169 63.6975 9.95169C62.7802 9.95169 61.9695 10.1757 61.2655 10.6237C60.5828 11.0717 60.0495 11.6904 59.6655 12.4797C59.2815 13.269 59.0895 14.1757 59.0895 15.1997C59.0895 16.245 59.2815 17.173 59.6655 17.9837C60.0495 18.773 60.5828 19.3917 61.2655 19.8397C61.9695 20.2877 62.7802 20.5117 63.6975 20.5117ZM76.7728 23.6797V6.81569H80.6448L80.7088 12.1917L80.1648 10.9757C80.3994 10.1224 80.8048 9.35435 81.3808 8.67169C81.9568 7.98902 82.6181 7.45569 83.3648 7.07169C84.1328 6.66635 84.9328 6.46369 85.7648 6.46369C86.1274 6.46369 86.4688 6.49569 86.7888 6.55969C87.1301 6.62369 87.4074 6.69835 87.6208 6.78369L86.5648 11.1037C86.3301 10.9757 86.0421 10.869 85.7008 10.7837C85.3594 10.6984 85.0181 10.6557 84.6768 10.6557C84.1434 10.6557 83.6314 10.7624 83.1408 10.9757C82.6714 11.1677 82.2554 11.445 81.8928 11.8077C81.5301 12.1704 81.2421 12.597 81.0288 13.0877C80.8368 13.557 80.7408 14.0904 80.7408 14.6877V23.6797H76.7728ZM92.8015 31.0397L96.3855 22.7517L96.4175 25.3757L88.0975 6.81569H92.6415L97.2815 17.8237C97.4308 18.101 97.5802 18.4744 97.7295 18.9437C97.8788 19.3917 98.0068 19.8397 98.1135 20.2877L97.3135 20.5437C97.4628 20.1384 97.6228 19.7117 97.7935 19.2637C97.9642 18.7944 98.1242 18.3144 98.2735 17.8237L102.242 6.81569H106.818L99.7775 23.6797L96.8975 31.0397H92.8015ZM125.879 23.6797L116.919 1.27969H121.463L126.455 14.1117C126.711 14.773 126.935 15.3704 127.127 15.9037C127.319 16.4157 127.49 16.885 127.639 17.3117C127.788 17.7384 127.916 18.1544 128.023 18.5597C128.151 18.965 128.29 19.3917 128.439 19.8397H127.543C127.692 19.2637 127.852 18.6984 128.023 18.1437C128.194 17.5677 128.386 16.9597 128.599 16.3197C128.834 15.6797 129.111 14.9437 129.431 14.1117L134.103 1.27969H138.679L129.655 23.6797H125.879ZM145.985 23.9997C144.598 23.9997 143.339 23.6157 142.209 22.8477C141.078 22.0797 140.171 21.0344 139.489 19.7117C138.806 18.389 138.465 16.885 138.465 15.1997C138.465 13.5144 138.806 12.0104 139.489 10.6877C140.171 9.36502 141.099 8.33035 142.273 7.58369C143.446 6.83702 144.769 6.46369 146.241 6.46369C147.094 6.46369 147.873 6.59169 148.577 6.84769C149.281 7.08235 149.899 7.42369 150.433 7.87169C150.966 8.31969 151.403 8.83169 151.745 9.40769C152.107 9.98369 152.353 10.6024 152.481 11.2637L151.617 11.0397V6.81569H155.585V23.6797H151.585V19.6477L152.513 19.4877C152.363 20.0637 152.086 20.629 151.681 21.1837C151.297 21.717 150.806 22.197 150.209 22.6237C149.633 23.029 148.982 23.3597 148.257 23.6157C147.553 23.8717 146.795 23.9997 145.985 23.9997ZM147.073 20.5117C147.99 20.5117 148.801 20.2877 149.505 19.8397C150.209 19.3917 150.753 18.773 151.137 17.9837C151.542 17.173 151.745 16.245 151.745 15.1997C151.745 14.1757 151.542 13.269 151.137 12.4797C150.753 11.6904 150.209 11.0717 149.505 10.6237C148.801 10.1757 147.99 9.95169 147.073 9.95169C146.155 9.95169 145.345 10.1757 144.641 10.6237C143.958 11.0717 143.425 11.6904 143.041 12.4797C142.657 13.269 142.465 14.1757 142.465 15.1997C142.465 16.245 142.657 17.173 143.041 17.9837C143.425 18.773 143.958 19.3917 144.641 19.8397C145.345 20.2877 146.155 20.5117 147.073 20.5117ZM160.18 23.6797V-0.000312805H164.148V23.6797H160.18ZM173.368 23.6797L166.264 6.81569H170.552L175.352 19.4237L174.52 19.6477L179.576 6.81569H183.768L176.312 23.6797H173.368ZM194.083 23.9997C192.312 23.9997 190.744 23.6264 189.379 22.8797C188.035 22.133 186.979 21.1197 186.211 19.8397C185.464 18.5384 185.091 17.0557 185.091 15.3917C185.091 14.069 185.304 12.8637 185.731 11.7757C186.158 10.6877 186.744 9.74902 187.491 8.95969C188.259 8.14902 189.166 7.53035 190.211 7.10369C191.278 6.65569 192.44 6.43169 193.699 6.43169C194.808 6.43169 195.843 6.64502 196.803 7.07169C197.763 7.49835 198.595 8.08502 199.299 8.83169C200.003 9.55702 200.536 10.4317 200.899 11.4557C201.283 12.4584 201.464 13.557 201.443 14.7517L201.411 16.1277H187.747L187.011 13.4397H198.115L197.603 13.9837V13.2797C197.539 12.6184 197.326 12.0424 196.963 11.5517C196.6 11.0397 196.131 10.645 195.555 10.3677C195 10.069 194.382 9.91969 193.699 9.91969C192.654 9.91969 191.768 10.1224 191.043 10.5277C190.339 10.933 189.806 11.5197 189.443 12.2877C189.08 13.0344 188.899 13.973 188.899 15.1037C188.899 16.1917 189.123 17.141 189.571 17.9517C190.04 18.7624 190.691 19.3917 191.523 19.8397C192.376 20.2664 193.368 20.4797 194.499 20.4797C195.288 20.4797 196.014 20.3517 196.675 20.0957C197.336 19.8397 198.051 19.381 198.819 18.7197L200.771 21.4397C200.195 21.973 199.534 22.4317 198.787 22.8157C198.062 23.1784 197.294 23.4664 196.483 23.6797C195.672 23.893 194.872 23.9997 194.083 23.9997Z" fill="#3F3F3F"/>
<path d="M11.376 69.0397C9.912 69.0397 8.568 68.8597 7.344 68.4997C6.12 68.1157 5.016 67.5517 4.032 66.8077C3.048 66.0637 2.172 65.1637 1.404 64.1077L4.464 60.6517C5.64 62.2837 6.792 63.4117 7.92 64.0357C9.048 64.6597 10.32 64.9717 11.736 64.9717C12.552 64.9717 13.296 64.8517 13.968 64.6117C14.64 64.3477 15.168 63.9997 15.552 63.5677C15.936 63.1117 16.128 62.5957 16.128 62.0197C16.128 61.6117 16.044 61.2397 15.876 60.9037C15.732 60.5437 15.504 60.2317 15.192 59.9677C14.88 59.6797 14.496 59.4157 14.04 59.1757C13.584 58.9357 13.068 58.7317 12.492 58.5637C11.916 58.3957 11.28 58.2397 10.584 58.0957C9.264 57.8317 8.112 57.4837 7.128 57.0517C6.144 56.5957 5.316 56.0437 4.644 55.3957C3.972 54.7237 3.48 53.9797 3.168 53.1637C2.856 52.3237 2.7 51.3757 2.7 50.3197C2.7 49.2637 2.928 48.2917 3.384 47.4037C3.864 46.5157 4.512 45.7477 5.328 45.0997C6.144 44.4517 7.092 43.9477 8.172 43.5877C9.252 43.2277 10.416 43.0477 11.664 43.0477C13.08 43.0477 14.34 43.2157 15.444 43.5517C16.572 43.8877 17.556 44.3917 18.396 45.0637C19.26 45.7117 19.968 46.5037 20.52 47.4397L17.424 50.4997C16.944 49.7557 16.404 49.1437 15.804 48.6637C15.204 48.1597 14.556 47.7877 13.86 47.5477C13.164 47.2837 12.432 47.1517 11.664 47.1517C10.8 47.1517 10.044 47.2717 9.396 47.5117C8.772 47.7517 8.28 48.0997 7.92 48.5557C7.56 48.9877 7.38 49.5157 7.38 50.1397C7.38 50.6197 7.488 51.0517 7.704 51.4357C7.92 51.7957 8.22 52.1197 8.604 52.4077C9.012 52.6957 9.528 52.9477 10.152 53.1637C10.776 53.3797 11.484 53.5717 12.276 53.7397C13.596 54.0037 14.784 54.3637 15.84 54.8197C16.896 55.2517 17.796 55.7797 18.54 56.4037C19.284 57.0037 19.848 57.6997 20.232 58.4917C20.616 59.2597 20.808 60.1237 20.808 61.0837C20.808 62.7397 20.412 64.1677 19.62 65.3677C18.852 66.5437 17.76 67.4557 16.344 68.1037C14.928 68.7277 13.272 69.0397 11.376 69.0397ZM25.9543 68.6797V43.4797H36.0703C37.8943 43.4797 39.5383 43.7797 41.0023 44.3797C42.4903 44.9797 43.7623 45.8437 44.8183 46.9717C45.8983 48.0997 46.7143 49.4317 47.2663 50.9677C47.8423 52.5037 48.1303 54.2077 48.1303 56.0797C48.1303 57.9517 47.8423 59.6677 47.2663 61.2277C46.7143 62.7637 45.9103 64.0957 44.8543 65.2237C43.7983 66.3277 42.5263 67.1797 41.0383 67.7797C39.5503 68.3797 37.8943 68.6797 36.0703 68.6797H25.9543ZM30.6343 65.0437L30.2743 64.3597H35.8903C37.0663 64.3597 38.1103 64.1677 39.0223 63.7837C39.9583 63.3997 40.7503 62.8477 41.3983 62.1277C42.0463 61.4077 42.5383 60.5437 42.8743 59.5357C43.2103 58.5037 43.3783 57.3517 43.3783 56.0797C43.3783 54.8077 43.2103 53.6677 42.8743 52.6597C42.5383 51.6277 42.0343 50.7517 41.3623 50.0317C40.7143 49.3117 39.9343 48.7597 39.0223 48.3757C38.1103 47.9917 37.0663 47.7997 35.8903 47.7997H30.1663L30.6343 47.1877V65.0437Z" fill="#038AFF"/>
</svg>
