<svg width="20" height="20" viewBox="0 0 20 20" fill="none" xmlns="http://www.w3.org/2000/svg">
<circle cx="10" cy="10" r="9.5" stroke="#484E53"/>
<path d="M6.24 13.1C5.59333 13.1 5.06667 12.97 4.66 12.71C4.26 12.45 3.96667 12.0767 3.78 11.59C3.59333 11.1033 3.5 10.5267 3.5 9.86C3.5 9.14 3.58667 8.52667 3.76 8.02C3.93333 7.51333 4.22 7.12667 4.62 6.86C5.02 6.59333 5.56 6.46 6.24 6.46C6.91333 6.46 7.45 6.59333 7.85 6.86C8.25 7.12667 8.53667 7.51333 8.71 8.02C8.88333 8.52667 8.97 9.14 8.97 9.86C8.97 10.5267 8.87667 11.1033 8.69 11.59C8.51 12.0767 8.22 12.45 7.82 12.71C7.42 12.97 6.89333 13.1 6.24 13.1ZM6.24 12.4C6.71333 12.4 7.08667 12.2967 7.36 12.09C7.64 11.8767 7.84 11.58 7.96 11.2C8.08667 10.8133 8.15 10.3667 8.15 9.86C8.15 8.98667 8.01 8.32 7.73 7.86C7.45667 7.39333 6.96 7.16 6.24 7.16C5.76 7.16 5.38 7.26333 5.1 7.47C4.82 7.67667 4.62 7.98333 4.5 8.39C4.38 8.79 4.32 9.28 4.32 9.86C4.32 10.3667 4.38 10.8133 4.5 11.2C4.62667 11.58 4.83 11.8767 5.11 12.09C5.39667 12.2967 5.77333 12.4 6.24 12.4ZM12.3946 13.1C11.6079 13.1 11.0079 12.95 10.5946 12.65C10.1813 12.3433 9.97461 11.8933 9.97461 11.3C9.97461 10.9133 10.0779 10.5733 10.2846 10.28C10.4979 9.98667 10.8079 9.78333 11.2146 9.67C10.8413 9.55 10.5713 9.36333 10.4046 9.11C10.2379 8.85 10.1546 8.56667 10.1546 8.26C10.1546 7.71333 10.3413 7.27667 10.7146 6.95C11.0879 6.62333 11.6479 6.46 12.3946 6.46C13.1679 6.46 13.7346 6.62333 14.0946 6.95C14.4546 7.27667 14.6346 7.71333 14.6346 8.26C14.6346 8.58 14.5513 8.87667 14.3846 9.15C14.2246 9.42333 13.9379 9.63 13.5246 9.77C13.9779 9.88333 14.3046 10.0667 14.5046 10.32C14.7113 10.5733 14.8146 10.9 14.8146 11.3C14.8146 11.8933 14.6079 12.3433 14.1946 12.65C13.7879 12.95 13.1879 13.1 12.3946 13.1ZM12.6746 9.51C13.0879 9.41 13.3946 9.27 13.5946 9.09C13.7946 8.90333 13.8946 8.63 13.8946 8.27C13.8946 7.89 13.7646 7.60333 13.5046 7.41C13.2513 7.21 12.8813 7.11 12.3946 7.11C11.9146 7.11 11.5446 7.20667 11.2846 7.4C11.0246 7.58667 10.8946 7.87333 10.8946 8.26C10.8946 8.54667 10.9846 8.78667 11.1646 8.98C11.3446 9.16667 11.5946 9.29333 11.9146 9.36L12.6746 9.51ZM12.3946 12.45C13.5146 12.45 14.0746 12.0633 14.0746 11.29C14.0746 10.9367 13.9679 10.68 13.7546 10.52C13.5479 10.3533 13.2479 10.23 12.8546 10.15L11.9846 9.97C11.5979 10.05 11.2879 10.19 11.0546 10.39C10.8279 10.5833 10.7146 10.88 10.7146 11.28C10.7146 11.68 10.8579 11.9767 11.1446 12.17C11.4313 12.3567 11.8479 12.45 12.3946 12.45Z" fill="#3D3A3A"/>
</svg>
