<svg width="20" height="20" viewBox="0 0 20 20" fill="none" xmlns="http://www.w3.org/2000/svg">
<circle cx="10" cy="10" r="9.5" stroke="#484E53"/>
<path d="M7.24 13.1C6.59333 13.1 6.06667 12.97 5.66 12.71C5.26 12.45 4.96667 12.0767 4.78 11.59C4.59333 11.1033 4.5 10.5267 4.5 9.86C4.5 9.14 4.58667 8.52667 4.76 8.02C4.93333 7.51333 5.22 7.12667 5.62 6.86C6.02 6.59333 6.56 6.46 7.24 6.46C7.91333 6.46 8.45 6.59333 8.85 6.86C9.25 7.12667 9.53667 7.51333 9.71 8.02C9.88333 8.52667 9.97 9.14 9.97 9.86C9.97 10.5267 9.87667 11.1033 9.69 11.59C9.51 12.0767 9.22 12.45 8.82 12.71C8.42 12.97 7.89333 13.1 7.24 13.1ZM7.24 12.4C7.71333 12.4 8.08667 12.2967 8.36 12.09C8.64 11.8767 8.84 11.58 8.96 11.2C9.08667 10.8133 9.15 10.3667 9.15 9.86C9.15 8.98667 9.01 8.32 8.73 7.86C8.45667 7.39333 7.96 7.16 7.24 7.16C6.76 7.16 6.38 7.26333 6.1 7.47C5.82 7.67667 5.62 7.98333 5.5 8.39C5.38 8.79 5.32 9.28 5.32 9.86C5.32 10.3667 5.38 10.8133 5.5 11.2C5.62667 11.58 5.83 11.8767 6.11 12.09C6.39667 12.2967 6.77333 12.4 7.24 12.4ZM13.3946 13.1C12.6079 13.1 12.0079 12.95 11.5946 12.65C11.1813 12.3433 10.9746 11.8933 10.9746 11.3C10.9746 10.9133 11.0779 10.5733 11.2846 10.28C11.4979 9.98667 11.8079 9.78333 12.2146 9.67C11.8413 9.55 11.5713 9.36333 11.4046 9.11C11.2379 8.85 11.1546 8.56667 11.1546 8.26C11.1546 7.71333 11.3413 7.27667 11.7146 6.95C12.0879 6.62333 12.6479 6.46 13.3946 6.46C14.1679 6.46 14.7346 6.62333 15.0946 6.95C15.4546 7.27667 15.6346 7.71333 15.6346 8.26C15.6346 8.58 15.5513 8.87667 15.3846 9.15C15.2246 9.42333 14.9379 9.63 14.5246 9.77C14.9779 9.88333 15.3046 10.0667 15.5046 10.32C15.7113 10.5733 15.8146 10.9 15.8146 11.3C15.8146 11.8933 15.6079 12.3433 15.1946 12.65C14.7879 12.95 14.1879 13.1 13.3946 13.1ZM13.6746 9.51C14.0879 9.41 14.3946 9.27 14.5946 9.09C14.7946 8.90333 14.8946 8.63 14.8946 8.27C14.8946 7.89 14.7646 7.60333 14.5046 7.41C14.2513 7.21 13.8813 7.11 13.3946 7.11C12.9146 7.11 12.5446 7.20667 12.2846 7.4C12.0246 7.58667 11.8946 7.87333 11.8946 8.26C11.8946 8.54667 11.9846 8.78667 12.1646 8.98C12.3446 9.16667 12.5946 9.29333 12.9146 9.36L13.6746 9.51ZM13.3946 12.45C14.5146 12.45 15.0746 12.0633 15.0746 11.29C15.0746 10.9367 14.9679 10.68 14.7546 10.52C14.5479 10.3533 14.2479 10.23 13.8546 10.15L12.9846 9.97C12.5979 10.05 12.2879 10.19 12.0546 10.39C11.8279 10.5833 11.7146 10.88 11.7146 11.28C11.7146 11.68 11.8579 11.9767 12.1446 12.17C12.4313 12.3567 12.8479 12.45 13.3946 12.45Z" fill="#3D3A3A"/>
</svg>
