<svg width="340" height="16" viewBox="0 0 340 16" fill="none" xmlns="http://www.w3.org/2000/svg">
<path d="M1.568 12.3359V1.13594H5.952C6.752 1.13594 7.472 1.26927 8.112 1.53594C8.76267 1.8026 9.31733 2.1866 9.776 2.68794C10.2347 3.18927 10.5867 3.78127 10.832 4.46394C11.0773 5.1466 11.2 5.90394 11.2 6.73594C11.2 7.56794 11.0773 8.3306 10.832 9.02394C10.5867 9.7066 10.2347 10.2986 9.776 10.7999C9.328 11.2906 8.77867 11.6693 8.128 11.9359C7.47733 12.2026 6.752 12.3359 5.952 12.3359H1.568ZM3.296 10.8479L3.248 10.6719H5.872C6.43733 10.6719 6.93867 10.5813 7.376 10.3999C7.824 10.2186 8.19733 9.9626 8.496 9.63194C8.80533 9.2906 9.04 8.8746 9.2 8.38394C9.36 7.89327 9.44 7.34394 9.44 6.73594C9.44 6.12794 9.36 5.58394 9.2 5.10394C9.04 4.61327 8.80533 4.19727 8.496 3.85594C8.18667 3.5146 7.81333 3.25327 7.376 3.07194C6.93867 2.8906 6.43733 2.79994 5.872 2.79994H3.2L3.296 2.65594V10.8479ZM13.3928 12.3359V3.93594H15.0408V12.3359H13.3928ZM14.1928 2.07994C13.8408 2.07994 13.5688 1.98927 13.3768 1.80794C13.1848 1.6266 13.0888 1.3706 13.0888 1.03994C13.0888 0.730604 13.1848 0.479937 13.3768 0.287937C13.5794 0.0959371 13.8514 -6.29425e-05 14.1928 -6.29425e-05C14.5448 -6.29425e-05 14.8168 0.0906038 15.0088 0.271937C15.2008 0.45327 15.2968 0.70927 15.2968 1.03994C15.2968 1.34927 15.1954 1.59994 14.9928 1.79194C14.8008 1.98394 14.5341 2.07994 14.1928 2.07994ZM17.5419 12.3359V3.93594H19.2059V5.72794L18.9019 5.91994C18.9872 5.6426 19.1205 5.37594 19.3019 5.11994C19.4939 4.86394 19.7232 4.63994 19.9899 4.44794C20.2672 4.24527 20.5605 4.08527 20.8699 3.96794C21.1899 3.8506 21.5152 3.79194 21.8459 3.79194C22.3259 3.79194 22.7472 3.87194 23.1099 4.03194C23.4725 4.19194 23.7712 4.43194 24.0059 4.75194C24.2405 5.07194 24.4112 5.47194 24.5179 5.95194L24.2619 5.88794L24.3739 5.61594C24.4912 5.3706 24.6512 5.14127 24.8539 4.92794C25.0672 4.70394 25.3072 4.5066 25.5739 4.33594C25.8405 4.16527 26.1232 4.03194 26.4219 3.93594C26.7205 3.83994 27.0139 3.79194 27.3019 3.79194C27.9312 3.79194 28.4485 3.91994 28.8539 4.17594C29.2699 4.43194 29.5792 4.82127 29.7819 5.34394C29.9952 5.8666 30.1019 6.51727 30.1019 7.29594V12.3359H28.4379V7.39194C28.4379 6.91194 28.3739 6.5226 28.2459 6.22394C28.1285 5.9146 27.9472 5.68527 27.7019 5.53594C27.4565 5.3866 27.1419 5.31194 26.7579 5.31194C26.4592 5.31194 26.1765 5.36527 25.9099 5.47194C25.6539 5.56794 25.4299 5.7066 25.2379 5.88794C25.0459 6.06927 24.8965 6.2826 24.7899 6.52794C24.6832 6.7626 24.6299 7.02394 24.6299 7.31194V12.3359H22.9659V7.35994C22.9659 6.9226 22.9019 6.5546 22.7739 6.25594C22.6459 5.9466 22.4592 5.71194 22.2139 5.55194C21.9685 5.39194 21.6699 5.31194 21.3179 5.31194C21.0192 5.31194 20.7419 5.36527 20.4859 5.47194C20.2299 5.56794 20.0059 5.7066 19.8139 5.88794C19.6219 6.0586 19.4725 6.2666 19.3659 6.51194C19.2592 6.7466 19.2059 7.0026 19.2059 7.27994V12.3359H17.5419ZM36.2283 12.4959C35.3643 12.4959 34.5963 12.3146 33.9243 11.9519C33.2629 11.5786 32.7403 11.0719 32.3563 10.4319C31.9829 9.79194 31.7963 9.05594 31.7963 8.22394C31.7963 7.5626 31.9029 6.95994 32.1163 6.41594C32.3296 5.87194 32.6229 5.4026 32.9963 5.00794C33.3803 4.6026 33.8336 4.29327 34.3563 4.07994C34.8896 3.85594 35.4656 3.74394 36.0843 3.74394C36.6283 3.74394 37.1349 3.8506 37.6043 4.06394C38.0736 4.2666 38.4789 4.54927 38.8203 4.91194C39.1723 5.2746 39.4389 5.7066 39.6203 6.20794C39.8123 6.6986 39.9029 7.23727 39.8923 7.82394L39.8763 8.52794H33.0123L32.6443 7.21594H38.4523L38.2123 7.48794V7.10394C38.1803 6.75194 38.0629 6.43727 37.8603 6.15994C37.6576 5.8826 37.4016 5.66394 37.0923 5.50394C36.7829 5.34394 36.4469 5.26394 36.0843 5.26394C35.5083 5.26394 35.0229 5.37594 34.6283 5.59994C34.2336 5.81327 33.9349 6.13327 33.7323 6.55994C33.5296 6.97594 33.4283 7.49327 33.4283 8.11194C33.4283 8.6986 33.5509 9.2106 33.7963 9.64794C34.0416 10.0746 34.3883 10.4053 34.8363 10.6399C35.2843 10.8746 35.8016 10.9919 36.3883 10.9919C36.8043 10.9919 37.1883 10.9226 37.5403 10.7839C37.9029 10.6453 38.2923 10.3946 38.7083 10.0319L39.5403 11.1999C39.2843 11.4559 38.9696 11.6799 38.5963 11.8719C38.2336 12.0639 37.8443 12.2186 37.4283 12.3359C37.0229 12.4426 36.6229 12.4959 36.2283 12.4959ZM41.6833 12.3359V3.93594H43.3313V5.66394L43.0433 5.85594C43.1499 5.4826 43.3579 5.14127 43.6673 4.83194C43.9766 4.51194 44.3446 4.25594 44.7713 4.06394C45.1979 3.86127 45.6353 3.75994 46.0833 3.75994C46.7233 3.75994 47.2566 3.88794 47.6833 4.14394C48.1099 4.38927 48.4299 4.76794 48.6433 5.27994C48.8566 5.79194 48.9633 6.43727 48.9633 7.21594V12.3359H47.3153V7.32794C47.3153 6.84794 47.2513 6.45327 47.1233 6.14394C46.9953 5.82394 46.7979 5.5946 46.5313 5.45594C46.2646 5.3066 45.9339 5.2426 45.5393 5.26394C45.2193 5.26394 44.9259 5.31727 44.6593 5.42394C44.3926 5.51994 44.1579 5.6586 43.9553 5.83994C43.7633 6.02127 43.6086 6.2346 43.4913 6.47994C43.3846 6.7146 43.3313 6.9706 43.3313 7.24794V12.3359H42.5153C42.3766 12.3359 42.2379 12.3359 42.0993 12.3359C41.9606 12.3359 41.8219 12.3359 41.6833 12.3359ZM53.9989 12.4959C53.2949 12.4959 52.6602 12.3733 52.0949 12.1279C51.5295 11.8826 51.0602 11.5199 50.6869 11.0399L51.8069 10.0799C52.1269 10.4533 52.4735 10.7253 52.8469 10.8959C53.2309 11.0559 53.6629 11.1359 54.1429 11.1359C54.3349 11.1359 54.5109 11.1146 54.6709 11.0719C54.8415 11.0186 54.9855 10.9439 55.1029 10.8479C55.2309 10.7519 55.3269 10.6399 55.3909 10.5119C55.4549 10.3733 55.4869 10.2239 55.4869 10.0639C55.4869 9.7866 55.3855 9.5626 55.1829 9.39194C55.0762 9.31727 54.9055 9.23727 54.6709 9.15194C54.4469 9.05594 54.1535 8.95994 53.7909 8.86394C53.1722 8.70394 52.6655 8.5226 52.2709 8.31994C51.8762 8.11727 51.5722 7.88794 51.3589 7.63194C51.1989 7.42927 51.0815 7.2106 51.0069 6.97594C50.9322 6.7306 50.8949 6.46394 50.8949 6.17594C50.8949 5.82394 50.9695 5.50394 51.1189 5.21594C51.2789 4.91727 51.4922 4.66127 51.7589 4.44794C52.0362 4.22394 52.3562 4.05327 52.7189 3.93594C53.0922 3.8186 53.4869 3.75994 53.9029 3.75994C54.2975 3.75994 54.6869 3.81327 55.0709 3.91994C55.4655 4.0266 55.8282 4.18127 56.1589 4.38394C56.4895 4.5866 56.7669 4.8266 56.9909 5.10394L56.0469 6.14394C55.8442 5.94127 55.6202 5.76527 55.3749 5.61594C55.1402 5.45594 54.9002 5.33327 54.6549 5.24794C54.4095 5.1626 54.1855 5.11994 53.9829 5.11994C53.7589 5.11994 53.5562 5.14127 53.3749 5.18394C53.1935 5.2266 53.0389 5.2906 52.9109 5.37594C52.7935 5.46127 52.7029 5.56794 52.6389 5.69594C52.5749 5.82394 52.5429 5.96794 52.5429 6.12794C52.5535 6.2666 52.5855 6.39994 52.6389 6.52794C52.7029 6.64527 52.7882 6.7466 52.8949 6.83194C53.0122 6.91727 53.1882 7.00794 53.4229 7.10394C53.6575 7.19994 53.9562 7.2906 54.3189 7.37594C54.8522 7.5146 55.2895 7.66927 55.6309 7.83994C55.9829 7.99994 56.2602 8.1866 56.4629 8.39994C56.6762 8.6026 56.8255 8.83727 56.9109 9.10394C56.9962 9.3706 57.0389 9.66927 57.0389 9.99994C57.0389 10.4799 56.9002 10.9119 56.6229 11.2959C56.3562 11.6693 55.9935 11.9626 55.5349 12.1759C55.0762 12.3893 54.5642 12.4959 53.9989 12.4959ZM59.1271 12.3359V3.93594H60.7751V12.3359H59.1271ZM59.9271 2.07994C59.5751 2.07994 59.3031 1.98927 59.1111 1.80794C58.9191 1.6266 58.8231 1.3706 58.8231 1.03994C58.8231 0.730604 58.9191 0.479937 59.1111 0.287937C59.3138 0.0959371 59.5858 -6.29425e-05 59.9271 -6.29425e-05C60.2791 -6.29425e-05 60.5511 0.0906038 60.7431 0.271937C60.9351 0.45327 61.0311 0.70927 61.0311 1.03994C61.0311 1.34927 60.9298 1.59994 60.7271 1.79194C60.5351 1.98394 60.2685 2.07994 59.9271 2.07994ZM67.0843 12.4959C66.2629 12.4959 65.5269 12.3093 64.8763 11.9359C64.2363 11.5519 63.7296 11.0346 63.3563 10.3839C62.9829 9.7226 62.7963 8.9706 62.7963 8.12794C62.7963 7.28527 62.9829 6.5386 63.3563 5.88794C63.7296 5.2266 64.2363 4.70927 64.8763 4.33594C65.5269 3.95194 66.2629 3.75994 67.0843 3.75994C67.8949 3.75994 68.6203 3.95194 69.2603 4.33594C69.9109 4.70927 70.4229 5.2266 70.7963 5.88794C71.1696 6.5386 71.3563 7.28527 71.3563 8.12794C71.3563 8.9706 71.1696 9.7226 70.7963 10.3839C70.4229 11.0346 69.9109 11.5519 69.2603 11.9359C68.6203 12.3093 67.8949 12.4959 67.0843 12.4959ZM67.0843 10.9919C67.5856 10.9919 68.0336 10.8693 68.4283 10.6239C68.8229 10.3679 69.1323 10.0266 69.3563 9.59994C69.5803 9.1626 69.6869 8.67194 69.6763 8.12794C69.6869 7.57327 69.5803 7.0826 69.3563 6.65594C69.1323 6.2186 68.8229 5.87727 68.4283 5.63194C68.0336 5.3866 67.5856 5.26394 67.0843 5.26394C66.5829 5.26394 66.1296 5.39194 65.7243 5.64794C65.3296 5.89327 65.0203 6.2346 64.7963 6.67194C64.5723 7.0986 64.4656 7.58394 64.4763 8.12794C64.4656 8.67194 64.5723 9.1626 64.7963 9.59994C65.0203 10.0266 65.3296 10.3679 65.7243 10.6239C66.1296 10.8693 66.5829 10.9919 67.0843 10.9919ZM73.152 12.3359V3.93594H74.8V5.66394L74.512 5.85594C74.6187 5.4826 74.8267 5.14127 75.136 4.83194C75.4453 4.51194 75.8133 4.25594 76.24 4.06394C76.6667 3.86127 77.104 3.75994 77.552 3.75994C78.192 3.75994 78.7253 3.88794 79.152 4.14394C79.5787 4.38927 79.8987 4.76794 80.112 5.27994C80.3253 5.79194 80.432 6.43727 80.432 7.21594V12.3359H78.784V7.32794C78.784 6.84794 78.72 6.45327 78.592 6.14394C78.464 5.82394 78.2667 5.5946 78 5.45594C77.7333 5.3066 77.4027 5.2426 77.008 5.26394C76.688 5.26394 76.3947 5.31727 76.128 5.42394C75.8613 5.51994 75.6267 5.6586 75.424 5.83994C75.232 6.02127 75.0773 6.2346 74.96 6.47994C74.8533 6.7146 74.8 6.9706 74.8 7.24794V12.3359H73.984C73.8453 12.3359 73.7067 12.3359 73.568 12.3359C73.4293 12.3359 73.2907 12.3359 73.152 12.3359ZM85.4676 12.4959C84.7636 12.4959 84.129 12.3733 83.5636 12.1279C82.9983 11.8826 82.529 11.5199 82.1556 11.0399L83.2756 10.0799C83.5956 10.4533 83.9423 10.7253 84.3156 10.8959C84.6996 11.0559 85.1316 11.1359 85.6116 11.1359C85.8036 11.1359 85.9796 11.1146 86.1396 11.0719C86.3103 11.0186 86.4543 10.9439 86.5716 10.8479C86.6996 10.7519 86.7956 10.6399 86.8596 10.5119C86.9236 10.3733 86.9556 10.2239 86.9556 10.0639C86.9556 9.7866 86.8543 9.5626 86.6516 9.39194C86.545 9.31727 86.3743 9.23727 86.1396 9.15194C85.9156 9.05594 85.6223 8.95994 85.2596 8.86394C84.641 8.70394 84.1343 8.5226 83.7396 8.31994C83.345 8.11727 83.041 7.88794 82.8276 7.63194C82.6676 7.42927 82.5503 7.2106 82.4756 6.97594C82.401 6.7306 82.3636 6.46394 82.3636 6.17594C82.3636 5.82394 82.4383 5.50394 82.5876 5.21594C82.7476 4.91727 82.961 4.66127 83.2276 4.44794C83.505 4.22394 83.825 4.05327 84.1876 3.93594C84.561 3.8186 84.9556 3.75994 85.3716 3.75994C85.7663 3.75994 86.1556 3.81327 86.5396 3.91994C86.9343 4.0266 87.297 4.18127 87.6276 4.38394C87.9583 4.5866 88.2356 4.8266 88.4596 5.10394L87.5156 6.14394C87.313 5.94127 87.089 5.76527 86.8436 5.61594C86.609 5.45594 86.369 5.33327 86.1236 5.24794C85.8783 5.1626 85.6543 5.11994 85.4516 5.11994C85.2276 5.11994 85.025 5.14127 84.8436 5.18394C84.6623 5.2266 84.5076 5.2906 84.3796 5.37594C84.2623 5.46127 84.1716 5.56794 84.1076 5.69594C84.0436 5.82394 84.0116 5.96794 84.0116 6.12794C84.0223 6.2666 84.0543 6.39994 84.1076 6.52794C84.1716 6.64527 84.257 6.7466 84.3636 6.83194C84.481 6.91727 84.657 7.00794 84.8916 7.10394C85.1263 7.19994 85.425 7.2906 85.7876 7.37594C86.321 7.5146 86.7583 7.66927 87.0996 7.83994C87.4516 7.99994 87.729 8.1866 87.9316 8.39994C88.145 8.6026 88.2943 8.83727 88.3796 9.10394C88.465 9.3706 88.5076 9.66927 88.5076 9.99994C88.5076 10.4799 88.369 10.9119 88.0916 11.2959C87.825 11.6693 87.4623 11.9626 87.0036 12.1759C86.545 12.3893 86.033 12.4959 85.4676 12.4959ZM95.2243 12.3359V1.13594H99.6083C100.408 1.13594 101.128 1.26927 101.768 1.53594C102.419 1.8026 102.974 2.1866 103.432 2.68794C103.891 3.18927 104.243 3.78127 104.488 4.46394C104.734 5.1466 104.856 5.90394 104.856 6.73594C104.856 7.56794 104.734 8.3306 104.488 9.02394C104.243 9.7066 103.891 10.2986 103.432 10.7999C102.984 11.2906 102.435 11.6693 101.784 11.9359C101.134 12.2026 100.408 12.3359 99.6083 12.3359H95.2243ZM96.9523 10.8479L96.9043 10.6719H99.5283C100.094 10.6719 100.595 10.5813 101.032 10.3999C101.48 10.2186 101.854 9.9626 102.152 9.63194C102.462 9.2906 102.696 8.8746 102.856 8.38394C103.016 7.89327 103.096 7.34394 103.096 6.73594C103.096 6.12794 103.016 5.58394 102.856 5.10394C102.696 4.61327 102.462 4.19727 102.152 3.85594C101.843 3.5146 101.47 3.25327 101.032 3.07194C100.595 2.8906 100.094 2.79994 99.5283 2.79994H96.8563L96.9523 2.65594V10.8479ZM110.005 12.3359L105.525 1.13594H107.493L110.165 7.93594C110.293 8.2666 110.405 8.56527 110.501 8.83194C110.607 9.0986 110.698 9.34394 110.773 9.56794C110.847 9.78127 110.917 9.98394 110.981 10.1759C111.045 10.3679 111.109 10.5599 111.173 10.7519L110.757 10.7679C110.831 10.5119 110.911 10.2453 110.997 9.96794C111.082 9.6906 111.178 9.3866 111.285 9.05594C111.402 8.72527 111.541 8.35194 111.701 7.93594L114.181 1.13594H116.197L111.685 12.3359H110.005ZM120.43 12.3359V2.79994H117.294V1.13594H125.39V2.79994H122.158V12.3359H120.43ZM135.462 12.4959C134.854 12.4959 134.288 12.4159 133.766 12.2559C133.254 12.0959 132.784 11.8559 132.358 11.5359C131.942 11.2053 131.568 10.7999 131.238 10.3199L132.422 8.95994C132.944 9.7066 133.446 10.2239 133.926 10.5119C134.406 10.7999 134.976 10.9439 135.638 10.9439C136.043 10.9439 136.411 10.8799 136.742 10.7519C137.072 10.6239 137.334 10.4479 137.526 10.2239C137.718 9.99994 137.814 9.74394 137.814 9.45594C137.814 9.26394 137.782 9.0826 137.718 8.91194C137.654 8.74127 137.552 8.5866 137.414 8.44794C137.286 8.30927 137.115 8.18127 136.902 8.06394C136.699 7.9466 136.459 7.84527 136.182 7.75994C135.904 7.66394 135.584 7.58394 135.222 7.51994C134.646 7.4026 134.144 7.24794 133.718 7.05594C133.291 6.86394 132.934 6.62394 132.646 6.33594C132.358 6.04794 132.144 5.7226 132.006 5.35994C131.867 4.9866 131.798 4.5706 131.798 4.11194C131.798 3.66394 131.894 3.24794 132.086 2.86394C132.288 2.47994 132.56 2.14927 132.902 1.87194C133.254 1.58394 133.664 1.36527 134.134 1.21594C134.603 1.05594 135.11 0.975937 135.654 0.975937C136.23 0.975937 136.758 1.0506 137.238 1.19994C137.718 1.34927 138.144 1.57327 138.517 1.87194C138.891 2.15994 139.2 2.51727 139.446 2.94394L138.23 4.14394C138.016 3.79194 137.776 3.4986 137.51 3.26394C137.243 3.0186 136.95 2.83727 136.63 2.71994C136.31 2.59194 135.968 2.52794 135.606 2.52794C135.19 2.52794 134.827 2.59194 134.518 2.71994C134.208 2.84794 133.963 3.02927 133.782 3.26394C133.611 3.48794 133.526 3.7546 133.526 4.06394C133.526 4.28794 133.568 4.49594 133.654 4.68794C133.739 4.86927 133.867 5.0346 134.038 5.18394C134.219 5.3226 134.459 5.4506 134.758 5.56794C135.056 5.6746 135.414 5.7706 135.83 5.85594C136.416 5.98394 136.939 6.14927 137.398 6.35194C137.856 6.54394 138.246 6.77327 138.566 7.03994C138.886 7.3066 139.126 7.60527 139.286 7.93594C139.456 8.2666 139.542 8.62394 139.542 9.00794C139.542 9.7226 139.376 10.3413 139.046 10.8639C138.715 11.3866 138.246 11.7919 137.638 12.0799C137.03 12.3573 136.304 12.4959 135.462 12.4959ZM141.99 12.3359V1.13594H146.374C147.174 1.13594 147.894 1.26927 148.534 1.53594C149.185 1.8026 149.739 2.1866 150.198 2.68794C150.657 3.18927 151.009 3.78127 151.254 4.46394C151.499 5.1466 151.622 5.90394 151.622 6.73594C151.622 7.56794 151.499 8.3306 151.254 9.02394C151.009 9.7066 150.657 10.2986 150.198 10.7999C149.75 11.2906 149.201 11.6693 148.55 11.9359C147.899 12.2026 147.174 12.3359 146.374 12.3359H141.99ZM143.718 10.8479L143.67 10.6719H146.294C146.859 10.6719 147.361 10.5813 147.798 10.3999C148.246 10.2186 148.619 9.9626 148.918 9.63194C149.227 9.2906 149.462 8.8746 149.622 8.38394C149.782 7.89327 149.862 7.34394 149.862 6.73594C149.862 6.12794 149.782 5.58394 149.622 5.10394C149.462 4.61327 149.227 4.19727 148.918 3.85594C148.609 3.5146 148.235 3.25327 147.798 3.07194C147.361 2.8906 146.859 2.79994 146.294 2.79994H143.622L143.718 2.65594V10.8479ZM158.443 12.3359V1.13594H162.827C163.627 1.13594 164.347 1.26927 164.987 1.53594C165.638 1.8026 166.192 2.1866 166.651 2.68794C167.11 3.18927 167.462 3.78127 167.707 4.46394C167.952 5.1466 168.075 5.90394 168.075 6.73594C168.075 7.56794 167.952 8.3306 167.707 9.02394C167.462 9.7066 167.11 10.2986 166.651 10.7999C166.203 11.2906 165.654 11.6693 165.003 11.9359C164.352 12.2026 163.627 12.3359 162.827 12.3359H158.443ZM160.171 10.8479L160.123 10.6719H162.747C163.312 10.6719 163.814 10.5813 164.251 10.3999C164.699 10.2186 165.072 9.9626 165.371 9.63194C165.68 9.2906 165.915 8.8746 166.075 8.38394C166.235 7.89327 166.315 7.34394 166.315 6.73594C166.315 6.12794 166.235 5.58394 166.075 5.10394C165.915 4.61327 165.68 4.19727 165.371 3.85594C165.062 3.5146 164.688 3.25327 164.251 3.07194C163.814 2.8906 163.312 2.79994 162.747 2.79994H160.075L160.171 2.65594V10.8479ZM170.268 12.3359V3.93594H171.916V12.3359H170.268ZM171.068 2.07994C170.716 2.07994 170.444 1.98927 170.252 1.80794C170.06 1.6266 169.964 1.3706 169.964 1.03994C169.964 0.730604 170.06 0.479937 170.252 0.287937C170.454 0.0959371 170.726 -6.29425e-05 171.068 -6.29425e-05C171.42 -6.29425e-05 171.692 0.0906038 171.884 0.271937C172.076 0.45327 172.172 0.70927 172.172 1.03994C172.172 1.34927 172.07 1.59994 171.868 1.79194C171.676 1.98394 171.409 2.07994 171.068 2.07994ZM174.449 12.3359V3.93594H176.113V6.57594L175.953 5.93594C176.07 5.5306 176.268 5.1626 176.545 4.83194C176.833 4.50127 177.158 4.23994 177.521 4.04794C177.894 3.85594 178.278 3.75994 178.673 3.75994C178.854 3.75994 179.025 3.77594 179.185 3.80794C179.356 3.83994 179.489 3.87727 179.585 3.91994L179.153 5.71194C179.025 5.6586 178.881 5.61594 178.721 5.58394C178.572 5.54127 178.422 5.51994 178.273 5.51994C177.985 5.51994 177.708 5.5786 177.441 5.69594C177.185 5.8026 176.956 5.95727 176.753 6.15994C176.561 6.35194 176.406 6.58127 176.289 6.84794C176.172 7.10394 176.113 7.3866 176.113 7.69594V12.3359H174.449ZM184.463 12.4959C183.599 12.4959 182.831 12.3146 182.159 11.9519C181.497 11.5786 180.975 11.0719 180.591 10.4319C180.217 9.79194 180.031 9.05594 180.031 8.22394C180.031 7.5626 180.137 6.95994 180.351 6.41594C180.564 5.87194 180.857 5.4026 181.231 5.00794C181.615 4.6026 182.068 4.29327 182.591 4.07994C183.124 3.85594 183.7 3.74394 184.319 3.74394C184.863 3.74394 185.369 3.8506 185.839 4.06394C186.308 4.2666 186.713 4.54927 187.055 4.91194C187.407 5.2746 187.673 5.7066 187.855 6.20794C188.047 6.6986 188.137 7.23727 188.127 7.82394L188.111 8.52794H181.247L180.879 7.21594H186.687L186.447 7.48794V7.10394C186.415 6.75194 186.297 6.43727 186.095 6.15994C185.892 5.8826 185.636 5.66394 185.327 5.50394C185.017 5.34394 184.681 5.26394 184.319 5.26394C183.743 5.26394 183.257 5.37594 182.863 5.59994C182.468 5.81327 182.169 6.13327 181.967 6.55994C181.764 6.97594 181.663 7.49327 181.663 8.11194C181.663 8.6986 181.785 9.2106 182.031 9.64794C182.276 10.0746 182.623 10.4053 183.071 10.6399C183.519 10.8746 184.036 10.9919 184.623 10.9919C185.039 10.9919 185.423 10.9226 185.775 10.7839C186.137 10.6453 186.527 10.3946 186.943 10.0319L187.775 11.1999C187.519 11.4559 187.204 11.6799 186.831 11.8719C186.468 12.0639 186.079 12.2186 185.663 12.3359C185.257 12.4426 184.857 12.4959 184.463 12.4959ZM193.486 12.4959C192.707 12.4959 192.008 12.3039 191.39 11.9199C190.782 11.5359 190.296 11.0133 189.934 10.3519C189.582 9.6906 189.406 8.94927 189.406 8.12794C189.406 7.3066 189.582 6.56527 189.934 5.90394C190.296 5.2426 190.782 4.71994 191.39 4.33594C192.008 3.95194 192.707 3.75994 193.486 3.75994C194.232 3.75994 194.91 3.9146 195.518 4.22394C196.136 4.5226 196.606 4.93327 196.926 5.45594L196.014 6.57594C195.843 6.3306 195.624 6.1066 195.358 5.90394C195.091 5.70127 194.808 5.54127 194.51 5.42394C194.211 5.3066 193.923 5.24794 193.646 5.24794C193.134 5.24794 192.675 5.37594 192.27 5.63194C191.875 5.87727 191.56 6.2186 191.326 6.65594C191.091 7.09327 190.974 7.58394 190.974 8.12794C190.974 8.67194 191.096 9.1626 191.342 9.59994C191.587 10.0266 191.912 10.3679 192.318 10.6239C192.723 10.8799 193.171 11.0079 193.662 11.0079C193.95 11.0079 194.227 10.9599 194.494 10.8639C194.771 10.7679 195.038 10.6239 195.294 10.4319C195.55 10.2399 195.79 10.0053 196.014 9.72794L196.926 10.8479C196.584 11.3279 196.094 11.7226 195.454 12.0319C194.824 12.3413 194.168 12.4959 193.486 12.4959ZM199.52 12.3359V1.79194H201.168V12.3359H199.52ZM197.776 5.53594V3.93594H203.12V5.53594H197.776ZM209.521 12.3359V1.13594H213.905C214.705 1.13594 215.425 1.26927 216.065 1.53594C216.716 1.8026 217.27 2.1866 217.729 2.68794C218.188 3.18927 218.54 3.78127 218.785 4.46394C219.03 5.1466 219.153 5.90394 219.153 6.73594C219.153 7.56794 219.03 8.3306 218.785 9.02394C218.54 9.7066 218.188 10.2986 217.729 10.7999C217.281 11.2906 216.732 11.6693 216.081 11.9359C215.43 12.2026 214.705 12.3359 213.905 12.3359H209.521ZM211.249 10.8479L211.201 10.6719H213.825C214.39 10.6719 214.892 10.5813 215.329 10.3999C215.777 10.2186 216.15 9.9626 216.449 9.63194C216.758 9.2906 216.993 8.8746 217.153 8.38394C217.313 7.89327 217.393 7.34394 217.393 6.73594C217.393 6.12794 217.313 5.58394 217.153 5.10394C216.993 4.61327 216.758 4.19727 216.449 3.85594C216.14 3.5146 215.766 3.25327 215.329 3.07194C214.892 2.8906 214.39 2.79994 213.825 2.79994H211.153L211.249 2.65594V10.8479ZM221.074 12.3359V3.93594H222.738V6.57594L222.578 5.93594C222.695 5.5306 222.893 5.1626 223.17 4.83194C223.458 4.50127 223.783 4.23994 224.146 4.04794C224.519 3.85594 224.903 3.75994 225.298 3.75994C225.479 3.75994 225.65 3.77594 225.81 3.80794C225.981 3.83994 226.114 3.87727 226.21 3.91994L225.778 5.71194C225.65 5.6586 225.506 5.61594 225.346 5.58394C225.197 5.54127 225.047 5.51994 224.898 5.51994C224.61 5.51994 224.333 5.5786 224.066 5.69594C223.81 5.8026 223.581 5.95727 223.378 6.15994C223.186 6.35194 223.031 6.58127 222.914 6.84794C222.797 7.10394 222.738 7.3866 222.738 7.69594V12.3359H221.074ZM227.799 12.3359V3.93594H229.447V12.3359H227.799ZM228.599 2.07994C228.247 2.07994 227.975 1.98927 227.783 1.80794C227.591 1.6266 227.495 1.3706 227.495 1.03994C227.495 0.730604 227.591 0.479937 227.783 0.287937C227.986 0.0959371 228.258 -6.29425e-05 228.599 -6.29425e-05C228.951 -6.29425e-05 229.223 0.0906038 229.415 0.271937C229.607 0.45327 229.703 0.70927 229.703 1.03994C229.703 1.34927 229.602 1.59994 229.399 1.79194C229.207 1.98394 228.94 2.07994 228.599 2.07994ZM234.732 12.3359L231.18 3.93594H232.956L235.516 10.2239L235.212 10.3679L237.948 3.93594H239.644L235.916 12.3359H234.732ZM244.838 12.4959C243.974 12.4959 243.206 12.3146 242.534 11.9519C241.872 11.5786 241.35 11.0719 240.966 10.4319C240.592 9.79194 240.406 9.05594 240.406 8.22394C240.406 7.5626 240.512 6.95994 240.726 6.41594C240.939 5.87194 241.232 5.4026 241.606 5.00794C241.99 4.6026 242.443 4.29327 242.966 4.07994C243.499 3.85594 244.075 3.74394 244.694 3.74394C245.238 3.74394 245.744 3.8506 246.214 4.06394C246.683 4.2666 247.088 4.54927 247.43 4.91194C247.782 5.2746 248.048 5.7066 248.23 6.20794C248.422 6.6986 248.512 7.23727 248.502 7.82394L248.486 8.52794H241.622L241.254 7.21594H247.062L246.822 7.48794V7.10394C246.79 6.75194 246.672 6.43727 246.47 6.15994C246.267 5.8826 246.011 5.66394 245.702 5.50394C245.392 5.34394 245.056 5.26394 244.694 5.26394C244.118 5.26394 243.632 5.37594 243.238 5.59994C242.843 5.81327 242.544 6.13327 242.342 6.55994C242.139 6.97594 242.038 7.49327 242.038 8.11194C242.038 8.6986 242.16 9.2106 242.406 9.64794C242.651 10.0746 242.998 10.4053 243.446 10.6399C243.894 10.8746 244.411 10.9919 244.998 10.9919C245.414 10.9919 245.798 10.9226 246.15 10.7839C246.512 10.6453 246.902 10.3946 247.318 10.0319L248.15 11.1999C247.894 11.4559 247.579 11.6799 247.206 11.8719C246.843 12.0639 246.454 12.2186 246.038 12.3359C245.632 12.4426 245.232 12.4959 244.838 12.4959ZM258.265 15.3119C256.964 14.5013 255.972 13.4879 255.289 12.2719C254.606 11.0559 254.265 9.70127 254.265 8.20794C254.265 6.72527 254.606 5.37594 255.289 4.15994C255.982 2.93327 256.98 1.9146 258.281 1.10394L259.161 2.09594C258.073 2.85327 257.241 3.75994 256.665 4.81594C256.1 5.86127 255.817 6.99194 255.817 8.20794C255.817 9.42394 256.1 10.5599 256.665 11.6159C257.241 12.6613 258.073 13.5626 259.161 14.3199L258.265 15.3119ZM264.508 12.4959C263.9 12.4959 263.335 12.4159 262.812 12.2559C262.3 12.0959 261.831 11.8559 261.404 11.5359C260.988 11.2053 260.615 10.7999 260.284 10.3199L261.468 8.95994C261.991 9.7066 262.492 10.2239 262.972 10.5119C263.452 10.7999 264.023 10.9439 264.684 10.9439C265.09 10.9439 265.458 10.8799 265.788 10.7519C266.119 10.6239 266.38 10.4479 266.572 10.2239C266.764 9.99994 266.86 9.74394 266.86 9.45594C266.86 9.26394 266.828 9.0826 266.764 8.91194C266.7 8.74127 266.599 8.5866 266.46 8.44794C266.332 8.30927 266.162 8.18127 265.948 8.06394C265.746 7.9466 265.506 7.84527 265.228 7.75994C264.951 7.66394 264.631 7.58394 264.268 7.51994C263.692 7.4026 263.191 7.24794 262.764 7.05594C262.338 6.86394 261.98 6.62394 261.692 6.33594C261.404 6.04794 261.191 5.7226 261.052 5.35994C260.914 4.9866 260.844 4.5706 260.844 4.11194C260.844 3.66394 260.94 3.24794 261.132 2.86394C261.335 2.47994 261.607 2.14927 261.948 1.87194C262.3 1.58394 262.711 1.36527 263.18 1.21594C263.65 1.05594 264.156 0.975937 264.7 0.975937C265.276 0.975937 265.804 1.0506 266.284 1.19994C266.764 1.34927 267.191 1.57327 267.564 1.87194C267.938 2.15994 268.247 2.51727 268.492 2.94394L267.276 4.14394C267.063 3.79194 266.823 3.4986 266.556 3.26394C266.29 3.0186 265.996 2.83727 265.676 2.71994C265.356 2.59194 265.015 2.52794 264.652 2.52794C264.236 2.52794 263.874 2.59194 263.564 2.71994C263.255 2.84794 263.01 3.02927 262.828 3.26394C262.658 3.48794 262.572 3.7546 262.572 4.06394C262.572 4.28794 262.615 4.49594 262.7 4.68794C262.786 4.86927 262.914 5.0346 263.084 5.18394C263.266 5.3226 263.506 5.4506 263.804 5.56794C264.103 5.6746 264.46 5.7706 264.876 5.85594C265.463 5.98394 265.986 6.14927 266.444 6.35194C266.903 6.54394 267.292 6.77327 267.612 7.03994C267.932 7.3066 268.172 7.60527 268.332 7.93594C268.503 8.2666 268.588 8.62394 268.588 9.00794C268.588 9.7226 268.423 10.3413 268.092 10.8639C267.762 11.3866 267.292 11.7919 266.684 12.0799C266.076 12.3573 265.351 12.4959 264.508 12.4959ZM271.037 12.3359V1.13594H278.093V2.79994H272.765V10.6719H278.093V12.3359H271.037ZM271.821 7.42394V5.75994H277.213V7.42394H271.821ZM283.249 12.3359L279.681 1.13594H281.521L283.681 8.14394C283.745 8.3146 283.804 8.51727 283.857 8.75194C283.91 8.97594 283.958 9.20527 284.001 9.43994C284.044 9.6746 284.081 9.89327 284.113 10.0959C284.156 10.2986 284.193 10.4639 284.225 10.5919L283.761 10.5759C283.921 10.0106 284.044 9.57327 284.129 9.26394C284.225 8.9546 284.3 8.71994 284.353 8.55994C284.406 8.38927 284.454 8.24527 284.497 8.12794L286.513 3.07194H288.065L290.017 8.12794C290.124 8.38394 290.214 8.63994 290.289 8.89594C290.374 9.14127 290.449 9.39194 290.513 9.64794C290.577 9.89327 290.646 10.1546 290.721 10.4319L290.305 10.5439C290.358 10.2559 290.396 10.0319 290.417 9.87194C290.449 9.70127 290.476 9.5626 290.497 9.45594C290.518 9.34927 290.54 9.24794 290.561 9.15194C290.582 9.04527 290.614 8.91194 290.657 8.75194C290.71 8.59194 290.78 8.37327 290.865 8.09594L292.993 1.13594H294.849L291.281 12.3359H290.081L287.121 5.32794L287.265 5.39194L284.417 12.3359H283.249ZM296.434 15.3119L295.554 14.3199C296.642 13.5626 297.469 12.6613 298.034 11.6159C298.61 10.5599 298.898 9.42394 298.898 8.20794C298.898 6.99194 298.61 5.86127 298.034 4.81594C297.469 3.75994 296.642 2.85327 295.554 2.09594L296.45 1.10394C297.752 1.9146 298.744 2.92794 299.426 4.14394C300.109 5.35994 300.45 6.7146 300.45 8.20794C300.45 9.6906 300.104 11.0453 299.41 12.2719C298.728 13.4879 297.736 14.5013 296.434 15.3119Z" fill="white"/>
</svg>
