<svg width="325" height="13" viewBox="0 0 325 13" fill="none" xmlns="http://www.w3.org/2000/svg">
<path d="M1.568 12.3359V1.13594H5.952C6.752 1.13594 7.472 1.26927 8.112 1.53594C8.76267 1.8026 9.31733 2.1866 9.776 2.68794C10.2347 3.18927 10.5867 3.78127 10.832 4.46394C11.0773 5.1466 11.2 5.90394 11.2 6.73594C11.2 7.56794 11.0773 8.3306 10.832 9.02394C10.5867 9.7066 10.2347 10.2986 9.776 10.7999C9.328 11.2906 8.77867 11.6693 8.128 11.9359C7.47733 12.2026 6.752 12.3359 5.952 12.3359H1.568ZM3.296 10.8479L3.248 10.6719H5.872C6.43733 10.6719 6.93867 10.5813 7.376 10.3999C7.824 10.2186 8.19733 9.9626 8.496 9.63194C8.80533 9.2906 9.04 8.8746 9.2 8.38394C9.36 7.89327 9.44 7.34394 9.44 6.73594C9.44 6.12794 9.36 5.58394 9.2 5.10394C9.04 4.61327 8.80533 4.19727 8.496 3.85594C8.18667 3.5146 7.81333 3.25327 7.376 3.07194C6.93867 2.8906 6.43733 2.79994 5.872 2.79994H3.2L3.296 2.65594V10.8479ZM13.3928 12.3359V3.93594H15.0408V12.3359H13.3928ZM14.1928 2.07994C13.8408 2.07994 13.5688 1.98927 13.3768 1.80794C13.1848 1.6266 13.0888 1.3706 13.0888 1.03994C13.0888 0.730604 13.1848 0.479937 13.3768 0.287937C13.5794 0.0959371 13.8514 -6.29425e-05 14.1928 -6.29425e-05C14.5448 -6.29425e-05 14.8168 0.0906038 15.0088 0.271937C15.2008 0.45327 15.2968 0.70927 15.2968 1.03994C15.2968 1.34927 15.1954 1.59994 14.9928 1.79194C14.8008 1.98394 14.5341 2.07994 14.1928 2.07994ZM17.5419 12.3359V3.93594H19.2059V5.72794L18.9019 5.91994C18.9872 5.6426 19.1205 5.37594 19.3019 5.11994C19.4939 4.86394 19.7232 4.63994 19.9899 4.44794C20.2672 4.24527 20.5605 4.08527 20.8699 3.96794C21.1899 3.8506 21.5152 3.79194 21.8459 3.79194C22.3259 3.79194 22.7472 3.87194 23.1099 4.03194C23.4725 4.19194 23.7712 4.43194 24.0059 4.75194C24.2405 5.07194 24.4112 5.47194 24.5179 5.95194L24.2619 5.88794L24.3739 5.61594C24.4912 5.3706 24.6512 5.14127 24.8539 4.92794C25.0672 4.70394 25.3072 4.5066 25.5739 4.33594C25.8405 4.16527 26.1232 4.03194 26.4219 3.93594C26.7205 3.83994 27.0139 3.79194 27.3019 3.79194C27.9312 3.79194 28.4485 3.91994 28.8539 4.17594C29.2699 4.43194 29.5792 4.82127 29.7819 5.34394C29.9952 5.8666 30.1019 6.51727 30.1019 7.29594V12.3359H28.4379V7.39194C28.4379 6.91194 28.3739 6.5226 28.2459 6.22394C28.1285 5.9146 27.9472 5.68527 27.7019 5.53594C27.4565 5.3866 27.1419 5.31194 26.7579 5.31194C26.4592 5.31194 26.1765 5.36527 25.9099 5.47194C25.6539 5.56794 25.4299 5.7066 25.2379 5.88794C25.0459 6.06927 24.8965 6.2826 24.7899 6.52794C24.6832 6.7626 24.6299 7.02394 24.6299 7.31194V12.3359H22.9659V7.35994C22.9659 6.9226 22.9019 6.5546 22.7739 6.25594C22.6459 5.9466 22.4592 5.71194 22.2139 5.55194C21.9685 5.39194 21.6699 5.31194 21.3179 5.31194C21.0192 5.31194 20.7419 5.36527 20.4859 5.47194C20.2299 5.56794 20.0059 5.7066 19.8139 5.88794C19.6219 6.0586 19.4725 6.2666 19.3659 6.51194C19.2592 6.7466 19.2059 7.0026 19.2059 7.27994V12.3359H17.5419ZM36.2283 12.4959C35.3643 12.4959 34.5963 12.3146 33.9243 11.9519C33.2629 11.5786 32.7403 11.0719 32.3563 10.4319C31.9829 9.79194 31.7963 9.05594 31.7963 8.22394C31.7963 7.5626 31.9029 6.95994 32.1163 6.41594C32.3296 5.87194 32.6229 5.4026 32.9963 5.00794C33.3803 4.6026 33.8336 4.29327 34.3563 4.07994C34.8896 3.85594 35.4656 3.74394 36.0843 3.74394C36.6283 3.74394 37.1349 3.8506 37.6043 4.06394C38.0736 4.2666 38.4789 4.54927 38.8203 4.91194C39.1723 5.2746 39.4389 5.7066 39.6203 6.20794C39.8123 6.6986 39.9029 7.23727 39.8923 7.82394L39.8763 8.52794H33.0123L32.6443 7.21594H38.4523L38.2123 7.48794V7.10394C38.1803 6.75194 38.0629 6.43727 37.8603 6.15994C37.6576 5.8826 37.4016 5.66394 37.0923 5.50394C36.7829 5.34394 36.4469 5.26394 36.0843 5.26394C35.5083 5.26394 35.0229 5.37594 34.6283 5.59994C34.2336 5.81327 33.9349 6.13327 33.7323 6.55994C33.5296 6.97594 33.4283 7.49327 33.4283 8.11194C33.4283 8.6986 33.5509 9.2106 33.7963 9.64794C34.0416 10.0746 34.3883 10.4053 34.8363 10.6399C35.2843 10.8746 35.8016 10.9919 36.3883 10.9919C36.8043 10.9919 37.1883 10.9226 37.5403 10.7839C37.9029 10.6453 38.2923 10.3946 38.7083 10.0319L39.5403 11.1999C39.2843 11.4559 38.9696 11.6799 38.5963 11.8719C38.2336 12.0639 37.8443 12.2186 37.4283 12.3359C37.0229 12.4426 36.6229 12.4959 36.2283 12.4959ZM41.6833 12.3359V3.93594H43.3313V5.66394L43.0433 5.85594C43.1499 5.4826 43.3579 5.14127 43.6673 4.83194C43.9766 4.51194 44.3446 4.25594 44.7713 4.06394C45.1979 3.86127 45.6353 3.75994 46.0833 3.75994C46.7233 3.75994 47.2566 3.88794 47.6833 4.14394C48.1099 4.38927 48.4299 4.76794 48.6433 5.27994C48.8566 5.79194 48.9633 6.43727 48.9633 7.21594V12.3359H47.3153V7.32794C47.3153 6.84794 47.2513 6.45327 47.1233 6.14394C46.9953 5.82394 46.7979 5.5946 46.5313 5.45594C46.2646 5.3066 45.9339 5.2426 45.5393 5.26394C45.2193 5.26394 44.9259 5.31727 44.6593 5.42394C44.3926 5.51994 44.1579 5.6586 43.9553 5.83994C43.7633 6.02127 43.6086 6.2346 43.4913 6.47994C43.3846 6.7146 43.3313 6.9706 43.3313 7.24794V12.3359H42.5153C42.3766 12.3359 42.2379 12.3359 42.0993 12.3359C41.9606 12.3359 41.8219 12.3359 41.6833 12.3359ZM53.9989 12.4959C53.2949 12.4959 52.6602 12.3733 52.0949 12.1279C51.5295 11.8826 51.0602 11.5199 50.6869 11.0399L51.8069 10.0799C52.1269 10.4533 52.4735 10.7253 52.8469 10.8959C53.2309 11.0559 53.6629 11.1359 54.1429 11.1359C54.3349 11.1359 54.5109 11.1146 54.6709 11.0719C54.8415 11.0186 54.9855 10.9439 55.1029 10.8479C55.2309 10.7519 55.3269 10.6399 55.3909 10.5119C55.4549 10.3733 55.4869 10.2239 55.4869 10.0639C55.4869 9.7866 55.3855 9.5626 55.1829 9.39194C55.0762 9.31727 54.9055 9.23727 54.6709 9.15194C54.4469 9.05594 54.1535 8.95994 53.7909 8.86394C53.1722 8.70394 52.6655 8.5226 52.2709 8.31994C51.8762 8.11727 51.5722 7.88794 51.3589 7.63194C51.1989 7.42927 51.0815 7.2106 51.0069 6.97594C50.9322 6.7306 50.8949 6.46394 50.8949 6.17594C50.8949 5.82394 50.9695 5.50394 51.1189 5.21594C51.2789 4.91727 51.4922 4.66127 51.7589 4.44794C52.0362 4.22394 52.3562 4.05327 52.7189 3.93594C53.0922 3.8186 53.4869 3.75994 53.9029 3.75994C54.2975 3.75994 54.6869 3.81327 55.0709 3.91994C55.4655 4.0266 55.8282 4.18127 56.1589 4.38394C56.4895 4.5866 56.7669 4.8266 56.9909 5.10394L56.0469 6.14394C55.8442 5.94127 55.6202 5.76527 55.3749 5.61594C55.1402 5.45594 54.9002 5.33327 54.6549 5.24794C54.4095 5.1626 54.1855 5.11994 53.9829 5.11994C53.7589 5.11994 53.5562 5.14127 53.3749 5.18394C53.1935 5.2266 53.0389 5.2906 52.9109 5.37594C52.7935 5.46127 52.7029 5.56794 52.6389 5.69594C52.5749 5.82394 52.5429 5.96794 52.5429 6.12794C52.5535 6.2666 52.5855 6.39994 52.6389 6.52794C52.7029 6.64527 52.7882 6.7466 52.8949 6.83194C53.0122 6.91727 53.1882 7.00794 53.4229 7.10394C53.6575 7.19994 53.9562 7.2906 54.3189 7.37594C54.8522 7.5146 55.2895 7.66927 55.6309 7.83994C55.9829 7.99994 56.2602 8.1866 56.4629 8.39994C56.6762 8.6026 56.8255 8.83727 56.9109 9.10394C56.9962 9.3706 57.0389 9.66927 57.0389 9.99994C57.0389 10.4799 56.9002 10.9119 56.6229 11.2959C56.3562 11.6693 55.9935 11.9626 55.5349 12.1759C55.0762 12.3893 54.5642 12.4959 53.9989 12.4959ZM59.1271 12.3359V3.93594H60.7751V12.3359H59.1271ZM59.9271 2.07994C59.5751 2.07994 59.3031 1.98927 59.1111 1.80794C58.9191 1.6266 58.8231 1.3706 58.8231 1.03994C58.8231 0.730604 58.9191 0.479937 59.1111 0.287937C59.3138 0.0959371 59.5858 -6.29425e-05 59.9271 -6.29425e-05C60.2791 -6.29425e-05 60.5511 0.0906038 60.7431 0.271937C60.9351 0.45327 61.0311 0.70927 61.0311 1.03994C61.0311 1.34927 60.9298 1.59994 60.7271 1.79194C60.5351 1.98394 60.2685 2.07994 59.9271 2.07994ZM67.0843 12.4959C66.2629 12.4959 65.5269 12.3093 64.8763 11.9359C64.2363 11.5519 63.7296 11.0346 63.3563 10.3839C62.9829 9.7226 62.7963 8.9706 62.7963 8.12794C62.7963 7.28527 62.9829 6.5386 63.3563 5.88794C63.7296 5.2266 64.2363 4.70927 64.8763 4.33594C65.5269 3.95194 66.2629 3.75994 67.0843 3.75994C67.8949 3.75994 68.6203 3.95194 69.2603 4.33594C69.9109 4.70927 70.4229 5.2266 70.7963 5.88794C71.1696 6.5386 71.3563 7.28527 71.3563 8.12794C71.3563 8.9706 71.1696 9.7226 70.7963 10.3839C70.4229 11.0346 69.9109 11.5519 69.2603 11.9359C68.6203 12.3093 67.8949 12.4959 67.0843 12.4959ZM67.0843 10.9919C67.5856 10.9919 68.0336 10.8693 68.4283 10.6239C68.8229 10.3679 69.1323 10.0266 69.3563 9.59994C69.5803 9.1626 69.6869 8.67194 69.6763 8.12794C69.6869 7.57327 69.5803 7.0826 69.3563 6.65594C69.1323 6.2186 68.8229 5.87727 68.4283 5.63194C68.0336 5.3866 67.5856 5.26394 67.0843 5.26394C66.5829 5.26394 66.1296 5.39194 65.7243 5.64794C65.3296 5.89327 65.0203 6.2346 64.7963 6.67194C64.5723 7.0986 64.4656 7.58394 64.4763 8.12794C64.4656 8.67194 64.5723 9.1626 64.7963 9.59994C65.0203 10.0266 65.3296 10.3679 65.7243 10.6239C66.1296 10.8693 66.5829 10.9919 67.0843 10.9919ZM73.152 12.3359V3.93594H74.8V5.66394L74.512 5.85594C74.6187 5.4826 74.8267 5.14127 75.136 4.83194C75.4453 4.51194 75.8133 4.25594 76.24 4.06394C76.6667 3.86127 77.104 3.75994 77.552 3.75994C78.192 3.75994 78.7253 3.88794 79.152 4.14394C79.5787 4.38927 79.8987 4.76794 80.112 5.27994C80.3253 5.79194 80.432 6.43727 80.432 7.21594V12.3359H78.784V7.32794C78.784 6.84794 78.72 6.45327 78.592 6.14394C78.464 5.82394 78.2667 5.5946 78 5.45594C77.7333 5.3066 77.4027 5.2426 77.008 5.26394C76.688 5.26394 76.3947 5.31727 76.128 5.42394C75.8613 5.51994 75.6267 5.6586 75.424 5.83994C75.232 6.02127 75.0773 6.2346 74.96 6.47994C74.8533 6.7146 74.8 6.9706 74.8 7.24794V12.3359H73.984C73.8453 12.3359 73.7067 12.3359 73.568 12.3359C73.4293 12.3359 73.2907 12.3359 73.152 12.3359ZM85.4676 12.4959C84.7636 12.4959 84.129 12.3733 83.5636 12.1279C82.9983 11.8826 82.529 11.5199 82.1556 11.0399L83.2756 10.0799C83.5956 10.4533 83.9423 10.7253 84.3156 10.8959C84.6996 11.0559 85.1316 11.1359 85.6116 11.1359C85.8036 11.1359 85.9796 11.1146 86.1396 11.0719C86.3103 11.0186 86.4543 10.9439 86.5716 10.8479C86.6996 10.7519 86.7956 10.6399 86.8596 10.5119C86.9236 10.3733 86.9556 10.2239 86.9556 10.0639C86.9556 9.7866 86.8543 9.5626 86.6516 9.39194C86.545 9.31727 86.3743 9.23727 86.1396 9.15194C85.9156 9.05594 85.6223 8.95994 85.2596 8.86394C84.641 8.70394 84.1343 8.5226 83.7396 8.31994C83.345 8.11727 83.041 7.88794 82.8276 7.63194C82.6676 7.42927 82.5503 7.2106 82.4756 6.97594C82.401 6.7306 82.3636 6.46394 82.3636 6.17594C82.3636 5.82394 82.4383 5.50394 82.5876 5.21594C82.7476 4.91727 82.961 4.66127 83.2276 4.44794C83.505 4.22394 83.825 4.05327 84.1876 3.93594C84.561 3.8186 84.9556 3.75994 85.3716 3.75994C85.7663 3.75994 86.1556 3.81327 86.5396 3.91994C86.9343 4.0266 87.297 4.18127 87.6276 4.38394C87.9583 4.5866 88.2356 4.8266 88.4596 5.10394L87.5156 6.14394C87.313 5.94127 87.089 5.76527 86.8436 5.61594C86.609 5.45594 86.369 5.33327 86.1236 5.24794C85.8783 5.1626 85.6543 5.11994 85.4516 5.11994C85.2276 5.11994 85.025 5.14127 84.8436 5.18394C84.6623 5.2266 84.5076 5.2906 84.3796 5.37594C84.2623 5.46127 84.1716 5.56794 84.1076 5.69594C84.0436 5.82394 84.0116 5.96794 84.0116 6.12794C84.0223 6.2666 84.0543 6.39994 84.1076 6.52794C84.1716 6.64527 84.257 6.7466 84.3636 6.83194C84.481 6.91727 84.657 7.00794 84.8916 7.10394C85.1263 7.19994 85.425 7.2906 85.7876 7.37594C86.321 7.5146 86.7583 7.66927 87.0996 7.83994C87.4516 7.99994 87.729 8.1866 87.9316 8.39994C88.145 8.6026 88.2943 8.83727 88.3796 9.10394C88.465 9.3706 88.5076 9.66927 88.5076 9.99994C88.5076 10.4799 88.369 10.9119 88.0916 11.2959C87.825 11.6693 87.4623 11.9626 87.0036 12.1759C86.545 12.3893 86.033 12.4959 85.4676 12.4959ZM94.5043 8.57594V6.94394H99.1123V8.57594H94.5043ZM106.006 12.3359V1.13594H110.678C111.392 1.13594 111.995 1.2426 112.486 1.45594C112.976 1.66927 113.344 1.98927 113.59 2.41594C113.846 2.83194 113.974 3.34394 113.974 3.95194C113.974 4.55994 113.803 5.07727 113.462 5.50394C113.131 5.9306 112.667 6.22394 112.07 6.38394V6.06394C112.571 6.1706 113.008 6.3626 113.382 6.63994C113.755 6.9066 114.043 7.2426 114.246 7.64794C114.459 8.05327 114.566 8.51727 114.566 9.03994C114.566 9.57327 114.48 10.0479 114.31 10.4639C114.15 10.8693 113.904 11.2106 113.574 11.4879C113.254 11.7653 112.864 11.9786 112.406 12.1279C111.947 12.2666 111.424 12.3359 110.838 12.3359H106.006ZM107.734 10.6719H110.742C111.179 10.6719 111.547 10.6079 111.846 10.4799C112.155 10.3519 112.39 10.1653 112.55 9.91994C112.72 9.66394 112.806 9.35994 112.806 9.00794C112.806 8.67727 112.715 8.3946 112.534 8.15994C112.363 7.92527 112.118 7.74927 111.798 7.63194C111.478 7.50394 111.099 7.43994 110.662 7.43994H107.734V10.6719ZM107.734 5.77594H110.582C110.902 5.77594 111.184 5.71194 111.43 5.58394C111.686 5.45594 111.883 5.27994 112.022 5.05594C112.171 4.83194 112.246 4.57594 112.246 4.28794C112.246 3.80794 112.086 3.43994 111.766 3.18394C111.446 2.92794 110.987 2.79994 110.39 2.79994H107.734V5.77594ZM120.067 12.3359L115.587 1.13594H117.555L120.227 7.93594C120.355 8.2666 120.467 8.56527 120.563 8.83194C120.67 9.0986 120.76 9.34394 120.835 9.56794C120.91 9.78127 120.979 9.98394 121.043 10.1759C121.107 10.3679 121.171 10.5599 121.235 10.7519L120.819 10.7679C120.894 10.5119 120.974 10.2453 121.059 9.96794C121.144 9.6906 121.24 9.3866 121.347 9.05594C121.464 8.72527 121.603 8.35194 121.763 7.93594L124.243 1.13594H126.259L121.747 12.3359H120.067ZM130.493 12.3359V2.79994H127.357V1.13594H135.453V2.79994H132.221V12.3359H130.493ZM142.068 12.3359V1.13594H146.452C147.252 1.13594 147.972 1.26927 148.612 1.53594C149.263 1.8026 149.817 2.1866 150.276 2.68794C150.735 3.18927 151.087 3.78127 151.332 4.46394C151.577 5.1466 151.7 5.90394 151.7 6.73594C151.7 7.56794 151.577 8.3306 151.332 9.02394C151.087 9.7066 150.735 10.2986 150.276 10.7999C149.828 11.2906 149.279 11.6693 148.628 11.9359C147.977 12.2026 147.252 12.3359 146.452 12.3359H142.068ZM143.796 10.8479L143.748 10.6719H146.372C146.937 10.6719 147.439 10.5813 147.876 10.3999C148.324 10.2186 148.697 9.9626 148.996 9.63194C149.305 9.2906 149.54 8.8746 149.7 8.38394C149.86 7.89327 149.94 7.34394 149.94 6.73594C149.94 6.12794 149.86 5.58394 149.7 5.10394C149.54 4.61327 149.305 4.19727 148.996 3.85594C148.687 3.5146 148.313 3.25327 147.876 3.07194C147.439 2.8906 146.937 2.79994 146.372 2.79994H143.7L143.796 2.65594V10.8479ZM158.581 12.4959C157.802 12.4959 157.087 12.3573 156.437 12.0799C155.786 11.8026 155.221 11.4079 154.741 10.8959C154.261 10.3733 153.887 9.75994 153.621 9.05594C153.365 8.35194 153.237 7.5786 153.237 6.73594C153.237 5.93594 153.375 5.1946 153.653 4.51194C153.941 3.8186 154.335 3.2106 154.837 2.68794C155.338 2.16527 155.919 1.75994 156.581 1.47194C157.242 1.18394 157.957 1.03994 158.725 1.03994C159.269 1.03994 159.797 1.12527 160.309 1.29594C160.831 1.45594 161.301 1.68527 161.717 1.98394C162.143 2.27194 162.49 2.6026 162.757 2.97594L161.605 4.17594C161.295 3.8666 160.981 3.6106 160.661 3.40794C160.351 3.1946 160.031 3.0346 159.701 2.92794C159.381 2.82127 159.055 2.76794 158.725 2.76794C158.202 2.76794 157.711 2.86927 157.253 3.07194C156.805 3.26394 156.41 3.53594 156.069 3.88794C155.738 4.23994 155.477 4.66127 155.285 5.15194C155.093 5.63194 154.997 6.15994 154.997 6.73594C154.997 7.34394 155.087 7.8986 155.269 8.39994C155.461 8.8906 155.727 9.31194 156.069 9.66394C156.41 10.0159 156.815 10.2879 157.285 10.4799C157.765 10.6613 158.293 10.7519 158.869 10.7519C159.221 10.7519 159.567 10.7039 159.909 10.6079C160.25 10.5119 160.57 10.3733 160.869 10.1919C161.167 10.0106 161.439 9.79727 161.685 9.55194L162.549 10.9599C162.303 11.2479 161.967 11.5093 161.541 11.7439C161.125 11.9786 160.655 12.1653 160.133 12.3039C159.621 12.4319 159.103 12.4959 158.581 12.4959ZM168.352 12.4959C167.744 12.4959 167.179 12.4159 166.656 12.2559C166.144 12.0959 165.675 11.8559 165.248 11.5359C164.832 11.2053 164.459 10.7999 164.128 10.3199L165.312 8.95994C165.835 9.7066 166.336 10.2239 166.816 10.5119C167.296 10.7999 167.867 10.9439 168.528 10.9439C168.933 10.9439 169.301 10.8799 169.632 10.7519C169.963 10.6239 170.224 10.4479 170.416 10.2239C170.608 9.99994 170.704 9.74394 170.704 9.45594C170.704 9.26394 170.672 9.0826 170.608 8.91194C170.544 8.74127 170.443 8.5866 170.304 8.44794C170.176 8.30927 170.005 8.18127 169.792 8.06394C169.589 7.9466 169.349 7.84527 169.072 7.75994C168.795 7.66394 168.475 7.58394 168.112 7.51994C167.536 7.4026 167.035 7.24794 166.608 7.05594C166.181 6.86394 165.824 6.62394 165.536 6.33594C165.248 6.04794 165.035 5.7226 164.896 5.35994C164.757 4.9866 164.688 4.5706 164.688 4.11194C164.688 3.66394 164.784 3.24794 164.976 2.86394C165.179 2.47994 165.451 2.14927 165.792 1.87194C166.144 1.58394 166.555 1.36527 167.024 1.21594C167.493 1.05594 168 0.975937 168.544 0.975937C169.12 0.975937 169.648 1.0506 170.128 1.19994C170.608 1.34927 171.035 1.57327 171.408 1.87194C171.781 2.15994 172.091 2.51727 172.336 2.94394L171.12 4.14394C170.907 3.79194 170.667 3.4986 170.4 3.26394C170.133 3.0186 169.84 2.83727 169.52 2.71994C169.2 2.59194 168.859 2.52794 168.496 2.52794C168.08 2.52794 167.717 2.59194 167.408 2.71994C167.099 2.84794 166.853 3.02927 166.672 3.26394C166.501 3.48794 166.416 3.7546 166.416 4.06394C166.416 4.28794 166.459 4.49594 166.544 4.68794C166.629 4.86927 166.757 5.0346 166.928 5.18394C167.109 5.3226 167.349 5.4506 167.648 5.56794C167.947 5.6746 168.304 5.7706 168.72 5.85594C169.307 5.98394 169.829 6.14927 170.288 6.35194C170.747 6.54394 171.136 6.77327 171.456 7.03994C171.776 7.3066 172.016 7.60527 172.176 7.93594C172.347 8.2666 172.432 8.62394 172.432 9.00794C172.432 9.7226 172.267 10.3413 171.936 10.8639C171.605 11.3866 171.136 11.7919 170.528 12.0799C169.92 12.3573 169.195 12.4959 168.352 12.4959ZM174.881 12.3359V1.13594H179.649C180.289 1.13594 180.875 1.29594 181.409 1.61594C181.953 1.92527 182.385 2.35194 182.705 2.89594C183.025 3.42927 183.185 4.03194 183.185 4.70394C183.185 5.31194 183.025 5.87727 182.705 6.39994C182.385 6.9226 181.958 7.34394 181.425 7.66394C180.891 7.97327 180.299 8.12794 179.649 8.12794H176.609V12.3359H174.881ZM181.536 12.3359L178.689 7.27994L180.465 6.87994L183.633 12.3519L181.536 12.3359ZM176.609 6.46394H179.809C180.118 6.46394 180.395 6.38927 180.641 6.23994C180.886 6.07994 181.078 5.8666 181.217 5.59994C181.355 5.3226 181.425 5.0186 181.425 4.68794C181.425 4.3146 181.334 3.98927 181.153 3.71194C180.982 3.42394 180.737 3.19994 180.417 3.03994C180.107 2.87994 179.755 2.79994 179.361 2.79994H176.609V6.46394ZM193.786 12.3359L189.306 1.13594H191.274L193.946 7.93594C194.074 8.2666 194.186 8.56527 194.282 8.83194C194.389 9.0986 194.479 9.34394 194.554 9.56794C194.629 9.78127 194.698 9.98394 194.762 10.1759C194.826 10.3679 194.89 10.5599 194.954 10.7519L194.538 10.7679C194.613 10.5119 194.693 10.2453 194.778 9.96794C194.863 9.6906 194.959 9.3866 195.066 9.05594C195.183 8.72527 195.322 8.35194 195.482 7.93594L197.962 1.13594H199.978L195.466 12.3359H193.786ZM201.847 12.3359L201.319 11.0239L204.743 7.16794C204.925 6.97594 205.111 6.75727 205.303 6.51194C205.506 6.25594 205.698 5.9946 205.879 5.72794C206.061 5.46127 206.205 5.19994 206.311 4.94394C206.429 4.67727 206.487 4.4266 206.487 4.19194C206.487 3.8506 206.418 3.5626 206.279 3.32794C206.151 3.0826 205.959 2.89594 205.703 2.76794C205.458 2.63994 205.159 2.57594 204.807 2.57594C204.498 2.57594 204.194 2.6666 203.895 2.84794C203.597 3.02927 203.325 3.28527 203.079 3.61594C202.834 3.9466 202.642 4.3306 202.503 4.76794L201.175 3.93594C201.357 3.31727 201.629 2.78927 201.991 2.35194C202.365 1.90394 202.807 1.5626 203.319 1.32794C203.842 1.09327 204.407 0.975937 205.015 0.975937C205.645 0.975937 206.205 1.10927 206.695 1.37594C207.186 1.63194 207.57 1.9946 207.847 2.46394C208.125 2.9226 208.263 3.45594 208.263 4.06394C208.263 4.30927 208.237 4.55994 208.183 4.81594C208.13 5.07194 208.045 5.3386 207.927 5.61594C207.81 5.8826 207.661 6.16527 207.479 6.46394C207.298 6.75194 207.079 7.05594 206.823 7.37594C206.578 7.69594 206.295 8.03194 205.975 8.38394L203.431 11.1519L203.111 10.6719H208.615V12.3359H201.847ZM212.821 12.3359V2.79994H209.685V1.13594H217.781V2.79994H214.549V12.3359H212.821ZM219.912 12.3359V1.13594H226.968V2.79994H221.64V10.6719H226.968V12.3359H219.912ZM220.696 7.42394V5.75994H226.088V7.42394H220.696ZM234.224 12.3359V1.13594H238.608C239.408 1.13594 240.128 1.26927 240.768 1.53594C241.419 1.8026 241.974 2.1866 242.432 2.68794C242.891 3.18927 243.243 3.78127 243.488 4.46394C243.734 5.1466 243.856 5.90394 243.856 6.73594C243.856 7.56794 243.734 8.3306 243.488 9.02394C243.243 9.7066 242.891 10.2986 242.432 10.7999C241.984 11.2906 241.435 11.6693 240.784 11.9359C240.134 12.2026 239.408 12.3359 238.608 12.3359H234.224ZM235.952 10.8479L235.904 10.6719H238.528C239.094 10.6719 239.595 10.5813 240.032 10.3999C240.48 10.2186 240.854 9.9626 241.152 9.63194C241.462 9.2906 241.696 8.8746 241.856 8.38394C242.016 7.89327 242.096 7.34394 242.096 6.73594C242.096 6.12794 242.016 5.58394 241.856 5.10394C241.696 4.61327 241.462 4.19727 241.152 3.85594C240.843 3.5146 240.47 3.25327 240.032 3.07194C239.595 2.8906 239.094 2.79994 238.528 2.79994H235.856L235.952 2.65594V10.8479ZM246.049 12.3359V3.93594H247.697V12.3359H246.049ZM246.849 2.07994C246.497 2.07994 246.225 1.98927 246.033 1.80794C245.841 1.6266 245.745 1.3706 245.745 1.03994C245.745 0.730604 245.841 0.479937 246.033 0.287937C246.236 0.0959371 246.508 -6.29425e-05 246.849 -6.29425e-05C247.201 -6.29425e-05 247.473 0.0906038 247.665 0.271937C247.857 0.45327 247.953 0.70927 247.953 1.03994C247.953 1.34927 247.852 1.59994 247.649 1.79194C247.457 1.98394 247.19 2.07994 246.849 2.07994ZM250.23 12.3359V3.93594H251.894V6.57594L251.734 5.93594C251.851 5.5306 252.049 5.1626 252.326 4.83194C252.614 4.50127 252.939 4.23994 253.302 4.04794C253.675 3.85594 254.059 3.75994 254.454 3.75994C254.635 3.75994 254.806 3.77594 254.966 3.80794C255.137 3.83994 255.27 3.87727 255.366 3.91994L254.934 5.71194C254.806 5.6586 254.662 5.61594 254.502 5.58394C254.353 5.54127 254.203 5.51994 254.054 5.51994C253.766 5.51994 253.489 5.5786 253.222 5.69594C252.966 5.8026 252.737 5.95727 252.534 6.15994C252.342 6.35194 252.187 6.58127 252.07 6.84794C251.953 7.10394 251.894 7.3866 251.894 7.69594V12.3359H250.23ZM260.244 12.4959C259.38 12.4959 258.612 12.3146 257.94 11.9519C257.279 11.5786 256.756 11.0719 256.372 10.4319C255.999 9.79194 255.812 9.05594 255.812 8.22394C255.812 7.5626 255.919 6.95994 256.132 6.41594C256.345 5.87194 256.639 5.4026 257.012 5.00794C257.396 4.6026 257.849 4.29327 258.372 4.07994C258.905 3.85594 259.481 3.74394 260.1 3.74394C260.644 3.74394 261.151 3.8506 261.62 4.06394C262.089 4.2666 262.495 4.54927 262.836 4.91194C263.188 5.2746 263.455 5.7066 263.636 6.20794C263.828 6.6986 263.919 7.23727 263.908 7.82394L263.892 8.52794H257.028L256.66 7.21594H262.468L262.228 7.48794V7.10394C262.196 6.75194 262.079 6.43727 261.876 6.15994C261.673 5.8826 261.417 5.66394 261.108 5.50394C260.799 5.34394 260.463 5.26394 260.1 5.26394C259.524 5.26394 259.039 5.37594 258.644 5.59994C258.249 5.81327 257.951 6.13327 257.748 6.55994C257.545 6.97594 257.444 7.49327 257.444 8.11194C257.444 8.6986 257.567 9.2106 257.812 9.64794C258.057 10.0746 258.404 10.4053 258.852 10.6399C259.3 10.8746 259.817 10.9919 260.404 10.9919C260.82 10.9919 261.204 10.9226 261.556 10.7839C261.919 10.6453 262.308 10.3946 262.724 10.0319L263.556 11.1999C263.3 11.4559 262.985 11.6799 262.612 11.8719C262.249 12.0639 261.86 12.2186 261.444 12.3359C261.039 12.4426 260.639 12.4959 260.244 12.4959ZM269.267 12.4959C268.488 12.4959 267.79 12.3039 267.171 11.9199C266.563 11.5359 266.078 11.0133 265.715 10.3519C265.363 9.6906 265.187 8.94927 265.187 8.12794C265.187 7.3066 265.363 6.56527 265.715 5.90394C266.078 5.2426 266.563 4.71994 267.171 4.33594C267.79 3.95194 268.488 3.75994 269.267 3.75994C270.014 3.75994 270.691 3.9146 271.299 4.22394C271.918 4.5226 272.387 4.93327 272.707 5.45594L271.795 6.57594C271.624 6.3306 271.406 6.1066 271.139 5.90394C270.872 5.70127 270.59 5.54127 270.291 5.42394C269.992 5.3066 269.704 5.24794 269.427 5.24794C268.915 5.24794 268.456 5.37594 268.051 5.63194C267.656 5.87727 267.342 6.2186 267.107 6.65594C266.872 7.09327 266.755 7.58394 266.755 8.12794C266.755 8.67194 266.878 9.1626 267.123 9.59994C267.368 10.0266 267.694 10.3679 268.099 10.6239C268.504 10.8799 268.952 11.0079 269.443 11.0079C269.731 11.0079 270.008 10.9599 270.275 10.8639C270.552 10.7679 270.819 10.6239 271.075 10.4319C271.331 10.2399 271.571 10.0053 271.795 9.72794L272.707 10.8479C272.366 11.3279 271.875 11.7226 271.235 12.0319C270.606 12.3413 269.95 12.4959 269.267 12.4959ZM275.301 12.3359V1.79194H276.949V12.3359H275.301ZM273.557 5.53594V3.93594H278.901V5.53594H273.557ZM285.302 12.3359V1.13594H289.686C290.486 1.13594 291.206 1.26927 291.846 1.53594C292.497 1.8026 293.052 2.1866 293.51 2.68794C293.969 3.18927 294.321 3.78127 294.566 4.46394C294.812 5.1466 294.934 5.90394 294.934 6.73594C294.934 7.56794 294.812 8.3306 294.566 9.02394C294.321 9.7066 293.969 10.2986 293.51 10.7999C293.062 11.2906 292.513 11.6693 291.862 11.9359C291.212 12.2026 290.486 12.3359 289.686 12.3359H285.302ZM287.03 10.8479L286.982 10.6719H289.606C290.172 10.6719 290.673 10.5813 291.11 10.3999C291.558 10.2186 291.932 9.9626 292.23 9.63194C292.54 9.2906 292.774 8.8746 292.934 8.38394C293.094 7.89327 293.174 7.34394 293.174 6.73594C293.174 6.12794 293.094 5.58394 292.934 5.10394C292.774 4.61327 292.54 4.19727 292.23 3.85594C291.921 3.5146 291.548 3.25327 291.11 3.07194C290.673 2.8906 290.172 2.79994 289.606 2.79994H286.934L287.03 2.65594V10.8479ZM296.855 12.3359V3.93594H298.519V6.57594L298.359 5.93594C298.476 5.5306 298.674 5.1626 298.951 4.83194C299.239 4.50127 299.564 4.23994 299.927 4.04794C300.3 3.85594 300.684 3.75994 301.079 3.75994C301.26 3.75994 301.431 3.77594 301.591 3.80794C301.762 3.83994 301.895 3.87727 301.991 3.91994L301.559 5.71194C301.431 5.6586 301.287 5.61594 301.127 5.58394C300.978 5.54127 300.828 5.51994 300.679 5.51994C300.391 5.51994 300.114 5.5786 299.847 5.69594C299.591 5.8026 299.362 5.95727 299.159 6.15994C298.967 6.35194 298.812 6.58127 298.695 6.84794C298.578 7.10394 298.519 7.3866 298.519 7.69594V12.3359H296.855ZM303.58 12.3359V3.93594H305.228V12.3359H303.58ZM304.38 2.07994C304.028 2.07994 303.756 1.98927 303.564 1.80794C303.372 1.6266 303.276 1.3706 303.276 1.03994C303.276 0.730604 303.372 0.479937 303.564 0.287937C303.767 0.0959371 304.039 -6.29425e-05 304.38 -6.29425e-05C304.732 -6.29425e-05 305.004 0.0906038 305.196 0.271937C305.388 0.45327 305.484 0.70927 305.484 1.03994C305.484 1.34927 305.383 1.59994 305.18 1.79194C304.988 1.98394 304.722 2.07994 304.38 2.07994ZM310.513 12.3359L306.961 3.93594H308.737L311.297 10.2239L310.993 10.3679L313.729 3.93594H315.425L311.697 12.3359H310.513ZM320.619 12.4959C319.755 12.4959 318.987 12.3146 318.315 11.9519C317.654 11.5786 317.131 11.0719 316.747 10.4319C316.374 9.79194 316.187 9.05594 316.187 8.22394C316.187 7.5626 316.294 6.95994 316.507 6.41594C316.72 5.87194 317.014 5.4026 317.387 5.00794C317.771 4.6026 318.224 4.29327 318.747 4.07994C319.28 3.85594 319.856 3.74394 320.475 3.74394C321.019 3.74394 321.526 3.8506 321.995 4.06394C322.464 4.2666 322.87 4.54927 323.211 4.91194C323.563 5.2746 323.83 5.7066 324.011 6.20794C324.203 6.6986 324.294 7.23727 324.283 7.82394L324.267 8.52794H317.403L317.035 7.21594H322.843L322.603 7.48794V7.10394C322.571 6.75194 322.454 6.43727 322.251 6.15994C322.048 5.8826 321.792 5.66394 321.483 5.50394C321.174 5.34394 320.838 5.26394 320.475 5.26394C319.899 5.26394 319.414 5.37594 319.019 5.59994C318.624 5.81327 318.326 6.13327 318.123 6.55994C317.92 6.97594 317.819 7.49327 317.819 8.11194C317.819 8.6986 317.942 9.2106 318.187 9.64794C318.432 10.0746 318.779 10.4053 319.227 10.6399C319.675 10.8746 320.192 10.9919 320.779 10.9919C321.195 10.9919 321.579 10.9226 321.931 10.7839C322.294 10.6453 322.683 10.3946 323.099 10.0319L323.931 11.1999C323.675 11.4559 323.36 11.6799 322.987 11.8719C322.624 12.0639 322.235 12.2186 321.819 12.3359C321.414 12.4426 321.014 12.4959 320.619 12.4959Z" fill="white"/>
</svg>
