<svg width="20" height="20" viewBox="0 0 20 20" fill="none" xmlns="http://www.w3.org/2000/svg">
<circle cx="10" cy="10" r="9.5" stroke="#484E53"/>
<path d="M6.24 13.1C5.59333 13.1 5.06667 12.97 4.66 12.71C4.26 12.45 3.96667 12.0767 3.78 11.59C3.59333 11.1033 3.5 10.5267 3.5 9.86C3.5 9.14 3.58667 8.52667 3.76 8.02C3.93333 7.51333 4.22 7.12667 4.62 6.86C5.02 6.59333 5.56 6.46 6.24 6.46C6.91333 6.46 7.45 6.59333 7.85 6.86C8.25 7.12667 8.53667 7.51333 8.71 8.02C8.88333 8.52667 8.97 9.14 8.97 9.86C8.97 10.5267 8.87667 11.1033 8.69 11.59C8.51 12.0767 8.22 12.45 7.82 12.71C7.42 12.97 6.89333 13.1 6.24 13.1ZM6.24 12.4C6.71333 12.4 7.08667 12.2967 7.36 12.09C7.64 11.8767 7.84 11.58 7.96 11.2C8.08667 10.8133 8.15 10.3667 8.15 9.86C8.15 8.98667 8.01 8.32 7.73 7.86C7.45667 7.39333 6.96 7.16 6.24 7.16C5.76 7.16 5.38 7.26333 5.1 7.47C4.82 7.67667 4.62 7.98333 4.5 8.39C4.38 8.79 4.32 9.28 4.32 9.86C4.32 10.3667 4.38 10.8133 4.5 11.2C4.62667 11.58 4.83 11.8767 5.11 12.09C5.39667 12.2967 5.77333 12.4 6.24 12.4ZM12.3246 13.1C11.5579 13.1 10.9746 12.9067 10.5746 12.52C10.1746 12.1267 9.97461 11.5033 9.97461 10.65V9.13C9.97461 8.59667 10.0779 8.13 10.2846 7.73C10.4979 7.33 10.7979 7.02 11.1846 6.8C11.5779 6.57333 12.0413 6.46 12.5746 6.46C12.8879 6.46 13.1646 6.48 13.4046 6.52C13.6446 6.55333 13.8613 6.60333 14.0546 6.67V7.38C13.8613 7.30667 13.6446 7.25333 13.4046 7.22C13.1713 7.18 12.9079 7.16 12.6146 7.16C11.9679 7.16 11.4946 7.32667 11.1946 7.66C10.9013 7.98667 10.7546 8.42667 10.7546 8.98V9.47C11.0146 9.27667 11.3013 9.13667 11.6146 9.05C11.9346 8.95667 12.2246 8.91 12.4846 8.91C13.2179 8.91 13.7646 9.09 14.1246 9.45C14.4846 9.80333 14.6646 10.3167 14.6646 10.99C14.6646 11.6167 14.4713 12.1267 14.0846 12.52C13.7046 12.9067 13.1179 13.1 12.3246 13.1ZM12.3246 12.45C12.8579 12.45 13.2579 12.3233 13.5246 12.07C13.7913 11.81 13.9246 11.4567 13.9246 11.01C13.9246 10.7033 13.8813 10.4433 13.7946 10.23C13.7079 10.01 13.5546 9.84333 13.3346 9.73C13.1146 9.61 12.8079 9.55 12.4146 9.55C12.0879 9.55 11.7846 9.60333 11.5046 9.71C11.2246 9.81 10.9746 9.94 10.7546 10.1V10.88C10.7546 11.9267 11.2779 12.45 12.3246 12.45Z" fill="#3D3A3A"/>
</svg>
