<svg width="335" height="13" viewBox="0 0 335 13" fill="none" xmlns="http://www.w3.org/2000/svg">
<path d="M1.568 12.3359V1.13594H5.952C6.752 1.13594 7.472 1.26927 8.112 1.53594C8.76267 1.8026 9.31733 2.1866 9.776 2.68794C10.2347 3.18927 10.5867 3.78127 10.832 4.46394C11.0773 5.1466 11.2 5.90394 11.2 6.73594C11.2 7.56794 11.0773 8.3306 10.832 9.02394C10.5867 9.7066 10.2347 10.2986 9.776 10.7999C9.328 11.2906 8.77867 11.6693 8.128 11.9359C7.47733 12.2026 6.752 12.3359 5.952 12.3359H1.568ZM3.296 10.8479L3.248 10.6719H5.872C6.43733 10.6719 6.93867 10.5813 7.376 10.3999C7.824 10.2186 8.19733 9.9626 8.496 9.63194C8.80533 9.2906 9.04 8.8746 9.2 8.38394C9.36 7.89327 9.44 7.34394 9.44 6.73594C9.44 6.12794 9.36 5.58394 9.2 5.10394C9.04 4.61327 8.80533 4.19727 8.496 3.85594C8.18667 3.5146 7.81333 3.25327 7.376 3.07194C6.93867 2.8906 6.43733 2.79994 5.872 2.79994H3.2L3.296 2.65594V10.8479ZM13.3928 12.3359V3.93594H15.0408V12.3359H13.3928ZM14.1928 2.07994C13.8408 2.07994 13.5688 1.98927 13.3768 1.80794C13.1848 1.6266 13.0888 1.3706 13.0888 1.03994C13.0888 0.730604 13.1848 0.479937 13.3768 0.287937C13.5794 0.0959371 13.8514 -6.29425e-05 14.1928 -6.29425e-05C14.5448 -6.29425e-05 14.8168 0.0906038 15.0088 0.271937C15.2008 0.45327 15.2968 0.70927 15.2968 1.03994C15.2968 1.34927 15.1954 1.59994 14.9928 1.79194C14.8008 1.98394 14.5341 2.07994 14.1928 2.07994ZM17.5419 12.3359V3.93594H19.2059V5.72794L18.9019 5.91994C18.9872 5.6426 19.1205 5.37594 19.3019 5.11994C19.4939 4.86394 19.7232 4.63994 19.9899 4.44794C20.2672 4.24527 20.5605 4.08527 20.8699 3.96794C21.1899 3.8506 21.5152 3.79194 21.8459 3.79194C22.3259 3.79194 22.7472 3.87194 23.1099 4.03194C23.4725 4.19194 23.7712 4.43194 24.0059 4.75194C24.2405 5.07194 24.4112 5.47194 24.5179 5.95194L24.2619 5.88794L24.3739 5.61594C24.4912 5.3706 24.6512 5.14127 24.8539 4.92794C25.0672 4.70394 25.3072 4.5066 25.5739 4.33594C25.8405 4.16527 26.1232 4.03194 26.4219 3.93594C26.7205 3.83994 27.0139 3.79194 27.3019 3.79194C27.9312 3.79194 28.4485 3.91994 28.8539 4.17594C29.2699 4.43194 29.5792 4.82127 29.7819 5.34394C29.9952 5.8666 30.1019 6.51727 30.1019 7.29594V12.3359H28.4379V7.39194C28.4379 6.91194 28.3739 6.5226 28.2459 6.22394C28.1285 5.9146 27.9472 5.68527 27.7019 5.53594C27.4565 5.3866 27.1419 5.31194 26.7579 5.31194C26.4592 5.31194 26.1765 5.36527 25.9099 5.47194C25.6539 5.56794 25.4299 5.7066 25.2379 5.88794C25.0459 6.06927 24.8965 6.2826 24.7899 6.52794C24.6832 6.7626 24.6299 7.02394 24.6299 7.31194V12.3359H22.9659V7.35994C22.9659 6.9226 22.9019 6.5546 22.7739 6.25594C22.6459 5.9466 22.4592 5.71194 22.2139 5.55194C21.9685 5.39194 21.6699 5.31194 21.3179 5.31194C21.0192 5.31194 20.7419 5.36527 20.4859 5.47194C20.2299 5.56794 20.0059 5.7066 19.8139 5.88794C19.6219 6.0586 19.4725 6.2666 19.3659 6.51194C19.2592 6.7466 19.2059 7.0026 19.2059 7.27994V12.3359H17.5419ZM36.2283 12.4959C35.3643 12.4959 34.5963 12.3146 33.9243 11.9519C33.2629 11.5786 32.7403 11.0719 32.3563 10.4319C31.9829 9.79194 31.7963 9.05594 31.7963 8.22394C31.7963 7.5626 31.9029 6.95994 32.1163 6.41594C32.3296 5.87194 32.6229 5.4026 32.9963 5.00794C33.3803 4.6026 33.8336 4.29327 34.3563 4.07994C34.8896 3.85594 35.4656 3.74394 36.0843 3.74394C36.6283 3.74394 37.1349 3.8506 37.6043 4.06394C38.0736 4.2666 38.4789 4.54927 38.8203 4.91194C39.1723 5.2746 39.4389 5.7066 39.6203 6.20794C39.8123 6.6986 39.9029 7.23727 39.8923 7.82394L39.8763 8.52794H33.0123L32.6443 7.21594H38.4523L38.2123 7.48794V7.10394C38.1803 6.75194 38.0629 6.43727 37.8603 6.15994C37.6576 5.8826 37.4016 5.66394 37.0923 5.50394C36.7829 5.34394 36.4469 5.26394 36.0843 5.26394C35.5083 5.26394 35.0229 5.37594 34.6283 5.59994C34.2336 5.81327 33.9349 6.13327 33.7323 6.55994C33.5296 6.97594 33.4283 7.49327 33.4283 8.11194C33.4283 8.6986 33.5509 9.2106 33.7963 9.64794C34.0416 10.0746 34.3883 10.4053 34.8363 10.6399C35.2843 10.8746 35.8016 10.9919 36.3883 10.9919C36.8043 10.9919 37.1883 10.9226 37.5403 10.7839C37.9029 10.6453 38.2923 10.3946 38.7083 10.0319L39.5403 11.1999C39.2843 11.4559 38.9696 11.6799 38.5963 11.8719C38.2336 12.0639 37.8443 12.2186 37.4283 12.3359C37.0229 12.4426 36.6229 12.4959 36.2283 12.4959ZM41.6833 12.3359V3.93594H43.3313V5.66394L43.0433 5.85594C43.1499 5.4826 43.3579 5.14127 43.6673 4.83194C43.9766 4.51194 44.3446 4.25594 44.7713 4.06394C45.1979 3.86127 45.6353 3.75994 46.0833 3.75994C46.7233 3.75994 47.2566 3.88794 47.6833 4.14394C48.1099 4.38927 48.4299 4.76794 48.6433 5.27994C48.8566 5.79194 48.9633 6.43727 48.9633 7.21594V12.3359H47.3153V7.32794C47.3153 6.84794 47.2513 6.45327 47.1233 6.14394C46.9953 5.82394 46.7979 5.5946 46.5313 5.45594C46.2646 5.3066 45.9339 5.2426 45.5393 5.26394C45.2193 5.26394 44.9259 5.31727 44.6593 5.42394C44.3926 5.51994 44.1579 5.6586 43.9553 5.83994C43.7633 6.02127 43.6086 6.2346 43.4913 6.47994C43.3846 6.7146 43.3313 6.9706 43.3313 7.24794V12.3359H42.5153C42.3766 12.3359 42.2379 12.3359 42.0993 12.3359C41.9606 12.3359 41.8219 12.3359 41.6833 12.3359ZM53.9989 12.4959C53.2949 12.4959 52.6602 12.3733 52.0949 12.1279C51.5295 11.8826 51.0602 11.5199 50.6869 11.0399L51.8069 10.0799C52.1269 10.4533 52.4735 10.7253 52.8469 10.8959C53.2309 11.0559 53.6629 11.1359 54.1429 11.1359C54.3349 11.1359 54.5109 11.1146 54.6709 11.0719C54.8415 11.0186 54.9855 10.9439 55.1029 10.8479C55.2309 10.7519 55.3269 10.6399 55.3909 10.5119C55.4549 10.3733 55.4869 10.2239 55.4869 10.0639C55.4869 9.7866 55.3855 9.5626 55.1829 9.39194C55.0762 9.31727 54.9055 9.23727 54.6709 9.15194C54.4469 9.05594 54.1535 8.95994 53.7909 8.86394C53.1722 8.70394 52.6655 8.5226 52.2709 8.31994C51.8762 8.11727 51.5722 7.88794 51.3589 7.63194C51.1989 7.42927 51.0815 7.2106 51.0069 6.97594C50.9322 6.7306 50.8949 6.46394 50.8949 6.17594C50.8949 5.82394 50.9695 5.50394 51.1189 5.21594C51.2789 4.91727 51.4922 4.66127 51.7589 4.44794C52.0362 4.22394 52.3562 4.05327 52.7189 3.93594C53.0922 3.8186 53.4869 3.75994 53.9029 3.75994C54.2975 3.75994 54.6869 3.81327 55.0709 3.91994C55.4655 4.0266 55.8282 4.18127 56.1589 4.38394C56.4895 4.5866 56.7669 4.8266 56.9909 5.10394L56.0469 6.14394C55.8442 5.94127 55.6202 5.76527 55.3749 5.61594C55.1402 5.45594 54.9002 5.33327 54.6549 5.24794C54.4095 5.1626 54.1855 5.11994 53.9829 5.11994C53.7589 5.11994 53.5562 5.14127 53.3749 5.18394C53.1935 5.2266 53.0389 5.2906 52.9109 5.37594C52.7935 5.46127 52.7029 5.56794 52.6389 5.69594C52.5749 5.82394 52.5429 5.96794 52.5429 6.12794C52.5535 6.2666 52.5855 6.39994 52.6389 6.52794C52.7029 6.64527 52.7882 6.7466 52.8949 6.83194C53.0122 6.91727 53.1882 7.00794 53.4229 7.10394C53.6575 7.19994 53.9562 7.2906 54.3189 7.37594C54.8522 7.5146 55.2895 7.66927 55.6309 7.83994C55.9829 7.99994 56.2602 8.1866 56.4629 8.39994C56.6762 8.6026 56.8255 8.83727 56.9109 9.10394C56.9962 9.3706 57.0389 9.66927 57.0389 9.99994C57.0389 10.4799 56.9002 10.9119 56.6229 11.2959C56.3562 11.6693 55.9935 11.9626 55.5349 12.1759C55.0762 12.3893 54.5642 12.4959 53.9989 12.4959ZM59.1271 12.3359V3.93594H60.7751V12.3359H59.1271ZM59.9271 2.07994C59.5751 2.07994 59.3031 1.98927 59.1111 1.80794C58.9191 1.6266 58.8231 1.3706 58.8231 1.03994C58.8231 0.730604 58.9191 0.479937 59.1111 0.287937C59.3138 0.0959371 59.5858 -6.29425e-05 59.9271 -6.29425e-05C60.2791 -6.29425e-05 60.5511 0.0906038 60.7431 0.271937C60.9351 0.45327 61.0311 0.70927 61.0311 1.03994C61.0311 1.34927 60.9298 1.59994 60.7271 1.79194C60.5351 1.98394 60.2685 2.07994 59.9271 2.07994ZM67.0843 12.4959C66.2629 12.4959 65.5269 12.3093 64.8763 11.9359C64.2363 11.5519 63.7296 11.0346 63.3563 10.3839C62.9829 9.7226 62.7963 8.9706 62.7963 8.12794C62.7963 7.28527 62.9829 6.5386 63.3563 5.88794C63.7296 5.2266 64.2363 4.70927 64.8763 4.33594C65.5269 3.95194 66.2629 3.75994 67.0843 3.75994C67.8949 3.75994 68.6203 3.95194 69.2603 4.33594C69.9109 4.70927 70.4229 5.2266 70.7963 5.88794C71.1696 6.5386 71.3563 7.28527 71.3563 8.12794C71.3563 8.9706 71.1696 9.7226 70.7963 10.3839C70.4229 11.0346 69.9109 11.5519 69.2603 11.9359C68.6203 12.3093 67.8949 12.4959 67.0843 12.4959ZM67.0843 10.9919C67.5856 10.9919 68.0336 10.8693 68.4283 10.6239C68.8229 10.3679 69.1323 10.0266 69.3563 9.59994C69.5803 9.1626 69.6869 8.67194 69.6763 8.12794C69.6869 7.57327 69.5803 7.0826 69.3563 6.65594C69.1323 6.2186 68.8229 5.87727 68.4283 5.63194C68.0336 5.3866 67.5856 5.26394 67.0843 5.26394C66.5829 5.26394 66.1296 5.39194 65.7243 5.64794C65.3296 5.89327 65.0203 6.2346 64.7963 6.67194C64.5723 7.0986 64.4656 7.58394 64.4763 8.12794C64.4656 8.67194 64.5723 9.1626 64.7963 9.59994C65.0203 10.0266 65.3296 10.3679 65.7243 10.6239C66.1296 10.8693 66.5829 10.9919 67.0843 10.9919ZM73.152 12.3359V3.93594H74.8V5.66394L74.512 5.85594C74.6187 5.4826 74.8267 5.14127 75.136 4.83194C75.4453 4.51194 75.8133 4.25594 76.24 4.06394C76.6667 3.86127 77.104 3.75994 77.552 3.75994C78.192 3.75994 78.7253 3.88794 79.152 4.14394C79.5787 4.38927 79.8987 4.76794 80.112 5.27994C80.3253 5.79194 80.432 6.43727 80.432 7.21594V12.3359H78.784V7.32794C78.784 6.84794 78.72 6.45327 78.592 6.14394C78.464 5.82394 78.2667 5.5946 78 5.45594C77.7333 5.3066 77.4027 5.2426 77.008 5.26394C76.688 5.26394 76.3947 5.31727 76.128 5.42394C75.8613 5.51994 75.6267 5.6586 75.424 5.83994C75.232 6.02127 75.0773 6.2346 74.96 6.47994C74.8533 6.7146 74.8 6.9706 74.8 7.24794V12.3359H73.984C73.8453 12.3359 73.7067 12.3359 73.568 12.3359C73.4293 12.3359 73.2907 12.3359 73.152 12.3359ZM85.4676 12.4959C84.7636 12.4959 84.129 12.3733 83.5636 12.1279C82.9983 11.8826 82.529 11.5199 82.1556 11.0399L83.2756 10.0799C83.5956 10.4533 83.9423 10.7253 84.3156 10.8959C84.6996 11.0559 85.1316 11.1359 85.6116 11.1359C85.8036 11.1359 85.9796 11.1146 86.1396 11.0719C86.3103 11.0186 86.4543 10.9439 86.5716 10.8479C86.6996 10.7519 86.7956 10.6399 86.8596 10.5119C86.9236 10.3733 86.9556 10.2239 86.9556 10.0639C86.9556 9.7866 86.8543 9.5626 86.6516 9.39194C86.545 9.31727 86.3743 9.23727 86.1396 9.15194C85.9156 9.05594 85.6223 8.95994 85.2596 8.86394C84.641 8.70394 84.1343 8.5226 83.7396 8.31994C83.345 8.11727 83.041 7.88794 82.8276 7.63194C82.6676 7.42927 82.5503 7.2106 82.4756 6.97594C82.401 6.7306 82.3636 6.46394 82.3636 6.17594C82.3636 5.82394 82.4383 5.50394 82.5876 5.21594C82.7476 4.91727 82.961 4.66127 83.2276 4.44794C83.505 4.22394 83.825 4.05327 84.1876 3.93594C84.561 3.8186 84.9556 3.75994 85.3716 3.75994C85.7663 3.75994 86.1556 3.81327 86.5396 3.91994C86.9343 4.0266 87.297 4.18127 87.6276 4.38394C87.9583 4.5866 88.2356 4.8266 88.4596 5.10394L87.5156 6.14394C87.313 5.94127 87.089 5.76527 86.8436 5.61594C86.609 5.45594 86.369 5.33327 86.1236 5.24794C85.8783 5.1626 85.6543 5.11994 85.4516 5.11994C85.2276 5.11994 85.025 5.14127 84.8436 5.18394C84.6623 5.2266 84.5076 5.2906 84.3796 5.37594C84.2623 5.46127 84.1716 5.56794 84.1076 5.69594C84.0436 5.82394 84.0116 5.96794 84.0116 6.12794C84.0223 6.2666 84.0543 6.39994 84.1076 6.52794C84.1716 6.64527 84.257 6.7466 84.3636 6.83194C84.481 6.91727 84.657 7.00794 84.8916 7.10394C85.1263 7.19994 85.425 7.2906 85.7876 7.37594C86.321 7.5146 86.7583 7.66927 87.0996 7.83994C87.4516 7.99994 87.729 8.1866 87.9316 8.39994C88.145 8.6026 88.2943 8.83727 88.3796 9.10394C88.465 9.3706 88.5076 9.66927 88.5076 9.99994C88.5076 10.4799 88.369 10.9119 88.0916 11.2959C87.825 11.6693 87.4623 11.9626 87.0036 12.1759C86.545 12.3893 86.033 12.4959 85.4676 12.4959ZM98.5843 12.4959C97.7629 12.4959 97.0269 12.3093 96.3763 11.9359C95.7363 11.5519 95.2296 11.0346 94.8563 10.3839C94.4829 9.7226 94.2963 8.9706 94.2963 8.12794C94.2963 7.28527 94.4829 6.5386 94.8563 5.88794C95.2296 5.2266 95.7363 4.70927 96.3763 4.33594C97.0269 3.95194 97.7629 3.75994 98.5843 3.75994C99.3949 3.75994 100.12 3.95194 100.76 4.33594C101.411 4.70927 101.923 5.2266 102.296 5.88794C102.67 6.5386 102.856 7.28527 102.856 8.12794C102.856 8.9706 102.67 9.7226 102.296 10.3839C101.923 11.0346 101.411 11.5519 100.76 11.9359C100.12 12.3093 99.3949 12.4959 98.5843 12.4959ZM98.5843 10.9919C99.0856 10.9919 99.5336 10.8693 99.9283 10.6239C100.323 10.3679 100.632 10.0266 100.856 9.59994C101.08 9.1626 101.187 8.67194 101.176 8.12794C101.187 7.57327 101.08 7.0826 100.856 6.65594C100.632 6.2186 100.323 5.87727 99.9283 5.63194C99.5336 5.3866 99.0856 5.26394 98.5843 5.26394C98.0829 5.26394 97.6296 5.39194 97.2243 5.64794C96.8296 5.89327 96.5203 6.2346 96.2963 6.67194C96.0723 7.0986 95.9656 7.58394 95.9763 8.12794C95.9656 8.67194 96.0723 9.1626 96.2963 9.59994C96.5203 10.0266 96.8296 10.3679 97.2243 10.6239C97.6296 10.8693 98.0829 10.9919 98.5843 10.9919ZM105.252 12.3359V2.99194C105.252 2.51194 105.358 2.08527 105.572 1.71194C105.785 1.3386 106.078 1.04527 106.452 0.831937C106.825 0.618604 107.257 0.511937 107.748 0.511937C108.089 0.511937 108.409 0.575937 108.708 0.703937C109.006 0.831937 109.246 1.0026 109.428 1.21594L108.868 2.47994C108.729 2.35194 108.574 2.2506 108.404 2.17594C108.244 2.0906 108.089 2.04794 107.94 2.04794C107.716 2.04794 107.524 2.08527 107.364 2.15994C107.214 2.22394 107.102 2.3306 107.028 2.47994C106.953 2.6186 106.916 2.78927 106.916 2.99194V12.3359H106.084C105.945 12.3359 105.806 12.3359 105.668 12.3359C105.529 12.3359 105.39 12.3359 105.252 12.3359ZM103.908 5.59994V4.07994H108.9V5.59994H103.908ZM115.521 12.3359V1.13594H119.905C120.705 1.13594 121.425 1.26927 122.065 1.53594C122.716 1.8026 123.27 2.1866 123.729 2.68794C124.188 3.18927 124.54 3.78127 124.785 4.46394C125.03 5.1466 125.153 5.90394 125.153 6.73594C125.153 7.56794 125.03 8.3306 124.785 9.02394C124.54 9.7066 124.188 10.2986 123.729 10.7999C123.281 11.2906 122.732 11.6693 122.081 11.9359C121.43 12.2026 120.705 12.3359 119.905 12.3359H115.521ZM117.249 10.8479L117.201 10.6719H119.825C120.39 10.6719 120.892 10.5813 121.329 10.3999C121.777 10.2186 122.15 9.9626 122.449 9.63194C122.758 9.2906 122.993 8.8746 123.153 8.38394C123.313 7.89327 123.393 7.34394 123.393 6.73594C123.393 6.12794 123.313 5.58394 123.153 5.10394C122.993 4.61327 122.758 4.19727 122.449 3.85594C122.14 3.5146 121.766 3.25327 121.329 3.07194C120.892 2.8906 120.39 2.79994 119.825 2.79994H117.153L117.249 2.65594V10.8479ZM130.302 12.3359L125.822 1.13594H127.789L130.462 7.93594C130.59 8.2666 130.702 8.56527 130.798 8.83194C130.904 9.0986 130.995 9.34394 131.07 9.56794C131.144 9.78127 131.214 9.98394 131.278 10.1759C131.342 10.3679 131.406 10.5599 131.47 10.7519L131.054 10.7679C131.128 10.5119 131.208 10.2453 131.294 9.96794C131.379 9.6906 131.475 9.3866 131.582 9.05594C131.699 8.72527 131.838 8.35194 131.998 7.93594L134.477 1.13594H136.494L131.982 12.3359H130.302ZM140.727 12.3359V2.79994H137.591V1.13594H145.687V2.79994H142.455V12.3359H140.727ZM152.302 12.3359V1.13594H156.686C157.486 1.13594 158.206 1.26927 158.846 1.53594C159.497 1.8026 160.052 2.1866 160.51 2.68794C160.969 3.18927 161.321 3.78127 161.566 4.46394C161.812 5.1466 161.934 5.90394 161.934 6.73594C161.934 7.56794 161.812 8.3306 161.566 9.02394C161.321 9.7066 160.969 10.2986 160.51 10.7999C160.062 11.2906 159.513 11.6693 158.862 11.9359C158.212 12.2026 157.486 12.3359 156.686 12.3359H152.302ZM154.03 10.8479L153.982 10.6719H156.606C157.172 10.6719 157.673 10.5813 158.11 10.3999C158.558 10.2186 158.932 9.9626 159.23 9.63194C159.54 9.2906 159.774 8.8746 159.934 8.38394C160.094 7.89327 160.174 7.34394 160.174 6.73594C160.174 6.12794 160.094 5.58394 159.934 5.10394C159.774 4.61327 159.54 4.19727 159.23 3.85594C158.921 3.5146 158.548 3.25327 158.11 3.07194C157.673 2.8906 157.172 2.79994 156.606 2.79994H153.934L154.03 2.65594V10.8479ZM168.815 12.4959C168.036 12.4959 167.322 12.3573 166.671 12.0799C166.02 11.8026 165.455 11.4079 164.975 10.8959C164.495 10.3733 164.122 9.75994 163.855 9.05594C163.599 8.35194 163.471 7.5786 163.471 6.73594C163.471 5.93594 163.61 5.1946 163.887 4.51194C164.175 3.8186 164.57 3.2106 165.071 2.68794C165.572 2.16527 166.154 1.75994 166.815 1.47194C167.476 1.18394 168.191 1.03994 168.959 1.03994C169.503 1.03994 170.031 1.12527 170.543 1.29594C171.066 1.45594 171.535 1.68527 171.951 1.98394C172.378 2.27194 172.724 2.6026 172.991 2.97594L171.839 4.17594C171.53 3.8666 171.215 3.6106 170.895 3.40794C170.586 3.1946 170.266 3.0346 169.935 2.92794C169.615 2.82127 169.29 2.76794 168.959 2.76794C168.436 2.76794 167.946 2.86927 167.487 3.07194C167.039 3.26394 166.644 3.53594 166.303 3.88794C165.972 4.23994 165.711 4.66127 165.519 5.15194C165.327 5.63194 165.231 6.15994 165.231 6.73594C165.231 7.34394 165.322 7.8986 165.503 8.39994C165.695 8.8906 165.962 9.31194 166.303 9.66394C166.644 10.0159 167.05 10.2879 167.519 10.4799C167.999 10.6613 168.527 10.7519 169.103 10.7519C169.455 10.7519 169.802 10.7039 170.143 10.6079C170.484 10.5119 170.804 10.3733 171.103 10.1919C171.402 10.0106 171.674 9.79727 171.919 9.55194L172.783 10.9599C172.538 11.2479 172.202 11.5093 171.775 11.7439C171.359 11.9786 170.89 12.1653 170.367 12.3039C169.855 12.4319 169.338 12.4959 168.815 12.4959ZM178.587 12.4959C177.979 12.4959 177.413 12.4159 176.891 12.2559C176.379 12.0959 175.909 11.8559 175.483 11.5359C175.067 11.2053 174.693 10.7999 174.363 10.3199L175.547 8.95994C176.069 9.7066 176.571 10.2239 177.051 10.5119C177.531 10.7999 178.101 10.9439 178.763 10.9439C179.168 10.9439 179.536 10.8799 179.867 10.7519C180.197 10.6239 180.459 10.4479 180.651 10.2239C180.843 9.99994 180.939 9.74394 180.939 9.45594C180.939 9.26394 180.907 9.0826 180.843 8.91194C180.779 8.74127 180.677 8.5866 180.539 8.44794C180.411 8.30927 180.24 8.18127 180.027 8.06394C179.824 7.9466 179.584 7.84527 179.307 7.75994C179.029 7.66394 178.709 7.58394 178.347 7.51994C177.771 7.4026 177.269 7.24794 176.843 7.05594C176.416 6.86394 176.059 6.62394 175.771 6.33594C175.483 6.04794 175.269 5.7226 175.131 5.35994C174.992 4.9866 174.923 4.5706 174.923 4.11194C174.923 3.66394 175.019 3.24794 175.211 2.86394C175.413 2.47994 175.685 2.14927 176.027 1.87194C176.379 1.58394 176.789 1.36527 177.259 1.21594C177.728 1.05594 178.235 0.975937 178.779 0.975937C179.355 0.975937 179.883 1.0506 180.363 1.19994C180.843 1.34927 181.269 1.57327 181.642 1.87194C182.016 2.15994 182.325 2.51727 182.571 2.94394L181.355 4.14394C181.141 3.79194 180.901 3.4986 180.635 3.26394C180.368 3.0186 180.075 2.83727 179.755 2.71994C179.435 2.59194 179.093 2.52794 178.731 2.52794C178.315 2.52794 177.952 2.59194 177.643 2.71994C177.333 2.84794 177.088 3.02927 176.907 3.26394C176.736 3.48794 176.651 3.7546 176.651 4.06394C176.651 4.28794 176.693 4.49594 176.779 4.68794C176.864 4.86927 176.992 5.0346 177.163 5.18394C177.344 5.3226 177.584 5.4506 177.883 5.56794C178.181 5.6746 178.539 5.7706 178.955 5.85594C179.541 5.98394 180.064 6.14927 180.523 6.35194C180.981 6.54394 181.371 6.77327 181.691 7.03994C182.011 7.3066 182.251 7.60527 182.411 7.93594C182.581 8.2666 182.667 8.62394 182.667 9.00794C182.667 9.7226 182.501 10.3413 182.171 10.8639C181.84 11.3866 181.371 11.7919 180.763 12.0799C180.155 12.3573 179.429 12.4959 178.587 12.4959ZM185.115 12.3359V1.13594H189.883C190.523 1.13594 191.11 1.29594 191.643 1.61594C192.187 1.92527 192.619 2.35194 192.939 2.89594C193.259 3.42927 193.419 4.03194 193.419 4.70394C193.419 5.31194 193.259 5.87727 192.939 6.39994C192.619 6.9226 192.192 7.34394 191.659 7.66394C191.126 7.97327 190.534 8.12794 189.883 8.12794H186.843V12.3359H185.115ZM191.771 12.3359L188.923 7.27994L190.699 6.87994L193.867 12.3519L191.771 12.3359ZM186.843 6.46394H190.043C190.352 6.46394 190.63 6.38927 190.875 6.23994C191.12 6.07994 191.312 5.8666 191.451 5.59994C191.59 5.3226 191.659 5.0186 191.659 4.68794C191.659 4.3146 191.568 3.98927 191.387 3.71194C191.216 3.42394 190.971 3.19994 190.651 3.03994C190.342 2.87994 189.99 2.79994 189.595 2.79994H186.843V6.46394ZM204.02 12.3359L199.54 1.13594H201.508L204.18 7.93594C204.308 8.2666 204.42 8.56527 204.516 8.83194C204.623 9.0986 204.714 9.34394 204.788 9.56794C204.863 9.78127 204.932 9.98394 204.996 10.1759C205.06 10.3679 205.124 10.5599 205.188 10.7519L204.772 10.7679C204.847 10.5119 204.927 10.2453 205.012 9.96794C205.098 9.6906 205.194 9.3866 205.3 9.05594C205.418 8.72527 205.556 8.35194 205.716 7.93594L208.196 1.13594H210.212L205.7 12.3359H204.02ZM212.082 12.3359L211.554 11.0239L214.978 7.16794C215.159 6.97594 215.346 6.75727 215.538 6.51194C215.74 6.25594 215.932 5.9946 216.114 5.72794C216.295 5.46127 216.439 5.19994 216.546 4.94394C216.663 4.67727 216.722 4.4266 216.722 4.19194C216.722 3.8506 216.652 3.5626 216.514 3.32794C216.386 3.0826 216.194 2.89594 215.938 2.76794C215.692 2.63994 215.394 2.57594 215.042 2.57594C214.732 2.57594 214.428 2.6666 214.13 2.84794C213.831 3.02927 213.559 3.28527 213.314 3.61594C213.068 3.9466 212.876 4.3306 212.738 4.76794L211.41 3.93594C211.591 3.31727 211.863 2.78927 212.226 2.35194C212.599 1.90394 213.042 1.5626 213.554 1.32794C214.076 1.09327 214.642 0.975937 215.25 0.975937C215.879 0.975937 216.439 1.10927 216.93 1.37594C217.42 1.63194 217.804 1.9946 218.082 2.46394C218.359 2.9226 218.498 3.45594 218.498 4.06394C218.498 4.30927 218.471 4.55994 218.418 4.81594C218.364 5.07194 218.279 5.3386 218.162 5.61594C218.044 5.8826 217.895 6.16527 217.714 6.46394C217.532 6.75194 217.314 7.05594 217.058 7.37594C216.812 7.69594 216.53 8.03194 216.21 8.38394L213.666 11.1519L213.346 10.6719H218.85V12.3359H212.082ZM223.055 12.3359V2.79994H219.919V1.13594H228.015V2.79994H224.783V12.3359H223.055ZM230.146 12.3359V1.13594H237.202V2.79994H231.874V10.6719H237.202V12.3359H230.146ZM230.93 7.42394V5.75994H236.322V7.42394H230.93ZM244.459 12.3359V1.13594H248.843C249.643 1.13594 250.363 1.26927 251.003 1.53594C251.653 1.8026 252.208 2.1866 252.667 2.68794C253.125 3.18927 253.477 3.78127 253.723 4.46394C253.968 5.1466 254.091 5.90394 254.091 6.73594C254.091 7.56794 253.968 8.3306 253.723 9.02394C253.477 9.7066 253.125 10.2986 252.667 10.7999C252.219 11.2906 251.669 11.6693 251.019 11.9359C250.368 12.2026 249.643 12.3359 248.843 12.3359H244.459ZM246.187 10.8479L246.139 10.6719H248.763C249.328 10.6719 249.829 10.5813 250.267 10.3999C250.715 10.2186 251.088 9.9626 251.387 9.63194C251.696 9.2906 251.931 8.8746 252.091 8.38394C252.251 7.89327 252.331 7.34394 252.331 6.73594C252.331 6.12794 252.251 5.58394 252.091 5.10394C251.931 4.61327 251.696 4.19727 251.387 3.85594C251.077 3.5146 250.704 3.25327 250.267 3.07194C249.829 2.8906 249.328 2.79994 248.763 2.79994H246.091L246.187 2.65594V10.8479ZM256.283 12.3359V3.93594H257.931V12.3359H256.283ZM257.083 2.07994C256.731 2.07994 256.459 1.98927 256.267 1.80794C256.075 1.6266 255.979 1.3706 255.979 1.03994C255.979 0.730604 256.075 0.479937 256.267 0.287937C256.47 0.0959371 256.742 -6.29425e-05 257.083 -6.29425e-05C257.435 -6.29425e-05 257.707 0.0906038 257.899 0.271937C258.091 0.45327 258.187 0.70927 258.187 1.03994C258.187 1.34927 258.086 1.59994 257.883 1.79194C257.691 1.98394 257.425 2.07994 257.083 2.07994ZM260.465 12.3359V3.93594H262.129V6.57594L261.969 5.93594C262.086 5.5306 262.283 5.1626 262.561 4.83194C262.849 4.50127 263.174 4.23994 263.536 4.04794C263.91 3.85594 264.294 3.75994 264.689 3.75994C264.87 3.75994 265.041 3.77594 265.201 3.80794C265.371 3.83994 265.505 3.87727 265.601 3.91994L265.169 5.71194C265.041 5.6586 264.897 5.61594 264.737 5.58394C264.587 5.54127 264.438 5.51994 264.289 5.51994C264.001 5.51994 263.723 5.5786 263.457 5.69594C263.201 5.8026 262.971 5.95727 262.769 6.15994C262.577 6.35194 262.422 6.58127 262.305 6.84794C262.187 7.10394 262.129 7.3866 262.129 7.69594V12.3359H260.465ZM270.478 12.4959C269.614 12.4959 268.846 12.3146 268.174 11.9519C267.513 11.5786 266.99 11.0719 266.606 10.4319C266.233 9.79194 266.046 9.05594 266.046 8.22394C266.046 7.5626 266.153 6.95994 266.366 6.41594C266.58 5.87194 266.873 5.4026 267.246 5.00794C267.63 4.6026 268.084 4.29327 268.606 4.07994C269.14 3.85594 269.716 3.74394 270.334 3.74394C270.878 3.74394 271.385 3.8506 271.854 4.06394C272.324 4.2666 272.729 4.54927 273.07 4.91194C273.422 5.2746 273.689 5.7066 273.87 6.20794C274.062 6.6986 274.153 7.23727 274.142 7.82394L274.126 8.52794H267.262L266.894 7.21594H272.702L272.462 7.48794V7.10394C272.43 6.75194 272.313 6.43727 272.11 6.15994C271.908 5.8826 271.652 5.66394 271.342 5.50394C271.033 5.34394 270.697 5.26394 270.334 5.26394C269.758 5.26394 269.273 5.37594 268.878 5.59994C268.484 5.81327 268.185 6.13327 267.982 6.55994C267.78 6.97594 267.678 7.49327 267.678 8.11194C267.678 8.6986 267.801 9.2106 268.046 9.64794C268.292 10.0746 268.638 10.4053 269.086 10.6399C269.534 10.8746 270.052 10.9919 270.638 10.9919C271.054 10.9919 271.438 10.9226 271.79 10.7839C272.153 10.6453 272.542 10.3946 272.958 10.0319L273.79 11.1999C273.534 11.4559 273.22 11.6799 272.846 11.8719C272.484 12.0639 272.094 12.2186 271.678 12.3359C271.273 12.4426 270.873 12.4959 270.478 12.4959ZM279.501 12.4959C278.723 12.4959 278.024 12.3039 277.405 11.9199C276.797 11.5359 276.312 11.0133 275.949 10.3519C275.597 9.6906 275.421 8.94927 275.421 8.12794C275.421 7.3066 275.597 6.56527 275.949 5.90394C276.312 5.2426 276.797 4.71994 277.405 4.33594C278.024 3.95194 278.723 3.75994 279.501 3.75994C280.248 3.75994 280.925 3.9146 281.533 4.22394C282.152 4.5226 282.621 4.93327 282.941 5.45594L282.029 6.57594C281.859 6.3306 281.64 6.1066 281.373 5.90394C281.107 5.70127 280.824 5.54127 280.525 5.42394C280.227 5.3066 279.939 5.24794 279.661 5.24794C279.149 5.24794 278.691 5.37594 278.285 5.63194C277.891 5.87727 277.576 6.2186 277.341 6.65594C277.107 7.09327 276.989 7.58394 276.989 8.12794C276.989 8.67194 277.112 9.1626 277.357 9.59994C277.603 10.0266 277.928 10.3679 278.333 10.6239C278.739 10.8799 279.187 11.0079 279.677 11.0079C279.965 11.0079 280.243 10.9599 280.509 10.8639C280.787 10.7679 281.053 10.6239 281.309 10.4319C281.565 10.2399 281.805 10.0053 282.029 9.72794L282.941 10.8479C282.6 11.3279 282.109 11.7226 281.469 12.0319C280.84 12.3413 280.184 12.4959 279.501 12.4959ZM285.536 12.3359V1.79194H287.184V12.3359H285.536ZM283.792 5.53594V3.93594H289.136V5.53594H283.792ZM295.537 12.3359V1.13594H299.921C300.721 1.13594 301.441 1.26927 302.081 1.53594C302.731 1.8026 303.286 2.1866 303.745 2.68794C304.203 3.18927 304.555 3.78127 304.801 4.46394C305.046 5.1466 305.169 5.90394 305.169 6.73594C305.169 7.56794 305.046 8.3306 304.801 9.02394C304.555 9.7066 304.203 10.2986 303.745 10.7999C303.297 11.2906 302.747 11.6693 302.097 11.9359C301.446 12.2026 300.721 12.3359 299.921 12.3359H295.537ZM297.265 10.8479L297.217 10.6719H299.841C300.406 10.6719 300.907 10.5813 301.345 10.3999C301.793 10.2186 302.166 9.9626 302.465 9.63194C302.774 9.2906 303.009 8.8746 303.169 8.38394C303.329 7.89327 303.409 7.34394 303.409 6.73594C303.409 6.12794 303.329 5.58394 303.169 5.10394C303.009 4.61327 302.774 4.19727 302.465 3.85594C302.155 3.5146 301.782 3.25327 301.345 3.07194C300.907 2.8906 300.406 2.79994 299.841 2.79994H297.169L297.265 2.65594V10.8479ZM307.09 12.3359V3.93594H308.754V6.57594L308.594 5.93594C308.711 5.5306 308.908 5.1626 309.186 4.83194C309.474 4.50127 309.799 4.23994 310.161 4.04794C310.535 3.85594 310.919 3.75994 311.314 3.75994C311.495 3.75994 311.666 3.77594 311.826 3.80794C311.996 3.83994 312.13 3.87727 312.226 3.91994L311.794 5.71194C311.666 5.6586 311.522 5.61594 311.362 5.58394C311.212 5.54127 311.063 5.51994 310.914 5.51994C310.626 5.51994 310.348 5.5786 310.082 5.69594C309.826 5.8026 309.596 5.95727 309.394 6.15994C309.202 6.35194 309.047 6.58127 308.93 6.84794C308.812 7.10394 308.754 7.3866 308.754 7.69594V12.3359H307.09ZM313.815 12.3359V3.93594H315.463V12.3359H313.815ZM314.615 2.07994C314.263 2.07994 313.991 1.98927 313.799 1.80794C313.607 1.6266 313.511 1.3706 313.511 1.03994C313.511 0.730604 313.607 0.479937 313.799 0.287937C314.001 0.0959371 314.273 -6.29425e-05 314.615 -6.29425e-05C314.967 -6.29425e-05 315.239 0.0906038 315.431 0.271937C315.623 0.45327 315.719 0.70927 315.719 1.03994C315.719 1.34927 315.617 1.59994 315.415 1.79194C315.223 1.98394 314.956 2.07994 314.615 2.07994ZM320.748 12.3359L317.196 3.93594H318.972L321.532 10.2239L321.228 10.3679L323.964 3.93594H325.66L321.932 12.3359H320.748ZM330.853 12.4959C329.989 12.4959 329.221 12.3146 328.549 11.9519C327.888 11.5786 327.365 11.0719 326.981 10.4319C326.608 9.79194 326.421 9.05594 326.421 8.22394C326.421 7.5626 326.528 6.95994 326.741 6.41594C326.955 5.87194 327.248 5.4026 327.621 5.00794C328.005 4.6026 328.459 4.29327 328.981 4.07994C329.515 3.85594 330.091 3.74394 330.709 3.74394C331.253 3.74394 331.76 3.8506 332.229 4.06394C332.699 4.2666 333.104 4.54927 333.445 4.91194C333.797 5.2746 334.064 5.7066 334.245 6.20794C334.437 6.6986 334.528 7.23727 334.517 7.82394L334.501 8.52794H327.637L327.269 7.21594H333.077L332.837 7.48794V7.10394C332.805 6.75194 332.688 6.43727 332.485 6.15994C332.283 5.8826 332.027 5.66394 331.717 5.50394C331.408 5.34394 331.072 5.26394 330.709 5.26394C330.133 5.26394 329.648 5.37594 329.253 5.59994C328.859 5.81327 328.56 6.13327 328.357 6.55994C328.155 6.97594 328.053 7.49327 328.053 8.11194C328.053 8.6986 328.176 9.2106 328.421 9.64794C328.667 10.0746 329.013 10.4053 329.461 10.6399C329.909 10.8746 330.427 10.9919 331.013 10.9919C331.429 10.9919 331.813 10.9226 332.165 10.7839C332.528 10.6453 332.917 10.3946 333.333 10.0319L334.165 11.1999C333.909 11.4559 333.595 11.6799 333.221 11.8719C332.859 12.0639 332.469 12.2186 332.053 12.3359C331.648 12.4426 331.248 12.4959 330.853 12.4959Z" fill="white"/>
</svg>
