<svg width="306" height="63" viewBox="0 0 306 63" fill="none" xmlns="http://www.w3.org/2000/svg">
<path d="M2.63316 20V0.391366H10.5046C11.9239 0.391366 13.2031 0.624802 14.3423 1.09167C15.5002 1.55855 16.4899 2.23084 17.3116 3.10856C18.152 3.98628 18.7869 5.02274 19.2165 6.21793C19.6647 7.41312 19.8888 8.73904 19.8888 10.1957C19.8888 11.6523 19.6647 12.9876 19.2165 14.2014C18.7869 15.3966 18.1613 16.4331 17.3396 17.3108C16.5179 18.1699 15.5282 18.8328 14.3703 19.2997C13.2125 19.7666 11.9239 20 10.5046 20H2.63316ZM6.27476 17.1708L5.99464 16.6385H10.3646C11.2796 16.6385 12.092 16.4891 12.8016 16.1903C13.53 15.8915 14.1462 15.462 14.6505 14.9018C15.1547 14.3415 15.5375 13.6692 15.799 12.8849C16.0604 12.0818 16.1911 11.1855 16.1911 10.1957C16.1911 9.20591 16.0604 8.31886 15.799 7.53451C15.5375 6.73149 15.1453 6.04986 14.6224 5.48961C14.1182 4.92936 13.5113 4.49984 12.8016 4.20104C12.092 3.90225 11.2796 3.75285 10.3646 3.75285H5.9106L6.27476 3.27664V17.1708ZM22.8353 20V16.7786H26.0567V3.61278H22.8353V0.391366H32.9197V3.61278H29.6983V16.7786H32.9197V20H22.8353ZM37.5665 20V0.391366H41.012L48.1552 12.0165L46.1383 11.9885L53.3655 0.391366H56.6429V20H53.0293V12.6328C53.0293 10.952 53.0667 9.43935 53.1414 8.09476C53.2347 6.75017 53.3841 5.41491 53.5896 4.08899L54.0378 5.29352L47.9591 14.6777H46.1103L40.2277 5.37756L40.6199 4.08899C40.8253 5.34021 40.9653 6.62878 41.04 7.9547C41.1334 9.26194 41.1801 10.8213 41.1801 12.6328V20H37.5665ZM61.9132 20V0.391366H74.7428V3.69682H65.4987V16.6945H74.8549V20H61.9132ZM63.5939 11.5963V8.34687H73.3142V11.5963H63.5939ZM79.4209 20V0.391366H82.6983L94.0713 15.7141L93.4551 15.8262C93.3804 15.3033 93.315 14.771 93.259 14.2295C93.2029 13.6692 93.1469 13.0903 93.0909 12.4927C93.0535 11.8951 93.0162 11.2695 92.9788 10.6159C92.9602 9.96225 92.9415 9.28061 92.9228 8.57097C92.9041 7.84265 92.8948 7.07698 92.8948 6.27396V0.391366H96.5084V20H93.1749L81.7459 4.90135L82.4742 4.70527C82.5676 5.75106 82.6423 6.64745 82.6983 7.39445C82.773 8.12277 82.829 8.75772 82.8664 9.29929C82.9037 9.82219 82.9318 10.261 82.9504 10.6159C82.9878 10.9707 83.0065 11.2975 83.0065 11.5963C83.0251 11.8764 83.0345 12.1472 83.0345 12.4087V20H79.4209ZM107.989 20.2801C106.85 20.2801 105.804 20.1401 104.852 19.8599C103.899 19.5611 103.04 19.1223 102.275 18.5434C101.509 17.9644 100.827 17.2641 100.23 16.4424L102.611 13.7532C103.526 15.0231 104.422 15.9009 105.3 16.3864C106.178 16.872 107.168 17.1147 108.269 17.1147C108.904 17.1147 109.483 17.0214 110.006 16.8346C110.529 16.6292 110.94 16.3584 111.239 16.0222C111.538 15.6674 111.687 15.2659 111.687 14.8177C111.687 14.5002 111.622 14.2108 111.491 13.9493C111.379 13.6692 111.201 13.4264 110.959 13.221C110.716 12.9969 110.417 12.7915 110.062 12.6047C109.707 12.418 109.306 12.2593 108.858 12.1285C108.409 11.9978 107.915 11.8764 107.373 11.7644C106.346 11.559 105.45 11.2882 104.684 10.952C103.918 10.5972 103.274 10.1677 102.751 9.66345C102.228 9.14055 101.845 8.56163 101.602 7.92668C101.36 7.27306 101.238 6.5354 101.238 5.71371C101.238 4.89201 101.416 4.13568 101.771 3.44471C102.144 2.75374 102.648 2.15614 103.283 1.65192C103.918 1.1477 104.656 0.755526 105.496 0.475403C106.337 0.19528 107.242 0.0552186 108.213 0.0552186C109.315 0.0552186 110.296 0.185943 111.155 0.447391C112.032 0.70884 112.798 1.10101 113.452 1.62391C114.124 2.12813 114.675 2.7444 115.104 3.47272L112.695 5.85377C112.322 5.27485 111.902 4.79864 111.435 4.42514C110.968 4.03297 110.464 3.74351 109.922 3.55676C109.381 3.35134 108.811 3.24862 108.213 3.24862C107.541 3.24862 106.953 3.342 106.449 3.52875C105.963 3.7155 105.58 3.98628 105.3 4.34111C105.02 4.67725 104.88 5.0881 104.88 5.57365C104.88 5.94715 104.964 6.28329 105.132 6.58209C105.3 6.86222 105.534 7.11433 105.832 7.33842C106.15 7.56252 106.551 7.75861 107.037 7.92668C107.522 8.09476 108.073 8.24416 108.69 8.37488C109.717 8.58031 110.641 8.86043 111.463 9.21525C112.285 9.5514 112.985 9.96225 113.564 10.4478C114.143 10.9147 114.582 11.4562 114.88 12.0725C115.179 12.6701 115.329 13.3424 115.329 14.0894C115.329 15.378 115.02 16.4891 114.404 17.4229C113.807 18.3379 112.957 19.0476 111.855 19.5518C110.753 20.0373 109.465 20.2801 107.989 20.2801ZM118.745 20V16.7786H121.966V3.61278H118.745V0.391366H128.829V3.61278H125.608V16.7786H128.829V20H118.745ZM141.525 20.2801C140.125 20.2801 138.827 20.028 137.632 19.5238C136.436 19.0196 135.391 18.3193 134.494 17.4229C133.616 16.5078 132.935 15.434 132.449 14.2014C131.964 12.9689 131.721 11.6243 131.721 10.1677C131.721 8.71103 131.964 7.36644 132.449 6.13389C132.935 4.90135 133.616 3.83688 134.494 2.94049C135.391 2.02542 136.436 1.31577 137.632 0.81155C138.827 0.307329 140.125 0.0552186 141.525 0.0552186C142.945 0.0552186 144.252 0.307329 145.447 0.81155C146.642 1.31577 147.679 2.02542 148.556 2.94049C149.434 3.85556 150.116 4.92936 150.601 6.16191C151.087 7.37577 151.33 8.71103 151.33 10.1677C151.33 11.6056 151.087 12.9409 150.601 14.1734C150.116 15.406 149.434 16.4798 148.556 17.3949C147.679 18.3099 146.642 19.0196 145.447 19.5238C144.252 20.028 142.945 20.2801 141.525 20.2801ZM141.525 16.8066C142.422 16.8066 143.234 16.6479 143.962 16.3304C144.709 15.9942 145.354 15.5274 145.895 14.9298C146.437 14.3135 146.857 13.6039 147.156 12.8008C147.473 11.9978 147.632 11.1201 147.632 10.1677C147.632 9.21525 147.473 8.33753 147.156 7.53451C146.857 6.73149 146.437 6.03118 145.895 5.43359C145.354 4.81731 144.709 4.35044 143.962 4.03297C143.234 3.69682 142.422 3.52875 141.525 3.52875C140.648 3.52875 139.835 3.69682 139.088 4.03297C138.341 4.35044 137.697 4.80798 137.155 5.40557C136.614 6.00317 136.194 6.70348 135.895 7.5065C135.596 8.30952 135.447 9.19658 135.447 10.1677C135.447 11.1201 135.596 12.0071 135.895 12.8288C136.194 13.6319 136.614 14.3322 137.155 14.9298C137.697 15.5274 138.341 15.9942 139.088 16.3304C139.835 16.6479 140.648 16.8066 141.525 16.8066ZM155.278 20V0.391366H158.556L169.929 15.7141L169.313 15.8262C169.238 15.3033 169.173 14.771 169.117 14.2295C169.061 13.6692 169.005 13.0903 168.949 12.4927C168.911 11.8951 168.874 11.2695 168.836 10.6159C168.818 9.96225 168.799 9.28061 168.78 8.57097C168.762 7.84265 168.752 7.07698 168.752 6.27396V0.391366H172.366V20H169.033L157.604 4.90135L158.332 4.70527C158.425 5.75106 158.5 6.64745 158.556 7.39445C158.631 8.12277 158.687 8.75772 158.724 9.29929C158.761 9.82219 158.789 10.261 158.808 10.6159C158.845 10.9707 158.864 11.2975 158.864 11.5963C158.883 11.8764 158.892 12.1472 158.892 12.4087V20H155.278ZM185.862 20V0.391366H193.734C195.153 0.391366 196.432 0.624802 197.571 1.09167C198.729 1.55855 199.719 2.23084 200.541 3.10856C201.381 3.98628 202.016 5.02274 202.446 6.21793C202.894 7.41312 203.118 8.73904 203.118 10.1957C203.118 11.6523 202.894 12.9876 202.446 14.2014C202.016 15.3966 201.39 16.4331 200.569 17.3108C199.747 18.1699 198.757 18.8328 197.599 19.2997C196.442 19.7666 195.153 20 193.734 20H185.862ZM189.504 17.1708L189.224 16.6385H193.594C194.509 16.6385 195.321 16.4891 196.031 16.1903C196.759 15.8915 197.375 15.462 197.88 14.9018C198.384 14.3415 198.767 13.6692 199.028 12.8849C199.29 12.0818 199.42 11.1855 199.42 10.1957C199.42 9.20591 199.29 8.31886 199.028 7.53451C198.767 6.73149 198.374 6.04986 197.852 5.48961C197.347 4.92936 196.74 4.49984 196.031 4.20104C195.321 3.90225 194.509 3.75285 193.594 3.75285H189.14L189.504 3.27664V17.1708ZM207.063 20V0.391366H219.893V3.69682H210.649V16.6945H220.005V20H207.063ZM208.744 11.5963V8.34687H218.464V11.5963H208.744ZM228.492 20V3.75285H222.89V0.391366H237.905V3.75285H232.134V20H228.492ZM237.896 20L245.544 0.391366H248.961L256.553 20H252.771L248.569 8.85109C248.476 8.62699 248.345 8.27217 248.177 7.78662C248.028 7.30108 247.86 6.77818 247.673 6.21793C247.486 5.63901 247.318 5.10678 247.169 4.62123C247.019 4.11701 246.907 3.75285 246.832 3.52875L247.533 3.50073C247.421 3.87423 247.29 4.29442 247.141 4.76129C246.991 5.22816 246.832 5.71371 246.664 6.21793C246.496 6.72215 246.328 7.2077 246.16 7.67457C246.011 8.14145 245.871 8.56163 245.74 8.93513L241.538 20H237.896ZM241.37 15.518L242.631 12.3526H251.567L252.911 15.518H241.37ZM259.053 20V16.7786H262.274V3.61278H259.053V0.391366H269.137V3.61278H265.916V16.7786H269.137V20H259.053ZM273.784 20V0.391366H277.425V16.6385H286.473V20H273.784ZM296.854 20.2801C295.715 20.2801 294.669 20.1401 293.716 19.8599C292.764 19.5611 291.905 19.1223 291.139 18.5434C290.374 17.9644 289.692 17.2641 289.094 16.4424L291.475 13.7532C292.39 15.0231 293.287 15.9009 294.165 16.3864C295.042 16.872 296.032 17.1147 297.134 17.1147C297.769 17.1147 298.348 17.0214 298.871 16.8346C299.393 16.6292 299.804 16.3584 300.103 16.0222C300.402 15.6674 300.551 15.2659 300.551 14.8177C300.551 14.5002 300.486 14.2108 300.355 13.9493C300.243 13.6692 300.066 13.4264 299.823 13.221C299.58 12.9969 299.281 12.7915 298.927 12.6047C298.572 12.418 298.17 12.2593 297.722 12.1285C297.274 11.9978 296.779 11.8764 296.237 11.7644C295.21 11.559 294.314 11.2882 293.548 10.952C292.783 10.5972 292.138 10.1677 291.615 9.66345C291.092 9.14055 290.71 8.56163 290.467 7.92668C290.224 7.27306 290.103 6.5354 290.103 5.71371C290.103 4.89201 290.28 4.13568 290.635 3.44471C291.008 2.75374 291.513 2.15614 292.148 1.65192C292.783 1.1477 293.52 0.755526 294.361 0.475403C295.201 0.19528 296.107 0.0552186 297.078 0.0552186C298.18 0.0552186 299.16 0.185943 300.019 0.447391C300.897 0.70884 301.662 1.10101 302.316 1.62391C302.988 2.12813 303.539 2.7444 303.969 3.47272L301.56 5.85377C301.186 5.27485 300.766 4.79864 300.299 4.42514C299.832 4.03297 299.328 3.74351 298.787 3.55676C298.245 3.35134 297.675 3.24862 297.078 3.24862C296.406 3.24862 295.817 3.342 295.313 3.52875C294.827 3.7155 294.445 3.98628 294.165 4.34111C293.884 4.67725 293.744 5.0881 293.744 5.57365C293.744 5.94715 293.828 6.28329 293.996 6.58209C294.165 6.86222 294.398 7.11433 294.697 7.33842C295.014 7.56252 295.416 7.75861 295.901 7.92668C296.387 8.09476 296.938 8.24416 297.554 8.37488C298.581 8.58031 299.506 8.86043 300.327 9.21525C301.149 9.5514 301.849 9.96225 302.428 10.4478C303.007 10.9147 303.446 11.4562 303.745 12.0725C304.044 12.6701 304.193 13.3424 304.193 14.0894C304.193 15.378 303.885 16.4891 303.269 17.4229C302.671 18.3379 301.821 19.0476 300.719 19.5518C299.618 20.0373 298.329 20.2801 296.854 20.2801Z" fill="white"/>
<path d="M11.0929 62.2987C9.69227 62.2987 8.39436 62.0466 7.19917 61.5423C6.00398 61.0381 4.95818 60.3378 4.06179 59.4414C3.18407 58.5264 2.50244 57.4525 2.01689 56.22C1.53134 54.9875 1.28857 53.6429 1.28857 52.1862C1.28857 50.7296 1.53134 49.385 2.01689 48.1524C2.50244 46.9199 3.18407 45.8554 4.06179 44.959C4.95818 44.044 6.00398 43.3343 7.19917 42.8301C8.39436 42.3259 9.69227 42.0738 11.0929 42.0738C12.5122 42.0738 13.8194 42.3259 15.0146 42.8301C16.2098 43.3343 17.2463 44.044 18.124 44.959C19.0017 45.8741 19.6833 46.9479 20.1689 48.1805C20.6544 49.3943 20.8972 50.7296 20.8972 52.1862C20.8972 53.6242 20.6544 54.9594 20.1689 56.192C19.6833 57.4245 19.0017 58.4983 18.124 59.4134C17.2463 60.3285 16.2098 61.0381 15.0146 61.5423C13.8194 62.0466 12.5122 62.2987 11.0929 62.2987ZM11.0929 58.8251C11.9893 58.8251 12.8016 58.6664 13.53 58.3489C14.277 58.0128 14.9212 57.5459 15.4628 56.9483C16.0044 56.3321 16.4246 55.6224 16.7234 54.8194C17.0408 54.0164 17.1996 53.1386 17.1996 52.1862C17.1996 51.2338 17.0408 50.3561 16.7234 49.5531C16.4246 48.75 16.0044 48.0497 15.4628 47.4521C14.9212 46.8359 14.277 46.369 13.53 46.0515C12.8016 45.7154 11.9893 45.5473 11.0929 45.5473C10.2152 45.5473 9.40281 45.7154 8.65581 46.0515C7.90882 46.369 7.26453 46.8265 6.72296 47.4241C6.18139 48.0217 5.7612 48.722 5.46241 49.5251C5.16361 50.3281 5.01421 51.2151 5.01421 52.1862C5.01421 53.1386 5.16361 54.0257 5.46241 54.8474C5.7612 55.6504 6.18139 56.3507 6.72296 56.9483C7.26453 57.5459 7.90882 58.0128 8.65581 58.3489C9.40281 58.6664 10.2152 58.8251 11.0929 58.8251ZM24.8461 62.0186V42.4099H28.4877V62.0186H24.8461ZM26.5268 53.979V50.6736H36.6393V53.979H26.5268ZM26.5268 45.7714V42.4099H37.8438V45.7714H26.5268ZM56.3416 62.2987C55.2024 62.2987 54.1566 62.1586 53.2042 61.8785C52.2518 61.5797 51.3927 61.1408 50.627 60.5619C49.8614 59.983 49.1797 59.2827 48.5821 58.461L50.9632 55.7718C51.8783 57.0417 52.7747 57.9194 53.6524 58.405C54.5301 58.8905 55.5199 59.1333 56.6217 59.1333C57.2566 59.1333 57.8355 59.0399 58.3584 58.8532C58.8813 58.6477 59.2922 58.377 59.591 58.0408C59.8898 57.686 60.0392 57.2845 60.0392 56.8363C60.0392 56.5188 59.9738 56.2293 59.8431 55.9679C59.731 55.6878 59.5536 55.445 59.3109 55.2396C59.0681 55.0155 58.7693 54.81 58.4145 54.6233C58.0596 54.4365 57.6581 54.2778 57.2099 54.1471C56.7617 54.0164 56.2669 53.895 55.7253 53.7829C54.6982 53.5775 53.8018 53.3067 53.0361 52.9706C52.2704 52.6157 51.6261 52.1862 51.1032 51.682C50.5804 51.1591 50.1975 50.5802 49.9547 49.9452C49.712 49.2916 49.5906 48.554 49.5906 47.7323C49.5906 46.9106 49.768 46.1542 50.1228 45.4633C50.4963 44.7723 51.0005 44.1747 51.6355 43.6705C52.2704 43.1663 53.0081 42.7741 53.8485 42.494C54.6888 42.2138 55.5946 42.0738 56.5657 42.0738C57.6675 42.0738 58.6479 42.2045 59.5069 42.4659C60.3847 42.7274 61.1503 43.1196 61.804 43.6425C62.4763 44.1467 63.0272 44.763 63.4567 45.4913L61.0476 47.8723C60.6741 47.2934 60.2539 46.8172 59.7871 46.4437C59.3202 46.0515 58.816 45.7621 58.2744 45.5753C57.7328 45.3699 57.1633 45.2672 56.5657 45.2672C55.8934 45.2672 55.3051 45.3606 54.8009 45.5473C54.3153 45.7341 53.9325 46.0048 53.6524 46.3597C53.3722 46.6958 53.2322 47.1067 53.2322 47.5922C53.2322 47.9657 53.3162 48.3018 53.4843 48.6006C53.6524 48.8808 53.8858 49.1329 54.1846 49.357C54.5021 49.5811 54.9036 49.7772 55.3891 49.9452C55.8747 50.1133 56.4256 50.2627 57.0419 50.3934C58.069 50.5989 58.9934 50.879 59.8151 51.2338C60.6368 51.57 61.3371 51.9808 61.916 52.4663C62.4949 52.9332 62.9338 53.4748 63.2326 54.0911C63.5314 54.6887 63.6808 55.361 63.6808 56.108C63.6808 57.3965 63.3727 58.5077 62.7564 59.4414C62.1588 60.3565 61.3091 61.0661 60.2073 61.5704C59.1054 62.0559 57.8169 62.2987 56.3416 62.2987ZM67.6852 62.0186V42.4099H75.5567C76.976 42.4099 78.2552 42.6434 79.3944 43.1102C80.5522 43.5771 81.542 44.2494 82.3637 45.1271C83.2041 46.0048 83.839 47.0413 84.2685 48.2365C84.7167 49.4317 84.9408 50.7576 84.9408 52.2142C84.9408 53.6709 84.7167 55.0061 84.2685 56.22C83.839 57.4152 83.2134 58.4517 82.3917 59.3294C81.57 60.1884 80.5802 60.8514 79.4224 61.3182C78.2646 61.7851 76.976 62.0186 75.5567 62.0186H67.6852ZM71.3268 59.1893L71.0467 58.6571H75.4166C76.3317 58.6571 77.1441 58.5077 77.8537 58.2089C78.582 57.9101 79.1983 57.4806 79.7025 56.9203C80.2068 56.3601 80.5896 55.6878 80.851 54.9034C81.1125 54.1004 81.2432 53.204 81.2432 52.2142C81.2432 51.2245 81.1125 50.3374 80.851 49.5531C80.5896 48.75 80.1974 48.0684 79.6745 47.5082C79.1703 46.9479 78.5634 46.5184 77.8537 46.2196C77.1441 45.9208 76.3317 45.7714 75.4166 45.7714H70.9627L71.3268 45.2952V59.1893ZM102.807 62.0186L94.9631 42.4099H98.9409L103.311 53.6429C103.535 54.2218 103.731 54.7447 103.899 55.2116C104.067 55.6598 104.217 56.0706 104.347 56.4441C104.478 56.8176 104.59 57.1818 104.683 57.5366C104.795 57.8914 104.917 58.2649 105.048 58.6571H104.263C104.394 58.1529 104.534 57.658 104.683 57.1724C104.833 56.6682 105.001 56.136 105.188 55.5757C105.393 55.0155 105.636 54.3712 105.916 53.6429L110.006 42.4099H114.012L106.112 62.0186H102.807ZM112.826 62.0186L120.473 42.4099H123.891L131.482 62.0186H127.7L123.498 50.8696C123.405 50.6455 123.274 50.2907 123.106 49.8052C122.957 49.3196 122.789 48.7967 122.602 48.2365C122.415 47.6576 122.247 47.1253 122.098 46.6398C121.948 46.1356 121.836 45.7714 121.762 45.5473L122.462 45.5193C122.35 45.8928 122.219 46.313 122.07 46.7798C121.92 47.2467 121.762 47.7323 121.594 48.2365C121.426 48.7407 121.258 49.2263 121.089 49.6931C120.94 50.16 120.8 50.5802 120.669 50.9537L116.467 62.0186H112.826ZM116.299 57.5366L117.56 54.3712H126.496L127.84 57.5366H116.299ZM134.57 62.0186V42.4099H138.212V58.6571H147.26V62.0186H134.57ZM155.001 62.0186L147.158 42.4099H151.136L155.506 53.6429C155.73 54.2218 155.926 54.7447 156.094 55.2116C156.262 55.6598 156.411 56.0706 156.542 56.4441C156.673 56.8176 156.785 57.1818 156.878 57.5366C156.99 57.8914 157.112 58.2649 157.242 58.6571H156.458C156.589 58.1529 156.729 57.658 156.878 57.1724C157.028 56.6682 157.196 56.136 157.382 55.5757C157.588 55.0155 157.831 54.3712 158.111 53.6429L162.201 42.4099H166.206L158.307 62.0186H155.001ZM169.312 62.0186V42.4099H182.142V45.7154H172.898V58.7131H182.254V62.0186H169.312ZM170.993 53.6149V50.3654H180.713V53.6149H170.993Z" fill="white"/>
</svg>
