<svg width="306" height="63" viewBox="0 0 306 63" fill="none" xmlns="http://www.w3.org/2000/svg">
<path d="M2.63316 20V0.391366H10.5046C11.9239 0.391366 13.2031 0.624802 14.3423 1.09167C15.5002 1.55855 16.4899 2.23084 17.3116 3.10856C18.152 3.98628 18.7869 5.02274 19.2165 6.21793C19.6647 7.41312 19.8888 8.73904 19.8888 10.1957C19.8888 11.6523 19.6647 12.9876 19.2165 14.2014C18.7869 15.3966 18.1613 16.4331 17.3396 17.3108C16.5179 18.1699 15.5282 18.8328 14.3703 19.2997C13.2125 19.7666 11.9239 20 10.5046 20H2.63316ZM6.27476 17.1708L5.99464 16.6385H10.3646C11.2796 16.6385 12.092 16.4891 12.8016 16.1903C13.53 15.8915 14.1462 15.462 14.6505 14.9018C15.1547 14.3415 15.5375 13.6692 15.799 12.8849C16.0604 12.0818 16.1911 11.1855 16.1911 10.1957C16.1911 9.20591 16.0604 8.31886 15.799 7.53451C15.5375 6.73149 15.1453 6.04986 14.6224 5.48961C14.1182 4.92936 13.5113 4.49984 12.8016 4.20104C12.092 3.90225 11.2796 3.75285 10.3646 3.75285H5.9106L6.27476 3.27664V17.1708ZM22.8353 20V16.7786H26.0567V3.61278H22.8353V0.391366H32.9197V3.61278H29.6983V16.7786H32.9197V20H22.8353ZM37.5665 20V0.391366H41.012L48.1552 12.0165L46.1383 11.9885L53.3655 0.391366H56.6429V20H53.0293V12.6328C53.0293 10.952 53.0667 9.43935 53.1414 8.09476C53.2347 6.75017 53.3841 5.41491 53.5896 4.08899L54.0378 5.29352L47.9591 14.6777H46.1103L40.2277 5.37756L40.6199 4.08899C40.8253 5.34021 40.9653 6.62878 41.04 7.9547C41.1334 9.26194 41.1801 10.8213 41.1801 12.6328V20H37.5665ZM61.9132 20V0.391366H74.7428V3.69682H65.4987V16.6945H74.8549V20H61.9132ZM63.5939 11.5963V8.34687H73.3142V11.5963H63.5939ZM79.4209 20V0.391366H82.6983L94.0713 15.7141L93.4551 15.8262C93.3804 15.3033 93.315 14.771 93.259 14.2295C93.2029 13.6692 93.1469 13.0903 93.0909 12.4927C93.0535 11.8951 93.0162 11.2695 92.9788 10.6159C92.9602 9.96225 92.9415 9.28061 92.9228 8.57097C92.9041 7.84265 92.8948 7.07698 92.8948 6.27396V0.391366H96.5084V20H93.1749L81.7459 4.90135L82.4742 4.70527C82.5676 5.75106 82.6423 6.64745 82.6983 7.39445C82.773 8.12277 82.829 8.75772 82.8664 9.29929C82.9037 9.82219 82.9318 10.261 82.9504 10.6159C82.9878 10.9707 83.0065 11.2975 83.0065 11.5963C83.0251 11.8764 83.0345 12.1472 83.0345 12.4087V20H79.4209ZM107.989 20.2801C106.85 20.2801 105.804 20.1401 104.852 19.8599C103.899 19.5611 103.04 19.1223 102.275 18.5434C101.509 17.9644 100.827 17.2641 100.23 16.4424L102.611 13.7532C103.526 15.0231 104.422 15.9009 105.3 16.3864C106.178 16.872 107.168 17.1147 108.269 17.1147C108.904 17.1147 109.483 17.0214 110.006 16.8346C110.529 16.6292 110.94 16.3584 111.239 16.0222C111.538 15.6674 111.687 15.2659 111.687 14.8177C111.687 14.5002 111.622 14.2108 111.491 13.9493C111.379 13.6692 111.201 13.4264 110.959 13.221C110.716 12.9969 110.417 12.7915 110.062 12.6047C109.707 12.418 109.306 12.2593 108.858 12.1285C108.409 11.9978 107.915 11.8764 107.373 11.7644C106.346 11.559 105.45 11.2882 104.684 10.952C103.918 10.5972 103.274 10.1677 102.751 9.66345C102.228 9.14055 101.845 8.56163 101.602 7.92668C101.36 7.27306 101.238 6.5354 101.238 5.71371C101.238 4.89201 101.416 4.13568 101.771 3.44471C102.144 2.75374 102.648 2.15614 103.283 1.65192C103.918 1.1477 104.656 0.755526 105.496 0.475403C106.337 0.19528 107.242 0.0552186 108.213 0.0552186C109.315 0.0552186 110.296 0.185943 111.155 0.447391C112.032 0.70884 112.798 1.10101 113.452 1.62391C114.124 2.12813 114.675 2.7444 115.104 3.47272L112.695 5.85377C112.322 5.27485 111.902 4.79864 111.435 4.42514C110.968 4.03297 110.464 3.74351 109.922 3.55676C109.381 3.35134 108.811 3.24862 108.213 3.24862C107.541 3.24862 106.953 3.342 106.449 3.52875C105.963 3.7155 105.58 3.98628 105.3 4.34111C105.02 4.67725 104.88 5.0881 104.88 5.57365C104.88 5.94715 104.964 6.28329 105.132 6.58209C105.3 6.86222 105.534 7.11433 105.832 7.33842C106.15 7.56252 106.551 7.75861 107.037 7.92668C107.522 8.09476 108.073 8.24416 108.69 8.37488C109.717 8.58031 110.641 8.86043 111.463 9.21525C112.285 9.5514 112.985 9.96225 113.564 10.4478C114.143 10.9147 114.582 11.4562 114.88 12.0725C115.179 12.6701 115.329 13.3424 115.329 14.0894C115.329 15.378 115.02 16.4891 114.404 17.4229C113.807 18.3379 112.957 19.0476 111.855 19.5518C110.753 20.0373 109.465 20.2801 107.989 20.2801ZM118.745 20V16.7786H121.966V3.61278H118.745V0.391366H128.829V3.61278H125.608V16.7786H128.829V20H118.745ZM141.525 20.2801C140.125 20.2801 138.827 20.028 137.632 19.5238C136.436 19.0196 135.391 18.3193 134.494 17.4229C133.616 16.5078 132.935 15.434 132.449 14.2014C131.964 12.9689 131.721 11.6243 131.721 10.1677C131.721 8.71103 131.964 7.36644 132.449 6.13389C132.935 4.90135 133.616 3.83688 134.494 2.94049C135.391 2.02542 136.436 1.31577 137.632 0.81155C138.827 0.307329 140.125 0.0552186 141.525 0.0552186C142.945 0.0552186 144.252 0.307329 145.447 0.81155C146.642 1.31577 147.679 2.02542 148.556 2.94049C149.434 3.85556 150.116 4.92936 150.601 6.16191C151.087 7.37577 151.33 8.71103 151.33 10.1677C151.33 11.6056 151.087 12.9409 150.601 14.1734C150.116 15.406 149.434 16.4798 148.556 17.3949C147.679 18.3099 146.642 19.0196 145.447 19.5238C144.252 20.028 142.945 20.2801 141.525 20.2801ZM141.525 16.8066C142.422 16.8066 143.234 16.6479 143.962 16.3304C144.709 15.9942 145.354 15.5274 145.895 14.9298C146.437 14.3135 146.857 13.6039 147.156 12.8008C147.473 11.9978 147.632 11.1201 147.632 10.1677C147.632 9.21525 147.473 8.33753 147.156 7.53451C146.857 6.73149 146.437 6.03118 145.895 5.43359C145.354 4.81731 144.709 4.35044 143.962 4.03297C143.234 3.69682 142.422 3.52875 141.525 3.52875C140.648 3.52875 139.835 3.69682 139.088 4.03297C138.341 4.35044 137.697 4.80798 137.155 5.40557C136.614 6.00317 136.194 6.70348 135.895 7.5065C135.596 8.30952 135.447 9.19658 135.447 10.1677C135.447 11.1201 135.596 12.0071 135.895 12.8288C136.194 13.6319 136.614 14.3322 137.155 14.9298C137.697 15.5274 138.341 15.9942 139.088 16.3304C139.835 16.6479 140.648 16.8066 141.525 16.8066ZM155.278 20V0.391366H158.556L169.929 15.7141L169.313 15.8262C169.238 15.3033 169.173 14.771 169.117 14.2295C169.061 13.6692 169.005 13.0903 168.949 12.4927C168.911 11.8951 168.874 11.2695 168.836 10.6159C168.818 9.96225 168.799 9.28061 168.78 8.57097C168.762 7.84265 168.752 7.07698 168.752 6.27396V0.391366H172.366V20H169.033L157.604 4.90135L158.332 4.70527C158.425 5.75106 158.5 6.64745 158.556 7.39445C158.631 8.12277 158.687 8.75772 158.724 9.29929C158.761 9.82219 158.789 10.261 158.808 10.6159C158.845 10.9707 158.864 11.2975 158.864 11.5963C158.883 11.8764 158.892 12.1472 158.892 12.4087V20H155.278ZM185.862 20V0.391366H193.734C195.153 0.391366 196.432 0.624802 197.571 1.09167C198.729 1.55855 199.719 2.23084 200.541 3.10856C201.381 3.98628 202.016 5.02274 202.446 6.21793C202.894 7.41312 203.118 8.73904 203.118 10.1957C203.118 11.6523 202.894 12.9876 202.446 14.2014C202.016 15.3966 201.39 16.4331 200.569 17.3108C199.747 18.1699 198.757 18.8328 197.599 19.2997C196.442 19.7666 195.153 20 193.734 20H185.862ZM189.504 17.1708L189.224 16.6385H193.594C194.509 16.6385 195.321 16.4891 196.031 16.1903C196.759 15.8915 197.375 15.462 197.88 14.9018C198.384 14.3415 198.767 13.6692 199.028 12.8849C199.29 12.0818 199.42 11.1855 199.42 10.1957C199.42 9.20591 199.29 8.31886 199.028 7.53451C198.767 6.73149 198.374 6.04986 197.852 5.48961C197.347 4.92936 196.74 4.49984 196.031 4.20104C195.321 3.90225 194.509 3.75285 193.594 3.75285H189.14L189.504 3.27664V17.1708ZM207.063 20V0.391366H219.893V3.69682H210.649V16.6945H220.005V20H207.063ZM208.744 11.5963V8.34687H218.464V11.5963H208.744ZM228.492 20V3.75285H222.89V0.391366H237.905V3.75285H232.134V20H228.492ZM237.896 20L245.544 0.391366H248.961L256.553 20H252.771L248.569 8.85109C248.476 8.62699 248.345 8.27217 248.177 7.78662C248.028 7.30108 247.86 6.77818 247.673 6.21793C247.486 5.63901 247.318 5.10678 247.169 4.62123C247.019 4.11701 246.907 3.75285 246.832 3.52875L247.533 3.50073C247.421 3.87423 247.29 4.29442 247.141 4.76129C246.991 5.22816 246.832 5.71371 246.664 6.21793C246.496 6.72215 246.328 7.2077 246.16 7.67457C246.011 8.14145 245.871 8.56163 245.74 8.93513L241.538 20H237.896ZM241.37 15.518L242.631 12.3526H251.567L252.911 15.518H241.37ZM259.053 20V16.7786H262.274V3.61278H259.053V0.391366H269.137V3.61278H265.916V16.7786H269.137V20H259.053ZM273.784 20V0.391366H277.425V16.6385H286.473V20H273.784ZM296.854 20.2801C295.715 20.2801 294.669 20.1401 293.716 19.8599C292.764 19.5611 291.905 19.1223 291.139 18.5434C290.374 17.9644 289.692 17.2641 289.094 16.4424L291.475 13.7532C292.39 15.0231 293.287 15.9009 294.165 16.3864C295.042 16.872 296.032 17.1147 297.134 17.1147C297.769 17.1147 298.348 17.0214 298.871 16.8346C299.393 16.6292 299.804 16.3584 300.103 16.0222C300.402 15.6674 300.551 15.2659 300.551 14.8177C300.551 14.5002 300.486 14.2108 300.355 13.9493C300.243 13.6692 300.066 13.4264 299.823 13.221C299.58 12.9969 299.281 12.7915 298.927 12.6047C298.572 12.418 298.17 12.2593 297.722 12.1285C297.274 11.9978 296.779 11.8764 296.237 11.7644C295.21 11.559 294.314 11.2882 293.548 10.952C292.783 10.5972 292.138 10.1677 291.615 9.66345C291.092 9.14055 290.71 8.56163 290.467 7.92668C290.224 7.27306 290.103 6.5354 290.103 5.71371C290.103 4.89201 290.28 4.13568 290.635 3.44471C291.008 2.75374 291.513 2.15614 292.148 1.65192C292.783 1.1477 293.52 0.755526 294.361 0.475403C295.201 0.19528 296.107 0.0552186 297.078 0.0552186C298.18 0.0552186 299.16 0.185943 300.019 0.447391C300.897 0.70884 301.662 1.10101 302.316 1.62391C302.988 2.12813 303.539 2.7444 303.969 3.47272L301.56 5.85377C301.186 5.27485 300.766 4.79864 300.299 4.42514C299.832 4.03297 299.328 3.74351 298.787 3.55676C298.245 3.35134 297.675 3.24862 297.078 3.24862C296.406 3.24862 295.817 3.342 295.313 3.52875C294.827 3.7155 294.445 3.98628 294.165 4.34111C293.884 4.67725 293.744 5.0881 293.744 5.57365C293.744 5.94715 293.828 6.28329 293.996 6.58209C294.165 6.86222 294.398 7.11433 294.697 7.33842C295.014 7.56252 295.416 7.75861 295.901 7.92668C296.387 8.09476 296.938 8.24416 297.554 8.37488C298.581 8.58031 299.506 8.86043 300.327 9.21525C301.149 9.5514 301.849 9.96225 302.428 10.4478C303.007 10.9147 303.446 11.4562 303.745 12.0725C304.044 12.6701 304.193 13.3424 304.193 14.0894C304.193 15.378 303.885 16.4891 303.269 17.4229C302.671 18.3379 301.821 19.0476 300.719 19.5518C299.618 20.0373 298.329 20.2801 296.854 20.2801Z" fill="white"/>
<path d="M11.0929 62.2987C9.69227 62.2987 8.39436 62.0466 7.19917 61.5423C6.00398 61.0381 4.95818 60.3378 4.06179 59.4414C3.18407 58.5264 2.50244 57.4525 2.01689 56.22C1.53134 54.9875 1.28857 53.6429 1.28857 52.1862C1.28857 50.7296 1.53134 49.385 2.01689 48.1524C2.50244 46.9199 3.18407 45.8554 4.06179 44.959C4.95818 44.044 6.00398 43.3343 7.19917 42.8301C8.39436 42.3259 9.69227 42.0738 11.0929 42.0738C12.5122 42.0738 13.8194 42.3259 15.0146 42.8301C16.2098 43.3343 17.2463 44.044 18.124 44.959C19.0017 45.8741 19.6833 46.9479 20.1689 48.1805C20.6544 49.3943 20.8972 50.7296 20.8972 52.1862C20.8972 53.6242 20.6544 54.9594 20.1689 56.192C19.6833 57.4245 19.0017 58.4983 18.124 59.4134C17.2463 60.3285 16.2098 61.0381 15.0146 61.5423C13.8194 62.0466 12.5122 62.2987 11.0929 62.2987ZM11.0929 58.8251C11.9893 58.8251 12.8016 58.6664 13.53 58.3489C14.277 58.0128 14.9212 57.5459 15.4628 56.9483C16.0044 56.3321 16.4246 55.6224 16.7234 54.8194C17.0408 54.0164 17.1996 53.1386 17.1996 52.1862C17.1996 51.2338 17.0408 50.3561 16.7234 49.5531C16.4246 48.75 16.0044 48.0497 15.4628 47.4521C14.9212 46.8359 14.277 46.369 13.53 46.0515C12.8016 45.7154 11.9893 45.5473 11.0929 45.5473C10.2152 45.5473 9.40281 45.7154 8.65581 46.0515C7.90882 46.369 7.26453 46.8265 6.72296 47.4241C6.18139 48.0217 5.7612 48.722 5.46241 49.5251C5.16361 50.3281 5.01421 51.2151 5.01421 52.1862C5.01421 53.1386 5.16361 54.0257 5.46241 54.8474C5.7612 55.6504 6.18139 56.3507 6.72296 56.9483C7.26453 57.5459 7.90882 58.0128 8.65581 58.3489C9.40281 58.6664 10.2152 58.8251 11.0929 58.8251ZM24.8461 62.0186V42.4099H28.4877V62.0186H24.8461ZM26.5268 53.979V50.6736H36.6393V53.979H26.5268ZM26.5268 45.7714V42.4099H37.8438V45.7714H26.5268ZM50.1228 62.0186V42.4099H57.9943C59.4136 42.4099 60.6928 42.6434 61.832 43.1102C62.9898 43.5771 63.9796 44.2494 64.8013 45.1271C65.6417 46.0048 66.2766 47.0413 66.7061 48.2365C67.1543 49.4317 67.3784 50.7576 67.3784 52.2142C67.3784 53.6709 67.1543 55.0061 66.7061 56.22C66.2766 57.4152 65.651 58.4517 64.8293 59.3294C64.0076 60.1884 63.0178 60.8514 61.86 61.3182C60.7021 61.7851 59.4136 62.0186 57.9943 62.0186H50.1228ZM53.7644 59.1893L53.4843 58.6571H57.8542C58.7693 58.6571 59.5816 58.5077 60.2913 58.2089C61.0196 57.9101 61.6359 57.4806 62.1401 56.9203C62.6443 56.3601 63.0272 55.6878 63.2886 54.9034C63.5501 54.1004 63.6808 53.204 63.6808 52.2142C63.6808 51.2245 63.5501 50.3374 63.2886 49.5531C63.0272 48.75 62.635 48.0684 62.1121 47.5082C61.6079 46.9479 61.0009 46.5184 60.2913 46.2196C59.5816 45.9208 58.7693 45.7714 57.8542 45.7714H53.4003L53.7644 45.2952V59.1893ZM79.6432 62.2987C78.2239 62.2987 76.926 62.0559 75.7495 61.5704C74.573 61.0848 73.5552 60.3938 72.6962 59.4974C71.8371 58.5824 71.1648 57.5086 70.6793 56.276C70.2124 55.0248 69.979 53.6615 69.979 52.1862C69.979 50.7669 70.2311 49.4504 70.7353 48.2365C71.2395 47.0226 71.9398 45.9581 72.8362 45.0431C73.7326 44.128 74.7784 43.4184 75.9736 42.9141C77.1688 42.4099 78.4667 42.1578 79.8673 42.1578C80.8197 42.1578 81.7441 42.2979 82.6405 42.578C83.5369 42.8581 84.3586 43.2503 85.1056 43.7545C85.8526 44.2401 86.4782 44.8096 86.9825 45.4633L84.6574 48.0124C84.1719 47.5082 83.6677 47.088 83.1448 46.7518C82.6405 46.397 82.1083 46.1356 81.5481 45.9675C81.0065 45.7807 80.4462 45.6874 79.8673 45.6874C79.0083 45.6874 78.1959 45.8461 77.4302 46.1636C76.6833 46.481 76.0296 46.9292 75.4694 47.5082C74.9278 48.0871 74.4983 48.7781 74.1808 49.5811C73.8633 50.3654 73.7046 51.2431 73.7046 52.2142C73.7046 53.204 73.854 54.1004 74.1528 54.9034C74.4703 55.7064 74.9091 56.3974 75.4694 56.9763C76.0483 57.5553 76.7299 58.0035 77.5143 58.3209C78.3173 58.6197 79.195 58.7691 80.1474 58.7691C80.7637 58.7691 81.3613 58.6851 81.9402 58.517C82.5192 58.3489 83.0514 58.1155 83.5369 57.8167C84.0412 57.4992 84.4987 57.1351 84.9095 56.7242L86.7023 59.6095C86.2541 60.1137 85.6565 60.5713 84.9095 60.9821C84.1625 61.3929 83.3222 61.7198 82.3884 61.9625C81.4734 62.1866 80.5583 62.2987 79.6432 62.2987ZM96.6914 62.2987C95.5522 62.2987 94.5064 62.1586 93.554 61.8785C92.6016 61.5797 91.7425 61.1408 90.9768 60.5619C90.2112 59.983 89.5295 59.2827 88.9319 58.461L91.313 55.7718C92.2281 57.0417 93.1244 57.9194 94.0022 58.405C94.8799 58.8905 95.8697 59.1333 96.9715 59.1333C97.6064 59.1333 98.1853 59.0399 98.7082 58.8532C99.2311 58.6477 99.642 58.377 99.9408 58.0408C100.24 57.686 100.389 57.2845 100.389 56.8363C100.389 56.5188 100.324 56.2293 100.193 55.9679C100.081 55.6878 99.9034 55.445 99.6607 55.2396C99.4179 55.0155 99.1191 54.81 98.7643 54.6233C98.4094 54.4365 98.0079 54.2778 97.5597 54.1471C97.1115 54.0164 96.6167 53.895 96.0751 53.7829C95.048 53.5775 94.1516 53.3067 93.3859 52.9706C92.6202 52.6157 91.9759 52.1862 91.453 51.682C90.9301 51.1591 90.5473 50.5802 90.3045 49.9452C90.0618 49.2916 89.9404 48.554 89.9404 47.7323C89.9404 46.9106 90.1178 46.1542 90.4726 45.4633C90.8461 44.7723 91.3503 44.1747 91.9853 43.6705C92.6202 43.1663 93.3579 42.7741 94.1983 42.494C95.0386 42.2138 95.9444 42.0738 96.9155 42.0738C98.0173 42.0738 98.9977 42.2045 99.8567 42.4659C100.734 42.7274 101.5 43.1196 102.154 43.6425C102.826 44.1467 103.377 44.763 103.806 45.4913L101.397 47.8723C101.024 47.2934 100.604 46.8172 100.137 46.4437C99.67 46.0515 99.1658 45.7621 98.6242 45.5753C98.0826 45.3699 97.513 45.2672 96.9155 45.2672C96.2432 45.2672 95.6549 45.3606 95.1507 45.5473C94.6651 45.7341 94.2823 46.0048 94.0022 46.3597C93.722 46.6958 93.582 47.1067 93.582 47.5922C93.582 47.9657 93.666 48.3018 93.8341 48.6006C94.0022 48.8808 94.2356 49.1329 94.5344 49.357C94.8519 49.5811 95.2534 49.7772 95.7389 49.9452C96.2245 50.1133 96.7754 50.2627 97.3917 50.3934C98.4188 50.5989 99.3432 50.879 100.165 51.2338C100.987 51.57 101.687 51.9808 102.266 52.4663C102.845 52.9332 103.284 53.4748 103.582 54.0911C103.881 54.6887 104.031 55.361 104.031 56.108C104.031 57.3965 103.722 58.5077 103.106 59.4414C102.509 60.3565 101.659 61.0661 100.557 61.5704C99.4552 62.0559 98.1667 62.2987 96.6914 62.2987ZM108.035 62.0186V42.4099H116.551C117.727 42.4099 118.801 42.69 119.772 43.2503C120.743 43.7919 121.509 44.5389 122.069 45.4913C122.648 46.425 122.938 47.4802 122.938 48.6567C122.938 49.7772 122.648 50.8136 122.069 51.766C121.509 52.6998 120.743 53.4468 119.772 54.007C118.82 54.5486 117.746 54.8194 116.551 54.8194H111.593V62.0186H108.035ZM119.408 62.0186L114.422 53.1667L118.175 52.4663L123.722 62.0466L119.408 62.0186ZM111.593 51.654H116.579C117.12 51.654 117.587 51.5326 117.979 51.2898C118.39 51.0284 118.708 50.6736 118.932 50.2254C119.156 49.7772 119.268 49.2823 119.268 48.7407C119.268 48.1244 119.128 47.5922 118.848 47.144C118.568 46.6958 118.175 46.341 117.671 46.0795C117.167 45.8181 116.588 45.6874 115.935 45.6874H111.593V51.654ZM141.488 62.0186L133.644 42.4099H137.622L141.992 53.6429C142.216 54.2218 142.412 54.7447 142.58 55.2116C142.748 55.6598 142.898 56.0706 143.028 56.4441C143.159 56.8176 143.271 57.1818 143.364 57.5366C143.477 57.8914 143.598 58.2649 143.729 58.6571H142.944C143.075 58.1529 143.215 57.658 143.364 57.1724C143.514 56.6682 143.682 56.136 143.869 55.5757C144.074 55.0155 144.317 54.3712 144.597 53.6429L148.687 42.4099H152.693L144.793 62.0186H141.488ZM155.798 62.0186V42.4099H168.628V45.7154H159.384V58.7131H168.74V62.0186H155.798ZM157.479 53.6149V50.3654H167.199V53.6149H157.479ZM173.306 62.0186V42.4099H181.822C182.998 42.4099 184.072 42.69 185.043 43.2503C186.014 43.7919 186.78 44.5389 187.34 45.4913C187.919 46.425 188.209 47.4802 188.209 48.6567C188.209 49.7772 187.919 50.8136 187.34 51.766C186.78 52.6998 186.014 53.4468 185.043 54.007C184.091 54.5486 183.017 54.8194 181.822 54.8194H176.864V62.0186H173.306ZM184.679 62.0186L179.693 53.1667L183.446 52.4663L188.993 62.0466L184.679 62.0186ZM176.864 51.654H181.85C182.391 51.654 182.858 51.5326 183.25 51.2898C183.661 51.0284 183.979 50.6736 184.203 50.2254C184.427 49.7772 184.539 49.2823 184.539 48.7407C184.539 48.1244 184.399 47.5922 184.119 47.144C183.839 46.6958 183.446 46.341 182.942 46.0795C182.438 45.8181 181.859 45.6874 181.205 45.6874H176.864V51.654ZM200.708 62.0186L199.784 59.7215L205.666 53.1386C206.002 52.8025 206.348 52.4197 206.703 51.9901C207.057 51.5419 207.394 51.0844 207.711 50.6175C208.047 50.132 208.318 49.6651 208.523 49.2169C208.729 48.75 208.832 48.3205 208.832 47.9284C208.832 47.4241 208.719 46.9853 208.495 46.6118C208.29 46.2383 207.991 45.9488 207.599 45.7434C207.207 45.538 206.721 45.4353 206.142 45.4353C205.638 45.4353 205.143 45.5847 204.658 45.8834C204.191 46.1636 203.752 46.5744 203.341 47.116C202.949 47.6389 202.622 48.2645 202.361 48.9928L199.615 47.3681C199.952 46.285 200.456 45.3512 201.128 44.5669C201.819 43.7639 202.622 43.1476 203.537 42.7181C204.471 42.2885 205.479 42.0738 206.563 42.0738C207.683 42.0738 208.682 42.3072 209.56 42.7741C210.438 43.241 211.129 43.8852 211.633 44.7069C212.156 45.5286 212.417 46.4904 212.417 47.5922C212.417 48.003 212.37 48.4326 212.277 48.8808C212.184 49.3103 212.034 49.7678 211.829 50.2534C211.642 50.7202 211.39 51.2151 211.072 51.738C210.755 52.2423 210.372 52.7745 209.924 53.3347C209.494 53.895 209 54.4832 208.439 55.0995L203.985 59.9456L203.425 58.6571H213.117V62.0186H200.708ZM217.119 62.3267C216.447 62.3267 215.924 62.1306 215.55 61.7384C215.195 61.3463 215.018 60.7953 215.018 60.0857C215.018 59.4321 215.205 58.8998 215.578 58.489C215.97 58.0595 216.484 57.8447 217.119 57.8447C217.791 57.8447 218.305 58.0408 218.66 58.433C219.033 58.8065 219.22 59.3574 219.22 60.0857C219.22 60.7393 219.024 61.2809 218.632 61.7104C218.258 62.1213 217.754 62.3267 217.119 62.3267ZM229.284 62.2987C227.697 62.2987 226.334 61.8972 225.194 61.0941C224.074 60.2725 223.206 59.1146 222.589 57.6206C221.992 56.108 221.693 54.3058 221.693 52.2142C221.693 50.1227 221.992 48.3299 222.589 46.8359C223.206 45.3232 224.074 44.1654 225.194 43.3623C226.334 42.5406 227.697 42.1298 229.284 42.1298C230.872 42.1298 232.235 42.5406 233.374 43.3623C234.513 44.1654 235.382 45.3232 235.979 46.8359C236.595 48.3299 236.904 50.1227 236.904 52.2142C236.904 54.3058 236.595 56.108 235.979 57.6206C235.382 59.1146 234.513 60.2725 233.374 61.0941C232.235 61.8972 230.872 62.2987 229.284 62.2987ZM229.284 59.1053C230.591 59.1053 231.6 58.5077 232.31 57.3125C233.038 56.0986 233.402 54.3992 233.402 52.2142C233.402 50.0106 233.038 48.3018 232.31 47.088C231.6 45.8741 230.591 45.2672 229.284 45.2672C227.977 45.2672 226.959 45.8741 226.231 47.088C225.521 48.3018 225.166 50.0106 225.166 52.2142C225.166 54.3992 225.521 56.0986 226.231 57.3125C226.959 58.5077 227.977 59.1053 229.284 59.1053Z" fill="white"/>
</svg>
