<svg width="237" height="31" viewBox="0 0 237 31" fill="none" xmlns="http://www.w3.org/2000/svg">
<path d="M0.562715 30.2974V24.0214H19.4771L20.9054 22.5931V19.6932L19.3905 18.1783H5.36704L4.57291e-05 12.8113V5.15038L5.15063 -0.000202717H26.7485V6.27572H8.78634L7.35803 7.70404V10.4308L8.8729 11.9024H22.8963L28.2633 17.2694V25.1468L23.1128 30.2974H0.562715ZM33.9766 30.2974V-0.000202717H57.349L63.6682 6.319V23.9782L57.349 30.2974H33.9766ZM41.3346 24.0214H53.7133L56.3102 21.4245V8.87266L53.7133 6.27572H41.3346V24.0214ZM91.0858 30.2974L80.525 2.16391V-0.000202717H87.4501L96.1066 23.5453H97.405L106.105 -0.000202717H112.814V2.16391L102.339 30.2974H91.0858ZM134.135 -0.000202717L146.037 28.1333V30.2974H138.896L136.472 24.1513H121.28L118.813 30.2974H111.888V28.1333L123.834 -0.000202717H134.135ZM123.79 17.8754H133.962L129.417 6.40557H128.421L123.79 17.8754ZM150.805 30.2974V-0.000202717H158.163V23.8916H174.697V30.2974H150.805ZM183.356 30.2974L172.796 2.16391V-0.000202717H179.721L188.377 23.5453H189.676L198.375 -0.000202717H205.084V2.16391L194.61 30.2974H183.356ZM209.853 30.2974V-0.000202717H236.515V6.27572H217.211V12.1188H231.754V17.9186H217.211V24.0214H236.948V30.2974H209.853Z" fill="white"/>
</svg>
