<svg width="20" height="20" viewBox="0 0 20 20" fill="none" xmlns="http://www.w3.org/2000/svg">
<circle cx="10" cy="10" r="9.5" stroke="#484E53"/>
<path d="M6.82469 13V7.26L5.80469 7.44V6.75L7.64469 6.46V13H6.82469ZM11.5818 13.1C10.9351 13.1 10.4085 12.97 10.0018 12.71C9.6018 12.45 9.30846 12.0767 9.1218 11.59C8.93513 11.1033 8.8418 10.5267 8.8418 9.86C8.8418 9.14 8.92846 8.52667 9.1018 8.02C9.27513 7.51333 9.5618 7.12667 9.9618 6.86C10.3618 6.59333 10.9018 6.46 11.5818 6.46C12.2551 6.46 12.7918 6.59333 13.1918 6.86C13.5918 7.12667 13.8785 7.51333 14.0518 8.02C14.2251 8.52667 14.3118 9.14 14.3118 9.86C14.3118 10.5267 14.2185 11.1033 14.0318 11.59C13.8518 12.0767 13.5618 12.45 13.1618 12.71C12.7618 12.97 12.2351 13.1 11.5818 13.1ZM11.5818 12.4C12.0551 12.4 12.4285 12.2967 12.7018 12.09C12.9818 11.8767 13.1818 11.58 13.3018 11.2C13.4285 10.8133 13.4918 10.3667 13.4918 9.86C13.4918 8.98667 13.3518 8.32 13.0718 7.86C12.7985 7.39333 12.3018 7.16 11.5818 7.16C11.1018 7.16 10.7218 7.26333 10.4418 7.47C10.1618 7.67667 9.9618 7.98333 9.8418 8.39C9.7218 8.79 9.6618 9.28 9.6618 9.86C9.6618 10.3667 9.7218 10.8133 9.8418 11.2C9.96846 11.58 10.1718 11.8767 10.4518 12.09C10.7385 12.2967 11.1151 12.4 11.5818 12.4Z" fill="#3D3A3A"/>
</svg>
