<svg width="340" height="16" viewBox="0 0 340 16" fill="none" xmlns="http://www.w3.org/2000/svg">
<path d="M1.568 12.3359V1.13594H5.952C6.752 1.13594 7.472 1.26927 8.112 1.53594C8.76267 1.8026 9.31733 2.1866 9.776 2.68794C10.2347 3.18927 10.5867 3.78127 10.832 4.46394C11.0773 5.1466 11.2 5.90394 11.2 6.73594C11.2 7.56794 11.0773 8.3306 10.832 9.02394C10.5867 9.7066 10.2347 10.2986 9.776 10.7999C9.328 11.2906 8.77867 11.6693 8.128 11.9359C7.47733 12.2026 6.752 12.3359 5.952 12.3359H1.568ZM3.296 10.8479L3.248 10.6719H5.872C6.43733 10.6719 6.93867 10.5813 7.376 10.3999C7.824 10.2186 8.19733 9.9626 8.496 9.63194C8.80533 9.2906 9.04 8.8746 9.2 8.38394C9.36 7.89327 9.44 7.34394 9.44 6.73594C9.44 6.12794 9.36 5.58394 9.2 5.10394C9.04 4.61327 8.80533 4.19727 8.496 3.85594C8.18667 3.5146 7.81333 3.25327 7.376 3.07194C6.93867 2.8906 6.43733 2.79994 5.872 2.79994H3.2L3.296 2.65594V10.8479ZM13.3928 12.3359V3.93594H15.0408V12.3359H13.3928ZM14.1928 2.07994C13.8408 2.07994 13.5688 1.98927 13.3768 1.80794C13.1848 1.6266 13.0888 1.3706 13.0888 1.03994C13.0888 0.730604 13.1848 0.479937 13.3768 0.287937C13.5794 0.0959371 13.8514 -6.29425e-05 14.1928 -6.29425e-05C14.5448 -6.29425e-05 14.8168 0.0906038 15.0088 0.271937C15.2008 0.45327 15.2968 0.70927 15.2968 1.03994C15.2968 1.34927 15.1954 1.59994 14.9928 1.79194C14.8008 1.98394 14.5341 2.07994 14.1928 2.07994ZM17.5419 12.3359V3.93594H19.2059V5.72794L18.9019 5.91994C18.9872 5.6426 19.1205 5.37594 19.3019 5.11994C19.4939 4.86394 19.7232 4.63994 19.9899 4.44794C20.2672 4.24527 20.5605 4.08527 20.8699 3.96794C21.1899 3.8506 21.5152 3.79194 21.8459 3.79194C22.3259 3.79194 22.7472 3.87194 23.1099 4.03194C23.4725 4.19194 23.7712 4.43194 24.0059 4.75194C24.2405 5.07194 24.4112 5.47194 24.5179 5.95194L24.2619 5.88794L24.3739 5.61594C24.4912 5.3706 24.6512 5.14127 24.8539 4.92794C25.0672 4.70394 25.3072 4.5066 25.5739 4.33594C25.8405 4.16527 26.1232 4.03194 26.4219 3.93594C26.7205 3.83994 27.0139 3.79194 27.3019 3.79194C27.9312 3.79194 28.4485 3.91994 28.8539 4.17594C29.2699 4.43194 29.5792 4.82127 29.7819 5.34394C29.9952 5.8666 30.1019 6.51727 30.1019 7.29594V12.3359H28.4379V7.39194C28.4379 6.91194 28.3739 6.5226 28.2459 6.22394C28.1285 5.9146 27.9472 5.68527 27.7019 5.53594C27.4565 5.3866 27.1419 5.31194 26.7579 5.31194C26.4592 5.31194 26.1765 5.36527 25.9099 5.47194C25.6539 5.56794 25.4299 5.7066 25.2379 5.88794C25.0459 6.06927 24.8965 6.2826 24.7899 6.52794C24.6832 6.7626 24.6299 7.02394 24.6299 7.31194V12.3359H22.9659V7.35994C22.9659 6.9226 22.9019 6.5546 22.7739 6.25594C22.6459 5.9466 22.4592 5.71194 22.2139 5.55194C21.9685 5.39194 21.6699 5.31194 21.3179 5.31194C21.0192 5.31194 20.7419 5.36527 20.4859 5.47194C20.2299 5.56794 20.0059 5.7066 19.8139 5.88794C19.6219 6.0586 19.4725 6.2666 19.3659 6.51194C19.2592 6.7466 19.2059 7.0026 19.2059 7.27994V12.3359H17.5419ZM36.2283 12.4959C35.3643 12.4959 34.5963 12.3146 33.9243 11.9519C33.2629 11.5786 32.7403 11.0719 32.3563 10.4319C31.9829 9.79194 31.7963 9.05594 31.7963 8.22394C31.7963 7.5626 31.9029 6.95994 32.1163 6.41594C32.3296 5.87194 32.6229 5.4026 32.9963 5.00794C33.3803 4.6026 33.8336 4.29327 34.3563 4.07994C34.8896 3.85594 35.4656 3.74394 36.0843 3.74394C36.6283 3.74394 37.1349 3.8506 37.6043 4.06394C38.0736 4.2666 38.4789 4.54927 38.8203 4.91194C39.1723 5.2746 39.4389 5.7066 39.6203 6.20794C39.8123 6.6986 39.9029 7.23727 39.8923 7.82394L39.8763 8.52794H33.0123L32.6443 7.21594H38.4523L38.2123 7.48794V7.10394C38.1803 6.75194 38.0629 6.43727 37.8603 6.15994C37.6576 5.8826 37.4016 5.66394 37.0923 5.50394C36.7829 5.34394 36.4469 5.26394 36.0843 5.26394C35.5083 5.26394 35.0229 5.37594 34.6283 5.59994C34.2336 5.81327 33.9349 6.13327 33.7323 6.55994C33.5296 6.97594 33.4283 7.49327 33.4283 8.11194C33.4283 8.6986 33.5509 9.2106 33.7963 9.64794C34.0416 10.0746 34.3883 10.4053 34.8363 10.6399C35.2843 10.8746 35.8016 10.9919 36.3883 10.9919C36.8043 10.9919 37.1883 10.9226 37.5403 10.7839C37.9029 10.6453 38.2923 10.3946 38.7083 10.0319L39.5403 11.1999C39.2843 11.4559 38.9696 11.6799 38.5963 11.8719C38.2336 12.0639 37.8443 12.2186 37.4283 12.3359C37.0229 12.4426 36.6229 12.4959 36.2283 12.4959ZM41.6833 12.3359V3.93594H43.3313V5.66394L43.0433 5.85594C43.1499 5.4826 43.3579 5.14127 43.6673 4.83194C43.9766 4.51194 44.3446 4.25594 44.7713 4.06394C45.1979 3.86127 45.6353 3.75994 46.0833 3.75994C46.7233 3.75994 47.2566 3.88794 47.6833 4.14394C48.1099 4.38927 48.4299 4.76794 48.6433 5.27994C48.8566 5.79194 48.9633 6.43727 48.9633 7.21594V12.3359H47.3153V7.32794C47.3153 6.84794 47.2513 6.45327 47.1233 6.14394C46.9953 5.82394 46.7979 5.5946 46.5313 5.45594C46.2646 5.3066 45.9339 5.2426 45.5393 5.26394C45.2193 5.26394 44.9259 5.31727 44.6593 5.42394C44.3926 5.51994 44.1579 5.6586 43.9553 5.83994C43.7633 6.02127 43.6086 6.2346 43.4913 6.47994C43.3846 6.7146 43.3313 6.9706 43.3313 7.24794V12.3359H42.5153C42.3766 12.3359 42.2379 12.3359 42.0993 12.3359C41.9606 12.3359 41.8219 12.3359 41.6833 12.3359ZM53.9989 12.4959C53.2949 12.4959 52.6602 12.3733 52.0949 12.1279C51.5295 11.8826 51.0602 11.5199 50.6869 11.0399L51.8069 10.0799C52.1269 10.4533 52.4735 10.7253 52.8469 10.8959C53.2309 11.0559 53.6629 11.1359 54.1429 11.1359C54.3349 11.1359 54.5109 11.1146 54.6709 11.0719C54.8415 11.0186 54.9855 10.9439 55.1029 10.8479C55.2309 10.7519 55.3269 10.6399 55.3909 10.5119C55.4549 10.3733 55.4869 10.2239 55.4869 10.0639C55.4869 9.7866 55.3855 9.5626 55.1829 9.39194C55.0762 9.31727 54.9055 9.23727 54.6709 9.15194C54.4469 9.05594 54.1535 8.95994 53.7909 8.86394C53.1722 8.70394 52.6655 8.5226 52.2709 8.31994C51.8762 8.11727 51.5722 7.88794 51.3589 7.63194C51.1989 7.42927 51.0815 7.2106 51.0069 6.97594C50.9322 6.7306 50.8949 6.46394 50.8949 6.17594C50.8949 5.82394 50.9695 5.50394 51.1189 5.21594C51.2789 4.91727 51.4922 4.66127 51.7589 4.44794C52.0362 4.22394 52.3562 4.05327 52.7189 3.93594C53.0922 3.8186 53.4869 3.75994 53.9029 3.75994C54.2975 3.75994 54.6869 3.81327 55.0709 3.91994C55.4655 4.0266 55.8282 4.18127 56.1589 4.38394C56.4895 4.5866 56.7669 4.8266 56.9909 5.10394L56.0469 6.14394C55.8442 5.94127 55.6202 5.76527 55.3749 5.61594C55.1402 5.45594 54.9002 5.33327 54.6549 5.24794C54.4095 5.1626 54.1855 5.11994 53.9829 5.11994C53.7589 5.11994 53.5562 5.14127 53.3749 5.18394C53.1935 5.2266 53.0389 5.2906 52.9109 5.37594C52.7935 5.46127 52.7029 5.56794 52.6389 5.69594C52.5749 5.82394 52.5429 5.96794 52.5429 6.12794C52.5535 6.2666 52.5855 6.39994 52.6389 6.52794C52.7029 6.64527 52.7882 6.7466 52.8949 6.83194C53.0122 6.91727 53.1882 7.00794 53.4229 7.10394C53.6575 7.19994 53.9562 7.2906 54.3189 7.37594C54.8522 7.5146 55.2895 7.66927 55.6309 7.83994C55.9829 7.99994 56.2602 8.1866 56.4629 8.39994C56.6762 8.6026 56.8255 8.83727 56.9109 9.10394C56.9962 9.3706 57.0389 9.66927 57.0389 9.99994C57.0389 10.4799 56.9002 10.9119 56.6229 11.2959C56.3562 11.6693 55.9935 11.9626 55.5349 12.1759C55.0762 12.3893 54.5642 12.4959 53.9989 12.4959ZM59.1271 12.3359V3.93594H60.7751V12.3359H59.1271ZM59.9271 2.07994C59.5751 2.07994 59.3031 1.98927 59.1111 1.80794C58.9191 1.6266 58.8231 1.3706 58.8231 1.03994C58.8231 0.730604 58.9191 0.479937 59.1111 0.287937C59.3138 0.0959371 59.5858 -6.29425e-05 59.9271 -6.29425e-05C60.2791 -6.29425e-05 60.5511 0.0906038 60.7431 0.271937C60.9351 0.45327 61.0311 0.70927 61.0311 1.03994C61.0311 1.34927 60.9298 1.59994 60.7271 1.79194C60.5351 1.98394 60.2685 2.07994 59.9271 2.07994ZM67.0843 12.4959C66.2629 12.4959 65.5269 12.3093 64.8763 11.9359C64.2363 11.5519 63.7296 11.0346 63.3563 10.3839C62.9829 9.7226 62.7963 8.9706 62.7963 8.12794C62.7963 7.28527 62.9829 6.5386 63.3563 5.88794C63.7296 5.2266 64.2363 4.70927 64.8763 4.33594C65.5269 3.95194 66.2629 3.75994 67.0843 3.75994C67.8949 3.75994 68.6203 3.95194 69.2603 4.33594C69.9109 4.70927 70.4229 5.2266 70.7963 5.88794C71.1696 6.5386 71.3563 7.28527 71.3563 8.12794C71.3563 8.9706 71.1696 9.7226 70.7963 10.3839C70.4229 11.0346 69.9109 11.5519 69.2603 11.9359C68.6203 12.3093 67.8949 12.4959 67.0843 12.4959ZM67.0843 10.9919C67.5856 10.9919 68.0336 10.8693 68.4283 10.6239C68.8229 10.3679 69.1323 10.0266 69.3563 9.59994C69.5803 9.1626 69.6869 8.67194 69.6763 8.12794C69.6869 7.57327 69.5803 7.0826 69.3563 6.65594C69.1323 6.2186 68.8229 5.87727 68.4283 5.63194C68.0336 5.3866 67.5856 5.26394 67.0843 5.26394C66.5829 5.26394 66.1296 5.39194 65.7243 5.64794C65.3296 5.89327 65.0203 6.2346 64.7963 6.67194C64.5723 7.0986 64.4656 7.58394 64.4763 8.12794C64.4656 8.67194 64.5723 9.1626 64.7963 9.59994C65.0203 10.0266 65.3296 10.3679 65.7243 10.6239C66.1296 10.8693 66.5829 10.9919 67.0843 10.9919ZM73.152 12.3359V3.93594H74.8V5.66394L74.512 5.85594C74.6187 5.4826 74.8267 5.14127 75.136 4.83194C75.4453 4.51194 75.8133 4.25594 76.24 4.06394C76.6667 3.86127 77.104 3.75994 77.552 3.75994C78.192 3.75994 78.7253 3.88794 79.152 4.14394C79.5787 4.38927 79.8987 4.76794 80.112 5.27994C80.3253 5.79194 80.432 6.43727 80.432 7.21594V12.3359H78.784V7.32794C78.784 6.84794 78.72 6.45327 78.592 6.14394C78.464 5.82394 78.2667 5.5946 78 5.45594C77.7333 5.3066 77.4027 5.2426 77.008 5.26394C76.688 5.26394 76.3947 5.31727 76.128 5.42394C75.8613 5.51994 75.6267 5.6586 75.424 5.83994C75.232 6.02127 75.0773 6.2346 74.96 6.47994C74.8533 6.7146 74.8 6.9706 74.8 7.24794V12.3359H73.984C73.8453 12.3359 73.7067 12.3359 73.568 12.3359C73.4293 12.3359 73.2907 12.3359 73.152 12.3359ZM85.4676 12.4959C84.7636 12.4959 84.129 12.3733 83.5636 12.1279C82.9983 11.8826 82.529 11.5199 82.1556 11.0399L83.2756 10.0799C83.5956 10.4533 83.9423 10.7253 84.3156 10.8959C84.6996 11.0559 85.1316 11.1359 85.6116 11.1359C85.8036 11.1359 85.9796 11.1146 86.1396 11.0719C86.3103 11.0186 86.4543 10.9439 86.5716 10.8479C86.6996 10.7519 86.7956 10.6399 86.8596 10.5119C86.9236 10.3733 86.9556 10.2239 86.9556 10.0639C86.9556 9.7866 86.8543 9.5626 86.6516 9.39194C86.545 9.31727 86.3743 9.23727 86.1396 9.15194C85.9156 9.05594 85.6223 8.95994 85.2596 8.86394C84.641 8.70394 84.1343 8.5226 83.7396 8.31994C83.345 8.11727 83.041 7.88794 82.8276 7.63194C82.6676 7.42927 82.5503 7.2106 82.4756 6.97594C82.401 6.7306 82.3636 6.46394 82.3636 6.17594C82.3636 5.82394 82.4383 5.50394 82.5876 5.21594C82.7476 4.91727 82.961 4.66127 83.2276 4.44794C83.505 4.22394 83.825 4.05327 84.1876 3.93594C84.561 3.8186 84.9556 3.75994 85.3716 3.75994C85.7663 3.75994 86.1556 3.81327 86.5396 3.91994C86.9343 4.0266 87.297 4.18127 87.6276 4.38394C87.9583 4.5866 88.2356 4.8266 88.4596 5.10394L87.5156 6.14394C87.313 5.94127 87.089 5.76527 86.8436 5.61594C86.609 5.45594 86.369 5.33327 86.1236 5.24794C85.8783 5.1626 85.6543 5.11994 85.4516 5.11994C85.2276 5.11994 85.025 5.14127 84.8436 5.18394C84.6623 5.2266 84.5076 5.2906 84.3796 5.37594C84.2623 5.46127 84.1716 5.56794 84.1076 5.69594C84.0436 5.82394 84.0116 5.96794 84.0116 6.12794C84.0223 6.2666 84.0543 6.39994 84.1076 6.52794C84.1716 6.64527 84.257 6.7466 84.3636 6.83194C84.481 6.91727 84.657 7.00794 84.8916 7.10394C85.1263 7.19994 85.425 7.2906 85.7876 7.37594C86.321 7.5146 86.7583 7.66927 87.0996 7.83994C87.4516 7.99994 87.729 8.1866 87.9316 8.39994C88.145 8.6026 88.2943 8.83727 88.3796 9.10394C88.465 9.3706 88.5076 9.66927 88.5076 9.99994C88.5076 10.4799 88.369 10.9119 88.0916 11.2959C87.825 11.6693 87.4623 11.9626 87.0036 12.1759C86.545 12.3893 86.033 12.4959 85.4676 12.4959ZM95.2243 12.3359V1.13594H99.8963C100.611 1.13594 101.214 1.2426 101.704 1.45594C102.195 1.66927 102.563 1.98927 102.808 2.41594C103.064 2.83194 103.192 3.34394 103.192 3.95194C103.192 4.55994 103.022 5.07727 102.68 5.50394C102.35 5.9306 101.886 6.22394 101.288 6.38394V6.06394C101.79 6.1706 102.227 6.3626 102.6 6.63994C102.974 6.9066 103.262 7.2426 103.464 7.64794C103.678 8.05327 103.784 8.51727 103.784 9.03994C103.784 9.57327 103.699 10.0479 103.528 10.4639C103.368 10.8693 103.123 11.2106 102.792 11.4879C102.472 11.7653 102.083 11.9786 101.624 12.1279C101.166 12.2666 100.643 12.3359 100.056 12.3359H95.2243ZM96.9523 10.6719H99.9603C100.398 10.6719 100.766 10.6079 101.064 10.4799C101.374 10.3519 101.608 10.1653 101.768 9.91994C101.939 9.66394 102.024 9.35994 102.024 9.00794C102.024 8.67727 101.934 8.3946 101.752 8.15994C101.582 7.92527 101.336 7.74927 101.016 7.63194C100.696 7.50394 100.318 7.43994 99.8803 7.43994H96.9523V10.6719ZM96.9523 5.77594H99.8003C100.12 5.77594 100.403 5.71194 100.648 5.58394C100.904 5.45594 101.102 5.27994 101.24 5.05594C101.39 4.83194 101.464 4.57594 101.464 4.28794C101.464 3.80794 101.304 3.43994 100.984 3.18394C100.664 2.92794 100.206 2.79994 99.6083 2.79994H96.9523V5.77594ZM109.286 12.3359L104.806 1.13594H106.774L109.446 7.93594C109.574 8.2666 109.686 8.56527 109.782 8.83194C109.889 9.0986 109.979 9.34394 110.054 9.56794C110.129 9.78127 110.198 9.98394 110.262 10.1759C110.326 10.3679 110.39 10.5599 110.454 10.7519L110.038 10.7679C110.113 10.5119 110.193 10.2453 110.278 9.96794C110.363 9.6906 110.459 9.3866 110.566 9.05594C110.683 8.72527 110.822 8.35194 110.982 7.93594L113.462 1.13594H115.478L110.966 12.3359H109.286ZM119.712 12.3359V2.79994H116.576V1.13594H124.672V2.79994H121.44V12.3359H119.712ZM134.743 12.4959C134.135 12.4959 133.569 12.4159 133.047 12.2559C132.535 12.0959 132.065 11.8559 131.639 11.5359C131.223 11.2053 130.849 10.7999 130.519 10.3199L131.703 8.95994C132.225 9.7066 132.727 10.2239 133.207 10.5119C133.687 10.7999 134.257 10.9439 134.919 10.9439C135.324 10.9439 135.692 10.8799 136.023 10.7519C136.353 10.6239 136.615 10.4479 136.807 10.2239C136.999 9.99994 137.095 9.74394 137.095 9.45594C137.095 9.26394 137.063 9.0826 136.999 8.91194C136.935 8.74127 136.833 8.5866 136.695 8.44794C136.567 8.30927 136.396 8.18127 136.183 8.06394C135.98 7.9466 135.74 7.84527 135.463 7.75994C135.185 7.66394 134.865 7.58394 134.503 7.51994C133.927 7.4026 133.425 7.24794 132.999 7.05594C132.572 6.86394 132.215 6.62394 131.927 6.33594C131.639 6.04794 131.425 5.7226 131.287 5.35994C131.148 4.9866 131.079 4.5706 131.079 4.11194C131.079 3.66394 131.175 3.24794 131.367 2.86394C131.569 2.47994 131.841 2.14927 132.183 1.87194C132.535 1.58394 132.945 1.36527 133.415 1.21594C133.884 1.05594 134.391 0.975937 134.935 0.975937C135.511 0.975937 136.039 1.0506 136.519 1.19994C136.999 1.34927 137.425 1.57327 137.799 1.87194C138.172 2.15994 138.481 2.51727 138.727 2.94394L137.511 4.14394C137.297 3.79194 137.057 3.4986 136.791 3.26394C136.524 3.0186 136.231 2.83727 135.911 2.71994C135.591 2.59194 135.249 2.52794 134.887 2.52794C134.471 2.52794 134.108 2.59194 133.799 2.71994C133.489 2.84794 133.244 3.02927 133.063 3.26394C132.892 3.48794 132.807 3.7546 132.807 4.06394C132.807 4.28794 132.849 4.49594 132.935 4.68794C133.02 4.86927 133.148 5.0346 133.319 5.18394C133.5 5.3226 133.74 5.4506 134.039 5.56794C134.337 5.6746 134.695 5.7706 135.111 5.85594C135.697 5.98394 136.22 6.14927 136.679 6.35194C137.137 6.54394 137.527 6.77327 137.847 7.03994C138.167 7.3066 138.407 7.60527 138.567 7.93594C138.737 8.2666 138.823 8.62394 138.823 9.00794C138.823 9.7226 138.657 10.3413 138.327 10.8639C137.996 11.3866 137.527 11.7919 136.919 12.0799C136.311 12.3573 135.585 12.4959 134.743 12.4959ZM141.271 12.3359V1.13594H145.655C146.455 1.13594 147.175 1.26927 147.815 1.53594C148.466 1.8026 149.02 2.1866 149.479 2.68794C149.938 3.18927 150.29 3.78127 150.535 4.46394C150.78 5.1466 150.903 5.90394 150.903 6.73594C150.903 7.56794 150.78 8.3306 150.535 9.02394C150.29 9.7066 149.938 10.2986 149.479 10.7999C149.031 11.2906 148.482 11.6693 147.831 11.9359C147.18 12.2026 146.455 12.3359 145.655 12.3359H141.271ZM142.999 10.8479L142.951 10.6719H145.575C146.14 10.6719 146.642 10.5813 147.079 10.3999C147.527 10.2186 147.9 9.9626 148.199 9.63194C148.508 9.2906 148.743 8.8746 148.903 8.38394C149.063 7.89327 149.143 7.34394 149.143 6.73594C149.143 6.12794 149.063 5.58394 148.903 5.10394C148.743 4.61327 148.508 4.19727 148.199 3.85594C147.89 3.5146 147.516 3.25327 147.079 3.07194C146.642 2.8906 146.14 2.79994 145.575 2.79994H142.903L142.999 2.65594V10.8479ZM157.724 12.3359V1.13594H162.108C162.908 1.13594 163.628 1.26927 164.268 1.53594C164.919 1.8026 165.474 2.1866 165.932 2.68794C166.391 3.18927 166.743 3.78127 166.988 4.46394C167.234 5.1466 167.356 5.90394 167.356 6.73594C167.356 7.56794 167.234 8.3306 166.988 9.02394C166.743 9.7066 166.391 10.2986 165.932 10.7999C165.484 11.2906 164.935 11.6693 164.284 11.9359C163.634 12.2026 162.908 12.3359 162.108 12.3359H157.724ZM159.452 10.8479L159.404 10.6719H162.028C162.594 10.6719 163.095 10.5813 163.532 10.3999C163.98 10.2186 164.354 9.9626 164.652 9.63194C164.962 9.2906 165.196 8.8746 165.356 8.38394C165.516 7.89327 165.596 7.34394 165.596 6.73594C165.596 6.12794 165.516 5.58394 165.356 5.10394C165.196 4.61327 164.962 4.19727 164.652 3.85594C164.343 3.5146 163.97 3.25327 163.532 3.07194C163.095 2.8906 162.594 2.79994 162.028 2.79994H159.356L159.452 2.65594V10.8479ZM169.549 12.3359V3.93594H171.197V12.3359H169.549ZM170.349 2.07994C169.997 2.07994 169.725 1.98927 169.533 1.80794C169.341 1.6266 169.245 1.3706 169.245 1.03994C169.245 0.730604 169.341 0.479937 169.533 0.287937C169.736 0.0959371 170.008 -6.29425e-05 170.349 -6.29425e-05C170.701 -6.29425e-05 170.973 0.0906038 171.165 0.271937C171.357 0.45327 171.453 0.70927 171.453 1.03994C171.453 1.34927 171.352 1.59994 171.149 1.79194C170.957 1.98394 170.69 2.07994 170.349 2.07994ZM173.73 12.3359V3.93594H175.394V6.57594L175.234 5.93594C175.351 5.5306 175.549 5.1626 175.826 4.83194C176.114 4.50127 176.439 4.23994 176.802 4.04794C177.175 3.85594 177.559 3.75994 177.954 3.75994C178.135 3.75994 178.306 3.77594 178.466 3.80794C178.637 3.83994 178.77 3.87727 178.866 3.91994L178.434 5.71194C178.306 5.6586 178.162 5.61594 178.002 5.58394C177.853 5.54127 177.703 5.51994 177.554 5.51994C177.266 5.51994 176.989 5.5786 176.722 5.69594C176.466 5.8026 176.237 5.95727 176.034 6.15994C175.842 6.35194 175.687 6.58127 175.57 6.84794C175.453 7.10394 175.394 7.3866 175.394 7.69594V12.3359H173.73ZM183.744 12.4959C182.88 12.4959 182.112 12.3146 181.44 11.9519C180.779 11.5786 180.256 11.0719 179.872 10.4319C179.499 9.79194 179.312 9.05594 179.312 8.22394C179.312 7.5626 179.419 6.95994 179.632 6.41594C179.845 5.87194 180.139 5.4026 180.512 5.00794C180.896 4.6026 181.349 4.29327 181.872 4.07994C182.405 3.85594 182.981 3.74394 183.6 3.74394C184.144 3.74394 184.651 3.8506 185.12 4.06394C185.589 4.2666 185.995 4.54927 186.336 4.91194C186.688 5.2746 186.955 5.7066 187.136 6.20794C187.328 6.6986 187.419 7.23727 187.408 7.82394L187.392 8.52794H180.528L180.16 7.21594H185.968L185.728 7.48794V7.10394C185.696 6.75194 185.579 6.43727 185.376 6.15994C185.173 5.8826 184.917 5.66394 184.608 5.50394C184.299 5.34394 183.963 5.26394 183.6 5.26394C183.024 5.26394 182.539 5.37594 182.144 5.59994C181.749 5.81327 181.451 6.13327 181.248 6.55994C181.045 6.97594 180.944 7.49327 180.944 8.11194C180.944 8.6986 181.067 9.2106 181.312 9.64794C181.557 10.0746 181.904 10.4053 182.352 10.6399C182.8 10.8746 183.317 10.9919 183.904 10.9919C184.32 10.9919 184.704 10.9226 185.056 10.7839C185.419 10.6453 185.808 10.3946 186.224 10.0319L187.056 11.1999C186.8 11.4559 186.485 11.6799 186.112 11.8719C185.749 12.0639 185.36 12.2186 184.944 12.3359C184.539 12.4426 184.139 12.4959 183.744 12.4959ZM192.767 12.4959C191.988 12.4959 191.29 12.3039 190.671 11.9199C190.063 11.5359 189.578 11.0133 189.215 10.3519C188.863 9.6906 188.687 8.94927 188.687 8.12794C188.687 7.3066 188.863 6.56527 189.215 5.90394C189.578 5.2426 190.063 4.71994 190.671 4.33594C191.29 3.95194 191.988 3.75994 192.767 3.75994C193.514 3.75994 194.191 3.9146 194.799 4.22394C195.418 4.5226 195.887 4.93327 196.207 5.45594L195.295 6.57594C195.124 6.3306 194.906 6.1066 194.639 5.90394C194.372 5.70127 194.09 5.54127 193.791 5.42394C193.492 5.3066 193.204 5.24794 192.927 5.24794C192.415 5.24794 191.956 5.37594 191.551 5.63194C191.156 5.87727 190.842 6.2186 190.607 6.65594C190.372 7.09327 190.255 7.58394 190.255 8.12794C190.255 8.67194 190.378 9.1626 190.623 9.59994C190.868 10.0266 191.194 10.3679 191.599 10.6239C192.004 10.8799 192.452 11.0079 192.943 11.0079C193.231 11.0079 193.508 10.9599 193.775 10.8639C194.052 10.7679 194.319 10.6239 194.575 10.4319C194.831 10.2399 195.071 10.0053 195.295 9.72794L196.207 10.8479C195.866 11.3279 195.375 11.7226 194.735 12.0319C194.106 12.3413 193.45 12.4959 192.767 12.4959ZM198.801 12.3359V1.79194H200.449V12.3359H198.801ZM197.057 5.53594V3.93594H202.401V5.53594H197.057ZM208.802 12.3359V1.13594H213.186C213.986 1.13594 214.706 1.26927 215.346 1.53594C215.997 1.8026 216.552 2.1866 217.01 2.68794C217.469 3.18927 217.821 3.78127 218.066 4.46394C218.312 5.1466 218.434 5.90394 218.434 6.73594C218.434 7.56794 218.312 8.3306 218.066 9.02394C217.821 9.7066 217.469 10.2986 217.01 10.7999C216.562 11.2906 216.013 11.6693 215.362 11.9359C214.712 12.2026 213.986 12.3359 213.186 12.3359H208.802ZM210.53 10.8479L210.482 10.6719H213.106C213.672 10.6719 214.173 10.5813 214.61 10.3999C215.058 10.2186 215.432 9.9626 215.73 9.63194C216.04 9.2906 216.274 8.8746 216.434 8.38394C216.594 7.89327 216.674 7.34394 216.674 6.73594C216.674 6.12794 216.594 5.58394 216.434 5.10394C216.274 4.61327 216.04 4.19727 215.73 3.85594C215.421 3.5146 215.048 3.25327 214.61 3.07194C214.173 2.8906 213.672 2.79994 213.106 2.79994H210.434L210.53 2.65594V10.8479ZM220.355 12.3359V3.93594H222.019V6.57594L221.859 5.93594C221.976 5.5306 222.174 5.1626 222.451 4.83194C222.739 4.50127 223.064 4.23994 223.427 4.04794C223.8 3.85594 224.184 3.75994 224.579 3.75994C224.76 3.75994 224.931 3.77594 225.091 3.80794C225.262 3.83994 225.395 3.87727 225.491 3.91994L225.059 5.71194C224.931 5.6586 224.787 5.61594 224.627 5.58394C224.478 5.54127 224.328 5.51994 224.179 5.51994C223.891 5.51994 223.614 5.5786 223.347 5.69594C223.091 5.8026 222.862 5.95727 222.659 6.15994C222.467 6.35194 222.312 6.58127 222.195 6.84794C222.078 7.10394 222.019 7.3866 222.019 7.69594V12.3359H220.355ZM227.08 12.3359V3.93594H228.728V12.3359H227.08ZM227.88 2.07994C227.528 2.07994 227.256 1.98927 227.064 1.80794C226.872 1.6266 226.776 1.3706 226.776 1.03994C226.776 0.730604 226.872 0.479937 227.064 0.287937C227.267 0.0959371 227.539 -6.29425e-05 227.88 -6.29425e-05C228.232 -6.29425e-05 228.504 0.0906038 228.696 0.271937C228.888 0.45327 228.984 0.70927 228.984 1.03994C228.984 1.34927 228.883 1.59994 228.68 1.79194C228.488 1.98394 228.222 2.07994 227.88 2.07994ZM234.013 12.3359L230.461 3.93594H232.237L234.797 10.2239L234.493 10.3679L237.229 3.93594H238.925L235.197 12.3359H234.013ZM244.119 12.4959C243.255 12.4959 242.487 12.3146 241.815 11.9519C241.154 11.5786 240.631 11.0719 240.247 10.4319C239.874 9.79194 239.687 9.05594 239.687 8.22394C239.687 7.5626 239.794 6.95994 240.007 6.41594C240.22 5.87194 240.514 5.4026 240.887 5.00794C241.271 4.6026 241.724 4.29327 242.247 4.07994C242.78 3.85594 243.356 3.74394 243.975 3.74394C244.519 3.74394 245.026 3.8506 245.495 4.06394C245.964 4.2666 246.37 4.54927 246.711 4.91194C247.063 5.2746 247.33 5.7066 247.511 6.20794C247.703 6.6986 247.794 7.23727 247.783 7.82394L247.767 8.52794H240.903L240.535 7.21594H246.343L246.103 7.48794V7.10394C246.071 6.75194 245.954 6.43727 245.751 6.15994C245.548 5.8826 245.292 5.66394 244.983 5.50394C244.674 5.34394 244.338 5.26394 243.975 5.26394C243.399 5.26394 242.914 5.37594 242.519 5.59994C242.124 5.81327 241.826 6.13327 241.623 6.55994C241.42 6.97594 241.319 7.49327 241.319 8.11194C241.319 8.6986 241.442 9.2106 241.687 9.64794C241.932 10.0746 242.279 10.4053 242.727 10.6399C243.175 10.8746 243.692 10.9919 244.279 10.9919C244.695 10.9919 245.079 10.9226 245.431 10.7839C245.794 10.6453 246.183 10.3946 246.599 10.0319L247.431 11.1999C247.175 11.4559 246.86 11.6799 246.487 11.8719C246.124 12.0639 245.735 12.2186 245.319 12.3359C244.914 12.4426 244.514 12.4959 244.119 12.4959ZM257.546 15.3119C256.245 14.5013 255.253 13.4879 254.57 12.2719C253.888 11.0559 253.546 9.70127 253.546 8.20794C253.546 6.72527 253.888 5.37594 254.57 4.15994C255.264 2.93327 256.261 1.9146 257.562 1.10394L258.442 2.09594C257.354 2.85327 256.522 3.75994 255.946 4.81594C255.381 5.86127 255.098 6.99194 255.098 8.20794C255.098 9.42394 255.381 10.5599 255.946 11.6159C256.522 12.6613 257.354 13.5626 258.442 14.3199L257.546 15.3119ZM263.79 12.4959C263.182 12.4959 262.616 12.4159 262.094 12.2559C261.582 12.0959 261.112 11.8559 260.686 11.5359C260.27 11.2053 259.896 10.7999 259.566 10.3199L260.75 8.95994C261.272 9.7066 261.774 10.2239 262.254 10.5119C262.734 10.7999 263.304 10.9439 263.966 10.9439C264.371 10.9439 264.739 10.8799 265.07 10.7519C265.4 10.6239 265.662 10.4479 265.854 10.2239C266.046 9.99994 266.142 9.74394 266.142 9.45594C266.142 9.26394 266.11 9.0826 266.046 8.91194C265.982 8.74127 265.88 8.5866 265.742 8.44794C265.614 8.30927 265.443 8.18127 265.23 8.06394C265.027 7.9466 264.787 7.84527 264.51 7.75994C264.232 7.66394 263.912 7.58394 263.55 7.51994C262.974 7.4026 262.472 7.24794 262.046 7.05594C261.619 6.86394 261.262 6.62394 260.974 6.33594C260.686 6.04794 260.472 5.7226 260.334 5.35994C260.195 4.9866 260.126 4.5706 260.126 4.11194C260.126 3.66394 260.222 3.24794 260.414 2.86394C260.616 2.47994 260.888 2.14927 261.23 1.87194C261.582 1.58394 261.992 1.36527 262.462 1.21594C262.931 1.05594 263.438 0.975937 263.982 0.975937C264.558 0.975937 265.086 1.0506 265.566 1.19994C266.046 1.34927 266.472 1.57327 266.846 1.87194C267.219 2.15994 267.528 2.51727 267.774 2.94394L266.558 4.14394C266.344 3.79194 266.104 3.4986 265.838 3.26394C265.571 3.0186 265.278 2.83727 264.958 2.71994C264.638 2.59194 264.296 2.52794 263.934 2.52794C263.518 2.52794 263.155 2.59194 262.846 2.71994C262.536 2.84794 262.291 3.02927 262.11 3.26394C261.939 3.48794 261.854 3.7546 261.854 4.06394C261.854 4.28794 261.896 4.49594 261.982 4.68794C262.067 4.86927 262.195 5.0346 262.366 5.18394C262.547 5.3226 262.787 5.4506 263.086 5.56794C263.384 5.6746 263.742 5.7706 264.158 5.85594C264.744 5.98394 265.267 6.14927 265.726 6.35194C266.184 6.54394 266.574 6.77327 266.894 7.03994C267.214 7.3066 267.454 7.60527 267.614 7.93594C267.784 8.2666 267.87 8.62394 267.87 9.00794C267.87 9.7226 267.704 10.3413 267.374 10.8639C267.043 11.3866 266.574 11.7919 265.966 12.0799C265.358 12.3573 264.632 12.4959 263.79 12.4959ZM270.318 12.3359V1.13594H277.374V2.79994H272.046V10.6719H277.374V12.3359H270.318ZM271.102 7.42394V5.75994H276.494V7.42394H271.102ZM282.53 12.3359L278.962 1.13594H280.802L282.962 8.14394C283.026 8.3146 283.085 8.51727 283.138 8.75194C283.191 8.97594 283.239 9.20527 283.282 9.43994C283.325 9.6746 283.362 9.89327 283.394 10.0959C283.437 10.2986 283.474 10.4639 283.506 10.5919L283.042 10.5759C283.202 10.0106 283.325 9.57327 283.41 9.26394C283.506 8.9546 283.581 8.71994 283.634 8.55994C283.687 8.38927 283.735 8.24527 283.778 8.12794L285.794 3.07194H287.346L289.298 8.12794C289.405 8.38394 289.495 8.63994 289.57 8.89594C289.655 9.14127 289.73 9.39194 289.794 9.64794C289.858 9.89327 289.927 10.1546 290.002 10.4319L289.586 10.5439C289.639 10.2559 289.677 10.0319 289.698 9.87194C289.73 9.70127 289.757 9.5626 289.778 9.45594C289.799 9.34927 289.821 9.24794 289.842 9.15194C289.863 9.04527 289.895 8.91194 289.938 8.75194C289.991 8.59194 290.061 8.37327 290.146 8.09594L292.274 1.13594H294.13L290.562 12.3359H289.362L286.402 5.32794L286.546 5.39194L283.698 12.3359H282.53ZM295.716 15.3119L294.836 14.3199C295.924 13.5626 296.75 12.6613 297.316 11.6159C297.892 10.5599 298.18 9.42394 298.18 8.20794C298.18 6.99194 297.892 5.86127 297.316 4.81594C296.75 3.75994 295.924 2.85327 294.836 2.09594L295.732 1.10394C297.033 1.9146 298.025 2.92794 298.708 4.14394C299.39 5.35994 299.732 6.7146 299.732 8.20794C299.732 9.6906 299.385 11.0453 298.692 12.2719C298.009 13.4879 297.017 14.5013 295.716 15.3119Z" fill="white"/>
</svg>
