<svg width="290" height="44" viewBox="0 0 290 44" fill="none" xmlns="http://www.w3.org/2000/svg">
<path d="M103.388 13.0801V0.200077H112.368V1.90008H105.568V5.80008H111.628V7.48008H105.568V11.4001H112.368V13.0801H103.388ZM114.384 13.0801V0.200077H123.144V1.90008H116.564V5.80008H122.404V7.48008H116.564V13.0801H114.384ZM124.872 13.0801V0.200077H133.632V1.90008H127.052V5.80008H132.892V7.48008H127.052V13.0801H124.872ZM135.361 13.0801V0.200077H137.541V13.0801H135.361ZM146.108 13.2801C143.988 13.2801 142.381 12.7001 141.288 11.5401C140.208 10.3801 139.668 8.81341 139.668 6.84008C139.668 5.42674 139.894 4.21341 140.348 3.20008C140.814 2.17341 141.521 1.38674 142.468 0.840077C143.414 0.280077 144.621 7.72476e-05 146.088 7.72476e-05C146.834 7.72476e-05 147.514 0.0600773 148.128 0.180077C148.754 0.286744 149.334 0.433411 149.868 0.620078V2.52008C149.334 2.30674 148.761 2.14674 148.148 2.04008C147.548 1.92008 146.914 1.86008 146.248 1.86008C144.648 1.86008 143.514 2.28674 142.848 3.14008C142.194 3.99341 141.868 5.22674 141.868 6.84008C141.868 8.34674 142.228 9.49341 142.948 10.2801C143.668 11.0534 144.781 11.4401 146.288 11.4401C146.901 11.4401 147.514 11.3934 148.128 11.3001C148.754 11.1934 149.341 11.0334 149.888 10.8201V12.7401C149.354 12.9134 148.774 13.0467 148.148 13.1401C147.534 13.2334 146.854 13.2801 146.108 13.2801ZM152.001 13.0801V0.200077H154.181V13.0801H152.001ZM156.708 13.0801V0.200077H165.688V1.90008H158.888V5.80008H164.948V7.48008H158.888V11.4001H165.688V13.0801H156.708ZM167.704 13.0801V0.200077H169.624L176.344 9.68008V0.200077H178.504V13.0801H176.584L169.884 3.62008V13.0801H167.704ZM184.384 13.0801V1.90008H180.264V0.200077H190.664V1.90008H186.564V13.0801H184.384ZM197.021 13.0801V0.200077H199.201V5.80008H205.401V0.200077H207.581V13.0801H205.401V7.48008H199.201V13.0801H197.021ZM209.727 13.0801L214.647 0.200077H217.087L221.967 13.0801H219.727L218.447 9.76008H213.267L211.987 13.0801H209.727ZM213.607 8.08008H218.087L215.847 2.18008L213.607 8.08008ZM224.111 13.0801V0.200077H226.031L232.751 9.68008V0.200077H234.911V13.0801H232.991L226.291 3.62008V13.0801H224.111ZM237.45 13.0801V0.200077H242.67C244.577 0.200077 245.99 0.706744 246.91 1.72008C247.83 2.72008 248.29 4.38674 248.29 6.72008C248.29 8.92008 247.837 10.5334 246.93 11.5601C246.024 12.5734 244.604 13.0801 242.67 13.0801H237.45ZM239.63 11.4001H242.33C243.17 11.4001 243.87 11.2801 244.43 11.0401C244.99 10.7867 245.41 10.3201 245.69 9.64008C245.97 8.96008 246.11 7.98674 246.11 6.72008C246.11 5.45341 245.984 4.47341 245.73 3.78008C245.477 3.08674 245.07 2.60008 244.51 2.32008C243.964 2.04008 243.237 1.90008 242.33 1.90008H239.63V11.4001ZM250.439 13.0801V0.200077H252.619V11.4001H259.219V13.0801H250.439ZM260.947 13.0801V0.200077H263.127V13.0801H260.947ZM265.654 13.0801V0.200077H267.574L274.294 9.68008V0.200077H276.454V13.0801H274.534L267.834 3.62008V13.0801H265.654ZM284.993 13.2801C282.873 13.2801 281.273 12.7067 280.193 11.5601C279.127 10.4134 278.593 8.86008 278.593 6.90008C278.593 5.48674 278.827 4.26674 279.293 3.24008C279.76 2.20008 280.467 1.40008 281.413 0.840077C282.373 0.280077 283.587 7.72476e-05 285.053 7.72476e-05C285.813 7.72476e-05 286.5 0.0534107 287.113 0.160078C287.74 0.25341 288.327 0.393411 288.873 0.580078V2.46008C287.78 2.06008 286.567 1.86008 285.233 1.86008C283.593 1.86008 282.44 2.29341 281.773 3.16008C281.12 4.02674 280.793 5.27341 280.793 6.90008C280.793 8.38008 281.14 9.50674 281.833 10.2801C282.527 11.0534 283.6 11.4401 285.053 11.4401C286.2 11.4401 287.127 11.3067 287.833 11.0401V7.44008H284.613V6.02008H289.693V12.2201C289.28 12.4867 288.687 12.7334 287.913 12.9601C287.153 13.1734 286.18 13.2801 284.993 13.2801ZM4.29965 43.2801C2.63298 43.2801 1.29298 43.0667 0.279649 42.6401V40.7201C0.852982 40.9334 1.46632 41.1067 2.11965 41.2401C2.78632 41.3734 3.44632 41.4401 4.09965 41.4401C5.12632 41.4401 5.89298 41.3201 6.39965 41.0801C6.91965 40.8401 7.17965 40.3601 7.17965 39.6401C7.17965 39.2001 7.07298 38.8467 6.85965 38.5801C6.64632 38.3134 6.29298 38.0867 5.79965 37.9001C5.30632 37.7001 4.62632 37.4934 3.75965 37.2801C2.37298 36.9201 1.39965 36.4667 0.839648 35.9201C0.279648 35.3601 -0.000351533 34.5934 -0.000351533 33.6201C-0.000351533 32.4867 0.412982 31.6001 1.23965 30.9601C2.06632 30.3201 3.29965 30.0001 4.93965 30.0001C5.68632 30.0001 6.38632 30.0534 7.03965 30.1601C7.70632 30.2667 8.22632 30.3867 8.59965 30.5201V32.4401C7.58632 32.0534 6.46632 31.8601 5.23965 31.8601C4.27965 31.8601 3.53298 31.9867 2.99965 32.2401C2.46632 32.4934 2.19965 32.9534 2.19965 33.6201C2.19965 34.0067 2.29298 34.3201 2.47965 34.5601C2.66632 34.8001 2.98632 35.0067 3.43965 35.1801C3.90632 35.3534 4.54632 35.5467 5.35965 35.7601C6.41298 36.0267 7.22632 36.3467 7.79965 36.7201C8.38632 37.0801 8.79298 37.5067 9.01965 38.0001C9.25965 38.4801 9.37965 39.0267 9.37965 39.6401C9.37965 40.7734 8.95965 41.6667 8.11965 42.3201C7.27965 42.9601 6.00632 43.2801 4.29965 43.2801ZM17.1934 43.2801C15.1534 43.2801 13.6267 42.7467 12.6134 41.6801C11.6001 40.6001 11.0934 38.9334 11.0934 36.6801C11.0934 34.3334 11.6001 32.6334 12.6134 31.5801C13.6267 30.5267 15.1534 30.0001 17.1934 30.0001C19.2467 30.0001 20.7734 30.5267 21.7734 31.5801C22.7867 32.6334 23.2934 34.3334 23.2934 36.6801C23.2934 38.9334 22.7867 40.6001 21.7734 41.6801C20.7734 42.7467 19.2467 43.2801 17.1934 43.2801ZM17.1934 41.4401C18.5401 41.4401 19.5267 41.0734 20.1534 40.3401C20.7934 39.5934 21.1134 38.3734 21.1134 36.6801C21.1134 34.8934 20.7934 33.6467 20.1534 32.9401C19.5267 32.2201 18.5401 31.8601 17.1934 31.8601C15.8601 31.8601 14.8734 32.2201 14.2334 32.9401C13.6067 33.6467 13.2934 34.8934 13.2934 36.6801C13.2934 38.3734 13.6067 39.5934 14.2334 40.3401C14.8734 41.0734 15.8601 41.4401 17.1934 41.4401ZM25.4192 43.0801V30.2001H27.5992V41.4001H34.1992V43.0801H25.4192ZM41.427 43.2801C39.6537 43.2801 38.2737 42.8534 37.287 42.0001C36.3137 41.1467 35.827 39.9134 35.827 38.3001V30.2001H38.007V38.2201C38.007 39.3001 38.3003 40.1067 38.887 40.6401C39.487 41.1734 40.3337 41.4401 41.427 41.4401C42.507 41.4401 43.3403 41.1734 43.927 40.6401C44.527 40.1067 44.827 39.3001 44.827 38.2201V30.2001H46.987V38.3001C46.987 39.9134 46.5003 41.1467 45.527 42.0001C44.5537 42.8534 43.187 43.2801 41.427 43.2801ZM52.7436 43.0801V31.9001H48.6236V30.2001H59.0236V31.9001H54.9236V43.0801H52.7436ZM60.7707 43.0801V30.2001H62.9507V43.0801H60.7707ZM71.1778 43.2801C69.1378 43.2801 67.6111 42.7467 66.5978 41.6801C65.5844 40.6001 65.0778 38.9334 65.0778 36.6801C65.0778 34.3334 65.5844 32.6334 66.5978 31.5801C67.6111 30.5267 69.1378 30.0001 71.1778 30.0001C73.2311 30.0001 74.7578 30.5267 75.7578 31.5801C76.7711 32.6334 77.2778 34.3334 77.2778 36.6801C77.2778 38.9334 76.7711 40.6001 75.7578 41.6801C74.7578 42.7467 73.2311 43.2801 71.1778 43.2801ZM71.1778 41.4401C72.5244 41.4401 73.5111 41.0734 74.1378 40.3401C74.7778 39.5934 75.0978 38.3734 75.0978 36.6801C75.0978 34.8934 74.7778 33.6467 74.1378 32.9401C73.5111 32.2201 72.5244 31.8601 71.1778 31.8601C69.8444 31.8601 68.8578 32.2201 68.2178 32.9401C67.5911 33.6467 67.2778 34.8934 67.2778 36.6801C67.2778 38.3734 67.5911 39.5934 68.2178 40.3401C68.8578 41.0734 69.8444 41.4401 71.1778 41.4401ZM79.4036 43.0801V30.2001H81.3236L88.0436 39.6801V30.2001H90.2036V43.0801H88.2836L81.5836 33.6201V43.0801H79.4036ZM96.6434 43.2801C94.9767 43.2801 93.6367 43.0667 92.6234 42.6401V40.7201C93.1967 40.9334 93.8101 41.1067 94.4634 41.2401C95.1301 41.3734 95.7901 41.4401 96.4434 41.4401C97.4701 41.4401 98.2367 41.3201 98.7434 41.0801C99.2634 40.8401 99.5234 40.3601 99.5234 39.6401C99.5234 39.2001 99.4167 38.8467 99.2034 38.5801C98.9901 38.3134 98.6367 38.0867 98.1434 37.9001C97.6501 37.7001 96.9701 37.4934 96.1034 37.2801C94.7167 36.9201 93.7434 36.4667 93.1834 35.9201C92.6234 35.3601 92.3434 34.5934 92.3434 33.6201C92.3434 32.4867 92.7567 31.6001 93.5834 30.9601C94.4101 30.3201 95.6434 30.0001 97.2834 30.0001C98.0301 30.0001 98.7301 30.0534 99.3834 30.1601C100.05 30.2667 100.57 30.3867 100.943 30.5201V32.4401C99.9301 32.0534 98.8101 31.8601 97.5834 31.8601C96.6234 31.8601 95.8767 31.9867 95.3434 32.2401C94.8101 32.4934 94.5434 32.9534 94.5434 33.6201C94.5434 34.0067 94.6367 34.3201 94.8234 34.5601C95.0101 34.8001 95.3301 35.0067 95.7834 35.1801C96.2501 35.3534 96.8901 35.5467 97.7034 35.7601C98.7567 36.0267 99.5701 36.3467 100.143 36.7201C100.73 37.0801 101.137 37.5067 101.363 38.0001C101.603 38.4801 101.723 39.0267 101.723 39.6401C101.723 40.7734 101.303 41.6667 100.463 42.3201C99.6234 42.9601 98.3501 43.2801 96.6434 43.2801ZM108.447 43.0801V30.2001H117.207V31.9001H110.627V35.8001H116.467V37.4801H110.627V43.0801H108.447ZM124.635 43.2801C122.595 43.2801 121.068 42.7467 120.055 41.6801C119.041 40.6001 118.535 38.9334 118.535 36.6801C118.535 34.3334 119.041 32.6334 120.055 31.5801C121.068 30.5267 122.595 30.0001 124.635 30.0001C126.688 30.0001 128.215 30.5267 129.215 31.5801C130.228 32.6334 130.735 34.3334 130.735 36.6801C130.735 38.9334 130.228 40.6001 129.215 41.6801C128.215 42.7467 126.688 43.2801 124.635 43.2801ZM124.635 41.4401C125.981 41.4401 126.968 41.0734 127.595 40.3401C128.235 39.5934 128.555 38.3734 128.555 36.6801C128.555 34.8934 128.235 33.6467 127.595 32.9401C126.968 32.2201 125.981 31.8601 124.635 31.8601C123.301 31.8601 122.315 32.2201 121.675 32.9401C121.048 33.6467 120.735 34.8934 120.735 36.6801C120.735 38.3734 121.048 39.5934 121.675 40.3401C122.315 41.0734 123.301 41.4401 124.635 41.4401ZM132.861 43.0801V30.2001H138.781C140.221 30.2001 141.267 30.5734 141.921 31.3201C142.587 32.0534 142.921 33.0534 142.921 34.3201C142.921 35.2267 142.694 36.0001 142.241 36.6401C141.787 37.2801 141.134 37.7267 140.281 37.9801C140.521 38.1534 140.707 38.3401 140.841 38.5401C140.974 38.7401 141.107 39.0067 141.241 39.3401L142.861 43.0801H140.621L139.041 39.4801C138.894 39.1334 138.714 38.8867 138.501 38.7401C138.301 38.5934 137.954 38.5201 137.461 38.5201H135.041V43.0801H132.861ZM135.041 36.7601H138.201C138.987 36.7601 139.607 36.5667 140.061 36.1801C140.514 35.7934 140.741 35.1734 140.741 34.3201C140.741 32.7067 139.961 31.9001 138.401 31.9001H135.041V36.7601ZM149.297 43.0801L154.217 30.2001H156.657L161.537 43.0801H159.297L158.017 39.7601H152.837L151.557 43.0801H149.297ZM153.177 38.0801H157.657L155.417 32.1801L153.177 38.0801ZM163.681 43.0801V30.2001H165.861V41.4001H172.461V43.0801H163.681ZM174.189 43.0801V30.2001H176.369V41.4001H182.969V43.0801H174.189ZM193.915 43.0801V30.2001H199.655C200.642 30.2001 201.455 30.3867 202.095 30.7601C202.735 31.1334 203.209 31.6467 203.515 32.3001C203.822 32.9401 203.975 33.6734 203.975 34.5001C203.975 35.7801 203.575 36.8067 202.775 37.5801C201.989 38.3534 200.922 38.7401 199.575 38.7401H196.095V43.0801H193.915ZM196.095 37.0201H199.175C200.042 37.0201 200.695 36.7934 201.135 36.3401C201.575 35.8867 201.795 35.2734 201.795 34.5001C201.795 33.6734 201.582 33.0334 201.155 32.5801C200.742 32.1267 200.115 31.9001 199.275 31.9001H196.095V37.0201ZM205.712 43.0801V30.2001H211.632C213.072 30.2001 214.119 30.5734 214.772 31.3201C215.439 32.0534 215.772 33.0534 215.772 34.3201C215.772 35.2267 215.545 36.0001 215.092 36.6401C214.639 37.2801 213.985 37.7267 213.132 37.9801C213.372 38.1534 213.559 38.3401 213.692 38.5401C213.825 38.7401 213.959 39.0067 214.092 39.3401L215.712 43.0801H213.472L211.892 39.4801C211.745 39.1334 211.565 38.8867 211.352 38.7401C211.152 38.5934 210.805 38.5201 210.312 38.5201H207.892V43.0801H205.712ZM207.892 36.7601H211.052C211.839 36.7601 212.459 36.5667 212.912 36.1801C213.365 35.7934 213.592 35.1734 213.592 34.3201C213.592 32.7067 212.812 31.9001 211.252 31.9001H207.892V36.7601ZM223.326 43.2801C221.286 43.2801 219.76 42.7467 218.746 41.6801C217.733 40.6001 217.226 38.9334 217.226 36.6801C217.226 34.3334 217.733 32.6334 218.746 31.5801C219.76 30.5267 221.286 30.0001 223.326 30.0001C225.38 30.0001 226.906 30.5267 227.906 31.5801C228.92 32.6334 229.426 34.3334 229.426 36.6801C229.426 38.9334 228.92 40.6001 227.906 41.6801C226.906 42.7467 225.38 43.2801 223.326 43.2801ZM223.326 41.4401C224.673 41.4401 225.66 41.0734 226.286 40.3401C226.926 39.5934 227.246 38.3734 227.246 36.6801C227.246 34.8934 226.926 33.6467 226.286 32.9401C225.66 32.2201 224.673 31.8601 223.326 31.8601C221.993 31.8601 221.006 32.2201 220.366 32.9401C219.74 33.6467 219.426 34.8934 219.426 36.6801C219.426 38.3734 219.74 39.5934 220.366 40.3401C221.006 41.0734 221.993 41.4401 223.326 41.4401ZM231.552 43.0801V30.2001H236.772C238.679 30.2001 240.092 30.7067 241.012 31.7201C241.932 32.7201 242.392 34.3867 242.392 36.7201C242.392 38.9201 241.939 40.5334 241.032 41.5601C240.125 42.5734 238.705 43.0801 236.772 43.0801H231.552ZM233.732 41.4001H236.432C237.272 41.4001 237.972 41.2801 238.532 41.0401C239.092 40.7867 239.512 40.3201 239.792 39.6401C240.072 38.9601 240.212 37.9867 240.212 36.7201C240.212 35.4534 240.085 34.4734 239.832 33.7801C239.579 33.0867 239.172 32.6001 238.612 32.3201C238.065 32.0401 237.339 31.9001 236.432 31.9001H233.732V41.4001ZM250.04 43.2801C248.267 43.2801 246.887 42.8534 245.9 42.0001C244.927 41.1467 244.44 39.9134 244.44 38.3001V30.2001H246.62V38.2201C246.62 39.3001 246.914 40.1067 247.5 40.6401C248.1 41.1734 248.947 41.4401 250.04 41.4401C251.12 41.4401 251.954 41.1734 252.54 40.6401C253.14 40.1067 253.44 39.3001 253.44 38.2201V30.2001H255.6V38.3001C255.6 39.9134 255.114 41.1467 254.14 42.0001C253.167 42.8534 251.8 43.2801 250.04 43.2801ZM264.057 43.2801C261.937 43.2801 260.33 42.7001 259.237 41.5401C258.157 40.3801 257.617 38.8134 257.617 36.8401C257.617 35.4267 257.844 34.2134 258.297 33.2001C258.764 32.1734 259.47 31.3867 260.417 30.8401C261.364 30.2801 262.57 30.0001 264.037 30.0001C264.784 30.0001 265.464 30.0601 266.077 30.1801C266.704 30.2867 267.284 30.4334 267.817 30.6201V32.5201C267.284 32.3067 266.71 32.1467 266.097 32.0401C265.497 31.9201 264.864 31.8601 264.197 31.8601C262.597 31.8601 261.464 32.2867 260.797 33.1401C260.144 33.9934 259.817 35.2267 259.817 36.8401C259.817 38.3467 260.177 39.4934 260.897 40.2801C261.617 41.0534 262.73 41.4401 264.237 41.4401C264.85 41.4401 265.464 41.3934 266.077 41.3001C266.704 41.1934 267.29 41.0334 267.837 40.8201V42.7401C267.304 42.9134 266.724 43.0467 266.097 43.1401C265.484 43.2334 264.804 43.2801 264.057 43.2801ZM273.29 43.0801V31.9001H269.17V30.2001H279.57V31.9001H275.47V43.0801H273.29ZM284.612 43.2801C282.945 43.2801 281.605 43.0667 280.592 42.6401V40.7201C281.165 40.9334 281.779 41.1067 282.432 41.2401C283.099 41.3734 283.759 41.4401 284.412 41.4401C285.439 41.4401 286.205 41.3201 286.712 41.0801C287.232 40.8401 287.492 40.3601 287.492 39.6401C287.492 39.2001 287.385 38.8467 287.172 38.5801C286.959 38.3134 286.605 38.0867 286.112 37.9001C285.619 37.7001 284.939 37.4934 284.072 37.2801C282.685 36.9201 281.712 36.4667 281.152 35.9201C280.592 35.3601 280.312 34.5934 280.312 33.6201C280.312 32.4867 280.725 31.6001 281.552 30.9601C282.379 30.3201 283.612 30.0001 285.252 30.0001C285.999 30.0001 286.699 30.0534 287.352 30.1601C288.019 30.2667 288.539 30.3867 288.912 30.5201V32.4401C287.899 32.0534 286.779 31.8601 285.552 31.8601C284.592 31.8601 283.845 31.9867 283.312 32.2401C282.779 32.4934 282.512 32.9534 282.512 33.6201C282.512 34.0067 282.605 34.3201 282.792 34.5601C282.979 34.8001 283.299 35.0067 283.752 35.1801C284.219 35.3534 284.859 35.5467 285.672 35.7601C286.725 36.0267 287.539 36.3467 288.112 36.7201C288.699 37.0801 289.105 37.5067 289.332 38.0001C289.572 38.4801 289.692 39.0267 289.692 39.6401C289.692 40.7734 289.272 41.6667 288.432 42.3201C287.592 42.9601 286.319 43.2801 284.612 43.2801Z" fill="white"/>
</svg>
