<svg width="440" height="20" viewBox="0 0 440 20" fill="none" xmlns="http://www.w3.org/2000/svg">
<path d="M23.2581 15.1777L27.6611 3.88799H29.6287L33.9994 15.1777H31.8221L29.4029 8.75871C29.3491 8.62968 29.2739 8.42539 29.1771 8.14583C29.0911 7.86628 28.9943 7.56522 28.8868 7.24265C28.7793 6.90934 28.6825 6.6029 28.5965 6.32335C28.5105 6.03304 28.446 5.82337 28.403 5.69435L28.8062 5.67822C28.7416 5.89326 28.6664 6.13518 28.5804 6.40399C28.4943 6.67279 28.403 6.95235 28.3062 7.24265C28.2094 7.53296 28.1126 7.81252 28.0159 8.08132C27.9299 8.35012 27.8492 8.59205 27.774 8.80709L25.3547 15.1777H23.2581ZM25.2579 12.5972L25.9837 10.7747H31.1286L31.9028 12.5972H25.2579ZM35.4226 18.7259V6.67817H37.3741L37.4064 8.61355L37.0677 8.4684C37.1322 8.13508 37.315 7.82327 37.6161 7.53296C37.9171 7.2319 38.2827 6.98998 38.7128 6.80719C39.1536 6.62441 39.6106 6.53301 40.0837 6.53301C40.8363 6.53301 41.503 6.72117 42.0836 7.0975C42.6749 7.47382 43.1373 7.98993 43.4706 8.64581C43.8147 9.30169 43.9867 10.0597 43.9867 10.9199C43.9867 11.7693 43.8147 12.5273 43.4706 13.194C43.1373 13.8498 42.6749 14.3713 42.0836 14.7584C41.503 15.1347 40.8471 15.3229 40.1159 15.3229C39.6213 15.3229 39.1429 15.2261 38.6805 15.0326C38.2289 14.839 37.8419 14.5864 37.5193 14.2746C37.2075 13.9627 37.0139 13.6348 36.9387 13.2907L37.4225 13.0649V18.7259H35.4226ZM39.7127 13.5649C40.1643 13.5649 40.5675 13.452 40.9224 13.2262C41.2772 13.0004 41.5514 12.6886 41.7449 12.2908C41.9492 11.893 42.0513 11.436 42.0513 10.9199C42.0513 10.4038 41.9546 9.95219 41.761 9.56512C41.5675 9.16729 41.2933 8.85547 40.9385 8.62968C40.5837 8.40389 40.1751 8.29099 39.7127 8.29099C39.2396 8.29099 38.8257 8.40389 38.4709 8.62968C38.1268 8.84472 37.8526 9.15116 37.6483 9.54899C37.444 9.94682 37.3419 10.4038 37.3419 10.9199C37.3419 11.436 37.444 11.893 37.6483 12.2908C37.8526 12.6886 38.1268 13.0004 38.4709 13.2262C38.8257 13.452 39.2396 13.5649 39.7127 13.5649ZM45.7548 18.7259V6.67817H47.7063L47.7385 8.61355L47.3998 8.4684C47.4644 8.13508 47.6471 7.82327 47.9482 7.53296C48.2493 7.2319 48.6148 6.98998 49.0449 6.80719C49.4858 6.62441 49.9427 6.53301 50.4158 6.53301C51.1685 6.53301 51.8351 6.72117 52.4157 7.0975C53.0071 7.47382 53.4694 7.98993 53.8027 8.64581C54.1468 9.30169 54.3188 10.0597 54.3188 10.9199C54.3188 11.7693 54.1468 12.5273 53.8027 13.194C53.4694 13.8498 53.0071 14.3713 52.4157 14.7584C51.8351 15.1347 51.1792 15.3229 50.4481 15.3229C49.9535 15.3229 49.475 15.2261 49.0127 15.0326C48.5611 14.839 48.174 14.5864 47.8514 14.2746C47.5396 13.9627 47.3461 13.6348 47.2708 13.2907L47.7547 13.0649V18.7259H45.7548ZM50.0449 13.5649C50.4965 13.5649 50.8997 13.452 51.2545 13.2262C51.6093 13.0004 51.8835 12.6886 52.077 12.2908C52.2813 11.893 52.3835 11.436 52.3835 10.9199C52.3835 10.4038 52.2867 9.95219 52.0932 9.56512C51.8996 9.16729 51.6254 8.85547 51.2706 8.62968C50.9158 8.40389 50.5072 8.29099 50.0449 8.29099C49.5718 8.29099 49.1578 8.40389 48.803 8.62968C48.4589 8.84472 48.1847 9.15116 47.9805 9.54899C47.7762 9.94682 47.674 10.4038 47.674 10.9199C47.674 11.436 47.7762 11.893 47.9805 12.2908C48.1847 12.6886 48.4589 13.0004 48.803 13.2262C49.1578 13.452 49.5718 13.5649 50.0449 13.5649ZM56.103 15.1777V3.24286H58.1029V15.1777H56.103ZM60.6598 15.1777V6.67817H62.6435V15.1777H60.6598ZM61.6274 4.87181C61.2296 4.87181 60.9178 4.77504 60.692 4.5815C60.477 4.37721 60.3694 4.09228 60.3694 3.7267C60.3694 3.38263 60.4823 3.10308 60.7081 2.88804C60.9339 2.67299 61.2404 2.56547 61.6274 2.56547C62.036 2.56547 62.3478 2.66762 62.5629 2.87191C62.7887 3.06545 62.9016 3.35038 62.9016 3.7267C62.9016 4.06002 62.7887 4.3342 62.5629 4.54924C62.3371 4.76428 62.0253 4.87181 61.6274 4.87181ZM68.804 15.339C68.0083 15.339 67.2933 15.1455 66.6589 14.7584C66.0246 14.3713 65.5246 13.8445 65.159 13.1778C64.7934 12.5112 64.6107 11.7586 64.6107 10.9199C64.6107 10.0812 64.7934 9.32857 65.159 8.66194C65.5246 7.9953 66.0246 7.46845 66.6589 7.08137C67.2933 6.69429 68.0083 6.50076 68.804 6.50076C69.5674 6.50076 70.2609 6.64591 70.8845 6.93622C71.5082 7.22653 71.992 7.62973 72.3361 8.14583L71.2394 9.46835C71.0781 9.24255 70.8738 9.03826 70.6265 8.85547C70.3792 8.67269 70.1158 8.52753 69.8362 8.42001C69.5566 8.31249 69.2771 8.25873 68.9975 8.25873C68.5244 8.25873 68.0997 8.377 67.7234 8.61355C67.3578 8.83935 67.0675 9.15654 66.8525 9.56512C66.6374 9.96295 66.5299 10.4145 66.5299 10.9199C66.5299 11.4252 66.6374 11.8768 66.8525 12.2747C67.0783 12.6725 67.3793 12.9897 67.7557 13.2262C68.132 13.4628 68.5513 13.581 69.0137 13.581C69.2932 13.581 69.562 13.538 69.8201 13.452C70.0889 13.3552 70.3416 13.2208 70.5781 13.0488C70.8146 12.8768 71.0351 12.6617 71.2394 12.4037L72.3361 13.7423C71.9705 14.2154 71.4652 14.6025 70.82 14.9036C70.1856 15.1939 69.5136 15.339 68.804 15.339ZM77.0627 15.339C76.3638 15.339 75.7294 15.1455 75.1595 14.7584C74.5897 14.3713 74.1327 13.8445 73.7886 13.1778C73.4446 12.5112 73.2725 11.7532 73.2725 10.9038C73.2725 10.0543 73.4446 9.29631 73.7886 8.62968C74.1327 7.96305 74.6004 7.44157 75.1918 7.06524C75.7831 6.68892 76.4498 6.50076 77.1917 6.50076C77.6218 6.50076 78.0142 6.56527 78.369 6.69429C78.7239 6.81257 79.0357 6.9846 79.3045 7.2104C79.5733 7.43619 79.7937 7.69424 79.9657 7.98455C80.1485 8.27486 80.2722 8.58667 80.3367 8.91999L79.9012 8.80709V6.67817H81.9011V15.1777H79.8851V13.1456L80.3528 13.0649C80.2775 13.3552 80.1378 13.6402 79.9335 13.9197C79.7399 14.1885 79.4926 14.4305 79.1916 14.6455C78.9013 14.8498 78.5733 15.0165 78.2078 15.1455C77.8529 15.2745 77.4712 15.339 77.0627 15.339ZM77.611 13.581C78.0734 13.581 78.4819 13.4681 78.8368 13.2423C79.1916 13.0166 79.4658 12.7047 79.6593 12.3069C79.8636 11.8983 79.9657 11.4306 79.9657 10.9038C79.9657 10.3877 79.8636 9.93069 79.6593 9.53286C79.4658 9.13503 79.1916 8.82322 78.8368 8.59742C78.4819 8.37163 78.0734 8.25873 77.611 8.25873C77.1487 8.25873 76.7401 8.37163 76.3853 8.59742C76.0412 8.82322 75.7724 9.13503 75.5789 9.53286C75.3853 9.93069 75.2885 10.3877 75.2885 10.9038C75.2885 11.4306 75.3853 11.8983 75.5789 12.3069C75.7724 12.7047 76.0412 13.0166 76.3853 13.2423C76.7401 13.4681 77.1487 13.581 77.611 13.581ZM85.1203 15.1777V4.51699H87.1041V15.1777H85.1203ZM83.443 8.51678V6.67817H88.9588V8.51678H83.443ZM90.6954 15.1777V6.67817H92.6792V15.1777H90.6954ZM91.6631 4.87181C91.2653 4.87181 90.9535 4.77504 90.7277 4.5815C90.5126 4.37721 90.4051 4.09228 90.4051 3.7267C90.4051 3.38263 90.518 3.10308 90.7438 2.88804C90.9696 2.67299 91.276 2.56547 91.6631 2.56547C92.0717 2.56547 92.3835 2.66762 92.5985 2.87191C92.8243 3.06545 92.9372 3.35038 92.9372 3.7267C92.9372 4.06002 92.8243 4.3342 92.5985 4.54924C92.3727 4.76428 92.0609 4.87181 91.6631 4.87181ZM99.0816 15.339C98.2321 15.339 97.4741 15.1509 96.8075 14.7745C96.1409 14.3875 95.614 13.8606 95.2269 13.194C94.8398 12.5273 94.6463 11.7693 94.6463 10.9199C94.6463 10.0705 94.8398 9.31244 95.2269 8.64581C95.614 7.97918 96.1409 7.4577 96.8075 7.08137C97.4741 6.69429 98.2321 6.50076 99.0816 6.50076C99.9202 6.50076 100.673 6.69429 101.34 7.08137C102.006 7.4577 102.528 7.97918 102.904 8.64581C103.291 9.31244 103.485 10.0705 103.485 10.9199C103.485 11.7693 103.291 12.5273 102.904 13.194C102.528 13.8606 102.006 14.3875 101.34 14.7745C100.673 15.1509 99.9202 15.339 99.0816 15.339ZM99.0816 13.581C99.5439 13.581 99.9525 13.4628 100.307 13.2262C100.673 12.9897 100.958 12.6725 101.162 12.2747C101.377 11.8768 101.479 11.4252 101.469 10.9199C101.479 10.4038 101.377 9.94682 101.162 9.54899C100.958 9.15116 100.673 8.83935 100.307 8.61355C99.9525 8.377 99.5439 8.25873 99.0816 8.25873C98.6192 8.25873 98.1999 8.377 97.8236 8.61355C97.458 8.83935 97.1731 9.15654 96.9688 9.56512C96.7645 9.96295 96.6623 10.4145 96.6623 10.9199C96.6623 11.4252 96.7645 11.8768 96.9688 12.2747C97.1731 12.6725 97.458 12.9897 97.8236 13.2262C98.1999 13.4628 98.6192 13.581 99.0816 13.581ZM105.259 15.1777V6.67817H107.194L107.227 8.42001L106.856 8.61355C106.963 8.22647 107.173 7.87703 107.485 7.56522C107.797 7.24265 108.168 6.9846 108.598 6.79106C109.028 6.59752 109.469 6.50076 109.92 6.50076C110.565 6.50076 111.103 6.62978 111.533 6.88783C111.974 7.14588 112.302 7.53296 112.517 8.04906C112.743 8.56517 112.855 9.2103 112.855 9.98445V15.1777H110.872V10.1296C110.872 9.69952 110.813 9.3447 110.694 9.06514C110.576 8.77483 110.393 8.56517 110.146 8.43614C109.899 8.29636 109.598 8.23185 109.243 8.2426C108.952 8.2426 108.684 8.29099 108.436 8.38776C108.2 8.47377 107.99 8.6028 107.807 8.77483C107.635 8.93612 107.495 9.12428 107.388 9.33932C107.291 9.55436 107.243 9.79091 107.243 10.049V15.1777H106.259C106.065 15.1777 105.883 15.1777 105.711 15.1777C105.549 15.1777 105.399 15.1777 105.259 15.1777ZM117.926 15.339C117.173 15.339 116.496 15.2154 115.894 14.9681C115.302 14.71 114.818 14.3444 114.442 13.8713L115.732 12.7585C116.055 13.1241 116.415 13.3875 116.813 13.5488C117.211 13.7101 117.63 13.7907 118.071 13.7907C118.254 13.7907 118.415 13.7692 118.555 13.7262C118.705 13.6832 118.834 13.6187 118.942 13.5327C119.049 13.4466 119.13 13.3499 119.184 13.2423C119.248 13.1241 119.281 12.995 119.281 12.8553C119.281 12.5972 119.184 12.3929 118.99 12.2424C118.883 12.1671 118.711 12.0865 118.474 12.0005C118.248 11.9145 117.953 11.8284 117.587 11.7424C117.006 11.5919 116.523 11.4199 116.136 11.2263C115.748 11.022 115.447 10.7962 115.232 10.5489C115.05 10.3446 114.91 10.1135 114.813 9.85542C114.727 9.59737 114.684 9.31782 114.684 9.01676C114.684 8.64043 114.765 8.30174 114.926 8.00068C115.098 7.68887 115.329 7.42006 115.619 7.19427C115.91 6.96847 116.248 6.79644 116.635 6.67817C117.023 6.55989 117.426 6.50076 117.845 6.50076C118.275 6.50076 118.689 6.55452 119.087 6.66204C119.496 6.76956 119.872 6.92547 120.216 7.12976C120.571 7.32329 120.872 7.55984 121.119 7.8394L120.022 9.04901C119.818 8.85547 119.592 8.68344 119.345 8.53291C119.108 8.38238 118.867 8.26411 118.619 8.17809C118.372 8.08132 118.141 8.03294 117.926 8.03294C117.721 8.03294 117.539 8.05444 117.377 8.09745C117.216 8.12971 117.082 8.18347 116.974 8.25873C116.867 8.334 116.781 8.43077 116.716 8.54904C116.662 8.65656 116.635 8.78559 116.635 8.93612C116.646 9.06514 116.678 9.18879 116.732 9.30706C116.797 9.41459 116.883 9.50598 116.99 9.58124C117.109 9.65651 117.286 9.74253 117.523 9.8393C117.759 9.93607 118.066 10.0275 118.442 10.1135C118.969 10.2533 119.41 10.4092 119.764 10.5812C120.119 10.7532 120.399 10.9521 120.603 11.1779C120.807 11.3715 120.952 11.5973 121.038 11.8553C121.125 12.1134 121.168 12.3983 121.168 12.7101C121.168 13.2155 121.022 13.6671 120.732 14.0649C120.452 14.4627 120.065 14.7745 119.571 15.0003C119.087 15.2261 118.539 15.339 117.926 15.339Z" fill="white"/>
<path d="M145 9.90234L408 9.90237" stroke="white" stroke-width="1.61282" stroke-dasharray="3.23 3.23"/>
<circle cx="429.902" cy="9.67693" r="9.19308" stroke="white" stroke-width="0.967693"/>
<path d="M427.231 12.8702C426.605 12.8702 426.096 12.7444 425.702 12.4928C425.315 12.2412 425.031 11.8799 424.851 11.409C424.67 10.938 424.58 10.38 424.58 9.73488C424.58 9.03814 424.663 8.44463 424.831 7.95433C424.999 7.46403 425.276 7.08986 425.663 6.8318C426.05 6.57375 426.573 6.44473 427.231 6.44473C427.883 6.44473 428.402 6.57375 428.789 6.8318C429.176 7.08986 429.453 7.46403 429.621 7.95433C429.789 8.44463 429.873 9.03814 429.873 9.73488C429.873 10.38 429.783 10.938 429.602 11.409C429.428 11.8799 429.147 12.2412 428.76 12.4928C428.373 12.7444 427.863 12.8702 427.231 12.8702ZM427.231 12.1928C427.689 12.1928 428.05 12.0928 428.315 11.8928C428.586 11.6864 428.779 11.3993 428.895 11.0316C429.018 10.6574 429.079 10.2252 429.079 9.73488C429.079 8.88976 428.944 8.24464 428.673 7.7995C428.408 7.34791 427.928 7.12211 427.231 7.12211C426.767 7.12211 426.399 7.22211 426.128 7.4221C425.857 7.62209 425.663 7.91885 425.547 8.31237C425.431 8.69945 425.373 9.17362 425.373 9.73488C425.373 10.2252 425.431 10.6574 425.547 11.0316C425.67 11.3993 425.867 11.6864 426.138 11.8928C426.415 12.0928 426.779 12.1928 427.231 12.1928ZM432.519 12.8702C432.235 12.8702 431.932 12.8444 431.609 12.7928C431.287 12.7412 431.032 12.6799 430.845 12.6089V11.9122C431.09 12.009 431.345 12.0799 431.609 12.1251C431.874 12.1702 432.145 12.1928 432.422 12.1928C432.977 12.1928 433.387 12.109 433.651 11.9412C433.922 11.7735 434.058 11.48 434.058 11.0606C434.058 10.6606 433.932 10.3703 433.68 10.1897C433.429 10.0091 433.077 9.91874 432.626 9.91874H431.726L431.803 9.31877H432.548C433.013 9.31877 433.358 9.21878 433.584 9.01879C433.809 8.81235 433.922 8.52527 433.922 8.15754C433.922 7.80272 433.803 7.54145 433.564 7.37371C433.332 7.20598 432.958 7.12211 432.442 7.12211C432.184 7.12211 431.922 7.14792 431.658 7.19953C431.4 7.25114 431.168 7.31888 430.961 7.40274V6.71568C431.142 6.64472 431.377 6.58343 431.668 6.53182C431.964 6.47376 432.258 6.44473 432.548 6.44473C433.29 6.44473 433.835 6.60601 434.184 6.92857C434.538 7.24469 434.716 7.65112 434.716 8.14787C434.716 8.46398 434.632 8.76074 434.464 9.03814C434.303 9.3091 434.042 9.49941 433.68 9.60908C434.093 9.6994 434.39 9.88004 434.571 10.151C434.758 10.4155 434.851 10.7187 434.851 11.0606C434.851 11.667 434.642 12.1219 434.222 12.4251C433.803 12.7218 433.235 12.8702 432.519 12.8702Z" fill="white"/>
</svg>
