<svg width="440" height="20" viewBox="0 0 440 20" fill="none" xmlns="http://www.w3.org/2000/svg">
<path d="M226.306 15.339C225.489 15.339 224.742 15.1992 224.064 14.9197C223.387 14.6401 222.801 14.2423 222.306 13.7262C221.812 13.1993 221.425 12.5811 221.145 11.8715C220.876 11.1511 220.742 10.3662 220.742 9.51673C220.742 8.69957 220.887 7.94154 221.177 7.24265C221.468 6.54376 221.871 5.93089 222.387 5.40404C222.903 4.87718 223.505 4.4686 224.193 4.17829C224.881 3.88799 225.629 3.74283 226.435 3.74283C226.984 3.74283 227.516 3.82347 228.032 3.98476C228.548 4.14604 229.021 4.37183 229.451 4.66214C229.881 4.9417 230.241 5.26964 230.532 5.64596L229.193 7.11363C228.914 6.82332 228.623 6.5814 228.322 6.38786C228.032 6.18357 227.725 6.03304 227.403 5.93627C227.091 5.82875 226.768 5.77499 226.435 5.77499C225.941 5.77499 225.473 5.86638 225.032 6.04917C224.602 6.23195 224.226 6.49 223.903 6.82332C223.591 7.15664 223.344 7.55447 223.161 8.01681C222.978 8.4684 222.887 8.97375 222.887 9.53286C222.887 10.1027 222.973 10.6188 223.145 11.0812C223.328 11.5435 223.58 11.9413 223.903 12.2747C224.236 12.608 224.629 12.866 225.08 13.0488C225.543 13.2208 226.048 13.3069 226.596 13.3069C226.951 13.3069 227.295 13.2585 227.629 13.1617C227.962 13.0649 228.268 12.9305 228.548 12.7585C228.838 12.5757 229.102 12.366 229.338 12.1295L230.37 13.7907C230.112 14.081 229.768 14.3444 229.338 14.581C228.908 14.8175 228.424 15.0057 227.887 15.1455C227.36 15.2745 226.833 15.339 226.306 15.339ZM236.073 15.339C235.224 15.339 234.466 15.1509 233.799 14.7745C233.133 14.3875 232.606 13.8606 232.219 13.194C231.832 12.5273 231.638 11.7693 231.638 10.9199C231.638 10.0705 231.832 9.31244 232.219 8.64581C232.606 7.97918 233.133 7.4577 233.799 7.08137C234.466 6.69429 235.224 6.50076 236.073 6.50076C236.912 6.50076 237.665 6.69429 238.331 7.08137C238.998 7.4577 239.519 7.97918 239.896 8.64581C240.283 9.31244 240.476 10.0705 240.476 10.9199C240.476 11.7693 240.283 12.5273 239.896 13.194C239.519 13.8606 238.998 14.3875 238.331 14.7745C237.665 15.1509 236.912 15.339 236.073 15.339ZM236.073 13.581C236.536 13.581 236.944 13.4628 237.299 13.2262C237.665 12.9897 237.95 12.6725 238.154 12.2747C238.369 11.8768 238.471 11.4252 238.46 10.9199C238.471 10.4038 238.369 9.94682 238.154 9.54899C237.95 9.15116 237.665 8.83935 237.299 8.61355C236.944 8.377 236.536 8.25873 236.073 8.25873C235.611 8.25873 235.192 8.377 234.815 8.61355C234.45 8.83935 234.165 9.15654 233.96 9.56512C233.756 9.96295 233.654 10.4145 233.654 10.9199C233.654 11.4252 233.756 11.8768 233.96 12.2747C234.165 12.6725 234.45 12.9897 234.815 13.2262C235.192 13.4628 235.611 13.581 236.073 13.581ZM242.251 15.1777V6.67817H244.186L244.218 8.42001L243.847 8.61355C243.955 8.22647 244.165 7.87703 244.476 7.56522C244.788 7.24265 245.159 6.9846 245.589 6.79106C246.019 6.59752 246.46 6.50076 246.912 6.50076C247.557 6.50076 248.095 6.62978 248.525 6.88783C248.965 7.14588 249.293 7.53296 249.508 8.04906C249.734 8.56517 249.847 9.2103 249.847 9.98445V15.1777H247.863V10.1296C247.863 9.69952 247.804 9.3447 247.686 9.06514C247.568 8.77483 247.385 8.56517 247.138 8.43614C246.89 8.29636 246.589 8.23185 246.234 8.2426C245.944 8.2426 245.675 8.29099 245.428 8.38776C245.191 8.47377 244.982 8.6028 244.799 8.77483C244.627 8.93612 244.487 9.12428 244.38 9.33932C244.283 9.55436 244.235 9.79091 244.235 10.049V15.1777H243.251C243.057 15.1777 242.874 15.1777 242.702 15.1777C242.541 15.1777 242.391 15.1777 242.251 15.1777ZM252.998 15.1777V4.51699H254.982V15.1777H252.998ZM251.321 8.51678V6.67817H256.837V8.51678H251.321ZM261.478 15.339C260.779 15.339 260.145 15.1455 259.575 14.7584C259.005 14.3713 258.548 13.8445 258.204 13.1778C257.86 12.5112 257.688 11.7532 257.688 10.9038C257.688 10.0543 257.86 9.29631 258.204 8.62968C258.548 7.96305 259.016 7.44157 259.607 7.06524C260.199 6.68892 260.865 6.50076 261.607 6.50076C262.037 6.50076 262.43 6.56527 262.785 6.69429C263.139 6.81257 263.451 6.9846 263.72 7.2104C263.989 7.43619 264.209 7.69424 264.381 7.98455C264.564 8.27486 264.688 8.58667 264.752 8.91999L264.317 8.80709V6.67817H266.317V15.1777H264.301V13.1456L264.768 13.0649C264.693 13.3552 264.553 13.6402 264.349 13.9197C264.156 14.1885 263.908 14.4305 263.607 14.6455C263.317 14.8498 262.989 15.0165 262.623 15.1455C262.269 15.2745 261.887 15.339 261.478 15.339ZM262.027 13.581C262.489 13.581 262.898 13.4681 263.252 13.2423C263.607 13.0166 263.881 12.7047 264.075 12.3069C264.279 11.8983 264.381 11.4306 264.381 10.9038C264.381 10.3877 264.279 9.93069 264.075 9.53286C263.881 9.13503 263.607 8.82322 263.252 8.59742C262.898 8.37163 262.489 8.25873 262.027 8.25873C261.564 8.25873 261.156 8.37163 260.801 8.59742C260.457 8.82322 260.188 9.13503 259.994 9.53286C259.801 9.93069 259.704 10.3877 259.704 10.9038C259.704 11.4306 259.801 11.8983 259.994 12.3069C260.188 12.7047 260.457 13.0166 260.801 13.2423C261.156 13.4681 261.564 13.581 262.027 13.581ZM272.262 15.339C271.466 15.339 270.751 15.1455 270.117 14.7584C269.482 14.3713 268.982 13.8445 268.617 13.1778C268.251 12.5112 268.068 11.7586 268.068 10.9199C268.068 10.0812 268.251 9.32857 268.617 8.66194C268.982 7.9953 269.482 7.46845 270.117 7.08137C270.751 6.69429 271.466 6.50076 272.262 6.50076C273.025 6.50076 273.718 6.64591 274.342 6.93622C274.966 7.22653 275.45 7.62973 275.794 8.14583L274.697 9.46835C274.536 9.24255 274.331 9.03826 274.084 8.85547C273.837 8.67269 273.573 8.52753 273.294 8.42001C273.014 8.31249 272.735 8.25873 272.455 8.25873C271.982 8.25873 271.557 8.377 271.181 8.61355C270.815 8.83935 270.525 9.15654 270.31 9.56512C270.095 9.96295 269.988 10.4145 269.988 10.9199C269.988 11.4252 270.095 11.8768 270.31 12.2747C270.536 12.6725 270.837 12.9897 271.213 13.2262C271.59 13.4628 272.009 13.581 272.471 13.581C272.751 13.581 273.02 13.538 273.278 13.452C273.546 13.3552 273.799 13.2208 274.036 13.0488C274.272 12.8768 274.493 12.6617 274.697 12.4037L275.794 13.7423C275.428 14.2154 274.923 14.6025 274.278 14.9036C273.643 15.1939 272.971 15.339 272.262 15.339ZM278.23 15.1777V4.51699H280.214V15.1777H278.23ZM276.553 8.51678V6.67817H282.069V8.51678H276.553ZM291.272 15.339C290.659 15.339 290.126 15.2046 289.675 14.9358C289.223 14.6563 288.879 14.2638 288.643 13.7585C288.406 13.2423 288.288 12.6295 288.288 11.9198V6.67817H290.272V11.5005C290.272 11.9521 290.342 12.3392 290.481 12.6617C290.621 12.9735 290.825 13.2155 291.094 13.3875C291.363 13.5595 291.686 13.6456 292.062 13.6456C292.341 13.6456 292.594 13.6025 292.82 13.5165C293.056 13.4198 293.261 13.2907 293.433 13.1295C293.605 12.9574 293.739 12.7585 293.836 12.5327C293.933 12.2962 293.981 12.0435 293.981 11.7747V6.67817H295.965V15.1777H294.03L293.997 13.4036L294.352 13.2101C294.223 13.6187 294.003 13.9842 293.691 14.3068C293.39 14.6186 293.03 14.8713 292.61 15.0648C292.191 15.2476 291.745 15.339 291.272 15.339ZM301.129 15.339C300.376 15.339 299.699 15.2154 299.096 14.9681C298.505 14.71 298.021 14.3444 297.645 13.8713L298.935 12.7585C299.258 13.1241 299.618 13.3875 300.016 13.5488C300.414 13.7101 300.833 13.7907 301.274 13.7907C301.456 13.7907 301.618 13.7692 301.758 13.7262C301.908 13.6832 302.037 13.6187 302.145 13.5327C302.252 13.4466 302.333 13.3499 302.387 13.2423C302.451 13.1241 302.483 12.995 302.483 12.8553C302.483 12.5972 302.387 12.3929 302.193 12.2424C302.085 12.1671 301.913 12.0865 301.677 12.0005C301.451 11.9145 301.155 11.8284 300.79 11.7424C300.209 11.5919 299.725 11.4199 299.338 11.2263C298.951 11.022 298.65 10.7962 298.435 10.5489C298.252 10.3446 298.113 10.1135 298.016 9.85542C297.93 9.59737 297.887 9.31782 297.887 9.01676C297.887 8.64043 297.967 8.30174 298.129 8.00068C298.301 7.68887 298.532 7.42006 298.822 7.19427C299.113 6.96847 299.451 6.79644 299.838 6.67817C300.225 6.55989 300.629 6.50076 301.048 6.50076C301.478 6.50076 301.892 6.55452 302.29 6.66204C302.698 6.76956 303.075 6.92547 303.419 7.12976C303.774 7.32329 304.075 7.55984 304.322 7.8394L303.225 9.04901C303.021 8.85547 302.795 8.68344 302.548 8.53291C302.311 8.38238 302.069 8.26411 301.822 8.17809C301.575 8.08132 301.344 8.03294 301.129 8.03294C300.924 8.03294 300.741 8.05444 300.58 8.09745C300.419 8.12971 300.285 8.18347 300.177 8.25873C300.069 8.334 299.983 8.43077 299.919 8.54904C299.865 8.65656 299.838 8.78559 299.838 8.93612C299.849 9.06514 299.881 9.18879 299.935 9.30706C300 9.41459 300.086 9.50598 300.193 9.58124C300.311 9.65651 300.489 9.74253 300.725 9.8393C300.962 9.93607 301.268 10.0275 301.645 10.1135C302.172 10.2533 302.612 10.4092 302.967 10.5812C303.322 10.7532 303.602 10.9521 303.806 11.1779C304.01 11.3715 304.155 11.5973 304.241 11.8553C304.327 12.1134 304.37 12.3983 304.37 12.7101C304.37 13.2155 304.225 13.6671 303.935 14.0649C303.655 14.4627 303.268 14.7745 302.774 15.0003C302.29 15.2261 301.741 15.339 301.129 15.339Z" fill="white"/>
<path d="M339.242 9.67773L407.825 9.67774" stroke="white" stroke-width="1.61282" stroke-dasharray="3.23 3.23"/>
<circle cx="429.982" cy="9.67693" r="9.19308" stroke="white" stroke-width="0.967693"/>
<path d="M427.259 12.7734V7.21888L426.272 7.39307V6.72536L428.052 6.44473V12.7734H427.259ZM430.895 12.8702C430.611 12.8702 430.314 12.8476 430.004 12.8025C429.695 12.7573 429.44 12.6928 429.24 12.6089V11.9025C429.717 12.0961 430.24 12.1928 430.808 12.1928C431.362 12.1928 431.766 12.0896 432.017 11.8832C432.275 11.6767 432.404 11.3542 432.404 10.9155C432.404 10.5026 432.308 10.1929 432.114 9.98648C431.927 9.78004 431.559 9.67682 431.011 9.67682H429.211V9.12524L429.375 6.5415H432.753L432.675 7.16082H430.043L429.917 9.04782H431.088C431.817 9.04782 432.349 9.20265 432.685 9.51231C433.027 9.82197 433.198 10.2897 433.198 10.9155C433.198 11.5219 433.001 11.9993 432.608 12.3477C432.22 12.696 431.65 12.8702 430.895 12.8702Z" fill="white"/>
</svg>
