<svg width="440" height="20" viewBox="0 0 440 20" fill="none" xmlns="http://www.w3.org/2000/svg">
<path d="M1.51605 15.1777V3.88799H6.04808C6.86524 3.88799 7.60176 4.02239 8.25764 4.29119C8.92428 4.55999 9.49414 4.94707 9.96724 5.45242C10.4511 5.95777 10.8167 6.55452 11.064 7.24265C11.322 7.93079 11.451 8.69419 11.451 9.53286C11.451 10.3715 11.322 11.1403 11.064 11.8392C10.8167 12.5273 10.4565 13.1241 9.98336 13.6294C9.51027 14.124 8.94041 14.5057 8.27377 14.7745C7.60714 15.0433 6.86524 15.1777 6.04808 15.1777H1.51605ZM3.61272 13.5488L3.45144 13.2423H5.96744C6.49429 13.2423 6.96201 13.1563 7.37059 12.9843C7.78993 12.8123 8.14475 12.565 8.43505 12.2424C8.72536 11.9198 8.94578 11.5328 9.09631 11.0812C9.24684 10.6188 9.32211 10.1027 9.32211 9.53286C9.32211 8.963 9.24684 8.45227 9.09631 8.00068C8.94578 7.53834 8.71999 7.14588 8.41893 6.82332C8.12862 6.50076 7.77917 6.25346 7.37059 6.08142C6.96201 5.90939 6.49429 5.82337 5.96744 5.82337H3.40305L3.61272 5.54919V13.5488ZM17.3513 15.339C16.4589 15.339 15.6686 15.1509 14.9805 14.7745C14.3031 14.3982 13.7708 13.8875 13.3838 13.2423C13.0074 12.5865 12.8193 11.8392 12.8193 11.0005C12.8193 10.3339 12.9268 9.7264 13.1418 9.17804C13.3569 8.62968 13.6526 8.15659 14.0289 7.75876C14.416 7.35018 14.8729 7.03836 15.3998 6.82332C15.9374 6.59753 16.5234 6.48463 17.1578 6.48463C17.7169 6.48463 18.2384 6.59215 18.7222 6.80719C19.2061 7.02223 19.6254 7.31792 19.9802 7.69424C20.335 8.05982 20.6038 8.50065 20.7866 9.01676C20.9802 9.52211 21.0716 10.0758 21.0608 10.678L21.0447 11.3715H14.1579L13.787 10.0167H19.3835L19.1254 10.2909V9.93607C19.0932 9.60275 18.9856 9.31244 18.8028 9.06514C18.6201 8.80709 18.3835 8.60818 18.0932 8.4684C17.8137 8.31787 17.5018 8.2426 17.1578 8.2426C16.6309 8.2426 16.1847 8.34475 15.8191 8.54904C15.4643 8.75333 15.1955 9.04901 15.0127 9.43609C14.8299 9.81242 14.7385 10.2855 14.7385 10.8554C14.7385 11.4037 14.8514 11.8822 15.0772 12.2908C15.3138 12.6994 15.6417 13.0166 16.0611 13.2423C16.4911 13.4574 16.9911 13.5649 17.561 13.5649C17.9588 13.5649 18.3244 13.5004 18.6577 13.3714C18.991 13.2423 19.3512 13.0112 19.7383 12.6779L20.7221 14.0488C20.4318 14.3176 20.0985 14.5487 19.7222 14.7423C19.3566 14.9251 18.9695 15.0702 18.5609 15.1777C18.1523 15.2853 17.7491 15.339 17.3513 15.339ZM25.6563 15.339C24.9037 15.339 24.2263 15.2154 23.6242 14.9681C23.0328 14.71 22.549 14.3444 22.1726 13.8713L23.4629 12.7585C23.7855 13.1241 24.1457 13.3875 24.5435 13.5488C24.9413 13.7101 25.3606 13.7907 25.8015 13.7907C25.9843 13.7907 26.1456 13.7692 26.2853 13.7262C26.4359 13.6832 26.5649 13.6187 26.6724 13.5327C26.7799 13.4466 26.8606 13.3499 26.9143 13.2423C26.9788 13.1241 27.0111 12.995 27.0111 12.8553C27.0111 12.5972 26.9143 12.3929 26.7208 12.2424C26.6133 12.1671 26.4412 12.0865 26.2047 12.0005C25.9789 11.9145 25.6832 11.8284 25.3176 11.7424C24.737 11.5919 24.2532 11.4199 23.8661 11.2263C23.479 11.022 23.178 10.7962 22.9629 10.5489C22.7801 10.3446 22.6404 10.1135 22.5436 9.85542C22.4576 9.59737 22.4146 9.31782 22.4146 9.01676C22.4146 8.64043 22.4952 8.30174 22.6565 8.00068C22.8285 7.68887 23.0597 7.42006 23.35 7.19427C23.6403 6.96847 23.979 6.79644 24.3661 6.67817C24.7532 6.55989 25.1564 6.50076 25.5757 6.50076C26.0058 6.50076 26.4197 6.55452 26.8176 6.66204C27.2261 6.76956 27.6025 6.92547 27.9465 7.12976C28.3014 7.32329 28.6024 7.55984 28.8497 7.8394L27.753 9.04901C27.5487 8.85547 27.3229 8.68344 27.0756 8.53291C26.8391 8.38238 26.5971 8.26411 26.3498 8.17809C26.1025 8.08132 25.8714 8.03294 25.6563 8.03294C25.452 8.03294 25.2693 8.05444 25.108 8.09745C24.9467 8.12971 24.8123 8.18347 24.7048 8.25873C24.5972 8.334 24.5112 8.43077 24.4467 8.54904C24.393 8.65656 24.3661 8.78559 24.3661 8.93612C24.3768 9.06514 24.4091 9.18879 24.4628 9.30706C24.5274 9.41459 24.6134 9.50598 24.7209 9.58124C24.8392 9.65651 25.0166 9.74253 25.2531 9.8393C25.4897 9.93607 25.7961 10.0275 26.1724 10.1135C26.6993 10.2533 27.1401 10.4092 27.4949 10.5812C27.8498 10.7532 28.1293 10.9521 28.3336 11.1779C28.5379 11.3715 28.6831 11.5973 28.7691 11.8553C28.8551 12.1134 28.8981 12.3983 28.8981 12.7101C28.8981 13.2155 28.7529 13.6671 28.4626 14.0649C28.1831 14.4627 27.796 14.7745 27.3014 15.0003C26.8176 15.2261 26.2692 15.339 25.6563 15.339ZM34.2906 15.339C33.4949 15.339 32.7799 15.1455 32.1455 14.7584C31.5112 14.3713 31.0112 13.8445 30.6456 13.1778C30.28 12.5112 30.0973 11.7586 30.0973 10.9199C30.0973 10.0812 30.28 9.32857 30.6456 8.66194C31.0112 7.9953 31.5112 7.46845 32.1455 7.08137C32.7799 6.69429 33.4949 6.50076 34.2906 6.50076C35.054 6.50076 35.7475 6.64591 36.3711 6.93622C36.9948 7.22653 37.4786 7.62973 37.8227 8.14583L36.726 9.46835C36.5647 9.24255 36.3604 9.03826 36.1131 8.85547C35.8658 8.67269 35.6024 8.52753 35.3228 8.42001C35.0432 8.31249 34.7637 8.25873 34.4841 8.25873C34.011 8.25873 33.5863 8.377 33.21 8.61355C32.8444 8.83935 32.5541 9.15654 32.3391 9.56512C32.124 9.96295 32.0165 10.4145 32.0165 10.9199C32.0165 11.4252 32.124 11.8768 32.3391 12.2747C32.5649 12.6725 32.8659 12.9897 33.2423 13.2262C33.6186 13.4628 34.0379 13.581 34.5003 13.581C34.7798 13.581 35.0486 13.538 35.3067 13.452C35.5755 13.3552 35.8282 13.2208 36.0647 13.0488C36.3012 12.8768 36.5217 12.6617 36.726 12.4037L37.8227 13.7423C37.4571 14.2154 36.9517 14.6025 36.3066 14.9036C35.6722 15.1939 35.0002 15.339 34.2906 15.339ZM39.3397 15.1777V6.67817H41.2912L41.3235 9.38771L41.0493 8.77483C41.1676 8.34475 41.3719 7.95767 41.6622 7.6136C41.9525 7.26953 42.2858 7.00073 42.6621 6.80719C43.0492 6.6029 43.4524 6.50076 43.8718 6.50076C44.0545 6.50076 44.2266 6.51688 44.3879 6.54914C44.5599 6.5814 44.6997 6.61903 44.8072 6.66204L44.275 8.83935C44.1567 8.77483 44.0115 8.72107 43.8395 8.67806C43.6675 8.63506 43.4954 8.61355 43.3234 8.61355C43.0546 8.61355 42.7965 8.66731 42.5492 8.77483C42.3127 8.8716 42.103 9.01138 41.9202 9.19417C41.7375 9.37695 41.5923 9.592 41.4848 9.8393C41.388 10.0758 41.3396 10.3446 41.3396 10.6457V15.1777H39.3397ZM46.3539 15.1777V6.67817H48.3376V15.1777H46.3539ZM47.3216 4.87181C46.9237 4.87181 46.6119 4.77504 46.3861 4.5815C46.1711 4.37721 46.0636 4.09228 46.0636 3.7267C46.0636 3.38263 46.1765 3.10308 46.4023 2.88804C46.628 2.67299 46.9345 2.56547 47.3216 2.56547C47.7301 2.56547 48.042 2.66762 48.257 2.87191C48.4828 3.06545 48.5957 3.35038 48.5957 3.7267C48.5957 4.06002 48.4828 4.3342 48.257 4.54924C48.0312 4.76428 47.7194 4.87181 47.3216 4.87181ZM50.8531 18.7259V6.67817H52.8046L52.8369 8.61355L52.4982 8.4684C52.5627 8.13508 52.7455 7.82327 53.0466 7.53296C53.3476 7.2319 53.7132 6.98998 54.1433 6.80719C54.5841 6.62441 55.0411 6.53301 55.5142 6.53301C56.2668 6.53301 56.9335 6.72117 57.5141 7.0975C58.1055 7.47382 58.5678 7.98993 58.9011 8.64581C59.2452 9.30169 59.4172 10.0597 59.4172 10.9199C59.4172 11.7693 59.2452 12.5273 58.9011 13.194C58.5678 13.8498 58.1055 14.3713 57.5141 14.7584C56.9335 15.1347 56.2776 15.3229 55.5464 15.3229C55.0518 15.3229 54.5734 15.2261 54.111 15.0326C53.6594 14.839 53.2724 14.5864 52.9498 14.2746C52.638 13.9627 52.4445 13.6348 52.3692 13.2907L52.853 13.0649V18.7259H50.8531ZM55.1432 13.5649C55.5948 13.5649 55.998 13.452 56.3529 13.2262C56.7077 13.0004 56.9819 12.6886 57.1754 12.2908C57.3797 11.893 57.4818 11.436 57.4818 10.9199C57.4818 10.4038 57.3851 9.95219 57.1915 9.56512C56.998 9.16729 56.7238 8.85547 56.369 8.62968C56.0142 8.40389 55.6056 8.29099 55.1432 8.29099C54.6701 8.29099 54.2562 8.40389 53.9014 8.62968C53.5573 8.84472 53.2831 9.15116 53.0788 9.54899C52.8745 9.94682 52.7724 10.4038 52.7724 10.9199C52.7724 11.436 52.8745 11.893 53.0788 12.2908C53.2831 12.6886 53.5573 13.0004 53.9014 13.2262C54.2562 13.452 54.6701 13.5649 55.1432 13.5649ZM62.1046 15.1777V4.51699H64.0883V15.1777H62.1046ZM60.4272 8.51678V6.67817H65.9431V8.51678H60.4272ZM67.6796 15.1777V6.67817H69.6634V15.1777H67.6796ZM68.6473 4.87181C68.2495 4.87181 67.9377 4.77504 67.7119 4.5815C67.4969 4.37721 67.3893 4.09228 67.3893 3.7267C67.3893 3.38263 67.5022 3.10308 67.728 2.88804C67.9538 2.67299 68.2603 2.56547 68.6473 2.56547C69.0559 2.56547 69.3677 2.66762 69.5828 2.87191C69.8086 3.06545 69.9215 3.35038 69.9215 3.7267C69.9215 4.06002 69.8086 4.3342 69.5828 4.54924C69.357 4.76428 69.0452 4.87181 68.6473 4.87181ZM76.0658 15.339C75.2164 15.339 74.4584 15.1509 73.7917 14.7745C73.1251 14.3875 72.5982 13.8606 72.2112 13.194C71.8241 12.5273 71.6306 11.7693 71.6306 10.9199C71.6306 10.0705 71.8241 9.31244 72.2112 8.64581C72.5982 7.97918 73.1251 7.4577 73.7917 7.08137C74.4584 6.69429 75.2164 6.50076 76.0658 6.50076C76.9045 6.50076 77.6571 6.69429 78.3238 7.08137C78.9904 7.4577 79.5119 7.97918 79.8882 8.64581C80.2753 9.31244 80.4688 10.0705 80.4688 10.9199C80.4688 11.7693 80.2753 12.5273 79.8882 13.194C79.5119 13.8606 78.9904 14.3875 78.3238 14.7745C77.6571 15.1509 76.9045 15.339 76.0658 15.339ZM76.0658 13.581C76.5282 13.581 76.9367 13.4628 77.2916 13.2262C77.6571 12.9897 77.9421 12.6725 78.1464 12.2747C78.3614 11.8768 78.4635 11.4252 78.4528 10.9199C78.4635 10.4038 78.3614 9.94682 78.1464 9.54899C77.9421 9.15116 77.6571 8.83935 77.2916 8.61355C76.9367 8.377 76.5282 8.25873 76.0658 8.25873C75.6035 8.25873 75.1841 8.377 74.8078 8.61355C74.4422 8.83935 74.1573 9.15654 73.953 9.56512C73.7487 9.96295 73.6466 10.4145 73.6466 10.9199C73.6466 11.4252 73.7487 11.8768 73.953 12.2747C74.1573 12.6725 74.4422 12.9897 74.8078 13.2262C75.1841 13.4628 75.6035 13.581 76.0658 13.581ZM82.2433 15.1777V6.67817H84.1787L84.2109 8.42001L83.84 8.61355C83.9475 8.22647 84.1572 7.87703 84.469 7.56522C84.7808 7.24265 85.1517 6.9846 85.5818 6.79106C86.0119 6.59752 86.4528 6.50076 86.9043 6.50076C87.5495 6.50076 88.0871 6.62978 88.5172 6.88783C88.958 7.14588 89.2859 7.53296 89.501 8.04906C89.7268 8.56517 89.8397 9.2103 89.8397 9.98445V15.1777H87.8559V10.1296C87.8559 9.69952 87.7968 9.3447 87.6785 9.06514C87.5602 8.77483 87.3774 8.56517 87.1301 8.43614C86.8828 8.29636 86.5818 8.23185 86.227 8.2426C85.9367 8.2426 85.6679 8.29099 85.4206 8.38776C85.184 8.47377 84.9743 8.6028 84.7916 8.77483C84.6195 8.93612 84.4797 9.12428 84.3722 9.33932C84.2754 9.55436 84.2271 9.79091 84.2271 10.049V15.1777H83.2432C83.0497 15.1777 82.8669 15.1777 82.6949 15.1777C82.5336 15.1777 82.3831 15.1777 82.2433 15.1777Z" fill="white"/>
<path d="M113 9.86719L408 9.86721" stroke="white" stroke-width="1.61282" stroke-dasharray="3.23 3.23"/>
<circle cx="430.362" cy="9.67693" r="9.19308" stroke="white" stroke-width="0.967693"/>
<path d="M427.692 12.8702C427.066 12.8702 426.557 12.7444 426.163 12.4928C425.776 12.2412 425.492 11.8799 425.311 11.409C425.131 10.938 425.04 10.38 425.04 9.73488C425.04 9.03814 425.124 8.44463 425.292 7.95433C425.46 7.46403 425.737 7.08986 426.124 6.8318C426.511 6.57375 427.034 6.44473 427.692 6.44473C428.344 6.44473 428.863 6.57375 429.25 6.8318C429.637 7.08986 429.914 7.46403 430.082 7.95433C430.25 8.44463 430.334 9.03814 430.334 9.73488C430.334 10.38 430.243 10.938 430.063 11.409C429.889 11.8799 429.608 12.2412 429.221 12.4928C428.834 12.7444 428.324 12.8702 427.692 12.8702ZM427.692 12.1928C428.15 12.1928 428.511 12.0928 428.776 11.8928C429.047 11.6864 429.24 11.3993 429.356 11.0316C429.479 10.6574 429.54 10.2252 429.54 9.73488C429.54 8.88976 429.405 8.24464 429.134 7.7995C428.869 7.34791 428.389 7.12211 427.692 7.12211C427.227 7.12211 426.86 7.22211 426.589 7.4221C426.318 7.62209 426.124 7.91885 426.008 8.31237C425.892 8.69945 425.834 9.17362 425.834 9.73488C425.834 10.2252 425.892 10.6574 426.008 11.0316C426.131 11.3993 426.328 11.6864 426.598 11.8928C426.876 12.0928 427.24 12.1928 427.692 12.1928ZM431.306 12.7734V12.3477C431.474 11.9412 431.712 11.5703 432.022 11.2348C432.332 10.8993 432.664 10.5832 433.019 10.2865C433.374 9.98971 433.648 9.74133 433.841 9.54134C434.041 9.3349 434.18 9.13814 434.257 8.95105C434.335 8.75751 434.374 8.53172 434.374 8.27367C434.374 7.89949 434.277 7.61564 434.083 7.4221C433.89 7.22211 433.528 7.12211 432.999 7.12211C432.761 7.12211 432.516 7.14792 432.264 7.19953C432.012 7.24469 431.774 7.31243 431.548 7.40274V6.69633C431.754 6.62536 432.003 6.5673 432.293 6.52214C432.583 6.47053 432.861 6.44473 433.125 6.44473C433.796 6.44473 434.303 6.60923 434.644 6.93825C434.993 7.26081 435.167 7.70595 435.167 8.27367C435.167 8.58333 435.112 8.85751 435.003 9.09621C434.893 9.32845 434.741 9.55102 434.548 9.76391C434.354 9.97035 434.128 10.1897 433.87 10.4219C433.554 10.6993 433.251 10.9735 432.961 11.2445C432.677 11.509 432.451 11.8122 432.283 12.1541H435.235V12.7734H431.306Z" fill="white"/>
</svg>
