<svg width="440" height="20" viewBox="0 0 440 20" fill="none" xmlns="http://www.w3.org/2000/svg">
<path d="M42.5161 15.1777V3.88799H47.0481C47.8652 3.88799 48.6018 4.02239 49.2576 4.29119C49.9243 4.55999 50.4941 4.94707 50.9672 5.45242C51.4511 5.95777 51.8167 6.55452 52.064 7.24265C52.322 7.93079 52.451 8.69419 52.451 9.53286C52.451 10.3715 52.322 11.1403 52.064 11.8392C51.8167 12.5273 51.4565 13.1241 50.9834 13.6294C50.5103 14.124 49.9404 14.5057 49.2738 14.7745C48.6071 15.0433 47.8652 15.1777 47.0481 15.1777H42.5161ZM44.6127 13.5488L44.4514 13.2423H46.9674C47.4943 13.2423 47.962 13.1563 48.3706 12.9843C48.7899 12.8123 49.1447 12.565 49.4351 12.2424C49.7254 11.9198 49.9458 11.5328 50.0963 11.0812C50.2468 10.6188 50.3221 10.1027 50.3221 9.53286C50.3221 8.963 50.2468 8.45227 50.0963 8.00068C49.9458 7.53834 49.72 7.14588 49.4189 6.82332C49.1286 6.50076 48.7792 6.25346 48.3706 6.08142C47.962 5.90939 47.4943 5.82337 46.9674 5.82337H44.4031L44.6127 5.54919V13.5488ZM58.3513 15.339C57.4589 15.339 56.6686 15.1509 55.9805 14.7745C55.3031 14.3982 54.7708 13.8875 54.3838 13.2423C54.0074 12.5865 53.8193 11.8392 53.8193 11.0005C53.8193 10.3339 53.9268 9.7264 54.1418 9.17804C54.3569 8.62968 54.6526 8.15659 55.0289 7.75876C55.416 7.35018 55.8729 7.03836 56.3998 6.82332C56.9374 6.59753 57.5234 6.48463 58.1578 6.48463C58.7169 6.48463 59.2384 6.59215 59.7222 6.80719C60.2061 7.02223 60.6254 7.31792 60.9802 7.69424C61.335 8.05982 61.6038 8.50065 61.7866 9.01676C61.9802 9.52211 62.0716 10.0758 62.0608 10.678L62.0447 11.3715H55.1579L54.787 10.0167H60.3835L60.1254 10.2909V9.93607C60.0932 9.60275 59.9856 9.31244 59.8028 9.06514C59.6201 8.80709 59.3835 8.60818 59.0932 8.4684C58.8137 8.31787 58.5018 8.2426 58.1578 8.2426C57.6309 8.2426 57.1847 8.34475 56.8191 8.54904C56.4643 8.75333 56.1955 9.04901 56.0127 9.43609C55.8299 9.81242 55.7385 10.2855 55.7385 10.8554C55.7385 11.4037 55.8514 11.8822 56.0772 12.2908C56.3138 12.6994 56.6417 13.0166 57.0611 13.2423C57.4911 13.4574 57.9911 13.5649 58.561 13.5649C58.9588 13.5649 59.3244 13.5004 59.6577 13.3714C59.991 13.2423 60.3512 13.0112 60.7383 12.6779L61.7221 14.0488C61.4318 14.3176 61.0985 14.5487 60.7222 14.7423C60.3566 14.9251 59.9695 15.0702 59.5609 15.1777C59.1523 15.2853 58.7491 15.339 58.3513 15.339ZM66.6563 15.339C65.9037 15.339 65.2263 15.2154 64.6242 14.9681C64.0328 14.71 63.549 14.3444 63.1726 13.8713L64.4629 12.7585C64.7855 13.1241 65.1457 13.3875 65.5435 13.5488C65.9413 13.7101 66.3606 13.7907 66.8015 13.7907C66.9843 13.7907 67.1456 13.7692 67.2853 13.7262C67.4359 13.6832 67.5649 13.6187 67.6724 13.5327C67.7799 13.4466 67.8606 13.3499 67.9143 13.2423C67.9788 13.1241 68.0111 12.995 68.0111 12.8553C68.0111 12.5972 67.9143 12.3929 67.7208 12.2424C67.6133 12.1671 67.4412 12.0865 67.2047 12.0005C66.9789 11.9145 66.6832 11.8284 66.3176 11.7424C65.737 11.5919 65.2532 11.4199 64.8661 11.2263C64.479 11.022 64.178 10.7962 63.9629 10.5489C63.7801 10.3446 63.6404 10.1135 63.5436 9.85542C63.4576 9.59737 63.4146 9.31782 63.4146 9.01676C63.4146 8.64043 63.4952 8.30174 63.6565 8.00068C63.8285 7.68887 64.0597 7.42006 64.35 7.19427C64.6403 6.96847 64.979 6.79644 65.3661 6.67817C65.7532 6.55989 66.1564 6.50076 66.5757 6.50076C67.0058 6.50076 67.4197 6.55452 67.8176 6.66204C68.2261 6.76956 68.6025 6.92547 68.9465 7.12976C69.3014 7.32329 69.6024 7.55984 69.8497 7.8394L68.753 9.04901C68.5487 8.85547 68.3229 8.68344 68.0756 8.53291C67.8391 8.38238 67.5971 8.26411 67.3498 8.17809C67.1025 8.08132 66.8714 8.03294 66.6563 8.03294C66.452 8.03294 66.2693 8.05444 66.108 8.09745C65.9467 8.12971 65.8123 8.18347 65.7048 8.25873C65.5972 8.334 65.5112 8.43077 65.4467 8.54904C65.393 8.65656 65.3661 8.78559 65.3661 8.93612C65.3768 9.06514 65.4091 9.18879 65.4628 9.30706C65.5274 9.41459 65.6134 9.50598 65.7209 9.58124C65.8392 9.65651 66.0166 9.74253 66.2531 9.8393C66.4897 9.93607 66.7961 10.0275 67.1724 10.1135C67.6993 10.2533 68.1401 10.4092 68.4949 10.5812C68.8498 10.7532 69.1293 10.9521 69.3336 11.1779C69.5379 11.3715 69.6831 11.5973 69.7691 11.8553C69.8551 12.1134 69.8981 12.3983 69.8981 12.7101C69.8981 13.2155 69.7529 13.6671 69.4626 14.0649C69.1831 14.4627 68.796 14.7745 68.3014 15.0003C67.8176 15.2261 67.2692 15.339 66.6563 15.339ZM71.8714 15.1777V6.67817H73.8552V15.1777H71.8714ZM72.8391 4.87181C72.4413 4.87181 72.1295 4.77504 71.9037 4.5815C71.6886 4.37721 71.5811 4.09228 71.5811 3.7267C71.5811 3.38263 71.694 3.10308 71.9198 2.88804C72.1456 2.67299 72.452 2.56547 72.8391 2.56547C73.2477 2.56547 73.5595 2.66762 73.7745 2.87191C74.0003 3.06545 74.1132 3.35038 74.1132 3.7267C74.1132 4.06002 74.0003 4.3342 73.7745 4.54924C73.5487 4.76428 73.2369 4.87181 72.8391 4.87181ZM80.1931 18.8872C79.5587 18.8872 78.9243 18.7905 78.2899 18.5969C77.6663 18.4034 77.161 18.1507 76.7739 17.8389L77.4835 16.3712C77.7093 16.5325 77.962 16.6723 78.2416 16.7906C78.5211 16.9088 78.8168 17.0002 79.1286 17.0647C79.4512 17.1292 79.7684 17.1615 80.0802 17.1615C80.65 17.1615 81.1231 17.0701 81.4995 16.8873C81.8865 16.7153 82.1768 16.4465 82.3704 16.0809C82.5639 15.7261 82.6607 15.2799 82.6607 14.7423V13.1778L82.951 13.2907C82.8865 13.624 82.7091 13.9412 82.4188 14.2423C82.1285 14.5434 81.7629 14.7907 81.322 14.9842C80.8812 15.167 80.4296 15.2584 79.9673 15.2584C79.1609 15.2584 78.4458 15.0702 77.8222 14.6939C77.2093 14.3176 76.7201 13.8068 76.3546 13.1617C75.9997 12.5058 75.8223 11.7532 75.8223 10.9038C75.8223 10.0543 75.9997 9.30169 76.3546 8.64581C76.7094 7.97918 77.1932 7.4577 77.8061 7.08137C78.4297 6.69429 79.1286 6.50076 79.9028 6.50076C80.2253 6.50076 80.5371 6.53839 80.8382 6.61365C81.1393 6.68892 81.4134 6.79644 81.6607 6.93622C81.9188 7.076 82.15 7.2319 82.3542 7.40394C82.5585 7.57597 82.7252 7.75876 82.8542 7.9523C82.9832 8.14583 83.0639 8.334 83.0961 8.51678L82.6768 8.64581L82.7091 6.67817H84.6606V14.5971C84.6606 15.2853 84.5584 15.8928 84.3541 16.4196C84.1499 16.9465 83.8542 17.3927 83.4671 17.7582C83.08 18.1346 82.6123 18.4141 82.0639 18.5969C81.5156 18.7905 80.892 18.8872 80.1931 18.8872ZM80.2737 13.5649C80.7576 13.5649 81.1823 13.452 81.5478 13.2262C81.9242 13.0004 82.2145 12.6886 82.4188 12.2908C82.6231 11.893 82.7252 11.436 82.7252 10.9199C82.7252 10.393 82.6177 9.93069 82.4026 9.53286C82.1983 9.12428 81.9134 8.80709 81.5478 8.5813C81.1823 8.3555 80.7576 8.2426 80.2737 8.2426C79.7899 8.2426 79.3652 8.36088 78.9996 8.59742C78.634 8.82322 78.3437 9.14041 78.1287 9.54899C77.9244 9.94682 77.8222 10.4038 77.8222 10.9199C77.8222 11.4252 77.9244 11.8822 78.1287 12.2908C78.3437 12.6886 78.634 13.0004 78.9996 13.2262C79.3652 13.452 79.7899 13.5649 80.2737 13.5649ZM86.9548 15.1777V6.67817H88.8902L88.9225 8.42001L88.5515 8.61355C88.659 8.22647 88.8687 7.87703 89.1805 7.56522C89.4923 7.24265 89.8633 6.9846 90.2934 6.79106C90.7234 6.59752 91.1643 6.50076 91.6159 6.50076C92.261 6.50076 92.7986 6.62978 93.2287 6.88783C93.6695 7.14588 93.9975 7.53296 94.2125 8.04906C94.4383 8.56517 94.5512 9.2103 94.5512 9.98445V15.1777H92.5674V10.1296C92.5674 9.69952 92.5083 9.3447 92.39 9.06514C92.2718 8.77483 92.089 8.56517 91.8417 8.43614C91.5944 8.29636 91.2933 8.23185 90.9385 8.2426C90.6482 8.2426 90.3794 8.29099 90.1321 8.38776C89.8955 8.47377 89.6859 8.6028 89.5031 8.77483C89.331 8.93612 89.1913 9.12428 89.0837 9.33932C88.987 9.55436 88.9386 9.79091 88.9386 10.049V15.1777H87.9548C87.7612 15.1777 87.5784 15.1777 87.4064 15.1777C87.2451 15.1777 87.0946 15.1777 86.9548 15.1777ZM109.669 15.1777L108.314 13.7585L107.798 13.2423L105.169 10.3393C104.846 9.9952 104.55 9.65651 104.282 9.32319C104.024 8.97912 103.803 8.65118 103.62 8.33937C103.448 8.02756 103.309 7.7265 103.201 7.43619C103.104 7.14588 103.056 6.8717 103.056 6.61365C103.056 6.05454 103.201 5.55457 103.491 5.11373C103.782 4.67289 104.185 4.32882 104.701 4.08152C105.217 3.82347 105.814 3.69445 106.491 3.69445C106.997 3.69445 107.47 3.78584 107.911 3.96863C108.351 4.14066 108.728 4.38796 109.04 4.71052C109.362 5.02234 109.593 5.39329 109.733 5.82337L108.201 6.77494C108.007 6.29109 107.776 5.9524 107.507 5.75886C107.239 5.55457 106.911 5.45242 106.524 5.45242C106.222 5.45242 105.97 5.50081 105.765 5.59758C105.561 5.68359 105.405 5.818 105.298 6.00078C105.19 6.17282 105.136 6.38786 105.136 6.64591C105.136 6.8717 105.212 7.12976 105.362 7.42006C105.513 7.71037 105.696 8.00606 105.911 8.30712C106.136 8.60818 106.368 8.88773 106.604 9.14578C106.841 9.40383 107.045 9.62963 107.217 9.82317L109.104 11.9037L109.798 12.5972L112.185 15.1777H109.669ZM105.411 15.339C104.626 15.339 103.911 15.1777 103.266 14.8552C102.62 14.5219 102.11 14.081 101.733 13.5327C101.357 12.9843 101.169 12.3822 101.169 11.7263C101.169 10.8984 101.4 10.1726 101.862 9.54899C102.325 8.92536 103.008 8.44689 103.911 8.11358L105.153 9.46835C104.497 9.61888 104.002 9.8608 103.669 10.1941C103.346 10.5167 103.185 10.9521 103.185 11.5005C103.185 11.9198 103.287 12.2908 103.491 12.6133C103.696 12.9252 103.986 13.1725 104.362 13.3552C104.739 13.5273 105.19 13.6133 105.717 13.6133C106.179 13.6133 106.604 13.5219 106.991 13.3391C107.389 13.1563 107.744 12.8983 108.056 12.565C108.367 12.2209 108.626 11.8123 108.83 11.3392C109.034 10.8661 109.174 10.3446 109.249 9.77478H111.072C110.986 10.4414 110.824 11.0597 110.588 11.6295C110.362 12.1994 110.077 12.7155 109.733 13.1778C109.4 13.6294 109.013 14.0165 108.572 14.3391C108.131 14.6616 107.647 14.9089 107.12 15.081C106.593 15.253 106.024 15.339 105.411 15.339ZM123.618 15.339C122.811 15.339 122.064 15.1939 121.376 14.9036C120.688 14.6132 120.086 14.21 119.57 13.6939C119.064 13.1671 118.672 12.5488 118.392 11.8392C118.113 11.1296 117.973 10.3554 117.973 9.51673C117.973 8.67806 118.113 7.90391 118.392 7.19427C118.672 6.48463 119.064 5.87176 119.57 5.35565C120.086 4.8288 120.688 4.42022 121.376 4.12991C122.064 3.8396 122.811 3.69445 123.618 3.69445C124.435 3.69445 125.188 3.8396 125.876 4.12991C126.564 4.42022 127.161 4.8288 127.666 5.35565C128.171 5.88251 128.564 6.50076 128.843 7.2104C129.123 7.90929 129.263 8.67806 129.263 9.51673C129.263 10.3446 129.123 11.1134 128.843 11.8231C128.564 12.5327 128.171 13.151 127.666 13.6778C127.161 14.2047 126.564 14.6132 125.876 14.9036C125.188 15.1939 124.435 15.339 123.618 15.339ZM123.618 13.3391C124.134 13.3391 124.602 13.2477 125.021 13.0649C125.451 12.8714 125.822 12.6026 126.134 12.2585C126.446 11.9037 126.688 11.4951 126.86 11.0328C127.042 10.5704 127.134 10.0651 127.134 9.51673C127.134 8.96837 127.042 8.46302 126.86 8.00068C126.688 7.53834 126.446 7.13513 126.134 6.79106C125.822 6.43624 125.451 6.16744 125.021 5.98465C124.602 5.79111 124.134 5.69435 123.618 5.69435C123.112 5.69435 122.645 5.79111 122.215 5.98465C121.785 6.16744 121.414 6.43087 121.102 6.77494C120.79 7.119 120.548 7.52221 120.376 7.98455C120.204 8.44689 120.118 8.95762 120.118 9.51673C120.118 10.0651 120.204 10.5758 120.376 11.0489C120.548 11.5113 120.79 11.9145 121.102 12.2585C121.414 12.6026 121.785 12.8714 122.215 13.0649C122.645 13.2477 123.112 13.3391 123.618 13.3391ZM131.181 18.7259V6.67817H133.133L133.165 8.61355L132.826 8.4684C132.891 8.13508 133.074 7.82327 133.375 7.53296C133.676 7.2319 134.041 6.98998 134.472 6.80719C134.912 6.62441 135.369 6.53301 135.842 6.53301C136.595 6.53301 137.262 6.72117 137.842 7.0975C138.434 7.47382 138.896 7.98993 139.229 8.64581C139.573 9.30169 139.745 10.0597 139.745 10.9199C139.745 11.7693 139.573 12.5273 139.229 13.194C138.896 13.8498 138.434 14.3713 137.842 14.7584C137.262 15.1347 136.606 15.3229 135.875 15.3229C135.38 15.3229 134.902 15.2261 134.439 15.0326C133.988 14.839 133.601 14.5864 133.278 14.2746C132.966 13.9627 132.773 13.6348 132.697 13.2907L133.181 13.0649V18.7259H131.181ZM135.472 13.5649C135.923 13.5649 136.326 13.452 136.681 13.2262C137.036 13.0004 137.31 12.6886 137.504 12.2908C137.708 11.893 137.81 11.436 137.81 10.9199C137.81 10.4038 137.713 9.95219 137.52 9.56512C137.326 9.16729 137.052 8.85547 136.697 8.62968C136.342 8.40389 135.934 8.29099 135.472 8.29099C134.998 8.29099 134.584 8.40389 134.23 8.62968C133.886 8.84472 133.611 9.15116 133.407 9.54899C133.203 9.94682 133.101 10.4038 133.101 10.9199C133.101 11.436 133.203 11.893 133.407 12.2908C133.611 12.6886 133.886 13.0004 134.23 13.2262C134.584 13.452 134.998 13.5649 135.472 13.5649ZM142.433 15.1777V4.51699H144.417V15.1777H142.433ZM140.756 8.51678V6.67817H146.271V8.51678H140.756ZM148.008 15.1777V6.67817H149.992V15.1777H148.008ZM148.976 4.87181C148.578 4.87181 148.266 4.77504 148.04 4.5815C147.825 4.37721 147.718 4.09228 147.718 3.7267C147.718 3.38263 147.831 3.10308 148.056 2.88804C148.282 2.67299 148.589 2.56547 148.976 2.56547C149.384 2.56547 149.696 2.66762 149.911 2.87191C150.137 3.06545 150.25 3.35038 150.25 3.7267C150.25 4.06002 150.137 4.3342 149.911 4.54924C149.685 4.76428 149.373 4.87181 148.976 4.87181ZM156.394 15.339C155.545 15.339 154.787 15.1509 154.12 14.7745C153.453 14.3875 152.927 13.8606 152.539 13.194C152.152 12.5273 151.959 11.7693 151.959 10.9199C151.959 10.0705 152.152 9.31244 152.539 8.64581C152.927 7.97918 153.453 7.4577 154.12 7.08137C154.787 6.69429 155.545 6.50076 156.394 6.50076C157.233 6.50076 157.985 6.69429 158.652 7.08137C159.319 7.4577 159.84 7.97918 160.216 8.64581C160.604 9.31244 160.797 10.0705 160.797 10.9199C160.797 11.7693 160.604 12.5273 160.216 13.194C159.84 13.8606 159.319 14.3875 158.652 14.7745C157.985 15.1509 157.233 15.339 156.394 15.339ZM156.394 13.581C156.856 13.581 157.265 13.4628 157.62 13.2262C157.985 12.9897 158.27 12.6725 158.475 12.2747C158.69 11.8768 158.792 11.4252 158.781 10.9199C158.792 10.4038 158.69 9.94682 158.475 9.54899C158.27 9.15116 157.985 8.83935 157.62 8.61355C157.265 8.377 156.856 8.25873 156.394 8.25873C155.932 8.25873 155.512 8.377 155.136 8.61355C154.771 8.83935 154.486 9.15654 154.281 9.56512C154.077 9.96295 153.975 10.4145 153.975 10.9199C153.975 11.4252 154.077 11.8768 154.281 12.2747C154.486 12.6725 154.771 12.9897 155.136 13.2262C155.512 13.4628 155.932 13.581 156.394 13.581ZM162.572 15.1777V6.67817H164.507L164.539 8.42001L164.168 8.61355C164.276 8.22647 164.485 7.87703 164.797 7.56522C165.109 7.24265 165.48 6.9846 165.91 6.79106C166.34 6.59752 166.781 6.50076 167.233 6.50076C167.878 6.50076 168.415 6.62978 168.845 6.88783C169.286 7.14588 169.614 7.53296 169.829 8.04906C170.055 8.56517 170.168 9.2103 170.168 9.98445V15.1777H168.184V10.1296C168.184 9.69952 168.125 9.3447 168.007 9.06514C167.888 8.77483 167.706 8.56517 167.458 8.43614C167.211 8.29636 166.91 8.23185 166.555 8.2426C166.265 8.2426 165.996 8.29099 165.749 8.38776C165.512 8.47377 165.303 8.6028 165.12 8.77483C164.948 8.93612 164.808 9.12428 164.7 9.33932C164.604 9.55436 164.555 9.79091 164.555 10.049V15.1777H163.572C163.378 15.1777 163.195 15.1777 163.023 15.1777C162.862 15.1777 162.711 15.1777 162.572 15.1777ZM175.238 15.339C174.486 15.339 173.808 15.2154 173.206 14.9681C172.615 14.71 172.131 14.3444 171.755 13.8713L173.045 12.7585C173.367 13.1241 173.728 13.3875 174.125 13.5488C174.523 13.7101 174.943 13.7907 175.383 13.7907C175.566 13.7907 175.727 13.7692 175.867 13.7262C176.018 13.6832 176.147 13.6187 176.254 13.5327C176.362 13.4466 176.443 13.3499 176.496 13.2423C176.561 13.1241 176.593 12.995 176.593 12.8553C176.593 12.5972 176.496 12.3929 176.303 12.2424C176.195 12.1671 176.023 12.0865 175.787 12.0005C175.561 11.9145 175.265 11.8284 174.9 11.7424C174.319 11.5919 173.835 11.4199 173.448 11.2263C173.061 11.022 172.76 10.7962 172.545 10.5489C172.362 10.3446 172.222 10.1135 172.126 9.85542C172.039 9.59737 171.996 9.31782 171.996 9.01676C171.996 8.64043 172.077 8.30174 172.238 8.00068C172.41 7.68887 172.642 7.42006 172.932 7.19427C173.222 6.96847 173.561 6.79644 173.948 6.67817C174.335 6.55989 174.738 6.50076 175.158 6.50076C175.588 6.50076 176.002 6.55452 176.399 6.66204C176.808 6.76956 177.184 6.92547 177.528 7.12976C177.883 7.32329 178.184 7.55984 178.432 7.8394L177.335 9.04901C177.131 8.85547 176.905 8.68344 176.658 8.53291C176.421 8.38238 176.179 8.26411 175.932 8.17809C175.684 8.08132 175.453 8.03294 175.238 8.03294C175.034 8.03294 174.851 8.05444 174.69 8.09745C174.529 8.12971 174.394 8.18347 174.287 8.25873C174.179 8.334 174.093 8.43077 174.029 8.54904C173.975 8.65656 173.948 8.78559 173.948 8.93612C173.959 9.06514 173.991 9.18879 174.045 9.30706C174.109 9.41459 174.195 9.50598 174.303 9.58124C174.421 9.65651 174.599 9.74253 174.835 9.8393C175.072 9.93607 175.378 10.0275 175.754 10.1135C176.281 10.2533 176.722 10.4092 177.077 10.5812C177.432 10.7532 177.711 10.9521 177.916 11.1779C178.12 11.3715 178.265 11.5973 178.351 11.8553C178.437 12.1134 178.48 12.3983 178.48 12.7101C178.48 13.2155 178.335 13.6671 178.045 14.0649C177.765 14.4627 177.378 14.7745 176.883 15.0003C176.399 15.2261 175.851 15.339 175.238 15.339Z" fill="white"/>
<path d="M195 9.42188L408 9.42186" stroke="white" stroke-width="1.61282" stroke-dasharray="3.23 3.23"/>
<circle cx="430.463" cy="9.67693" r="9.19308" stroke="white" stroke-width="0.967693"/>
<path d="M427.793 12.8702C427.167 12.8702 426.657 12.7444 426.264 12.4928C425.877 12.2412 425.593 11.8799 425.412 11.409C425.231 10.938 425.141 10.38 425.141 9.73488C425.141 9.03814 425.225 8.44463 425.393 7.95433C425.56 7.46403 425.838 7.08986 426.225 6.8318C426.612 6.57375 427.135 6.44473 427.793 6.44473C428.444 6.44473 428.963 6.57375 429.351 6.8318C429.738 7.08986 430.015 7.46403 430.183 7.95433C430.35 8.44463 430.434 9.03814 430.434 9.73488C430.434 10.38 430.344 10.938 430.163 11.409C429.989 11.8799 429.709 12.2412 429.322 12.4928C428.934 12.7444 428.425 12.8702 427.793 12.8702ZM427.793 12.1928C428.251 12.1928 428.612 12.0928 428.876 11.8928C429.147 11.6864 429.341 11.3993 429.457 11.0316C429.58 10.6574 429.641 10.2252 429.641 9.73488C429.641 8.88976 429.505 8.24464 429.234 7.7995C428.97 7.34791 428.489 7.12211 427.793 7.12211C427.328 7.12211 426.96 7.22211 426.689 7.4221C426.418 7.62209 426.225 7.91885 426.109 8.31237C425.993 8.69945 425.935 9.17362 425.935 9.73488C425.935 10.2252 425.993 10.6574 426.109 11.0316C426.231 11.3993 426.428 11.6864 426.699 11.8928C426.976 12.0928 427.341 12.1928 427.793 12.1928ZM433.081 12.8702C432.797 12.8702 432.494 12.8444 432.171 12.7928C431.848 12.7412 431.594 12.6799 431.407 12.6089V11.9122C431.652 12.009 431.906 12.0799 432.171 12.1251C432.435 12.1702 432.706 12.1928 432.984 12.1928C433.539 12.1928 433.948 12.109 434.213 11.9412C434.484 11.7735 434.619 11.48 434.619 11.0606C434.619 10.6606 434.493 10.3703 434.242 10.1897C433.99 10.0091 433.639 9.91874 433.187 9.91874H432.287L432.365 9.31877H433.11C433.574 9.31877 433.919 9.21878 434.145 9.01879C434.371 8.81235 434.484 8.52527 434.484 8.15754C434.484 7.80272 434.364 7.54145 434.126 7.37371C433.893 7.20598 433.519 7.12211 433.003 7.12211C432.745 7.12211 432.484 7.14792 432.219 7.19953C431.961 7.25114 431.729 7.31888 431.523 7.40274V6.71568C431.703 6.64472 431.939 6.58343 432.229 6.53182C432.526 6.47376 432.819 6.44473 433.11 6.44473C433.852 6.44473 434.397 6.60601 434.745 6.92857C435.1 7.24469 435.277 7.65112 435.277 8.14787C435.277 8.46398 435.193 8.76074 435.026 9.03814C434.864 9.3091 434.603 9.49941 434.242 9.60908C434.655 9.6994 434.951 9.88004 435.132 10.151C435.319 10.4155 435.413 10.7187 435.413 11.0606C435.413 11.667 435.203 12.1219 434.784 12.4251C434.364 12.7218 433.797 12.8702 433.081 12.8702Z" fill="white"/>
</svg>
