<svg width="440" height="20" viewBox="0 0 440 20" fill="none" xmlns="http://www.w3.org/2000/svg">
<path d="M138.516 15.1758V3.88603H143.048C143.865 3.88603 144.602 4.02043 145.258 4.28924C145.924 4.55804 146.494 4.94512 146.967 5.45047C147.451 5.95582 147.817 6.55256 148.064 7.2407C148.322 7.92884 148.451 8.69224 148.451 9.53091C148.451 10.3696 148.322 11.1384 148.064 11.8372C147.817 12.5254 147.456 13.1221 146.983 13.6275C146.51 14.1221 145.94 14.5038 145.274 14.7726C144.607 15.0414 143.865 15.1758 143.048 15.1758H138.516ZM140.613 13.5468L140.451 13.2404H142.967C143.494 13.2404 143.962 13.1544 144.371 12.9823C144.79 12.8103 145.145 12.563 145.435 12.2404C145.725 11.9179 145.946 11.5308 146.096 11.0792C146.247 10.6169 146.322 10.1008 146.322 9.53091C146.322 8.96104 146.247 8.45032 146.096 7.99873C145.946 7.53638 145.72 7.14393 145.419 6.82137C145.129 6.4988 144.779 6.2515 144.371 6.07947C143.962 5.90743 143.494 5.82142 142.967 5.82142H140.403L140.613 5.54724V13.5468ZM150.593 15.1758V6.67621H152.577V15.1758H150.593ZM151.561 4.86985C151.163 4.86985 150.851 4.77308 150.626 4.57955C150.411 4.37525 150.303 4.09032 150.303 3.72475C150.303 3.38068 150.416 3.10113 150.642 2.88608C150.868 2.67104 151.174 2.56352 151.561 2.56352C151.97 2.56352 152.282 2.66566 152.497 2.86996C152.722 3.06349 152.835 3.34842 152.835 3.72475C152.835 4.05807 152.722 4.33225 152.497 4.54729C152.271 4.76233 151.959 4.86985 151.561 4.86985ZM155.06 15.1758V6.67621H157.012L157.044 8.3858L156.722 8.51483C156.818 8.23527 156.964 7.97722 157.157 7.74068C157.351 7.49338 157.582 7.28371 157.851 7.11168C158.119 6.92889 158.404 6.78911 158.705 6.69234C159.006 6.58482 159.313 6.53106 159.625 6.53106C160.087 6.53106 160.496 6.60632 160.85 6.75685C161.216 6.89663 161.517 7.12243 161.754 7.43424C162.001 7.74605 162.184 8.14388 162.302 8.62773L161.996 8.56321L162.125 8.30516C162.243 8.04711 162.41 7.81594 162.625 7.61165C162.84 7.39661 163.082 7.20844 163.35 7.04716C163.619 6.87513 163.899 6.7461 164.189 6.66009C164.49 6.57407 164.786 6.53106 165.076 6.53106C165.721 6.53106 166.259 6.66009 166.689 6.91814C167.119 7.17619 167.442 7.56864 167.657 8.0955C167.872 8.62235 167.979 9.27286 167.979 10.047V15.1758H165.979V10.176C165.979 9.74595 165.92 9.39113 165.802 9.11157C165.694 8.83202 165.522 8.62773 165.286 8.4987C165.06 8.35892 164.775 8.28903 164.431 8.28903C164.162 8.28903 163.904 8.33742 163.657 8.43419C163.42 8.52021 163.216 8.64923 163.044 8.82127C162.872 8.98255 162.737 9.17071 162.641 9.38575C162.544 9.6008 162.496 9.83734 162.496 10.0954V15.1758H160.496V10.1599C160.496 9.75133 160.437 9.41263 160.318 9.14383C160.2 8.86427 160.028 8.65461 159.802 8.51483C159.576 8.3643 159.302 8.28903 158.98 8.28903C158.711 8.28903 158.458 8.33742 158.222 8.43419C157.985 8.52021 157.781 8.64386 157.609 8.80514C157.437 8.96642 157.302 9.15458 157.205 9.36962C157.109 9.58467 157.06 9.82121 157.06 10.0793V15.1758H155.06ZM174.165 15.3371C173.273 15.3371 172.482 15.1489 171.794 14.7726C171.117 14.3963 170.585 13.8855 170.198 13.2404C169.821 12.5845 169.633 11.8372 169.633 10.9986C169.633 10.3319 169.741 9.72445 169.956 9.17609C170.171 8.62773 170.466 8.15463 170.843 7.7568C171.23 7.34822 171.687 7.03641 172.214 6.82137C172.751 6.59557 173.337 6.48267 173.972 6.48267C174.531 6.48267 175.052 6.5902 175.536 6.80524C176.02 7.02028 176.439 7.31597 176.794 7.69229C177.149 8.05786 177.418 8.4987 177.6 9.0148C177.794 9.52015 177.885 10.0739 177.875 10.676L177.858 11.3695H170.972L170.601 10.0148H176.197L175.939 10.2889V9.93411C175.907 9.6008 175.799 9.31049 175.617 9.06319C175.434 8.80514 175.197 8.60622 174.907 8.46644C174.627 8.31591 174.316 8.24065 173.972 8.24065C173.445 8.24065 172.998 8.3428 172.633 8.54709C172.278 8.75138 172.009 9.04706 171.826 9.43414C171.644 9.81046 171.552 10.2836 171.552 10.8534C171.552 11.4018 171.665 11.8802 171.891 12.2888C172.128 12.6974 172.455 13.0146 172.875 13.2404C173.305 13.4554 173.805 13.563 174.375 13.563C174.773 13.563 175.138 13.4984 175.471 13.3694C175.805 13.2404 176.165 13.0092 176.552 12.6759L177.536 14.0468C177.246 14.3156 176.912 14.5468 176.536 14.7403C176.17 14.9231 175.783 15.0683 175.375 15.1758C174.966 15.2833 174.563 15.3371 174.165 15.3371ZM179.632 15.1758V6.67621H181.567L181.599 8.41806L181.228 8.6116C181.336 8.22452 181.545 7.87508 181.857 7.56326C182.169 7.2407 182.54 6.98265 182.97 6.78911C183.4 6.59557 183.841 6.4988 184.293 6.4988C184.938 6.4988 185.475 6.62783 185.905 6.88588C186.346 7.14393 186.674 7.53101 186.889 8.04711C187.115 8.56321 187.228 9.20834 187.228 9.9825V15.1758H185.244V10.1277C185.244 9.69756 185.185 9.34274 185.067 9.06319C184.948 8.77288 184.766 8.56321 184.518 8.43419C184.271 8.29441 183.97 8.2299 183.615 8.24065C183.325 8.24065 183.056 8.28903 182.809 8.3858C182.572 8.47182 182.363 8.60085 182.18 8.77288C182.008 8.93416 181.868 9.12233 181.76 9.33737C181.664 9.55241 181.615 9.78896 181.615 10.047V15.1758H180.631C180.438 15.1758 180.255 15.1758 180.083 15.1758C179.922 15.1758 179.771 15.1758 179.632 15.1758ZM192.298 15.3371C191.546 15.3371 190.868 15.2134 190.266 14.9661C189.675 14.7081 189.191 14.3425 188.815 13.8694L190.105 12.7565C190.427 13.1221 190.788 13.3855 191.185 13.5468C191.583 13.7081 192.003 13.7888 192.443 13.7888C192.626 13.7888 192.787 13.7673 192.927 13.7242C193.078 13.6812 193.207 13.6167 193.314 13.5307C193.422 13.4447 193.502 13.3479 193.556 13.2404C193.621 13.1221 193.653 12.9931 193.653 12.8533C193.653 12.5953 193.556 12.391 193.363 12.2404C193.255 12.1652 193.083 12.0845 192.847 11.9985C192.621 11.9125 192.325 11.8265 191.96 11.7405C191.379 11.5899 190.895 11.4179 190.508 11.2244C190.121 11.0201 189.82 10.7943 189.605 10.547C189.422 10.3427 189.282 10.1115 189.185 9.85347C189.099 9.59542 189.056 9.31586 189.056 9.0148C189.056 8.63848 189.137 8.29979 189.298 7.99873C189.47 7.68691 189.702 7.41811 189.992 7.19232C190.282 6.96652 190.621 6.79449 191.008 6.67621C191.395 6.55794 191.798 6.4988 192.218 6.4988C192.648 6.4988 193.062 6.55256 193.459 6.66009C193.868 6.76761 194.244 6.92351 194.588 7.1278C194.943 7.32134 195.244 7.55789 195.492 7.83744L194.395 9.04706C194.191 8.85352 193.965 8.68149 193.718 8.53096C193.481 8.38043 193.239 8.26215 192.992 8.17614C192.744 8.07937 192.513 8.03098 192.298 8.03098C192.094 8.03098 191.911 8.05249 191.75 8.0955C191.589 8.12775 191.454 8.18151 191.347 8.25678C191.239 8.33204 191.153 8.42881 191.089 8.54709C191.035 8.65461 191.008 8.78363 191.008 8.93416C191.019 9.06319 191.051 9.18684 191.105 9.30511C191.169 9.41263 191.255 9.50403 191.363 9.57929C191.481 9.65456 191.658 9.74057 191.895 9.83734C192.132 9.93411 192.438 10.0255 192.814 10.1115C193.341 10.2513 193.782 10.4072 194.137 10.5792C194.492 10.7513 194.771 10.9502 194.976 11.176C195.18 11.3695 195.325 11.5953 195.411 11.8534C195.497 12.1114 195.54 12.3964 195.54 12.7082C195.54 13.2135 195.395 13.6651 195.105 14.0629C194.825 14.4608 194.438 14.7726 193.943 14.9984C193.459 15.2242 192.911 15.3371 192.298 15.3371ZM197.513 15.1758V6.67621H199.497V15.1758H197.513ZM198.481 4.86985C198.083 4.86985 197.771 4.77308 197.546 4.57955C197.331 4.37525 197.223 4.09032 197.223 3.72475C197.223 3.38068 197.336 3.10113 197.562 2.88608C197.787 2.67104 198.094 2.56352 198.481 2.56352C198.89 2.56352 199.201 2.66566 199.416 2.86996C199.642 3.06349 199.755 3.34842 199.755 3.72475C199.755 4.05807 199.642 4.33225 199.416 4.54729C199.191 4.76233 198.879 4.86985 198.481 4.86985ZM205.899 15.3371C205.05 15.3371 204.292 15.1489 203.625 14.7726C202.959 14.3855 202.432 13.8586 202.045 13.192C201.658 12.5254 201.464 11.7674 201.464 10.9179C201.464 10.0685 201.658 9.31049 202.045 8.64385C202.432 7.97722 202.959 7.45574 203.625 7.07942C204.292 6.69234 205.05 6.4988 205.899 6.4988C206.738 6.4988 207.491 6.69234 208.157 7.07942C208.824 7.45574 209.346 7.97722 209.722 8.64385C210.109 9.31049 210.302 10.0685 210.302 10.9179C210.302 11.7674 210.109 12.5254 209.722 13.192C209.346 13.8586 208.824 14.3855 208.157 14.7726C207.491 15.1489 206.738 15.3371 205.899 15.3371ZM205.899 13.5791C206.362 13.5791 206.77 13.4608 207.125 13.2243C207.491 12.9877 207.776 12.6705 207.98 12.2727C208.195 11.8749 208.297 11.4233 208.286 10.9179C208.297 10.4018 208.195 9.94486 207.98 9.54704C207.776 9.14921 207.491 8.83739 207.125 8.6116C206.77 8.37505 206.362 8.25678 205.899 8.25678C205.437 8.25678 205.018 8.37505 204.641 8.6116C204.276 8.83739 203.991 9.15458 203.787 9.56316C203.582 9.96099 203.48 10.4126 203.48 10.9179C203.48 11.4233 203.582 11.8749 203.787 12.2727C203.991 12.6705 204.276 12.9877 204.641 13.2243C205.018 13.4608 205.437 13.5791 205.899 13.5791ZM212.077 15.1758V6.67621H214.012L214.045 8.41806L213.674 8.6116C213.781 8.22452 213.991 7.87508 214.303 7.56326C214.614 7.2407 214.985 6.98265 215.415 6.78911C215.846 6.59557 216.286 6.4988 216.738 6.4988C217.383 6.4988 217.921 6.62783 218.351 6.88588C218.792 7.14393 219.12 7.53101 219.335 8.04711C219.56 8.56321 219.673 9.20834 219.673 9.9825V15.1758H217.69V10.1277C217.69 9.69756 217.63 9.34274 217.512 9.06319C217.394 8.77288 217.211 8.56321 216.964 8.43419C216.716 8.29441 216.415 8.2299 216.061 8.24065C215.77 8.24065 215.502 8.28903 215.254 8.3858C215.018 8.47182 214.808 8.60085 214.625 8.77288C214.453 8.93416 214.313 9.12233 214.206 9.33737C214.109 9.55241 214.061 9.78896 214.061 10.047V15.1758H213.077C212.883 15.1758 212.701 15.1758 212.529 15.1758C212.367 15.1758 212.217 15.1758 212.077 15.1758ZM227.001 15.1758V3.88603H231.533C232.35 3.88603 233.086 4.02043 233.742 4.28924C234.409 4.55804 234.979 4.94512 235.452 5.45047C235.936 5.95582 236.301 6.55256 236.549 7.2407C236.807 7.92884 236.936 8.69224 236.936 9.53091C236.936 10.3696 236.807 11.1384 236.549 11.8372C236.301 12.5254 235.941 13.1221 235.468 13.6275C234.995 14.1221 234.425 14.5038 233.758 14.7726C233.092 15.0414 232.35 15.1758 231.533 15.1758H227.001ZM229.097 13.5468L228.936 13.2404H231.452C231.979 13.2404 232.447 13.1544 232.855 12.9823C233.275 12.8103 233.629 12.563 233.92 12.2404C234.21 11.9179 234.43 11.5308 234.581 11.0792C234.732 10.6169 234.807 10.1008 234.807 9.53091C234.807 8.96104 234.732 8.45032 234.581 7.99873C234.43 7.53638 234.205 7.14393 233.904 6.82137C233.613 6.4988 233.264 6.2515 232.855 6.07947C232.447 5.90743 231.979 5.82142 231.452 5.82142H228.888L229.097 5.54724V13.5468ZM242.836 15.3371C241.944 15.3371 241.153 15.1489 240.465 14.7726C239.788 14.3963 239.256 13.8855 238.868 13.2404C238.492 12.5845 238.304 11.8372 238.304 10.9986C238.304 10.3319 238.411 9.72445 238.627 9.17609C238.842 8.62773 239.137 8.15463 239.514 7.7568C239.901 7.34822 240.358 7.03641 240.884 6.82137C241.422 6.59557 242.008 6.48267 242.642 6.48267C243.202 6.48267 243.723 6.5902 244.207 6.80524C244.691 7.02028 245.11 7.31597 245.465 7.69229C245.82 8.05786 246.088 8.4987 246.271 9.0148C246.465 9.52015 246.556 10.0739 246.545 10.676L246.529 11.3695H239.643L239.272 10.0148H244.868L244.61 10.2889V9.93411C244.578 9.6008 244.47 9.31049 244.288 9.06319C244.105 8.80514 243.868 8.60622 243.578 8.46644C243.298 8.31591 242.987 8.24065 242.642 8.24065C242.116 8.24065 241.669 8.3428 241.304 8.54709C240.949 8.75138 240.68 9.04706 240.497 9.43414C240.315 9.81046 240.223 10.2836 240.223 10.8534C240.223 11.4018 240.336 11.8802 240.562 12.2888C240.798 12.6974 241.126 13.0146 241.546 13.2404C241.976 13.4554 242.476 13.563 243.046 13.563C243.443 13.563 243.809 13.4984 244.142 13.3694C244.476 13.2404 244.836 13.0092 245.223 12.6759L246.207 14.0468C245.916 14.3156 245.583 14.5468 245.207 14.7403C244.841 14.9231 244.454 15.0683 244.046 15.1758C243.637 15.2833 243.234 15.3371 242.836 15.3371ZM249.222 15.1758V4.51503H251.206V15.1758H249.222ZM247.544 8.51483V6.67621H253.06V8.51483H247.544ZM257.702 15.3371C257.003 15.3371 256.369 15.1435 255.799 14.7564C255.229 14.3694 254.772 13.8425 254.428 13.1759C254.084 12.5093 253.912 11.7512 253.912 10.9018C253.912 10.0524 254.084 9.29436 254.428 8.62773C254.772 7.96109 255.24 7.43962 255.831 7.06329C256.422 6.68697 257.089 6.4988 257.831 6.4988C258.261 6.4988 258.653 6.56332 259.008 6.69234C259.363 6.81061 259.675 6.98265 259.944 7.20844C260.212 7.43424 260.433 7.69229 260.605 7.9826C260.788 8.27291 260.911 8.58472 260.976 8.91803L260.54 8.80514V6.67621H262.54V15.1758H260.524V13.1436L260.992 13.063C260.917 13.3533 260.777 13.6382 260.573 13.9178C260.379 14.1866 260.132 14.4285 259.831 14.6436C259.54 14.8478 259.212 15.0145 258.847 15.1435C258.492 15.2726 258.11 15.3371 257.702 15.3371ZM258.25 13.5791C258.712 13.5791 259.121 13.4662 259.476 13.2404C259.831 13.0146 260.105 12.7028 260.298 12.305C260.503 11.8964 260.605 11.4287 260.605 10.9018C260.605 10.3857 260.503 9.92874 260.298 9.53091C260.105 9.13308 259.831 8.82127 259.476 8.59547C259.121 8.36968 258.712 8.25678 258.25 8.25678C257.788 8.25678 257.379 8.36968 257.024 8.59547C256.68 8.82127 256.412 9.13308 256.218 9.53091C256.024 9.92874 255.928 10.3857 255.928 10.9018C255.928 11.4287 256.024 11.8964 256.218 12.305C256.412 12.7028 256.68 13.0146 257.024 13.2404C257.379 13.4662 257.788 13.5791 258.25 13.5791ZM265.066 15.1758V6.67621H267.05V15.1758H265.066ZM266.034 4.86985C265.636 4.86985 265.324 4.77308 265.098 4.57955C264.883 4.37525 264.776 4.09032 264.776 3.72475C264.776 3.38068 264.889 3.10113 265.114 2.88608C265.34 2.67104 265.647 2.56352 266.034 2.56352C266.442 2.56352 266.754 2.66566 266.969 2.86996C267.195 3.06349 267.308 3.34842 267.308 3.72475C267.308 4.05807 267.195 4.33225 266.969 4.54729C266.743 4.76233 266.431 4.86985 266.034 4.86985ZM269.581 15.1758V3.2409H271.581V15.1758H269.581ZM276.751 15.3371C275.998 15.3371 275.321 15.2134 274.719 14.9661C274.127 14.7081 273.643 14.3425 273.267 13.8694L274.557 12.7565C274.88 13.1221 275.24 13.3855 275.638 13.5468C276.036 13.7081 276.455 13.7888 276.896 13.7888C277.079 13.7888 277.24 13.7673 277.38 13.7242C277.53 13.6812 277.659 13.6167 277.767 13.5307C277.874 13.4447 277.955 13.3479 278.009 13.2404C278.073 13.1221 278.106 12.9931 278.106 12.8533C278.106 12.5953 278.009 12.391 277.815 12.2404C277.708 12.1652 277.536 12.0845 277.299 11.9985C277.073 11.9125 276.778 11.8265 276.412 11.7405C275.832 11.5899 275.348 11.4179 274.961 11.2244C274.574 11.0201 274.272 10.7943 274.057 10.547C273.875 10.3427 273.735 10.1115 273.638 9.85347C273.552 9.59542 273.509 9.31586 273.509 9.0148C273.509 8.63848 273.59 8.29979 273.751 7.99873C273.923 7.68691 274.154 7.41811 274.444 7.19232C274.735 6.96652 275.074 6.79449 275.461 6.67621C275.848 6.55794 276.251 6.4988 276.67 6.4988C277.1 6.4988 277.514 6.55256 277.912 6.66009C278.321 6.76761 278.697 6.92351 279.041 7.1278C279.396 7.32134 279.697 7.55789 279.944 7.83744L278.848 9.04706C278.643 8.85352 278.417 8.68149 278.17 8.53096C277.934 8.38043 277.692 8.26215 277.444 8.17614C277.197 8.07937 276.966 8.03098 276.751 8.03098C276.547 8.03098 276.364 8.05249 276.202 8.0955C276.041 8.12775 275.907 8.18151 275.799 8.25678C275.692 8.33204 275.606 8.42881 275.541 8.54709C275.487 8.65461 275.461 8.78363 275.461 8.93416C275.471 9.06319 275.504 9.18684 275.557 9.30511C275.622 9.41263 275.708 9.50403 275.815 9.57929C275.934 9.65456 276.111 9.74057 276.348 9.83734C276.584 9.93411 276.891 10.0255 277.267 10.1115C277.794 10.2513 278.235 10.4072 278.589 10.5792C278.944 10.7513 279.224 10.9502 279.428 11.176C279.632 11.3695 279.778 11.5953 279.864 11.8534C279.95 12.1114 279.993 12.3964 279.993 12.7082C279.993 13.2135 279.847 13.6651 279.557 14.0629C279.278 14.4608 278.891 14.7726 278.396 14.9984C277.912 15.2242 277.364 15.3371 276.751 15.3371Z" fill="white"/>
<path d="M300 9.97461L408 9.97462" stroke="white" stroke-width="1.61282" stroke-dasharray="3.23 3.23"/>
<circle cx="429.982" cy="9.67693" r="9.19308" stroke="white" stroke-width="0.967693"/>
<path d="M427.923 12.8702C427.298 12.8702 426.788 12.7444 426.394 12.4928C426.007 12.2412 425.724 11.8799 425.543 11.409C425.362 10.938 425.272 10.38 425.272 9.73488C425.272 9.03814 425.356 8.44463 425.524 7.95433C425.691 7.46403 425.969 7.08986 426.356 6.8318C426.743 6.57375 427.265 6.44473 427.923 6.44473C428.575 6.44473 429.094 6.57375 429.481 6.8318C429.868 7.08986 430.146 7.46403 430.314 7.95433C430.481 8.44463 430.565 9.03814 430.565 9.73488C430.565 10.38 430.475 10.938 430.294 11.409C430.12 11.8799 429.839 12.2412 429.452 12.4928C429.065 12.7444 428.556 12.8702 427.923 12.8702ZM427.923 12.1928C428.381 12.1928 428.743 12.0928 429.007 11.8928C429.278 11.6864 429.472 11.3993 429.588 11.0316C429.71 10.6574 429.772 10.2252 429.772 9.73488C429.772 8.88976 429.636 8.24464 429.365 7.7995C429.101 7.34791 428.62 7.12211 427.923 7.12211C427.459 7.12211 427.091 7.22211 426.82 7.4221C426.549 7.62209 426.356 7.91885 426.24 8.31237C426.124 8.69945 426.065 9.17362 426.065 9.73488C426.065 10.2252 426.124 10.6574 426.24 11.0316C426.362 11.3993 426.559 11.6864 426.83 11.8928C427.107 12.0928 427.472 12.1928 427.923 12.1928ZM433.811 12.8702C433.07 12.8702 432.505 12.6831 432.118 12.3089C431.731 11.9283 431.537 11.3251 431.537 10.4994V9.02847C431.537 8.51236 431.637 8.06077 431.837 7.6737C432.044 7.28662 432.334 6.98664 432.708 6.77374C433.089 6.5544 433.537 6.44473 434.053 6.44473C434.357 6.44473 434.624 6.46408 434.857 6.50279C435.089 6.53505 435.298 6.58343 435.486 6.64794V7.335C435.298 7.26404 435.089 7.21243 434.857 7.18017C434.631 7.14147 434.376 7.12211 434.092 7.12211C433.466 7.12211 433.008 7.28339 432.718 7.60596C432.434 7.92207 432.292 8.34786 432.292 8.88331V9.35748C432.544 9.17039 432.821 9.03492 433.124 8.95105C433.434 8.86073 433.715 8.81557 433.966 8.81557C434.676 8.81557 435.205 8.98976 435.553 9.33813C435.902 9.68005 436.076 10.1768 436.076 10.8284C436.076 11.4348 435.889 11.9283 435.515 12.3089C435.147 12.6831 434.579 12.8702 433.811 12.8702ZM433.811 12.2412C434.328 12.2412 434.715 12.1186 434.973 11.8735C435.231 11.6219 435.36 11.28 435.36 10.8477C435.36 10.551 435.318 10.2994 435.234 10.0929C435.15 9.88004 435.002 9.71875 434.789 9.60908C434.576 9.49296 434.279 9.4349 433.899 9.4349C433.582 9.4349 433.289 9.48651 433.018 9.58973C432.747 9.6865 432.505 9.8123 432.292 9.96713V10.7219C432.292 11.7348 432.799 12.2412 433.811 12.2412Z" fill="white"/>
</svg>
