<svg width="440" height="20" viewBox="0 0 440 20" fill="none" xmlns="http://www.w3.org/2000/svg">
<path d="M10.5161 15.1777V3.88799H12.6127V15.1777H10.5161ZM11.4837 10.5489V8.64581H17.306V10.5489H11.4837ZM11.4837 5.82337V3.88799H17.9995V5.82337H11.4837ZM23.721 15.339C22.8286 15.339 22.0383 15.1509 21.3502 14.7745C20.6728 14.3982 20.1406 13.8875 19.7535 13.2423C19.3772 12.5865 19.189 11.8392 19.189 11.0005C19.189 10.3339 19.2965 9.7264 19.5116 9.17804C19.7266 8.62968 20.0223 8.15659 20.3986 7.75876C20.7857 7.35018 21.2427 7.03836 21.7695 6.82332C22.3071 6.59753 22.8931 6.48463 23.5275 6.48463C24.0866 6.48463 24.6081 6.59215 25.0919 6.80719C25.5758 7.02223 25.9951 7.31792 26.3499 7.69424C26.7047 8.05982 26.9735 8.50065 27.1563 9.01676C27.3499 9.52211 27.4413 10.0758 27.4305 10.678L27.4144 11.3715H20.5276L20.1567 10.0167H25.7532L25.4951 10.2909V9.93607C25.4629 9.60275 25.3554 9.31244 25.1726 9.06514C24.9898 8.80709 24.7532 8.60818 24.4629 8.4684C24.1834 8.31787 23.8716 8.2426 23.5275 8.2426C23.0006 8.2426 22.5544 8.34475 22.1888 8.54904C21.834 8.75333 21.5652 9.04901 21.3824 9.43609C21.1996 9.81242 21.1083 10.2855 21.1083 10.8554C21.1083 11.4037 21.2212 11.8822 21.4469 12.2908C21.6835 12.6994 22.0114 13.0166 22.4308 13.2423C22.8609 13.4574 23.3608 13.5649 23.9307 13.5649C24.3285 13.5649 24.6941 13.5004 25.0274 13.3714C25.3607 13.2423 25.7209 13.0112 26.108 12.6779L27.0918 14.0488C26.8015 14.3176 26.4682 14.5487 26.0919 14.7423C25.7263 14.9251 25.3392 15.0702 24.9306 15.1777C24.5221 15.2853 24.1189 15.339 23.721 15.339ZM32.397 15.339C31.6981 15.339 31.0637 15.1455 30.4939 14.7584C29.924 14.3713 29.467 13.8445 29.123 13.1778C28.7789 12.5112 28.6069 11.7532 28.6069 10.9038C28.6069 10.0543 28.7789 9.29631 29.123 8.62968C29.467 7.96305 29.9348 7.44157 30.5261 7.06524C31.1175 6.68892 31.7841 6.50076 32.526 6.50076C32.9561 6.50076 33.3486 6.56527 33.7034 6.69429C34.0582 6.81257 34.37 6.9846 34.6388 7.2104C34.9076 7.43619 35.128 7.69424 35.3001 7.98455C35.4829 8.27486 35.6065 8.58667 35.671 8.91999L35.2356 8.80709V6.67817H37.2355V15.1777H35.2194V13.1456L35.6872 13.0649C35.6119 13.3552 35.4721 13.6402 35.2678 13.9197C35.0743 14.1885 34.827 14.4305 34.5259 14.6455C34.2356 14.8498 33.9077 15.0165 33.5421 15.1455C33.1873 15.2745 32.8056 15.339 32.397 15.339ZM32.9454 13.581C33.4077 13.581 33.8163 13.4681 34.1711 13.2423C34.5259 13.0166 34.8001 12.7047 34.9936 12.3069C35.1979 11.8983 35.3001 11.4306 35.3001 10.9038C35.3001 10.3877 35.1979 9.93069 34.9936 9.53286C34.8001 9.13503 34.5259 8.82322 34.1711 8.59742C33.8163 8.37163 33.4077 8.25873 32.9454 8.25873C32.483 8.25873 32.0744 8.37163 31.7196 8.59742C31.3755 8.82322 31.1067 9.13503 30.9132 9.53286C30.7197 9.93069 30.6229 10.3877 30.6229 10.9038C30.6229 11.4306 30.7197 11.8983 30.9132 12.3069C31.1067 12.7047 31.3755 13.0166 31.7196 13.2423C32.0744 13.4681 32.483 13.581 32.9454 13.581ZM40.4547 15.1777V4.51699H42.4384V15.1777H40.4547ZM38.7773 8.51678V6.67817H44.2932V8.51678H38.7773ZM48.7554 15.339C48.1425 15.339 47.6103 15.2046 47.1587 14.9358C46.7071 14.6563 46.3631 14.2638 46.1265 13.7585C45.89 13.2423 45.7717 12.6295 45.7717 11.9198V6.67817H47.7555V11.5005C47.7555 11.9521 47.8254 12.3392 47.9651 12.6617C48.1049 12.9735 48.3092 13.2155 48.578 13.3875C48.8468 13.5595 49.1694 13.6456 49.5457 13.6456C49.8253 13.6456 50.0779 13.6025 50.3037 13.5165C50.5403 13.4198 50.7446 13.2907 50.9166 13.1295C51.0886 12.9574 51.223 12.7585 51.3198 12.5327C51.4166 12.2962 51.465 12.0435 51.465 11.7747V6.67817H53.4487V15.1777H51.5133L51.4811 13.4036L51.8359 13.2101C51.7069 13.6187 51.4865 13.9842 51.1746 14.3068C50.8736 14.6186 50.5134 14.8713 50.0941 15.0648C49.6747 15.2476 49.2285 15.339 48.7554 15.339ZM55.7738 15.1777V6.67817H57.7253L57.7576 9.38771L57.4834 8.77483C57.6017 8.34475 57.806 7.95767 58.0963 7.6136C58.3866 7.26953 58.7199 7.00073 59.0962 6.80719C59.4833 6.6029 59.8865 6.50076 60.3059 6.50076C60.4886 6.50076 60.6607 6.51688 60.822 6.54914C60.994 6.5814 61.1338 6.61903 61.2413 6.66204L60.7091 8.83935C60.5908 8.77483 60.4456 8.72107 60.2736 8.67806C60.1016 8.63506 59.9295 8.61355 59.7575 8.61355C59.4887 8.61355 59.2306 8.66731 58.9833 8.77483C58.7468 8.8716 58.5371 9.01138 58.3543 9.19417C58.1716 9.37695 58.0264 9.592 57.9189 9.8393C57.8221 10.0758 57.7737 10.3446 57.7737 10.6457V15.1777H55.7738ZM66.1836 15.339C65.2912 15.339 64.5009 15.1509 63.8127 14.7745C63.1354 14.3982 62.6031 13.8875 62.216 13.2423C61.8397 12.5865 61.6516 11.8392 61.6516 11.0005C61.6516 10.3339 61.7591 9.7264 61.9741 9.17804C62.1892 8.62968 62.4848 8.15659 62.8612 7.75876C63.2482 7.35018 63.7052 7.03836 64.2321 6.82332C64.7697 6.59753 65.3557 6.48463 65.99 6.48463C66.5492 6.48463 67.0706 6.59215 67.5545 6.80719C68.0383 7.02223 68.4577 7.31792 68.8125 7.69424C69.1673 8.05982 69.4361 8.50065 69.6189 9.01676C69.8124 9.52211 69.9038 10.0758 69.8931 10.678L69.8769 11.3715H62.9902L62.6192 10.0167H68.2157L67.9577 10.2909V9.93607C67.9254 9.60275 67.8179 9.31244 67.6351 9.06514C67.4523 8.80709 67.2158 8.60818 66.9255 8.4684C66.6459 8.31787 66.3341 8.2426 65.99 8.2426C65.4632 8.2426 65.017 8.34475 64.6514 8.54904C64.2966 8.75333 64.0278 9.04901 63.845 9.43609C63.6622 9.81242 63.5708 10.2855 63.5708 10.8554C63.5708 11.4037 63.6837 11.8822 63.9095 12.2908C64.1461 12.6994 64.474 13.0166 64.8933 13.2423C65.3234 13.4574 65.8234 13.5649 66.3933 13.5649C66.7911 13.5649 67.1567 13.5004 67.49 13.3714C67.8233 13.2423 68.1835 13.0112 68.5706 12.6779L69.5544 14.0488C69.2641 14.3176 68.9308 14.5487 68.5544 14.7423C68.1889 14.9251 67.8018 15.0702 67.3932 15.1777C66.9846 15.2853 66.5814 15.339 66.1836 15.339ZM74.4886 15.339C73.736 15.339 73.0586 15.2154 72.4564 14.9681C71.8651 14.71 71.3812 14.3444 71.0049 13.8713L72.2952 12.7585C72.6177 13.1241 72.9779 13.3875 73.3758 13.5488C73.7736 13.7101 74.1929 13.7907 74.6338 13.7907C74.8165 13.7907 74.9778 13.7692 75.1176 13.7262C75.2681 13.6832 75.3972 13.6187 75.5047 13.5327C75.6122 13.4466 75.6928 13.3499 75.7466 13.2423C75.8111 13.1241 75.8434 12.995 75.8434 12.8553C75.8434 12.5972 75.7466 12.3929 75.5531 12.2424C75.4455 12.1671 75.2735 12.0865 75.037 12.0005C74.8112 11.9145 74.5155 11.8284 74.1499 11.7424C73.5693 11.5919 73.0854 11.4199 72.6984 11.2263C72.3113 11.022 72.0102 10.7962 71.7952 10.5489C71.6124 10.3446 71.4726 10.1135 71.3759 9.85542C71.2898 9.59737 71.2468 9.31782 71.2468 9.01676C71.2468 8.64043 71.3275 8.30174 71.4888 8.00068C71.6608 7.68887 71.892 7.42006 72.1823 7.19427C72.4726 6.96847 72.8113 6.79644 73.1983 6.67817C73.5854 6.55989 73.9886 6.50076 74.408 6.50076C74.838 6.50076 75.252 6.55452 75.6498 6.66204C76.0584 6.76956 76.4347 6.92547 76.7788 7.12976C77.1336 7.32329 77.4347 7.55984 77.682 7.8394L76.5853 9.04901C76.381 8.85547 76.1552 8.68344 75.9079 8.53291C75.6713 8.38238 75.4294 8.26411 75.1821 8.17809C74.9348 8.08132 74.7036 8.03294 74.4886 8.03294C74.2843 8.03294 74.1015 8.05444 73.9402 8.09745C73.779 8.12971 73.6446 8.18347 73.537 8.25873C73.4295 8.334 73.3435 8.43077 73.279 8.54904C73.2252 8.65656 73.1983 8.78559 73.1983 8.93612C73.2091 9.06514 73.2414 9.18879 73.2951 9.30706C73.3596 9.41459 73.4456 9.50598 73.5532 9.58124C73.6714 9.65651 73.8489 9.74253 74.0854 9.8393C74.3219 9.93607 74.6284 10.0275 75.0047 10.1135C75.5316 10.2533 75.9724 10.4092 76.3272 10.5812C76.682 10.7532 76.9616 10.9521 77.1659 11.1779C77.3702 11.3715 77.5153 11.5973 77.6013 11.8553C77.6874 12.1134 77.7304 12.3983 77.7304 12.7101C77.7304 13.2155 77.5852 13.6671 77.2949 14.0649C77.0154 14.4627 76.6283 14.7745 76.1337 15.0003C75.6498 15.2261 75.1015 15.339 74.4886 15.339Z" fill="white"/>
<path d="M128 9.38477L408 9.38474" stroke="white" stroke-width="1.61282" stroke-dasharray="3.23 3.23"/>
<circle cx="430.463" cy="9.67693" r="9.19308" stroke="white" stroke-width="0.967693"/>
<path d="M427.793 12.8702C427.167 12.8702 426.657 12.7444 426.264 12.4928C425.877 12.2412 425.593 11.8799 425.412 11.409C425.231 10.938 425.141 10.38 425.141 9.73488C425.141 9.03814 425.225 8.44463 425.393 7.95433C425.56 7.46403 425.838 7.08986 426.225 6.8318C426.612 6.57375 427.135 6.44473 427.793 6.44473C428.444 6.44473 428.963 6.57375 429.351 6.8318C429.738 7.08986 430.015 7.46403 430.183 7.95433C430.35 8.44463 430.434 9.03814 430.434 9.73488C430.434 10.38 430.344 10.938 430.163 11.409C429.989 11.8799 429.709 12.2412 429.322 12.4928C428.934 12.7444 428.425 12.8702 427.793 12.8702ZM427.793 12.1928C428.251 12.1928 428.612 12.0928 428.876 11.8928C429.147 11.6864 429.341 11.3993 429.457 11.0316C429.58 10.6574 429.641 10.2252 429.641 9.73488C429.641 8.88976 429.505 8.24464 429.234 7.7995C428.97 7.34791 428.489 7.12211 427.793 7.12211C427.328 7.12211 426.96 7.22211 426.689 7.4221C426.418 7.62209 426.225 7.91885 426.109 8.31237C425.993 8.69945 425.935 9.17362 425.935 9.73488C425.935 10.2252 425.993 10.6574 426.109 11.0316C426.231 11.3993 426.428 11.6864 426.699 11.8928C426.976 12.0928 427.341 12.1928 427.793 12.1928ZM433.081 12.8702C432.797 12.8702 432.494 12.8444 432.171 12.7928C431.848 12.7412 431.594 12.6799 431.407 12.6089V11.9122C431.652 12.009 431.906 12.0799 432.171 12.1251C432.435 12.1702 432.706 12.1928 432.984 12.1928C433.539 12.1928 433.948 12.109 434.213 11.9412C434.484 11.7735 434.619 11.48 434.619 11.0606C434.619 10.6606 434.493 10.3703 434.242 10.1897C433.99 10.0091 433.639 9.91874 433.187 9.91874H432.287L432.365 9.31877H433.11C433.574 9.31877 433.919 9.21878 434.145 9.01879C434.371 8.81235 434.484 8.52527 434.484 8.15754C434.484 7.80272 434.364 7.54145 434.126 7.37371C433.893 7.20598 433.519 7.12211 433.003 7.12211C432.745 7.12211 432.484 7.14792 432.219 7.19953C431.961 7.25114 431.729 7.31888 431.523 7.40274V6.71568C431.703 6.64472 431.939 6.58343 432.229 6.53182C432.526 6.47376 432.819 6.44473 433.11 6.44473C433.852 6.44473 434.397 6.60601 434.745 6.92857C435.1 7.24469 435.277 7.65112 435.277 8.14787C435.277 8.46398 435.193 8.76074 435.026 9.03814C434.864 9.3091 434.603 9.49941 434.242 9.60908C434.655 9.6994 434.951 9.88004 435.132 10.151C435.319 10.4155 435.413 10.7187 435.413 11.0606C435.413 11.667 435.203 12.1219 434.784 12.4251C434.364 12.7218 433.797 12.8702 433.081 12.8702Z" fill="white"/>
</svg>
