<svg width="441" height="20" viewBox="0 0 441 20" fill="none" xmlns="http://www.w3.org/2000/svg">
<path d="M72.3868 15.338C71.5804 15.338 70.8331 15.1929 70.145 14.9026C69.4568 14.6123 68.8547 14.2091 68.3386 13.693C67.8332 13.1661 67.4408 12.5479 67.1612 11.8382C66.8817 11.1286 66.7419 10.3544 66.7419 9.51576C66.7419 8.67709 66.8817 7.90293 67.1612 7.19329C67.4408 6.48365 67.8332 5.87078 68.3386 5.35468C68.8547 4.82782 69.4568 4.41924 70.145 4.12893C70.8331 3.83862 71.5804 3.69347 72.3868 3.69347C73.2039 3.69347 73.9566 3.83862 74.6447 4.12893C75.3329 4.41924 75.9296 4.82782 76.435 5.35468C76.9403 5.88153 77.3328 6.49978 77.6123 7.20942C77.8919 7.90831 78.0316 8.67709 78.0316 9.51576C78.0316 10.3437 77.8919 11.1124 77.6123 11.8221C77.3328 12.5317 76.9403 13.15 76.435 13.6768C75.9296 14.2037 75.3329 14.6123 74.6447 14.9026C73.9566 15.1929 73.2039 15.338 72.3868 15.338ZM72.3868 13.3381C72.9029 13.3381 73.3706 13.2467 73.7899 13.064C74.22 12.8704 74.591 12.6016 74.9028 12.2576C75.2146 11.9027 75.4565 11.4941 75.6285 11.0318C75.8113 10.5695 75.9027 10.0641 75.9027 9.51576C75.9027 8.9674 75.8113 8.46205 75.6285 7.9997C75.4565 7.53736 75.2146 7.13416 74.9028 6.79009C74.591 6.43527 74.22 6.16646 73.7899 5.98368C73.3706 5.79014 72.9029 5.69337 72.3868 5.69337C71.8814 5.69337 71.4137 5.79014 70.9836 5.98368C70.5535 6.16646 70.1826 6.42989 69.8708 6.77396C69.559 7.11803 69.317 7.52123 69.145 7.98358C68.973 8.44592 68.887 8.95664 68.887 9.51576C68.887 10.0641 68.973 10.5748 69.145 11.0479C69.317 11.5103 69.559 11.9135 69.8708 12.2576C70.1826 12.6016 70.5535 12.8704 70.9836 13.064C71.4137 13.2467 71.8814 13.3381 72.3868 13.3381ZM79.9504 18.725V6.67719H81.9019L81.9342 8.61258L81.5955 8.46742C81.66 8.1341 81.8428 7.82229 82.1438 7.53198C82.4449 7.23092 82.8105 6.989 83.2406 6.80621C83.6814 6.62343 84.1384 6.53204 84.6115 6.53204C85.3641 6.53204 86.0307 6.7202 86.6114 7.09652C87.2027 7.47285 87.6651 7.98895 87.9984 8.64483C88.3424 9.30071 88.5145 10.0587 88.5145 10.9189C88.5145 11.7683 88.3424 12.5264 87.9984 13.193C87.6651 13.8489 87.2027 14.3703 86.6114 14.7574C86.0307 15.1337 85.3749 15.3219 84.6437 15.3219C84.1491 15.3219 83.6706 15.2251 83.2083 15.0316C82.7567 14.8381 82.3696 14.5854 82.0471 14.2736C81.7353 13.9618 81.5417 13.6338 81.4665 13.2898L81.9503 13.064V18.725H79.9504ZM84.2405 13.5639C84.6921 13.5639 85.0953 13.451 85.4501 13.2252C85.8049 12.9994 86.0791 12.6876 86.2727 12.2898C86.4769 11.892 86.5791 11.435 86.5791 10.9189C86.5791 10.4028 86.4823 9.95122 86.2888 9.56414C86.0952 9.16631 85.8211 8.8545 85.4662 8.6287C85.1114 8.40291 84.7028 8.29001 84.2405 8.29001C83.7674 8.29001 83.3535 8.40291 82.9986 8.6287C82.6546 8.84375 82.3804 9.15018 82.1761 9.54801C81.9718 9.94584 81.8697 10.4028 81.8697 10.9189C81.8697 11.435 81.9718 11.892 82.1761 12.2898C82.3804 12.6876 82.6546 12.9994 82.9986 13.2252C83.3535 13.451 83.7674 13.5639 84.2405 13.5639ZM91.2018 15.1768V4.51601H93.1856V15.1768H91.2018ZM89.5245 8.51581V6.67719H95.0404V8.51581H89.5245ZM96.7769 15.1768V6.67719H98.7607V15.1768H96.7769ZM97.7446 4.87083C97.3468 4.87083 97.035 4.77406 96.8092 4.58052C96.5941 4.37623 96.4866 4.0913 96.4866 3.72573C96.4866 3.38166 96.5995 3.1021 96.8253 2.88706C97.0511 2.67202 97.3575 2.5645 97.7446 2.5645C98.1532 2.5645 98.465 2.66664 98.68 2.87093C98.9058 3.06447 99.0187 3.3494 99.0187 3.72573C99.0187 4.05904 98.9058 4.33322 98.68 4.54827C98.4542 4.76331 98.1424 4.87083 97.7446 4.87083ZM105.163 15.338C104.314 15.338 103.556 15.1499 102.889 14.7736C102.222 14.3865 101.696 13.8596 101.308 13.193C100.921 12.5264 100.728 11.7683 100.728 10.9189C100.728 10.0695 100.921 9.31146 101.308 8.64483C101.696 7.9782 102.222 7.45672 102.889 7.08039C103.556 6.69332 104.314 6.49978 105.163 6.49978C106.002 6.49978 106.754 6.69332 107.421 7.08039C108.088 7.45672 108.609 7.9782 108.985 8.64483C109.373 9.31146 109.566 10.0695 109.566 10.9189C109.566 11.7683 109.373 12.5264 108.985 13.193C108.609 13.8596 108.088 14.3865 107.421 14.7736C106.754 15.1499 106.002 15.338 105.163 15.338ZM105.163 13.5801C105.625 13.5801 106.034 13.4618 106.389 13.2252C106.754 12.9887 107.039 12.6715 107.244 12.2737C107.459 11.8759 107.561 11.4243 107.55 10.9189C107.561 10.4028 107.459 9.94584 107.244 9.54801C107.039 9.15018 106.754 8.83837 106.389 8.61258C106.034 8.37603 105.625 8.25775 105.163 8.25775C104.701 8.25775 104.281 8.37603 103.905 8.61258C103.54 8.83837 103.255 9.15556 103.05 9.56414C102.846 9.96197 102.744 10.4136 102.744 10.9189C102.744 11.4243 102.846 11.8759 103.05 12.2737C103.255 12.6715 103.54 12.9887 103.905 13.2252C104.281 13.4618 104.701 13.5801 105.163 13.5801ZM111.341 15.1768V6.67719H113.276L113.308 8.41904L112.937 8.61258C113.045 8.2255 113.254 7.87605 113.566 7.56424C113.878 7.24168 114.249 6.98363 114.679 6.79009C115.109 6.59655 115.55 6.49978 116.002 6.49978C116.647 6.49978 117.184 6.6288 117.614 6.88686C118.055 7.14491 118.383 7.53199 118.598 8.04809C118.824 8.56419 118.937 9.20932 118.937 9.98347V15.1768H116.953V10.1286C116.953 9.69854 116.894 9.34372 116.776 9.06417C116.657 8.77386 116.475 8.56419 116.227 8.43517C115.98 8.29539 115.679 8.23087 115.324 8.24163C115.034 8.24163 114.765 8.29001 114.518 8.38678C114.281 8.4728 114.072 8.60182 113.889 8.77386C113.717 8.93514 113.577 9.1233 113.469 9.33834C113.373 9.55339 113.324 9.78993 113.324 10.048V15.1768H112.341C112.147 15.1768 111.964 15.1768 111.792 15.1768C111.631 15.1768 111.48 15.1768 111.341 15.1768ZM124.007 15.338C123.255 15.338 122.577 15.2144 121.975 14.9671C121.384 14.709 120.9 14.3435 120.524 13.8704L121.814 12.7575C122.136 13.1231 122.497 13.3865 122.894 13.5478C123.292 13.7091 123.712 13.7897 124.152 13.7897C124.335 13.7897 124.496 13.7682 124.636 13.7252C124.787 13.6822 124.916 13.6177 125.023 13.5317C125.131 13.4457 125.211 13.3489 125.265 13.2414C125.33 13.1231 125.362 12.9941 125.362 12.8543C125.362 12.5962 125.265 12.392 125.072 12.2414C124.964 12.1662 124.792 12.0855 124.556 11.9995C124.33 11.9135 124.034 11.8275 123.669 11.7414C123.088 11.5909 122.604 11.4189 122.217 11.2253C121.83 11.0211 121.529 10.7953 121.314 10.548C121.131 10.3437 120.991 10.1125 120.895 9.85445C120.808 9.5964 120.765 9.31684 120.765 9.01578C120.765 8.63946 120.846 8.30076 121.007 7.9997C121.179 7.68789 121.411 7.41909 121.701 7.19329C121.991 6.9675 122.33 6.79546 122.717 6.67719C123.104 6.55892 123.507 6.49978 123.927 6.49978C124.357 6.49978 124.771 6.55354 125.168 6.66106C125.577 6.76858 125.953 6.92449 126.297 7.12878C126.652 7.32232 126.953 7.55887 127.201 7.83842L126.104 9.04804C125.9 8.8545 125.674 8.68246 125.427 8.53193C125.19 8.3814 124.948 8.26313 124.701 8.17711C124.453 8.08034 124.222 8.03196 124.007 8.03196C123.803 8.03196 123.62 8.05346 123.459 8.09647C123.298 8.12873 123.163 8.18249 123.056 8.25775C122.948 8.33302 122.862 8.42979 122.798 8.54806C122.744 8.65558 122.717 8.78461 122.717 8.93514C122.728 9.06417 122.76 9.18781 122.814 9.30609C122.878 9.41361 122.964 9.505 123.072 9.58027C123.19 9.65553 123.368 9.74155 123.604 9.83832C123.841 9.93509 124.147 10.0265 124.523 10.1125C125.05 10.2523 125.491 10.4082 125.846 10.5802C126.201 10.7523 126.48 10.9512 126.685 11.177C126.889 11.3705 127.034 11.5963 127.12 11.8543C127.206 12.1124 127.249 12.3973 127.249 12.7091C127.249 13.2145 127.104 13.6661 126.814 14.0639C126.534 14.4617 126.147 14.7736 125.652 14.9993C125.168 15.2251 124.62 15.338 124.007 15.338Z" fill="white"/>
<path d="M186 9.93945L408 9.93947" stroke="white" stroke-width="1.61282" stroke-dasharray="3.23 3.23"/>
<circle cx="430.63" cy="9.67693" r="9.19308" stroke="white" stroke-width="0.967693"/>
<path d="M427.96 12.8702C427.334 12.8702 426.824 12.7444 426.431 12.4928C426.044 12.2412 425.76 11.8799 425.579 11.409C425.398 10.938 425.308 10.38 425.308 9.73488C425.308 9.03814 425.392 8.44463 425.56 7.95433C425.727 7.46403 426.005 7.08986 426.392 6.8318C426.779 6.57375 427.302 6.44473 427.96 6.44473C428.611 6.44473 429.13 6.57375 429.518 6.8318C429.905 7.08986 430.182 7.46403 430.35 7.95433C430.517 8.44463 430.601 9.03814 430.601 9.73488C430.601 10.38 430.511 10.938 430.33 11.409C430.156 11.8799 429.876 12.2412 429.488 12.4928C429.101 12.7444 428.592 12.8702 427.96 12.8702ZM427.96 12.1928C428.418 12.1928 428.779 12.0928 429.043 11.8928C429.314 11.6864 429.508 11.3993 429.624 11.0316C429.747 10.6574 429.808 10.2252 429.808 9.73488C429.808 8.88976 429.672 8.24464 429.401 7.7995C429.137 7.34791 428.656 7.12211 427.96 7.12211C427.495 7.12211 427.127 7.22211 426.856 7.4221C426.585 7.62209 426.392 7.91885 426.276 8.31237C426.16 8.69945 426.102 9.17362 426.102 9.73488C426.102 10.2252 426.16 10.6574 426.276 11.0316C426.398 11.3993 426.595 11.6864 426.866 11.8928C427.143 12.0928 427.508 12.1928 427.96 12.1928ZM433.248 12.8702C432.964 12.8702 432.661 12.8444 432.338 12.7928C432.015 12.7412 431.761 12.6799 431.573 12.6089V11.9122C431.819 12.009 432.073 12.0799 432.338 12.1251C432.602 12.1702 432.873 12.1928 433.151 12.1928C433.706 12.1928 434.115 12.109 434.38 11.9412C434.651 11.7735 434.786 11.48 434.786 11.0606C434.786 10.6606 434.66 10.3703 434.409 10.1897C434.157 10.0091 433.806 9.91874 433.354 9.91874H432.454L432.532 9.31877H433.277C433.741 9.31877 434.086 9.21878 434.312 9.01879C434.538 8.81235 434.651 8.52527 434.651 8.15754C434.651 7.80272 434.531 7.54145 434.293 7.37371C434.06 7.20598 433.686 7.12211 433.17 7.12211C432.912 7.12211 432.651 7.14792 432.386 7.19953C432.128 7.25114 431.896 7.31888 431.69 7.40274V6.71568C431.87 6.64472 432.106 6.58343 432.396 6.53182C432.693 6.47376 432.986 6.44473 433.277 6.44473C434.019 6.44473 434.564 6.60601 434.912 6.92857C435.267 7.24469 435.444 7.65112 435.444 8.14787C435.444 8.46398 435.36 8.76074 435.193 9.03814C435.031 9.3091 434.77 9.49941 434.409 9.60908C434.822 9.6994 435.118 9.88004 435.299 10.151C435.486 10.4155 435.58 10.7187 435.58 11.0606C435.58 11.667 435.37 12.1219 434.951 12.4251C434.531 12.7218 433.964 12.8702 433.248 12.8702Z" fill="white"/>
</svg>
