<svg width="440" height="20" viewBox="0 0 440 20" fill="none" xmlns="http://www.w3.org/2000/svg">
<path d="M105.097 15.339C104.441 15.339 103.839 15.2584 103.29 15.0971C102.742 14.9251 102.247 14.6724 101.806 14.3391C101.366 14.0058 100.973 13.6025 100.629 13.1295L102 11.5811C102.527 12.3123 103.043 12.8176 103.548 13.0972C104.054 13.3768 104.623 13.5165 105.258 13.5165C105.623 13.5165 105.957 13.4628 106.258 13.3552C106.559 13.237 106.795 13.0811 106.967 12.8875C107.139 12.6832 107.225 12.4521 107.225 12.194C107.225 12.0112 107.188 11.8446 107.113 11.694C107.048 11.5328 106.946 11.393 106.806 11.2747C106.666 11.1457 106.494 11.0274 106.29 10.9199C106.086 10.8124 105.855 10.721 105.596 10.6457C105.338 10.5704 105.054 10.5006 104.742 10.436C104.15 10.3178 103.634 10.1619 103.193 9.96832C102.753 9.76403 102.382 9.51673 102.081 9.22642C101.779 8.92536 101.559 8.59205 101.419 8.22647C101.28 7.85015 101.21 7.42544 101.21 6.95235C101.21 6.47925 101.312 6.04379 101.516 5.64596C101.731 5.24813 102.021 4.90406 102.387 4.61376C102.753 4.32345 103.177 4.09765 103.661 3.93637C104.145 3.77509 104.666 3.69445 105.226 3.69445C105.86 3.69445 106.424 3.76971 106.919 3.92024C107.424 4.07077 107.865 4.29657 108.242 4.59763C108.629 4.88793 108.946 5.24276 109.193 5.66209L107.806 7.03299C107.591 6.69967 107.349 6.42549 107.08 6.21045C106.811 5.98465 106.521 5.818 106.209 5.71047C105.898 5.5922 105.57 5.53306 105.226 5.53306C104.838 5.53306 104.5 5.58682 104.209 5.69435C103.93 5.80187 103.709 5.95777 103.548 6.16206C103.387 6.3556 103.306 6.59215 103.306 6.8717C103.306 7.08675 103.355 7.28029 103.451 7.45232C103.548 7.6136 103.683 7.75876 103.855 7.88778C104.037 8.01681 104.269 8.12971 104.548 8.22647C104.828 8.32324 105.145 8.40926 105.5 8.48453C106.091 8.6028 106.623 8.76408 107.096 8.96837C107.57 9.16191 107.973 9.39846 108.306 9.67801C108.639 9.94682 108.892 10.2586 109.064 10.6135C109.236 10.9575 109.322 11.3446 109.322 11.7747C109.322 12.5166 109.145 13.1563 108.79 13.6939C108.446 14.2208 107.957 14.6294 107.322 14.9197C106.688 15.1992 105.946 15.339 105.097 15.339ZM111.273 18.7259V6.67817H113.224L113.257 8.61355L112.918 8.4684C112.982 8.13508 113.165 7.82327 113.466 7.53296C113.767 7.2319 114.133 6.98998 114.563 6.80719C115.004 6.62441 115.461 6.53301 115.934 6.53301C116.687 6.53301 117.353 6.72117 117.934 7.0975C118.525 7.47382 118.988 7.98993 119.321 8.64581C119.665 9.30169 119.837 10.0597 119.837 10.9199C119.837 11.7693 119.665 12.5273 119.321 13.194C118.988 13.8498 118.525 14.3713 117.934 14.7584C117.353 15.1347 116.697 15.3229 115.966 15.3229C115.472 15.3229 114.993 15.2261 114.531 15.0326C114.079 14.839 113.692 14.5864 113.37 14.2746C113.058 13.9627 112.864 13.6348 112.789 13.2907L113.273 13.0649V18.7259H111.273ZM115.563 13.5649C116.015 13.5649 116.418 13.452 116.773 13.2262C117.127 13.0004 117.402 12.6886 117.595 12.2908C117.799 11.893 117.902 11.436 117.902 10.9199C117.902 10.4038 117.805 9.95219 117.611 9.56512C117.418 9.16729 117.144 8.85547 116.789 8.62968C116.434 8.40389 116.025 8.29099 115.563 8.29099C115.09 8.29099 114.676 8.40389 114.321 8.62968C113.977 8.84472 113.703 9.15116 113.499 9.54899C113.294 9.94682 113.192 10.4038 113.192 10.9199C113.192 11.436 113.294 11.893 113.499 12.2908C113.703 12.6886 113.977 13.0004 114.321 13.2262C114.676 13.452 115.09 13.5649 115.563 13.5649ZM125.589 15.339C124.696 15.339 123.906 15.1509 123.218 14.7745C122.54 14.3982 122.008 13.8875 121.621 13.2423C121.245 12.5865 121.057 11.8392 121.057 11.0005C121.057 10.3339 121.164 9.7264 121.379 9.17804C121.594 8.62968 121.89 8.15659 122.266 7.75876C122.653 7.35018 123.11 7.03836 123.637 6.82332C124.175 6.59753 124.761 6.48463 125.395 6.48463C125.954 6.48463 126.476 6.59215 126.96 6.80719C127.443 7.02223 127.863 7.31792 128.218 7.69424C128.572 8.05982 128.841 8.50065 129.024 9.01676C129.218 9.52211 129.309 10.0758 129.298 10.678L129.282 11.3715H122.395L122.024 10.0167H127.621L127.363 10.2909V9.93607C127.331 9.60275 127.223 9.31244 127.04 9.06514C126.857 8.80709 126.621 8.60818 126.331 8.4684C126.051 8.31787 125.739 8.2426 125.395 8.2426C124.868 8.2426 124.422 8.34475 124.056 8.54904C123.702 8.75333 123.433 9.04901 123.25 9.43609C123.067 9.81242 122.976 10.2855 122.976 10.8554C122.976 11.4037 123.089 11.8822 123.315 12.2908C123.551 12.6994 123.879 13.0166 124.298 13.2423C124.728 13.4574 125.228 13.5649 125.798 13.5649C126.196 13.5649 126.562 13.5004 126.895 13.3714C127.228 13.2423 127.589 13.0112 127.976 12.6779L128.959 14.0488C128.669 14.3176 128.336 14.5487 127.96 14.7423C127.594 14.9251 127.207 15.0702 126.798 15.1777C126.39 15.2853 125.986 15.339 125.589 15.339ZM134.7 15.339C133.904 15.339 133.189 15.1455 132.555 14.7584C131.921 14.3713 131.421 13.8445 131.055 13.1778C130.69 12.5112 130.507 11.7586 130.507 10.9199C130.507 10.0812 130.69 9.32857 131.055 8.66194C131.421 7.9953 131.921 7.46845 132.555 7.08137C133.189 6.69429 133.904 6.50076 134.7 6.50076C135.464 6.50076 136.157 6.64591 136.781 6.93622C137.404 7.22653 137.888 7.62973 138.232 8.14583L137.135 9.46835C136.974 9.24255 136.77 9.03826 136.523 8.85547C136.275 8.67269 136.012 8.52753 135.732 8.42001C135.453 8.31249 135.173 8.25873 134.894 8.25873C134.421 8.25873 133.996 8.377 133.62 8.61355C133.254 8.83935 132.964 9.15654 132.749 9.56512C132.534 9.96295 132.426 10.4145 132.426 10.9199C132.426 11.4252 132.534 11.8768 132.749 12.2747C132.974 12.6725 133.275 12.9897 133.652 13.2262C134.028 13.4628 134.447 13.581 134.91 13.581C135.189 13.581 135.458 13.538 135.716 13.452C135.985 13.3552 136.238 13.2208 136.474 13.0488C136.711 12.8768 136.931 12.6617 137.135 12.4037L138.232 13.7423C137.867 14.2154 137.361 14.6025 136.716 14.9036C136.082 15.1939 135.41 15.339 134.7 15.339ZM139.975 15.1777V6.67817H141.959V15.1777H139.975ZM140.943 4.87181C140.545 4.87181 140.233 4.77504 140.007 4.5815C139.792 4.37721 139.685 4.09228 139.685 3.7267C139.685 3.38263 139.798 3.10308 140.023 2.88804C140.249 2.67299 140.556 2.56547 140.943 2.56547C141.351 2.56547 141.663 2.66762 141.878 2.87191C142.104 3.06545 142.217 3.35038 142.217 3.7267C142.217 4.06002 142.104 4.3342 141.878 4.54924C141.652 4.76428 141.341 4.87181 140.943 4.87181ZM145.248 15.1777V5.92014C145.248 5.40404 145.361 4.94707 145.587 4.54924C145.813 4.14066 146.125 3.82347 146.523 3.59768C146.92 3.36113 147.383 3.24286 147.91 3.24286C148.275 3.24286 148.614 3.30737 148.926 3.4364C149.237 3.55467 149.501 3.72133 149.716 3.93637L149.103 5.43629C148.963 5.31802 148.813 5.22663 148.652 5.16211C148.501 5.0976 148.356 5.06534 148.216 5.06534C148.001 5.06534 147.818 5.10298 147.668 5.17824C147.528 5.24276 147.42 5.3449 147.345 5.48468C147.281 5.62446 147.248 5.79111 147.248 5.98465V15.1777H146.248C146.055 15.1777 145.872 15.1777 145.7 15.1777C145.539 15.1777 145.388 15.1777 145.248 15.1777ZM143.926 8.59742V6.85558H149.168V8.59742H143.926ZM151.038 15.1777V6.67817H153.022V15.1777H151.038ZM152.006 4.87181C151.608 4.87181 151.297 4.77504 151.071 4.5815C150.856 4.37721 150.748 4.09228 150.748 3.7267C150.748 3.38263 150.861 3.10308 151.087 2.88804C151.313 2.67299 151.619 2.56547 152.006 2.56547C152.415 2.56547 152.727 2.66762 152.942 2.87191C153.167 3.06545 153.28 3.35038 153.28 3.7267C153.28 4.06002 153.167 4.3342 152.942 4.54924C152.716 4.76428 152.404 4.87181 152.006 4.87181ZM159.176 15.339C158.38 15.339 157.665 15.1455 157.031 14.7584C156.396 14.3713 155.897 13.8445 155.531 13.1778C155.165 12.5112 154.983 11.7586 154.983 10.9199C154.983 10.0812 155.165 9.32857 155.531 8.66194C155.897 7.9953 156.396 7.46845 157.031 7.08137C157.665 6.69429 158.38 6.50076 159.176 6.50076C159.939 6.50076 160.633 6.64591 161.256 6.93622C161.88 7.22653 162.364 7.62973 162.708 8.14583L161.611 9.46835C161.45 9.24255 161.246 9.03826 160.998 8.85547C160.751 8.67269 160.488 8.52753 160.208 8.42001C159.929 8.31249 159.649 8.25873 159.369 8.25873C158.896 8.25873 158.472 8.377 158.095 8.61355C157.73 8.83935 157.439 9.15654 157.224 9.56512C157.009 9.96295 156.902 10.4145 156.902 10.9199C156.902 11.4252 157.009 11.8768 157.224 12.2747C157.45 12.6725 157.751 12.9897 158.128 13.2262C158.504 13.4628 158.923 13.581 159.386 13.581C159.665 13.581 159.934 13.538 160.192 13.452C160.461 13.3552 160.713 13.2208 160.95 13.0488C161.187 12.8768 161.407 12.6617 161.611 12.4037L162.708 13.7423C162.342 14.2154 161.837 14.6025 161.192 14.9036C160.558 15.1939 159.886 15.339 159.176 15.339ZM167.435 15.339C166.736 15.339 166.101 15.1455 165.531 14.7584C164.962 14.3713 164.505 13.8445 164.161 13.1778C163.816 12.5112 163.644 11.7532 163.644 10.9038C163.644 10.0543 163.816 9.29631 164.161 8.62968C164.505 7.96305 164.972 7.44157 165.564 7.06524C166.155 6.68892 166.822 6.50076 167.564 6.50076C167.994 6.50076 168.386 6.56527 168.741 6.69429C169.096 6.81257 169.408 6.9846 169.676 7.2104C169.945 7.43619 170.166 7.69424 170.338 7.98455C170.52 8.27486 170.644 8.58667 170.709 8.91999L170.273 8.80709V6.67817H172.273V15.1777H170.257V13.1456L170.725 13.0649C170.649 13.3552 170.51 13.6402 170.305 13.9197C170.112 14.1885 169.865 14.4305 169.564 14.6455C169.273 14.8498 168.945 15.0165 168.58 15.1455C168.225 15.2745 167.843 15.339 167.435 15.339ZM167.983 13.581C168.445 13.581 168.854 13.4681 169.209 13.2423C169.564 13.0166 169.838 12.7047 170.031 12.3069C170.236 11.8983 170.338 11.4306 170.338 10.9038C170.338 10.3877 170.236 9.93069 170.031 9.53286C169.838 9.13503 169.564 8.82322 169.209 8.59742C168.854 8.37163 168.445 8.25873 167.983 8.25873C167.521 8.25873 167.112 8.37163 166.757 8.59742C166.413 8.82322 166.144 9.13503 165.951 9.53286C165.757 9.93069 165.66 10.3877 165.66 10.9038C165.66 11.4306 165.757 11.8983 165.951 12.3069C166.144 12.7047 166.413 13.0166 166.757 13.2423C167.112 13.4681 167.521 13.581 167.983 13.581ZM175.492 15.1777V4.51699H177.476V15.1777H175.492ZM173.815 8.51678V6.67817H179.331V8.51678H173.815ZM181.067 15.1777V6.67817H183.051V15.1777H181.067ZM182.035 4.87181C181.637 4.87181 181.325 4.77504 181.1 4.5815C180.885 4.37721 180.777 4.09228 180.777 3.7267C180.777 3.38263 180.89 3.10308 181.116 2.88804C181.342 2.67299 181.648 2.56547 182.035 2.56547C182.444 2.56547 182.755 2.66762 182.97 2.87191C183.196 3.06545 183.309 3.35038 183.309 3.7267C183.309 4.06002 183.196 4.3342 182.97 4.54924C182.745 4.76428 182.433 4.87181 182.035 4.87181ZM189.453 15.339C188.604 15.339 187.846 15.1509 187.179 14.7745C186.513 14.3875 185.986 13.8606 185.599 13.194C185.212 12.5273 185.018 11.7693 185.018 10.9199C185.018 10.0705 185.212 9.31244 185.599 8.64581C185.986 7.97918 186.513 7.4577 187.179 7.08137C187.846 6.69429 188.604 6.50076 189.453 6.50076C190.292 6.50076 191.045 6.69429 191.711 7.08137C192.378 7.4577 192.9 7.97918 193.276 8.64581C193.663 9.31244 193.856 10.0705 193.856 10.9199C193.856 11.7693 193.663 12.5273 193.276 13.194C192.9 13.8606 192.378 14.3875 191.711 14.7745C191.045 15.1509 190.292 15.339 189.453 15.339ZM189.453 13.581C189.916 13.581 190.324 13.4628 190.679 13.2262C191.045 12.9897 191.33 12.6725 191.534 12.2747C191.749 11.8768 191.851 11.4252 191.84 10.9199C191.851 10.4038 191.749 9.94682 191.534 9.54899C191.33 9.15116 191.045 8.83935 190.679 8.61355C190.324 8.377 189.916 8.25873 189.453 8.25873C188.991 8.25873 188.572 8.377 188.195 8.61355C187.83 8.83935 187.545 9.15654 187.341 9.56512C187.136 9.96295 187.034 10.4145 187.034 10.9199C187.034 11.4252 187.136 11.8768 187.341 12.2747C187.545 12.6725 187.83 12.9897 188.195 13.2262C188.572 13.4628 188.991 13.581 189.453 13.581ZM195.631 15.1777V6.67817H197.566L197.599 8.42001L197.228 8.61355C197.335 8.22647 197.545 7.87703 197.857 7.56522C198.168 7.24265 198.539 6.9846 198.97 6.79106C199.4 6.59752 199.84 6.50076 200.292 6.50076C200.937 6.50076 201.475 6.62978 201.905 6.88783C202.346 7.14588 202.674 7.53296 202.889 8.04906C203.114 8.56517 203.227 9.2103 203.227 9.98445V15.1777H201.244V10.1296C201.244 9.69952 201.184 9.3447 201.066 9.06514C200.948 8.77483 200.765 8.56517 200.518 8.43614C200.271 8.29636 199.969 8.23185 199.615 8.2426C199.324 8.2426 199.056 8.29099 198.808 8.38776C198.572 8.47377 198.362 8.6028 198.179 8.77483C198.007 8.93612 197.867 9.12428 197.76 9.33932C197.663 9.55436 197.615 9.79091 197.615 10.049V15.1777H196.631C196.437 15.1777 196.255 15.1777 196.083 15.1777C195.921 15.1777 195.771 15.1777 195.631 15.1777ZM208.298 15.339C207.545 15.339 206.868 15.2154 206.266 14.9681C205.674 14.71 205.19 14.3444 204.814 13.8713L206.104 12.7585C206.427 13.1241 206.787 13.3875 207.185 13.5488C207.583 13.7101 208.002 13.7907 208.443 13.7907C208.626 13.7907 208.787 13.7692 208.927 13.7262C209.077 13.6832 209.206 13.6187 209.314 13.5327C209.421 13.4466 209.502 13.3499 209.556 13.2423C209.62 13.1241 209.652 12.995 209.652 12.8553C209.652 12.5972 209.556 12.3929 209.362 12.2424C209.255 12.1671 209.083 12.0865 208.846 12.0005C208.62 11.9145 208.325 11.8284 207.959 11.7424C207.378 11.5919 206.895 11.4199 206.507 11.2263C206.12 11.022 205.819 10.7962 205.604 10.5489C205.421 10.3446 205.282 10.1135 205.185 9.85542C205.099 9.59737 205.056 9.31782 205.056 9.01676C205.056 8.64043 205.137 8.30174 205.298 8.00068C205.47 7.68887 205.701 7.42006 205.991 7.19427C206.282 6.96847 206.62 6.79644 207.007 6.67817C207.394 6.55989 207.798 6.50076 208.217 6.50076C208.647 6.50076 209.061 6.55452 209.459 6.66204C209.867 6.76956 210.244 6.92547 210.588 7.12976C210.943 7.32329 211.244 7.55984 211.491 7.8394L210.394 9.04901C210.19 8.85547 209.964 8.68344 209.717 8.53291C209.48 8.38238 209.238 8.26411 208.991 8.17809C208.744 8.08132 208.513 8.03294 208.298 8.03294C208.093 8.03294 207.911 8.05444 207.749 8.09745C207.588 8.12971 207.454 8.18347 207.346 8.25873C207.239 8.334 207.153 8.43077 207.088 8.54904C207.034 8.65656 207.007 8.78559 207.007 8.93612C207.018 9.06514 207.05 9.18879 207.104 9.30706C207.169 9.41459 207.255 9.50598 207.362 9.58124C207.481 9.65651 207.658 9.74253 207.894 9.8393C208.131 9.93607 208.437 10.0275 208.814 10.1135C209.341 10.2533 209.781 10.4092 210.136 10.5812C210.491 10.7532 210.771 10.9521 210.975 11.1779C211.179 11.3715 211.324 11.5973 211.41 11.8553C211.496 12.1134 211.539 12.3983 211.539 12.7101C211.539 13.2155 211.394 13.6671 211.104 14.0649C210.824 14.4627 210.437 14.7745 209.943 15.0003C209.459 15.2261 208.911 15.339 208.298 15.339Z" fill="white"/>
<path d="M223 9.60156L408 9.60155" stroke="white" stroke-width="1.61282" stroke-dasharray="3.23 3.23"/>
<circle cx="429.952" cy="9.67693" r="9.19308" stroke="white" stroke-width="0.967693"/>
<path d="M427.282 12.8702C426.656 12.8702 426.146 12.7444 425.753 12.4928C425.366 12.2412 425.082 11.8799 424.901 11.409C424.721 10.938 424.63 10.38 424.63 9.73488C424.63 9.03814 424.714 8.44463 424.882 7.95433C425.05 7.46403 425.327 7.08986 425.714 6.8318C426.101 6.57375 426.624 6.44473 427.282 6.44473C427.933 6.44473 428.453 6.57375 428.84 6.8318C429.227 7.08986 429.504 7.46403 429.672 7.95433C429.84 8.44463 429.924 9.03814 429.924 9.73488C429.924 10.38 429.833 10.938 429.653 11.409C429.478 11.8799 429.198 12.2412 428.811 12.4928C428.424 12.7444 427.914 12.8702 427.282 12.8702ZM427.282 12.1928C427.74 12.1928 428.101 12.0928 428.366 11.8928C428.637 11.6864 428.83 11.3993 428.946 11.0316C429.069 10.6574 429.13 10.2252 429.13 9.73488C429.13 8.88976 428.995 8.24464 428.724 7.7995C428.459 7.34791 427.979 7.12211 427.282 7.12211C426.817 7.12211 426.45 7.22211 426.179 7.4221C425.908 7.62209 425.714 7.91885 425.598 8.31237C425.482 8.69945 425.424 9.17362 425.424 9.73488C425.424 10.2252 425.482 10.6574 425.598 11.0316C425.721 11.3993 425.917 11.6864 426.188 11.8928C426.466 12.0928 426.83 12.1928 427.282 12.1928ZM432.58 12.8702C432.296 12.8702 431.999 12.8476 431.689 12.8025C431.38 12.7573 431.125 12.6928 430.925 12.6089V11.9025C431.402 12.0961 431.925 12.1928 432.492 12.1928C433.047 12.1928 433.45 12.0896 433.702 11.8832C433.96 11.6767 434.089 11.3542 434.089 10.9155C434.089 10.5026 433.992 10.1929 433.799 9.98648C433.612 9.78004 433.244 9.67682 432.696 9.67682H430.896V9.12524L431.06 6.5415H434.438L434.36 7.16082H431.728L431.602 9.04782H432.773C433.502 9.04782 434.034 9.20265 434.37 9.51231C434.712 9.82197 434.883 10.2897 434.883 10.9155C434.883 11.5219 434.686 11.9993 434.292 12.3477C433.905 12.696 433.334 12.8702 432.58 12.8702Z" fill="white"/>
</svg>
