<svg width="440" height="20" viewBox="0 0 440 20" fill="none" xmlns="http://www.w3.org/2000/svg">
<path d="M69.7901 15.1777L66.2742 3.88799H68.4676L70.4675 10.5489C70.532 10.7532 70.5912 10.979 70.6449 11.2263C70.6987 11.4736 70.7471 11.7209 70.7901 11.9682C70.8331 12.2048 70.8707 12.4252 70.903 12.6295C70.9352 12.8338 70.9675 13.0058 70.9997 13.1456L70.5643 13.1295C70.6933 12.6241 70.7955 12.2155 70.8707 11.9037C70.946 11.5919 71.0105 11.3338 71.0643 11.1296C71.1288 10.9145 71.1933 10.7156 71.2578 10.5328L73.1609 5.66209H74.9512L76.8059 10.5328C76.9134 10.8339 77.0102 11.1242 77.0962 11.4037C77.1822 11.6725 77.2521 11.9413 77.3059 12.2101C77.3704 12.4682 77.4295 12.737 77.4833 13.0166L77.0962 13.0972C77.1392 12.8391 77.1715 12.6295 77.193 12.4682C77.2145 12.3069 77.236 12.1618 77.2575 12.0327C77.279 11.9037 77.3005 11.7801 77.322 11.6618C77.3435 11.5328 77.3758 11.3822 77.4188 11.2102C77.4725 11.0274 77.537 10.7962 77.6123 10.5167L79.5961 3.88799H81.7734L78.2413 15.1777H76.7253L73.8544 8.30712L74.048 8.37163L71.3223 15.1777H69.7901ZM83.1634 15.1777V6.67817H85.115L85.1472 9.38771L84.873 8.77483C84.9913 8.34475 85.1956 7.95767 85.4859 7.6136C85.7762 7.26953 86.1095 7.00073 86.4859 6.80719C86.8729 6.6029 87.2761 6.50076 87.6955 6.50076C87.8783 6.50076 88.0503 6.51688 88.2116 6.54914C88.3836 6.5814 88.5234 6.61903 88.6309 6.66204L88.0987 8.83935C87.9804 8.77483 87.8352 8.72107 87.6632 8.67806C87.4912 8.63506 87.3191 8.61355 87.1471 8.61355C86.8783 8.61355 86.6203 8.66731 86.373 8.77483C86.1364 8.8716 85.9267 9.01138 85.744 9.19417C85.5612 9.37695 85.416 9.592 85.3085 9.8393C85.2117 10.0758 85.1633 10.3446 85.1633 10.6457V15.1777H83.1634ZM90.1776 15.1777V6.67817H92.1613V15.1777H90.1776ZM91.1453 4.87181C90.7474 4.87181 90.4356 4.77504 90.2098 4.5815C89.9948 4.37721 89.8873 4.09228 89.8873 3.7267C89.8873 3.38263 90.0002 3.10308 90.226 2.88804C90.4518 2.67299 90.7582 2.56547 91.1453 2.56547C91.5539 2.56547 91.8657 2.66762 92.0807 2.87191C92.3065 3.06545 92.4194 3.35038 92.4194 3.7267C92.4194 4.06002 92.3065 4.3342 92.0807 4.54924C91.8549 4.76428 91.5431 4.87181 91.1453 4.87181ZM95.5962 15.1777V4.51699H97.5799V15.1777H95.5962ZM93.9188 8.51678V6.67817H99.4347V8.51678H93.9188ZM104.85 15.339C103.958 15.339 103.168 15.1509 102.479 14.7745C101.802 14.3982 101.27 13.8875 100.883 13.2423C100.506 12.5865 100.318 11.8392 100.318 11.0005C100.318 10.3339 100.426 9.7264 100.641 9.17804C100.856 8.62968 101.152 8.15659 101.528 7.75876C101.915 7.35018 102.372 7.03836 102.899 6.82332C103.436 6.59753 104.022 6.48463 104.657 6.48463C105.216 6.48463 105.737 6.59215 106.221 6.80719C106.705 7.02223 107.124 7.31792 107.479 7.69424C107.834 8.05982 108.103 8.50065 108.286 9.01676C108.479 9.52211 108.571 10.0758 108.56 10.678L108.544 11.3715H101.657L101.286 10.0167H106.882L106.624 10.2909V9.93607C106.592 9.60275 106.485 9.31244 106.302 9.06514C106.119 8.80709 105.883 8.60818 105.592 8.4684C105.313 8.31787 105.001 8.2426 104.657 8.2426C104.13 8.2426 103.684 8.34475 103.318 8.54904C102.963 8.75333 102.695 9.04901 102.512 9.43609C102.329 9.81242 102.238 10.2855 102.238 10.8554C102.238 11.4037 102.35 11.8822 102.576 12.2908C102.813 12.6994 103.141 13.0166 103.56 13.2423C103.99 13.4574 104.49 13.5649 105.06 13.5649C105.458 13.5649 105.823 13.5004 106.157 13.3714C106.49 13.2423 106.85 13.0112 107.237 12.6779L108.221 14.0488C107.931 14.3176 107.598 14.5487 107.221 14.7423C106.856 14.9251 106.469 15.0702 106.06 15.1777C105.651 15.2853 105.248 15.339 104.85 15.339ZM109.994 11.5166V9.6135H114.978V11.5166H109.994ZM119.931 15.339C119.318 15.339 118.785 15.2046 118.334 14.9358C117.882 14.6563 117.538 14.2638 117.302 13.7585C117.065 13.2423 116.947 12.6295 116.947 11.9198V6.67817H118.931V11.5005C118.931 11.9521 119.001 12.3392 119.14 12.6617C119.28 12.9735 119.484 13.2155 119.753 13.3875C120.022 13.5595 120.345 13.6456 120.721 13.6456C121 13.6456 121.253 13.6025 121.479 13.5165C121.715 13.4198 121.92 13.2907 122.092 13.1295C122.264 12.9574 122.398 12.7585 122.495 12.5327C122.592 12.2962 122.64 12.0435 122.64 11.7747V6.67817H124.624V15.1777H122.689L122.656 13.4036L123.011 13.2101C122.882 13.6187 122.662 13.9842 122.35 14.3068C122.049 14.6186 121.689 14.8713 121.269 15.0648C120.85 15.2476 120.404 15.339 119.931 15.339ZM126.949 18.7259V6.67817H128.901L128.933 8.61355L128.594 8.4684C128.659 8.13508 128.841 7.82327 129.142 7.53296C129.444 7.2319 129.809 6.98998 130.239 6.80719C130.68 6.62441 131.137 6.53301 131.61 6.53301C132.363 6.53301 133.029 6.72117 133.61 7.0975C134.201 7.47382 134.664 7.98993 134.997 8.64581C135.341 9.30169 135.513 10.0597 135.513 10.9199C135.513 11.7693 135.341 12.5273 134.997 13.194C134.664 13.8498 134.201 14.3713 133.61 14.7584C133.029 15.1347 132.373 15.3229 131.642 15.3229C131.148 15.3229 130.669 15.2261 130.207 15.0326C129.755 14.839 129.368 14.5864 129.046 14.2746C128.734 13.9627 128.54 13.6348 128.465 13.2907L128.949 13.0649V18.7259H126.949ZM131.239 13.5649C131.691 13.5649 132.094 13.452 132.449 13.2262C132.804 13.0004 133.078 12.6886 133.271 12.2908C133.476 11.893 133.578 11.436 133.578 10.9199C133.578 10.4038 133.481 9.95219 133.287 9.56512C133.094 9.16729 132.82 8.85547 132.465 8.62968C132.11 8.40389 131.701 8.29099 131.239 8.29099C130.766 8.29099 130.352 8.40389 129.997 8.62968C129.653 8.84472 129.379 9.15116 129.175 9.54899C128.97 9.94682 128.868 10.4038 128.868 10.9199C128.868 11.436 128.97 11.893 129.175 12.2908C129.379 12.6886 129.653 13.0004 129.997 13.2262C130.352 13.452 130.766 13.5649 131.239 13.5649Z" fill="white"/>
<path d="M186 9.93945L408 9.93947" stroke="white" stroke-width="1.61282" stroke-dasharray="3.23 3.23"/>
<circle cx="430.63" cy="9.67693" r="9.19308" stroke="white" stroke-width="0.967693"/>
<path d="M427.96 12.8702C427.334 12.8702 426.824 12.7444 426.431 12.4928C426.044 12.2412 425.76 11.8799 425.579 11.409C425.398 10.938 425.308 10.38 425.308 9.73488C425.308 9.03814 425.392 8.44463 425.56 7.95433C425.727 7.46403 426.005 7.08986 426.392 6.8318C426.779 6.57375 427.302 6.44473 427.96 6.44473C428.611 6.44473 429.13 6.57375 429.518 6.8318C429.905 7.08986 430.182 7.46403 430.35 7.95433C430.517 8.44463 430.601 9.03814 430.601 9.73488C430.601 10.38 430.511 10.938 430.33 11.409C430.156 11.8799 429.876 12.2412 429.488 12.4928C429.101 12.7444 428.592 12.8702 427.96 12.8702ZM427.96 12.1928C428.418 12.1928 428.779 12.0928 429.043 11.8928C429.314 11.6864 429.508 11.3993 429.624 11.0316C429.747 10.6574 429.808 10.2252 429.808 9.73488C429.808 8.88976 429.672 8.24464 429.401 7.7995C429.137 7.34791 428.656 7.12211 427.96 7.12211C427.495 7.12211 427.127 7.22211 426.856 7.4221C426.585 7.62209 426.392 7.91885 426.276 8.31237C426.16 8.69945 426.102 9.17362 426.102 9.73488C426.102 10.2252 426.16 10.6574 426.276 11.0316C426.398 11.3993 426.595 11.6864 426.866 11.8928C427.143 12.0928 427.508 12.1928 427.96 12.1928ZM434.583 12.7734V11.3413H431.38V10.7413L434.67 6.5415H435.377V10.6929H436.035V11.3413H435.377V12.7734H434.583ZM432.173 10.7123H434.689V7.48984L432.173 10.7123Z" fill="white"/>
</svg>
