<svg width="340" height="16" viewBox="0 0 340 16" fill="none" xmlns="http://www.w3.org/2000/svg">
<path d="M1.568 12.3359V1.13594H5.952C6.752 1.13594 7.472 1.26927 8.112 1.53594C8.76267 1.8026 9.31733 2.1866 9.776 2.68794C10.2347 3.18927 10.5867 3.78127 10.832 4.46394C11.0773 5.1466 11.2 5.90394 11.2 6.73594C11.2 7.56794 11.0773 8.3306 10.832 9.02394C10.5867 9.7066 10.2347 10.2986 9.776 10.7999C9.328 11.2906 8.77867 11.6693 8.128 11.9359C7.47733 12.2026 6.752 12.3359 5.952 12.3359H1.568ZM3.296 10.8479L3.248 10.6719H5.872C6.43733 10.6719 6.93867 10.5813 7.376 10.3999C7.824 10.2186 8.19733 9.9626 8.496 9.63194C8.80533 9.2906 9.04 8.8746 9.2 8.38394C9.36 7.89327 9.44 7.34394 9.44 6.73594C9.44 6.12794 9.36 5.58394 9.2 5.10394C9.04 4.61327 8.80533 4.19727 8.496 3.85594C8.18667 3.5146 7.81333 3.25327 7.376 3.07194C6.93867 2.8906 6.43733 2.79994 5.872 2.79994H3.2L3.296 2.65594V10.8479ZM13.3928 12.3359V3.93594H15.0408V12.3359H13.3928ZM14.1928 2.07994C13.8408 2.07994 13.5688 1.98927 13.3768 1.80794C13.1848 1.6266 13.0888 1.3706 13.0888 1.03994C13.0888 0.730604 13.1848 0.479937 13.3768 0.287937C13.5794 0.0959371 13.8514 -6.29425e-05 14.1928 -6.29425e-05C14.5448 -6.29425e-05 14.8168 0.0906038 15.0088 0.271937C15.2008 0.45327 15.2968 0.70927 15.2968 1.03994C15.2968 1.34927 15.1954 1.59994 14.9928 1.79194C14.8008 1.98394 14.5341 2.07994 14.1928 2.07994ZM17.5419 12.3359V3.93594H19.2059V5.72794L18.9019 5.91994C18.9872 5.6426 19.1205 5.37594 19.3019 5.11994C19.4939 4.86394 19.7232 4.63994 19.9899 4.44794C20.2672 4.24527 20.5605 4.08527 20.8699 3.96794C21.1899 3.8506 21.5152 3.79194 21.8459 3.79194C22.3259 3.79194 22.7472 3.87194 23.1099 4.03194C23.4725 4.19194 23.7712 4.43194 24.0059 4.75194C24.2405 5.07194 24.4112 5.47194 24.5179 5.95194L24.2619 5.88794L24.3739 5.61594C24.4912 5.3706 24.6512 5.14127 24.8539 4.92794C25.0672 4.70394 25.3072 4.5066 25.5739 4.33594C25.8405 4.16527 26.1232 4.03194 26.4219 3.93594C26.7205 3.83994 27.0139 3.79194 27.3019 3.79194C27.9312 3.79194 28.4485 3.91994 28.8539 4.17594C29.2699 4.43194 29.5792 4.82127 29.7819 5.34394C29.9952 5.8666 30.1019 6.51727 30.1019 7.29594V12.3359H28.4379V7.39194C28.4379 6.91194 28.3739 6.5226 28.2459 6.22394C28.1285 5.9146 27.9472 5.68527 27.7019 5.53594C27.4565 5.3866 27.1419 5.31194 26.7579 5.31194C26.4592 5.31194 26.1765 5.36527 25.9099 5.47194C25.6539 5.56794 25.4299 5.7066 25.2379 5.88794C25.0459 6.06927 24.8965 6.2826 24.7899 6.52794C24.6832 6.7626 24.6299 7.02394 24.6299 7.31194V12.3359H22.9659V7.35994C22.9659 6.9226 22.9019 6.5546 22.7739 6.25594C22.6459 5.9466 22.4592 5.71194 22.2139 5.55194C21.9685 5.39194 21.6699 5.31194 21.3179 5.31194C21.0192 5.31194 20.7419 5.36527 20.4859 5.47194C20.2299 5.56794 20.0059 5.7066 19.8139 5.88794C19.6219 6.0586 19.4725 6.2666 19.3659 6.51194C19.2592 6.7466 19.2059 7.0026 19.2059 7.27994V12.3359H17.5419ZM36.2283 12.4959C35.3643 12.4959 34.5963 12.3146 33.9243 11.9519C33.2629 11.5786 32.7403 11.0719 32.3563 10.4319C31.9829 9.79194 31.7963 9.05594 31.7963 8.22394C31.7963 7.5626 31.9029 6.95994 32.1163 6.41594C32.3296 5.87194 32.6229 5.4026 32.9963 5.00794C33.3803 4.6026 33.8336 4.29327 34.3563 4.07994C34.8896 3.85594 35.4656 3.74394 36.0843 3.74394C36.6283 3.74394 37.1349 3.8506 37.6043 4.06394C38.0736 4.2666 38.4789 4.54927 38.8203 4.91194C39.1723 5.2746 39.4389 5.7066 39.6203 6.20794C39.8123 6.6986 39.9029 7.23727 39.8923 7.82394L39.8763 8.52794H33.0123L32.6443 7.21594H38.4523L38.2123 7.48794V7.10394C38.1803 6.75194 38.0629 6.43727 37.8603 6.15994C37.6576 5.8826 37.4016 5.66394 37.0923 5.50394C36.7829 5.34394 36.4469 5.26394 36.0843 5.26394C35.5083 5.26394 35.0229 5.37594 34.6283 5.59994C34.2336 5.81327 33.9349 6.13327 33.7323 6.55994C33.5296 6.97594 33.4283 7.49327 33.4283 8.11194C33.4283 8.6986 33.5509 9.2106 33.7963 9.64794C34.0416 10.0746 34.3883 10.4053 34.8363 10.6399C35.2843 10.8746 35.8016 10.9919 36.3883 10.9919C36.8043 10.9919 37.1883 10.9226 37.5403 10.7839C37.9029 10.6453 38.2923 10.3946 38.7083 10.0319L39.5403 11.1999C39.2843 11.4559 38.9696 11.6799 38.5963 11.8719C38.2336 12.0639 37.8443 12.2186 37.4283 12.3359C37.0229 12.4426 36.6229 12.4959 36.2283 12.4959ZM41.6833 12.3359V3.93594H43.3313V5.66394L43.0433 5.85594C43.1499 5.4826 43.3579 5.14127 43.6673 4.83194C43.9766 4.51194 44.3446 4.25594 44.7713 4.06394C45.1979 3.86127 45.6353 3.75994 46.0833 3.75994C46.7233 3.75994 47.2566 3.88794 47.6833 4.14394C48.1099 4.38927 48.4299 4.76794 48.6433 5.27994C48.8566 5.79194 48.9633 6.43727 48.9633 7.21594V12.3359H47.3153V7.32794C47.3153 6.84794 47.2513 6.45327 47.1233 6.14394C46.9953 5.82394 46.7979 5.5946 46.5313 5.45594C46.2646 5.3066 45.9339 5.2426 45.5393 5.26394C45.2193 5.26394 44.9259 5.31727 44.6593 5.42394C44.3926 5.51994 44.1579 5.6586 43.9553 5.83994C43.7633 6.02127 43.6086 6.2346 43.4913 6.47994C43.3846 6.7146 43.3313 6.9706 43.3313 7.24794V12.3359H42.5153C42.3766 12.3359 42.2379 12.3359 42.0993 12.3359C41.9606 12.3359 41.8219 12.3359 41.6833 12.3359ZM53.9989 12.4959C53.2949 12.4959 52.6602 12.3733 52.0949 12.1279C51.5295 11.8826 51.0602 11.5199 50.6869 11.0399L51.8069 10.0799C52.1269 10.4533 52.4735 10.7253 52.8469 10.8959C53.2309 11.0559 53.6629 11.1359 54.1429 11.1359C54.3349 11.1359 54.5109 11.1146 54.6709 11.0719C54.8415 11.0186 54.9855 10.9439 55.1029 10.8479C55.2309 10.7519 55.3269 10.6399 55.3909 10.5119C55.4549 10.3733 55.4869 10.2239 55.4869 10.0639C55.4869 9.7866 55.3855 9.5626 55.1829 9.39194C55.0762 9.31727 54.9055 9.23727 54.6709 9.15194C54.4469 9.05594 54.1535 8.95994 53.7909 8.86394C53.1722 8.70394 52.6655 8.5226 52.2709 8.31994C51.8762 8.11727 51.5722 7.88794 51.3589 7.63194C51.1989 7.42927 51.0815 7.2106 51.0069 6.97594C50.9322 6.7306 50.8949 6.46394 50.8949 6.17594C50.8949 5.82394 50.9695 5.50394 51.1189 5.21594C51.2789 4.91727 51.4922 4.66127 51.7589 4.44794C52.0362 4.22394 52.3562 4.05327 52.7189 3.93594C53.0922 3.8186 53.4869 3.75994 53.9029 3.75994C54.2975 3.75994 54.6869 3.81327 55.0709 3.91994C55.4655 4.0266 55.8282 4.18127 56.1589 4.38394C56.4895 4.5866 56.7669 4.8266 56.9909 5.10394L56.0469 6.14394C55.8442 5.94127 55.6202 5.76527 55.3749 5.61594C55.1402 5.45594 54.9002 5.33327 54.6549 5.24794C54.4095 5.1626 54.1855 5.11994 53.9829 5.11994C53.7589 5.11994 53.5562 5.14127 53.3749 5.18394C53.1935 5.2266 53.0389 5.2906 52.9109 5.37594C52.7935 5.46127 52.7029 5.56794 52.6389 5.69594C52.5749 5.82394 52.5429 5.96794 52.5429 6.12794C52.5535 6.2666 52.5855 6.39994 52.6389 6.52794C52.7029 6.64527 52.7882 6.7466 52.8949 6.83194C53.0122 6.91727 53.1882 7.00794 53.4229 7.10394C53.6575 7.19994 53.9562 7.2906 54.3189 7.37594C54.8522 7.5146 55.2895 7.66927 55.6309 7.83994C55.9829 7.99994 56.2602 8.1866 56.4629 8.39994C56.6762 8.6026 56.8255 8.83727 56.9109 9.10394C56.9962 9.3706 57.0389 9.66927 57.0389 9.99994C57.0389 10.4799 56.9002 10.9119 56.6229 11.2959C56.3562 11.6693 55.9935 11.9626 55.5349 12.1759C55.0762 12.3893 54.5642 12.4959 53.9989 12.4959ZM59.1271 12.3359V3.93594H60.7751V12.3359H59.1271ZM59.9271 2.07994C59.5751 2.07994 59.3031 1.98927 59.1111 1.80794C58.9191 1.6266 58.8231 1.3706 58.8231 1.03994C58.8231 0.730604 58.9191 0.479937 59.1111 0.287937C59.3138 0.0959371 59.5858 -6.29425e-05 59.9271 -6.29425e-05C60.2791 -6.29425e-05 60.5511 0.0906038 60.7431 0.271937C60.9351 0.45327 61.0311 0.70927 61.0311 1.03994C61.0311 1.34927 60.9298 1.59994 60.7271 1.79194C60.5351 1.98394 60.2685 2.07994 59.9271 2.07994ZM67.0843 12.4959C66.2629 12.4959 65.5269 12.3093 64.8763 11.9359C64.2363 11.5519 63.7296 11.0346 63.3563 10.3839C62.9829 9.7226 62.7963 8.9706 62.7963 8.12794C62.7963 7.28527 62.9829 6.5386 63.3563 5.88794C63.7296 5.2266 64.2363 4.70927 64.8763 4.33594C65.5269 3.95194 66.2629 3.75994 67.0843 3.75994C67.8949 3.75994 68.6203 3.95194 69.2603 4.33594C69.9109 4.70927 70.4229 5.2266 70.7963 5.88794C71.1696 6.5386 71.3563 7.28527 71.3563 8.12794C71.3563 8.9706 71.1696 9.7226 70.7963 10.3839C70.4229 11.0346 69.9109 11.5519 69.2603 11.9359C68.6203 12.3093 67.8949 12.4959 67.0843 12.4959ZM67.0843 10.9919C67.5856 10.9919 68.0336 10.8693 68.4283 10.6239C68.8229 10.3679 69.1323 10.0266 69.3563 9.59994C69.5803 9.1626 69.6869 8.67194 69.6763 8.12794C69.6869 7.57327 69.5803 7.0826 69.3563 6.65594C69.1323 6.2186 68.8229 5.87727 68.4283 5.63194C68.0336 5.3866 67.5856 5.26394 67.0843 5.26394C66.5829 5.26394 66.1296 5.39194 65.7243 5.64794C65.3296 5.89327 65.0203 6.2346 64.7963 6.67194C64.5723 7.0986 64.4656 7.58394 64.4763 8.12794C64.4656 8.67194 64.5723 9.1626 64.7963 9.59994C65.0203 10.0266 65.3296 10.3679 65.7243 10.6239C66.1296 10.8693 66.5829 10.9919 67.0843 10.9919ZM73.152 12.3359V3.93594H74.8V5.66394L74.512 5.85594C74.6187 5.4826 74.8267 5.14127 75.136 4.83194C75.4453 4.51194 75.8133 4.25594 76.24 4.06394C76.6667 3.86127 77.104 3.75994 77.552 3.75994C78.192 3.75994 78.7253 3.88794 79.152 4.14394C79.5787 4.38927 79.8987 4.76794 80.112 5.27994C80.3253 5.79194 80.432 6.43727 80.432 7.21594V12.3359H78.784V7.32794C78.784 6.84794 78.72 6.45327 78.592 6.14394C78.464 5.82394 78.2667 5.5946 78 5.45594C77.7333 5.3066 77.4027 5.2426 77.008 5.26394C76.688 5.26394 76.3947 5.31727 76.128 5.42394C75.8613 5.51994 75.6267 5.6586 75.424 5.83994C75.232 6.02127 75.0773 6.2346 74.96 6.47994C74.8533 6.7146 74.8 6.9706 74.8 7.24794V12.3359H73.984C73.8453 12.3359 73.7067 12.3359 73.568 12.3359C73.4293 12.3359 73.2907 12.3359 73.152 12.3359ZM85.4676 12.4959C84.7636 12.4959 84.129 12.3733 83.5636 12.1279C82.9983 11.8826 82.529 11.5199 82.1556 11.0399L83.2756 10.0799C83.5956 10.4533 83.9423 10.7253 84.3156 10.8959C84.6996 11.0559 85.1316 11.1359 85.6116 11.1359C85.8036 11.1359 85.9796 11.1146 86.1396 11.0719C86.3103 11.0186 86.4543 10.9439 86.5716 10.8479C86.6996 10.7519 86.7956 10.6399 86.8596 10.5119C86.9236 10.3733 86.9556 10.2239 86.9556 10.0639C86.9556 9.7866 86.8543 9.5626 86.6516 9.39194C86.545 9.31727 86.3743 9.23727 86.1396 9.15194C85.9156 9.05594 85.6223 8.95994 85.2596 8.86394C84.641 8.70394 84.1343 8.5226 83.7396 8.31994C83.345 8.11727 83.041 7.88794 82.8276 7.63194C82.6676 7.42927 82.5503 7.2106 82.4756 6.97594C82.401 6.7306 82.3636 6.46394 82.3636 6.17594C82.3636 5.82394 82.4383 5.50394 82.5876 5.21594C82.7476 4.91727 82.961 4.66127 83.2276 4.44794C83.505 4.22394 83.825 4.05327 84.1876 3.93594C84.561 3.8186 84.9556 3.75994 85.3716 3.75994C85.7663 3.75994 86.1556 3.81327 86.5396 3.91994C86.9343 4.0266 87.297 4.18127 87.6276 4.38394C87.9583 4.5866 88.2356 4.8266 88.4596 5.10394L87.5156 6.14394C87.313 5.94127 87.089 5.76527 86.8436 5.61594C86.609 5.45594 86.369 5.33327 86.1236 5.24794C85.8783 5.1626 85.6543 5.11994 85.4516 5.11994C85.2276 5.11994 85.025 5.14127 84.8436 5.18394C84.6623 5.2266 84.5076 5.2906 84.3796 5.37594C84.2623 5.46127 84.1716 5.56794 84.1076 5.69594C84.0436 5.82394 84.0116 5.96794 84.0116 6.12794C84.0223 6.2666 84.0543 6.39994 84.1076 6.52794C84.1716 6.64527 84.257 6.7466 84.3636 6.83194C84.481 6.91727 84.657 7.00794 84.8916 7.10394C85.1263 7.19994 85.425 7.2906 85.7876 7.37594C86.321 7.5146 86.7583 7.66927 87.0996 7.83994C87.4516 7.99994 87.729 8.1866 87.9316 8.39994C88.145 8.6026 88.2943 8.83727 88.3796 9.10394C88.465 9.3706 88.5076 9.66927 88.5076 9.99994C88.5076 10.4799 88.369 10.9119 88.0916 11.2959C87.825 11.6693 87.4623 11.9626 87.0036 12.1759C86.545 12.3893 86.033 12.4959 85.4676 12.4959ZM95.2243 12.3359V1.13594H99.6083C100.408 1.13594 101.128 1.26927 101.768 1.53594C102.419 1.8026 102.974 2.1866 103.432 2.68794C103.891 3.18927 104.243 3.78127 104.488 4.46394C104.734 5.1466 104.856 5.90394 104.856 6.73594C104.856 7.56794 104.734 8.3306 104.488 9.02394C104.243 9.7066 103.891 10.2986 103.432 10.7999C102.984 11.2906 102.435 11.6693 101.784 11.9359C101.134 12.2026 100.408 12.3359 99.6083 12.3359H95.2243ZM96.9523 10.8479L96.9043 10.6719H99.5283C100.094 10.6719 100.595 10.5813 101.032 10.3999C101.48 10.2186 101.854 9.9626 102.152 9.63194C102.462 9.2906 102.696 8.8746 102.856 8.38394C103.016 7.89327 103.096 7.34394 103.096 6.73594C103.096 6.12794 103.016 5.58394 102.856 5.10394C102.696 4.61327 102.462 4.19727 102.152 3.85594C101.843 3.5146 101.47 3.25327 101.032 3.07194C100.595 2.8906 100.094 2.79994 99.5283 2.79994H96.8563L96.9523 2.65594V10.8479ZM108.837 12.3359V2.79994H105.701V1.13594H113.797V2.79994H110.565V12.3359H108.837ZM123.868 12.4959C123.26 12.4959 122.694 12.4159 122.172 12.2559C121.66 12.0959 121.19 11.8559 120.764 11.5359C120.348 11.2053 119.974 10.7999 119.644 10.3199L120.828 8.95994C121.35 9.7066 121.852 10.2239 122.332 10.5119C122.812 10.7999 123.382 10.9439 124.044 10.9439C124.449 10.9439 124.817 10.8799 125.148 10.7519C125.478 10.6239 125.74 10.4479 125.932 10.2239C126.124 9.99994 126.22 9.74394 126.22 9.45594C126.22 9.26394 126.188 9.0826 126.124 8.91194C126.06 8.74127 125.958 8.5866 125.82 8.44794C125.692 8.30927 125.521 8.18127 125.308 8.06394C125.105 7.9466 124.865 7.84527 124.588 7.75994C124.31 7.66394 123.99 7.58394 123.628 7.51994C123.052 7.4026 122.55 7.24794 122.124 7.05594C121.697 6.86394 121.34 6.62394 121.052 6.33594C120.764 6.04794 120.55 5.7226 120.412 5.35994C120.273 4.9866 120.204 4.5706 120.204 4.11194C120.204 3.66394 120.3 3.24794 120.492 2.86394C120.694 2.47994 120.966 2.14927 121.308 1.87194C121.66 1.58394 122.07 1.36527 122.54 1.21594C123.009 1.05594 123.516 0.975937 124.06 0.975937C124.636 0.975937 125.164 1.0506 125.644 1.19994C126.124 1.34927 126.55 1.57327 126.924 1.87194C127.297 2.15994 127.606 2.51727 127.852 2.94394L126.636 4.14394C126.422 3.79194 126.182 3.4986 125.916 3.26394C125.649 3.0186 125.356 2.83727 125.036 2.71994C124.716 2.59194 124.374 2.52794 124.012 2.52794C123.596 2.52794 123.233 2.59194 122.924 2.71994C122.614 2.84794 122.369 3.02927 122.188 3.26394C122.017 3.48794 121.932 3.7546 121.932 4.06394C121.932 4.28794 121.974 4.49594 122.06 4.68794C122.145 4.86927 122.273 5.0346 122.444 5.18394C122.625 5.3226 122.865 5.4506 123.164 5.56794C123.462 5.6746 123.82 5.7706 124.236 5.85594C124.822 5.98394 125.345 6.14927 125.804 6.35194C126.262 6.54394 126.652 6.77327 126.972 7.03994C127.292 7.3066 127.532 7.60527 127.692 7.93594C127.862 8.2666 127.948 8.62394 127.948 9.00794C127.948 9.7226 127.782 10.3413 127.452 10.8639C127.121 11.3866 126.652 11.7919 126.044 12.0799C125.436 12.3573 124.71 12.4959 123.868 12.4959ZM130.396 12.3359V1.13594H134.78C135.58 1.13594 136.3 1.26927 136.94 1.53594C137.591 1.8026 138.145 2.1866 138.604 2.68794C139.063 3.18927 139.415 3.78127 139.66 4.46394C139.905 5.1466 140.028 5.90394 140.028 6.73594C140.028 7.56794 139.905 8.3306 139.66 9.02394C139.415 9.7066 139.063 10.2986 138.604 10.7999C138.156 11.2906 137.607 11.6693 136.956 11.9359C136.305 12.2026 135.58 12.3359 134.78 12.3359H130.396ZM132.124 10.8479L132.076 10.6719H134.7C135.265 10.6719 135.767 10.5813 136.204 10.3999C136.652 10.2186 137.025 9.9626 137.324 9.63194C137.633 9.2906 137.868 8.8746 138.028 8.38394C138.188 7.89327 138.268 7.34394 138.268 6.73594C138.268 6.12794 138.188 5.58394 138.028 5.10394C137.868 4.61327 137.633 4.19727 137.324 3.85594C137.015 3.5146 136.641 3.25327 136.204 3.07194C135.767 2.8906 135.265 2.79994 134.7 2.79994H132.028L132.124 2.65594V10.8479ZM141.645 8.57594V6.94394H146.253V8.57594H141.645ZM153.206 12.4959C152.427 12.4959 151.712 12.3573 151.062 12.0799C150.411 11.8026 149.846 11.4079 149.366 10.8959C148.886 10.3733 148.512 9.75994 148.246 9.05594C147.99 8.35194 147.862 7.5786 147.862 6.73594C147.862 5.93594 148 5.1946 148.278 4.51194C148.566 3.8186 148.96 3.2106 149.462 2.68794C149.963 2.16527 150.544 1.75994 151.206 1.47194C151.867 1.18394 152.582 1.03994 153.35 1.03994C153.894 1.03994 154.422 1.12527 154.934 1.29594C155.456 1.45594 155.926 1.68527 156.342 1.98394C156.768 2.27194 157.115 2.6026 157.382 2.97594L156.23 4.17594C155.92 3.8666 155.606 3.6106 155.286 3.40794C154.976 3.1946 154.656 3.0346 154.326 2.92794C154.006 2.82127 153.68 2.76794 153.35 2.76794C152.827 2.76794 152.336 2.86927 151.878 3.07194C151.43 3.26394 151.035 3.53594 150.694 3.88794C150.363 4.23994 150.102 4.66127 149.91 5.15194C149.718 5.63194 149.622 6.15994 149.622 6.73594C149.622 7.34394 149.712 7.8986 149.894 8.39994C150.086 8.8906 150.352 9.31194 150.694 9.66394C151.035 10.0159 151.44 10.2879 151.91 10.4799C152.39 10.6613 152.918 10.7519 153.494 10.7519C153.846 10.7519 154.192 10.7039 154.534 10.6079C154.875 10.5119 155.195 10.3733 155.494 10.1919C155.792 10.0106 156.064 9.79727 156.31 9.55194L157.174 10.9599C156.928 11.2479 156.592 11.5093 156.166 11.7439C155.75 11.9786 155.28 12.1653 154.758 12.3039C154.246 12.4319 153.728 12.4959 153.206 12.4959ZM162.977 12.4959C162.369 12.4959 161.804 12.4159 161.281 12.2559C160.769 12.0959 160.3 11.8559 159.873 11.5359C159.457 11.2053 159.084 10.7999 158.753 10.3199L159.937 8.95994C160.46 9.7066 160.961 10.2239 161.441 10.5119C161.921 10.7999 162.492 10.9439 163.153 10.9439C163.558 10.9439 163.926 10.8799 164.257 10.7519C164.588 10.6239 164.849 10.4479 165.041 10.2239C165.233 9.99994 165.329 9.74394 165.329 9.45594C165.329 9.26394 165.297 9.0826 165.233 8.91194C165.169 8.74127 165.068 8.5866 164.929 8.44794C164.801 8.30927 164.63 8.18127 164.417 8.06394C164.214 7.9466 163.974 7.84527 163.697 7.75994C163.42 7.66394 163.1 7.58394 162.737 7.51994C162.161 7.4026 161.66 7.24794 161.233 7.05594C160.806 6.86394 160.449 6.62394 160.161 6.33594C159.873 6.04794 159.66 5.7226 159.521 5.35994C159.382 4.9866 159.313 4.5706 159.313 4.11194C159.313 3.66394 159.409 3.24794 159.601 2.86394C159.804 2.47994 160.076 2.14927 160.417 1.87194C160.769 1.58394 161.18 1.36527 161.649 1.21594C162.118 1.05594 162.625 0.975937 163.169 0.975937C163.745 0.975937 164.273 1.0506 164.753 1.19994C165.233 1.34927 165.66 1.57327 166.033 1.87194C166.406 2.15994 166.716 2.51727 166.961 2.94394L165.745 4.14394C165.532 3.79194 165.292 3.4986 165.025 3.26394C164.758 3.0186 164.465 2.83727 164.145 2.71994C163.825 2.59194 163.484 2.52794 163.121 2.52794C162.705 2.52794 162.342 2.59194 162.033 2.71994C161.724 2.84794 161.478 3.02927 161.297 3.26394C161.126 3.48794 161.041 3.7546 161.041 4.06394C161.041 4.28794 161.084 4.49594 161.169 4.68794C161.254 4.86927 161.382 5.0346 161.553 5.18394C161.734 5.3226 161.974 5.4506 162.273 5.56794C162.572 5.6746 162.929 5.7706 163.345 5.85594C163.932 5.98394 164.454 6.14927 164.913 6.35194C165.372 6.54394 165.761 6.77327 166.081 7.03994C166.401 7.3066 166.641 7.60527 166.801 7.93594C166.972 8.2666 167.057 8.62394 167.057 9.00794C167.057 9.7226 166.892 10.3413 166.561 10.8639C166.23 11.3866 165.761 11.7919 165.153 12.0799C164.545 12.3573 163.82 12.4959 162.977 12.4959ZM169.506 12.3359V1.13594H174.274C174.914 1.13594 175.5 1.29594 176.034 1.61594C176.578 1.92527 177.01 2.35194 177.33 2.89594C177.65 3.42927 177.81 4.03194 177.81 4.70394C177.81 5.31194 177.65 5.87727 177.33 6.39994C177.01 6.9226 176.583 7.34394 176.05 7.66394C175.516 7.97327 174.924 8.12794 174.274 8.12794H171.234V12.3359H169.506ZM176.161 12.3359L173.314 7.27994L175.09 6.87994L178.258 12.3519L176.161 12.3359ZM171.234 6.46394H174.434C174.743 6.46394 175.02 6.38927 175.266 6.23994C175.511 6.07994 175.703 5.8666 175.842 5.59994C175.98 5.3226 176.05 5.0186 176.05 4.68794C176.05 4.3146 175.959 3.98927 175.778 3.71194C175.607 3.42394 175.362 3.19994 175.042 3.03994C174.732 2.87994 174.38 2.79994 173.986 2.79994H171.234V6.46394ZM185.115 12.3359V1.13594H189.499C190.299 1.13594 191.019 1.26927 191.659 1.53594C192.31 1.8026 192.864 2.1866 193.323 2.68794C193.782 3.18927 194.134 3.78127 194.379 4.46394C194.624 5.1466 194.747 5.90394 194.747 6.73594C194.747 7.56794 194.624 8.3306 194.379 9.02394C194.134 9.7066 193.782 10.2986 193.323 10.7999C192.875 11.2906 192.326 11.6693 191.675 11.9359C191.024 12.2026 190.299 12.3359 189.499 12.3359H185.115ZM186.843 10.8479L186.795 10.6719H189.419C189.984 10.6719 190.486 10.5813 190.923 10.3999C191.371 10.2186 191.744 9.9626 192.043 9.63194C192.352 9.2906 192.587 8.8746 192.747 8.38394C192.907 7.89327 192.987 7.34394 192.987 6.73594C192.987 6.12794 192.907 5.58394 192.747 5.10394C192.587 4.61327 192.352 4.19727 192.043 3.85594C191.734 3.5146 191.36 3.25327 190.923 3.07194C190.486 2.8906 189.984 2.79994 189.419 2.79994H186.747L186.843 2.65594V10.8479ZM196.94 12.3359V3.93594H198.588V12.3359H196.94ZM197.74 2.07994C197.388 2.07994 197.116 1.98927 196.924 1.80794C196.732 1.6266 196.636 1.3706 196.636 1.03994C196.636 0.730604 196.732 0.479937 196.924 0.287937C197.126 0.0959371 197.398 -6.29425e-05 197.74 -6.29425e-05C198.092 -6.29425e-05 198.364 0.0906038 198.556 0.271937C198.748 0.45327 198.844 0.70927 198.844 1.03994C198.844 1.34927 198.742 1.59994 198.54 1.79194C198.348 1.98394 198.081 2.07994 197.74 2.07994ZM201.121 12.3359V3.93594H202.785V6.57594L202.625 5.93594C202.742 5.5306 202.939 5.1626 203.217 4.83194C203.505 4.50127 203.83 4.23994 204.193 4.04794C204.566 3.85594 204.95 3.75994 205.345 3.75994C205.526 3.75994 205.697 3.77594 205.857 3.80794C206.027 3.83994 206.161 3.87727 206.257 3.91994L205.825 5.71194C205.697 5.6586 205.553 5.61594 205.393 5.58394C205.243 5.54127 205.094 5.51994 204.945 5.51994C204.657 5.51994 204.379 5.5786 204.113 5.69594C203.857 5.8026 203.627 5.95727 203.425 6.15994C203.233 6.35194 203.078 6.58127 202.961 6.84794C202.843 7.10394 202.785 7.3866 202.785 7.69594V12.3359H201.121ZM211.135 12.4959C210.271 12.4959 209.503 12.3146 208.831 11.9519C208.169 11.5786 207.647 11.0719 207.263 10.4319C206.889 9.79194 206.703 9.05594 206.703 8.22394C206.703 7.5626 206.809 6.95994 207.023 6.41594C207.236 5.87194 207.529 5.4026 207.903 5.00794C208.287 4.6026 208.74 4.29327 209.263 4.07994C209.796 3.85594 210.372 3.74394 210.991 3.74394C211.535 3.74394 212.041 3.8506 212.511 4.06394C212.98 4.2666 213.385 4.54927 213.727 4.91194C214.079 5.2746 214.345 5.7066 214.527 6.20794C214.719 6.6986 214.809 7.23727 214.799 7.82394L214.783 8.52794H207.919L207.551 7.21594H213.359L213.119 7.48794V7.10394C213.087 6.75194 212.969 6.43727 212.767 6.15994C212.564 5.8826 212.308 5.66394 211.999 5.50394C211.689 5.34394 211.353 5.26394 210.991 5.26394C210.415 5.26394 209.929 5.37594 209.535 5.59994C209.14 5.81327 208.841 6.13327 208.639 6.55994C208.436 6.97594 208.335 7.49327 208.335 8.11194C208.335 8.6986 208.457 9.2106 208.703 9.64794C208.948 10.0746 209.295 10.4053 209.743 10.6399C210.191 10.8746 210.708 10.9919 211.295 10.9919C211.711 10.9919 212.095 10.9226 212.447 10.7839C212.809 10.6453 213.199 10.3946 213.615 10.0319L214.447 11.1999C214.191 11.4559 213.876 11.6799 213.503 11.8719C213.14 12.0639 212.751 12.2186 212.335 12.3359C211.929 12.4426 211.529 12.4959 211.135 12.4959ZM220.158 12.4959C219.379 12.4959 218.68 12.3039 218.062 11.9199C217.454 11.5359 216.968 11.0133 216.606 10.3519C216.254 9.6906 216.078 8.94927 216.078 8.12794C216.078 7.3066 216.254 6.56527 216.606 5.90394C216.968 5.2426 217.454 4.71994 218.062 4.33594C218.68 3.95194 219.379 3.75994 220.158 3.75994C220.904 3.75994 221.582 3.9146 222.19 4.22394C222.808 4.5226 223.278 4.93327 223.598 5.45594L222.686 6.57594C222.515 6.3306 222.296 6.1066 222.03 5.90394C221.763 5.70127 221.48 5.54127 221.182 5.42394C220.883 5.3066 220.595 5.24794 220.318 5.24794C219.806 5.24794 219.347 5.37594 218.942 5.63194C218.547 5.87727 218.232 6.2186 217.998 6.65594C217.763 7.09327 217.646 7.58394 217.646 8.12794C217.646 8.67194 217.768 9.1626 218.014 9.59994C218.259 10.0266 218.584 10.3679 218.99 10.6239C219.395 10.8799 219.843 11.0079 220.334 11.0079C220.622 11.0079 220.899 10.9599 221.166 10.8639C221.443 10.7679 221.71 10.6239 221.966 10.4319C222.222 10.2399 222.462 10.0053 222.686 9.72794L223.598 10.8479C223.256 11.3279 222.766 11.7226 222.126 12.0319C221.496 12.3413 220.84 12.4959 220.158 12.4959ZM226.192 12.3359V1.79194H227.84V12.3359H226.192ZM224.448 5.53594V3.93594H229.792V5.53594H224.448ZM236.193 12.3359V1.13594H240.577C241.377 1.13594 242.097 1.26927 242.737 1.53594C243.388 1.8026 243.942 2.1866 244.401 2.68794C244.86 3.18927 245.212 3.78127 245.457 4.46394C245.702 5.1466 245.825 5.90394 245.825 6.73594C245.825 7.56794 245.702 8.3306 245.457 9.02394C245.212 9.7066 244.86 10.2986 244.401 10.7999C243.953 11.2906 243.404 11.6693 242.753 11.9359C242.102 12.2026 241.377 12.3359 240.577 12.3359H236.193ZM237.921 10.8479L237.873 10.6719H240.497C241.062 10.6719 241.564 10.5813 242.001 10.3999C242.449 10.2186 242.822 9.9626 243.121 9.63194C243.43 9.2906 243.665 8.8746 243.825 8.38394C243.985 7.89327 244.065 7.34394 244.065 6.73594C244.065 6.12794 243.985 5.58394 243.825 5.10394C243.665 4.61327 243.43 4.19727 243.121 3.85594C242.812 3.5146 242.438 3.25327 242.001 3.07194C241.564 2.8906 241.062 2.79994 240.497 2.79994H237.825L237.921 2.65594V10.8479ZM247.746 12.3359V3.93594H249.41V6.57594L249.25 5.93594C249.367 5.5306 249.564 5.1626 249.842 4.83194C250.13 4.50127 250.455 4.23994 250.818 4.04794C251.191 3.85594 251.575 3.75994 251.97 3.75994C252.151 3.75994 252.322 3.77594 252.482 3.80794C252.652 3.83994 252.786 3.87727 252.882 3.91994L252.45 5.71194C252.322 5.6586 252.178 5.61594 252.018 5.58394C251.868 5.54127 251.719 5.51994 251.57 5.51994C251.282 5.51994 251.004 5.5786 250.738 5.69594C250.482 5.8026 250.252 5.95727 250.05 6.15994C249.858 6.35194 249.703 6.58127 249.586 6.84794C249.468 7.10394 249.41 7.3866 249.41 7.69594V12.3359H247.746ZM254.471 12.3359V3.93594H256.119V12.3359H254.471ZM255.271 2.07994C254.919 2.07994 254.647 1.98927 254.455 1.80794C254.263 1.6266 254.167 1.3706 254.167 1.03994C254.167 0.730604 254.263 0.479937 254.455 0.287937C254.658 0.0959371 254.93 -6.29425e-05 255.271 -6.29425e-05C255.623 -6.29425e-05 255.895 0.0906038 256.087 0.271937C256.279 0.45327 256.375 0.70927 256.375 1.03994C256.375 1.34927 256.274 1.59994 256.071 1.79194C255.879 1.98394 255.612 2.07994 255.271 2.07994ZM261.404 12.3359L257.852 3.93594H259.628L262.188 10.2239L261.884 10.3679L264.62 3.93594H266.316L262.588 12.3359H261.404ZM271.51 12.4959C270.646 12.4959 269.878 12.3146 269.206 11.9519C268.544 11.5786 268.022 11.0719 267.638 10.4319C267.264 9.79194 267.078 9.05594 267.078 8.22394C267.078 7.5626 267.184 6.95994 267.398 6.41594C267.611 5.87194 267.904 5.4026 268.278 5.00794C268.662 4.6026 269.115 4.29327 269.638 4.07994C270.171 3.85594 270.747 3.74394 271.366 3.74394C271.91 3.74394 272.416 3.8506 272.886 4.06394C273.355 4.2666 273.76 4.54927 274.102 4.91194C274.454 5.2746 274.72 5.7066 274.902 6.20794C275.094 6.6986 275.184 7.23727 275.174 7.82394L275.158 8.52794H268.294L267.926 7.21594H273.734L273.494 7.48794V7.10394C273.462 6.75194 273.344 6.43727 273.142 6.15994C272.939 5.8826 272.683 5.66394 272.374 5.50394C272.064 5.34394 271.728 5.26394 271.366 5.26394C270.79 5.26394 270.304 5.37594 269.91 5.59994C269.515 5.81327 269.216 6.13327 269.014 6.55994C268.811 6.97594 268.71 7.49327 268.71 8.11194C268.71 8.6986 268.832 9.2106 269.078 9.64794C269.323 10.0746 269.67 10.4053 270.118 10.6399C270.566 10.8746 271.083 10.9919 271.67 10.9919C272.086 10.9919 272.47 10.9226 272.822 10.7839C273.184 10.6453 273.574 10.3946 273.99 10.0319L274.822 11.1999C274.566 11.4559 274.251 11.6799 273.878 11.8719C273.515 12.0639 273.126 12.2186 272.71 12.3359C272.304 12.4426 271.904 12.4959 271.51 12.4959ZM284.937 15.3119C283.636 14.5013 282.644 13.4879 281.961 12.2719C281.278 11.0559 280.937 9.70127 280.937 8.20794C280.937 6.72527 281.278 5.37594 281.961 4.15994C282.654 2.93327 283.652 1.9146 284.953 1.10394L285.833 2.09594C284.745 2.85327 283.913 3.75994 283.337 4.81594C282.772 5.86127 282.489 6.99194 282.489 8.20794C282.489 9.42394 282.772 10.5599 283.337 11.6159C283.913 12.6613 284.745 13.5626 285.833 14.3199L284.937 15.3119ZM291.18 12.4959C290.572 12.4959 290.007 12.4159 289.484 12.2559C288.972 12.0959 288.503 11.8559 288.076 11.5359C287.66 11.2053 287.287 10.7999 286.956 10.3199L288.14 8.95994C288.663 9.7066 289.164 10.2239 289.644 10.5119C290.124 10.7999 290.695 10.9439 291.356 10.9439C291.762 10.9439 292.13 10.8799 292.46 10.7519C292.791 10.6239 293.052 10.4479 293.244 10.2239C293.436 9.99994 293.532 9.74394 293.532 9.45594C293.532 9.26394 293.5 9.0826 293.436 8.91194C293.372 8.74127 293.271 8.5866 293.132 8.44794C293.004 8.30927 292.834 8.18127 292.62 8.06394C292.418 7.9466 292.178 7.84527 291.9 7.75994C291.623 7.66394 291.303 7.58394 290.94 7.51994C290.364 7.4026 289.863 7.24794 289.436 7.05594C289.01 6.86394 288.652 6.62394 288.364 6.33594C288.076 6.04794 287.863 5.7226 287.724 5.35994C287.586 4.9866 287.516 4.5706 287.516 4.11194C287.516 3.66394 287.612 3.24794 287.804 2.86394C288.007 2.47994 288.279 2.14927 288.62 1.87194C288.972 1.58394 289.383 1.36527 289.852 1.21594C290.322 1.05594 290.828 0.975937 291.372 0.975937C291.948 0.975937 292.476 1.0506 292.956 1.19994C293.436 1.34927 293.863 1.57327 294.236 1.87194C294.61 2.15994 294.919 2.51727 295.164 2.94394L293.948 4.14394C293.735 3.79194 293.495 3.4986 293.228 3.26394C292.962 3.0186 292.668 2.83727 292.348 2.71994C292.028 2.59194 291.687 2.52794 291.324 2.52794C290.908 2.52794 290.546 2.59194 290.236 2.71994C289.927 2.84794 289.682 3.02927 289.5 3.26394C289.33 3.48794 289.244 3.7546 289.244 4.06394C289.244 4.28794 289.287 4.49594 289.372 4.68794C289.458 4.86927 289.586 5.0346 289.756 5.18394C289.938 5.3226 290.178 5.4506 290.476 5.56794C290.775 5.6746 291.132 5.7706 291.548 5.85594C292.135 5.98394 292.658 6.14927 293.116 6.35194C293.575 6.54394 293.964 6.77327 294.284 7.03994C294.604 7.3066 294.844 7.60527 295.004 7.93594C295.175 8.2666 295.26 8.62394 295.26 9.00794C295.26 9.7226 295.095 10.3413 294.764 10.8639C294.434 11.3866 293.964 11.7919 293.356 12.0799C292.748 12.3573 292.023 12.4959 291.18 12.4959ZM297.709 12.3359V1.13594H304.765V2.79994H299.437V10.6719H304.765V12.3359H297.709ZM298.493 7.42394V5.75994H303.885V7.42394H298.493ZM309.921 12.3359L306.353 1.13594H308.193L310.353 8.14394C310.417 8.3146 310.475 8.51727 310.529 8.75194C310.582 8.97594 310.63 9.20527 310.673 9.43994C310.715 9.6746 310.753 9.89327 310.785 10.0959C310.827 10.2986 310.865 10.4639 310.897 10.5919L310.433 10.5759C310.593 10.0106 310.715 9.57327 310.801 9.26394C310.897 8.9546 310.971 8.71994 311.025 8.55994C311.078 8.38927 311.126 8.24527 311.169 8.12794L313.185 3.07194H314.737L316.689 8.12794C316.795 8.38394 316.886 8.63994 316.961 8.89594C317.046 9.14127 317.121 9.39194 317.185 9.64794C317.249 9.89327 317.318 10.1546 317.393 10.4319L316.977 10.5439C317.03 10.2559 317.067 10.0319 317.089 9.87194C317.121 9.70127 317.147 9.5626 317.169 9.45594C317.19 9.34927 317.211 9.24794 317.233 9.15194C317.254 9.04527 317.286 8.91194 317.329 8.75194C317.382 8.59194 317.451 8.37327 317.537 8.09594L319.665 1.13594H321.521L317.953 12.3359H316.753L313.793 5.32794L313.937 5.39194L311.089 12.3359H309.921ZM323.106 15.3119L322.226 14.3199C323.314 13.5626 324.141 12.6613 324.706 11.6159C325.282 10.5599 325.57 9.42394 325.57 8.20794C325.57 6.99194 325.282 5.86127 324.706 4.81594C324.141 3.75994 323.314 2.85327 322.226 2.09594L323.122 1.10394C324.424 1.9146 325.416 2.92794 326.098 4.14394C326.781 5.35994 327.122 6.7146 327.122 8.20794C327.122 9.6906 326.776 11.0453 326.082 12.2719C325.4 13.4879 324.408 14.5013 323.106 15.3119Z" fill="white"/>
</svg>
