<svg width="20" height="20" viewBox="0 0 20 20" fill="none" xmlns="http://www.w3.org/2000/svg">
<circle cx="10" cy="10" r="9.5" stroke="#484E53"/>
<path d="M6.24 13.1C5.59333 13.1 5.06667 12.97 4.66 12.71C4.26 12.45 3.96667 12.0767 3.78 11.59C3.59333 11.1033 3.5 10.5267 3.5 9.86C3.5 9.14 3.58667 8.52667 3.76 8.02C3.93333 7.51333 4.22 7.12667 4.62 6.86C5.02 6.59333 5.56 6.46 6.24 6.46C6.91333 6.46 7.45 6.59333 7.85 6.86C8.25 7.12667 8.53667 7.51333 8.71 8.02C8.88333 8.52667 8.97 9.14 8.97 9.86C8.97 10.5267 8.87667 11.1033 8.69 11.59C8.51 12.0767 8.22 12.45 7.82 12.71C7.42 12.97 6.89333 13.1 6.24 13.1ZM6.24 12.4C6.71333 12.4 7.08667 12.2967 7.36 12.09C7.64 11.8767 7.84 11.58 7.96 11.2C8.08667 10.8133 8.15 10.3667 8.15 9.86C8.15 8.98667 8.01 8.32 7.73 7.86C7.45667 7.39333 6.96 7.16 6.24 7.16C5.76 7.16 5.38 7.26333 5.1 7.47C4.82 7.67667 4.62 7.98333 4.5 8.39C4.38 8.79 4.32 9.28 4.32 9.86C4.32 10.3667 4.38 10.8133 4.5 11.2C4.62667 11.58 4.83 11.8767 5.11 12.09C5.39667 12.2967 5.77333 12.4 6.24 12.4ZM10.7446 13L13.1946 7.2H9.87461V6.56H14.0546V7.13L11.5746 13H10.7446Z" fill="#3D3A3A"/>
</svg>
