<svg width="325" height="13" viewBox="0 0 325 13" fill="none" xmlns="http://www.w3.org/2000/svg">
<path d="M1.568 12.3359V1.13594H5.952C6.752 1.13594 7.472 1.26927 8.112 1.53594C8.76267 1.8026 9.31733 2.1866 9.776 2.68794C10.2347 3.18927 10.5867 3.78127 10.832 4.46394C11.0773 5.1466 11.2 5.90394 11.2 6.73594C11.2 7.56794 11.0773 8.3306 10.832 9.02394C10.5867 9.7066 10.2347 10.2986 9.776 10.7999C9.328 11.2906 8.77867 11.6693 8.128 11.9359C7.47733 12.2026 6.752 12.3359 5.952 12.3359H1.568ZM3.296 10.8479L3.248 10.6719H5.872C6.43733 10.6719 6.93867 10.5813 7.376 10.3999C7.824 10.2186 8.19733 9.9626 8.496 9.63194C8.80533 9.2906 9.04 8.8746 9.2 8.38394C9.36 7.89327 9.44 7.34394 9.44 6.73594C9.44 6.12794 9.36 5.58394 9.2 5.10394C9.04 4.61327 8.80533 4.19727 8.496 3.85594C8.18667 3.5146 7.81333 3.25327 7.376 3.07194C6.93867 2.8906 6.43733 2.79994 5.872 2.79994H3.2L3.296 2.65594V10.8479ZM13.3928 12.3359V3.93594H15.0408V12.3359H13.3928ZM14.1928 2.07994C13.8408 2.07994 13.5688 1.98927 13.3768 1.80794C13.1848 1.6266 13.0888 1.3706 13.0888 1.03994C13.0888 0.730604 13.1848 0.479937 13.3768 0.287937C13.5794 0.0959371 13.8514 -6.29425e-05 14.1928 -6.29425e-05C14.5448 -6.29425e-05 14.8168 0.0906038 15.0088 0.271937C15.2008 0.45327 15.2968 0.70927 15.2968 1.03994C15.2968 1.34927 15.1954 1.59994 14.9928 1.79194C14.8008 1.98394 14.5341 2.07994 14.1928 2.07994ZM17.5419 12.3359V3.93594H19.2059V5.72794L18.9019 5.91994C18.9872 5.6426 19.1205 5.37594 19.3019 5.11994C19.4939 4.86394 19.7232 4.63994 19.9899 4.44794C20.2672 4.24527 20.5605 4.08527 20.8699 3.96794C21.1899 3.8506 21.5152 3.79194 21.8459 3.79194C22.3259 3.79194 22.7472 3.87194 23.1099 4.03194C23.4725 4.19194 23.7712 4.43194 24.0059 4.75194C24.2405 5.07194 24.4112 5.47194 24.5179 5.95194L24.2619 5.88794L24.3739 5.61594C24.4912 5.3706 24.6512 5.14127 24.8539 4.92794C25.0672 4.70394 25.3072 4.5066 25.5739 4.33594C25.8405 4.16527 26.1232 4.03194 26.4219 3.93594C26.7205 3.83994 27.0139 3.79194 27.3019 3.79194C27.9312 3.79194 28.4485 3.91994 28.8539 4.17594C29.2699 4.43194 29.5792 4.82127 29.7819 5.34394C29.9952 5.8666 30.1019 6.51727 30.1019 7.29594V12.3359H28.4379V7.39194C28.4379 6.91194 28.3739 6.5226 28.2459 6.22394C28.1285 5.9146 27.9472 5.68527 27.7019 5.53594C27.4565 5.3866 27.1419 5.31194 26.7579 5.31194C26.4592 5.31194 26.1765 5.36527 25.9099 5.47194C25.6539 5.56794 25.4299 5.7066 25.2379 5.88794C25.0459 6.06927 24.8965 6.2826 24.7899 6.52794C24.6832 6.7626 24.6299 7.02394 24.6299 7.31194V12.3359H22.9659V7.35994C22.9659 6.9226 22.9019 6.5546 22.7739 6.25594C22.6459 5.9466 22.4592 5.71194 22.2139 5.55194C21.9685 5.39194 21.6699 5.31194 21.3179 5.31194C21.0192 5.31194 20.7419 5.36527 20.4859 5.47194C20.2299 5.56794 20.0059 5.7066 19.8139 5.88794C19.6219 6.0586 19.4725 6.2666 19.3659 6.51194C19.2592 6.7466 19.2059 7.0026 19.2059 7.27994V12.3359H17.5419ZM36.2283 12.4959C35.3643 12.4959 34.5963 12.3146 33.9243 11.9519C33.2629 11.5786 32.7403 11.0719 32.3563 10.4319C31.9829 9.79194 31.7963 9.05594 31.7963 8.22394C31.7963 7.5626 31.9029 6.95994 32.1163 6.41594C32.3296 5.87194 32.6229 5.4026 32.9963 5.00794C33.3803 4.6026 33.8336 4.29327 34.3563 4.07994C34.8896 3.85594 35.4656 3.74394 36.0843 3.74394C36.6283 3.74394 37.1349 3.8506 37.6043 4.06394C38.0736 4.2666 38.4789 4.54927 38.8203 4.91194C39.1723 5.2746 39.4389 5.7066 39.6203 6.20794C39.8123 6.6986 39.9029 7.23727 39.8923 7.82394L39.8763 8.52794H33.0123L32.6443 7.21594H38.4523L38.2123 7.48794V7.10394C38.1803 6.75194 38.0629 6.43727 37.8603 6.15994C37.6576 5.8826 37.4016 5.66394 37.0923 5.50394C36.7829 5.34394 36.4469 5.26394 36.0843 5.26394C35.5083 5.26394 35.0229 5.37594 34.6283 5.59994C34.2336 5.81327 33.9349 6.13327 33.7323 6.55994C33.5296 6.97594 33.4283 7.49327 33.4283 8.11194C33.4283 8.6986 33.5509 9.2106 33.7963 9.64794C34.0416 10.0746 34.3883 10.4053 34.8363 10.6399C35.2843 10.8746 35.8016 10.9919 36.3883 10.9919C36.8043 10.9919 37.1883 10.9226 37.5403 10.7839C37.9029 10.6453 38.2923 10.3946 38.7083 10.0319L39.5403 11.1999C39.2843 11.4559 38.9696 11.6799 38.5963 11.8719C38.2336 12.0639 37.8443 12.2186 37.4283 12.3359C37.0229 12.4426 36.6229 12.4959 36.2283 12.4959ZM41.6833 12.3359V3.93594H43.3313V5.66394L43.0433 5.85594C43.1499 5.4826 43.3579 5.14127 43.6673 4.83194C43.9766 4.51194 44.3446 4.25594 44.7713 4.06394C45.1979 3.86127 45.6353 3.75994 46.0833 3.75994C46.7233 3.75994 47.2566 3.88794 47.6833 4.14394C48.1099 4.38927 48.4299 4.76794 48.6433 5.27994C48.8566 5.79194 48.9633 6.43727 48.9633 7.21594V12.3359H47.3153V7.32794C47.3153 6.84794 47.2513 6.45327 47.1233 6.14394C46.9953 5.82394 46.7979 5.5946 46.5313 5.45594C46.2646 5.3066 45.9339 5.2426 45.5393 5.26394C45.2193 5.26394 44.9259 5.31727 44.6593 5.42394C44.3926 5.51994 44.1579 5.6586 43.9553 5.83994C43.7633 6.02127 43.6086 6.2346 43.4913 6.47994C43.3846 6.7146 43.3313 6.9706 43.3313 7.24794V12.3359H42.5153C42.3766 12.3359 42.2379 12.3359 42.0993 12.3359C41.9606 12.3359 41.8219 12.3359 41.6833 12.3359ZM53.9989 12.4959C53.2949 12.4959 52.6602 12.3733 52.0949 12.1279C51.5295 11.8826 51.0602 11.5199 50.6869 11.0399L51.8069 10.0799C52.1269 10.4533 52.4735 10.7253 52.8469 10.8959C53.2309 11.0559 53.6629 11.1359 54.1429 11.1359C54.3349 11.1359 54.5109 11.1146 54.6709 11.0719C54.8415 11.0186 54.9855 10.9439 55.1029 10.8479C55.2309 10.7519 55.3269 10.6399 55.3909 10.5119C55.4549 10.3733 55.4869 10.2239 55.4869 10.0639C55.4869 9.7866 55.3855 9.5626 55.1829 9.39194C55.0762 9.31727 54.9055 9.23727 54.6709 9.15194C54.4469 9.05594 54.1535 8.95994 53.7909 8.86394C53.1722 8.70394 52.6655 8.5226 52.2709 8.31994C51.8762 8.11727 51.5722 7.88794 51.3589 7.63194C51.1989 7.42927 51.0815 7.2106 51.0069 6.97594C50.9322 6.7306 50.8949 6.46394 50.8949 6.17594C50.8949 5.82394 50.9695 5.50394 51.1189 5.21594C51.2789 4.91727 51.4922 4.66127 51.7589 4.44794C52.0362 4.22394 52.3562 4.05327 52.7189 3.93594C53.0922 3.8186 53.4869 3.75994 53.9029 3.75994C54.2975 3.75994 54.6869 3.81327 55.0709 3.91994C55.4655 4.0266 55.8282 4.18127 56.1589 4.38394C56.4895 4.5866 56.7669 4.8266 56.9909 5.10394L56.0469 6.14394C55.8442 5.94127 55.6202 5.76527 55.3749 5.61594C55.1402 5.45594 54.9002 5.33327 54.6549 5.24794C54.4095 5.1626 54.1855 5.11994 53.9829 5.11994C53.7589 5.11994 53.5562 5.14127 53.3749 5.18394C53.1935 5.2266 53.0389 5.2906 52.9109 5.37594C52.7935 5.46127 52.7029 5.56794 52.6389 5.69594C52.5749 5.82394 52.5429 5.96794 52.5429 6.12794C52.5535 6.2666 52.5855 6.39994 52.6389 6.52794C52.7029 6.64527 52.7882 6.7466 52.8949 6.83194C53.0122 6.91727 53.1882 7.00794 53.4229 7.10394C53.6575 7.19994 53.9562 7.2906 54.3189 7.37594C54.8522 7.5146 55.2895 7.66927 55.6309 7.83994C55.9829 7.99994 56.2602 8.1866 56.4629 8.39994C56.6762 8.6026 56.8255 8.83727 56.9109 9.10394C56.9962 9.3706 57.0389 9.66927 57.0389 9.99994C57.0389 10.4799 56.9002 10.9119 56.6229 11.2959C56.3562 11.6693 55.9935 11.9626 55.5349 12.1759C55.0762 12.3893 54.5642 12.4959 53.9989 12.4959ZM59.1271 12.3359V3.93594H60.7751V12.3359H59.1271ZM59.9271 2.07994C59.5751 2.07994 59.3031 1.98927 59.1111 1.80794C58.9191 1.6266 58.8231 1.3706 58.8231 1.03994C58.8231 0.730604 58.9191 0.479937 59.1111 0.287937C59.3138 0.0959371 59.5858 -6.29425e-05 59.9271 -6.29425e-05C60.2791 -6.29425e-05 60.5511 0.0906038 60.7431 0.271937C60.9351 0.45327 61.0311 0.70927 61.0311 1.03994C61.0311 1.34927 60.9298 1.59994 60.7271 1.79194C60.5351 1.98394 60.2685 2.07994 59.9271 2.07994ZM67.0843 12.4959C66.2629 12.4959 65.5269 12.3093 64.8763 11.9359C64.2363 11.5519 63.7296 11.0346 63.3563 10.3839C62.9829 9.7226 62.7963 8.9706 62.7963 8.12794C62.7963 7.28527 62.9829 6.5386 63.3563 5.88794C63.7296 5.2266 64.2363 4.70927 64.8763 4.33594C65.5269 3.95194 66.2629 3.75994 67.0843 3.75994C67.8949 3.75994 68.6203 3.95194 69.2603 4.33594C69.9109 4.70927 70.4229 5.2266 70.7963 5.88794C71.1696 6.5386 71.3563 7.28527 71.3563 8.12794C71.3563 8.9706 71.1696 9.7226 70.7963 10.3839C70.4229 11.0346 69.9109 11.5519 69.2603 11.9359C68.6203 12.3093 67.8949 12.4959 67.0843 12.4959ZM67.0843 10.9919C67.5856 10.9919 68.0336 10.8693 68.4283 10.6239C68.8229 10.3679 69.1323 10.0266 69.3563 9.59994C69.5803 9.1626 69.6869 8.67194 69.6763 8.12794C69.6869 7.57327 69.5803 7.0826 69.3563 6.65594C69.1323 6.2186 68.8229 5.87727 68.4283 5.63194C68.0336 5.3866 67.5856 5.26394 67.0843 5.26394C66.5829 5.26394 66.1296 5.39194 65.7243 5.64794C65.3296 5.89327 65.0203 6.2346 64.7963 6.67194C64.5723 7.0986 64.4656 7.58394 64.4763 8.12794C64.4656 8.67194 64.5723 9.1626 64.7963 9.59994C65.0203 10.0266 65.3296 10.3679 65.7243 10.6239C66.1296 10.8693 66.5829 10.9919 67.0843 10.9919ZM73.152 12.3359V3.93594H74.8V5.66394L74.512 5.85594C74.6187 5.4826 74.8267 5.14127 75.136 4.83194C75.4453 4.51194 75.8133 4.25594 76.24 4.06394C76.6667 3.86127 77.104 3.75994 77.552 3.75994C78.192 3.75994 78.7253 3.88794 79.152 4.14394C79.5787 4.38927 79.8987 4.76794 80.112 5.27994C80.3253 5.79194 80.432 6.43727 80.432 7.21594V12.3359H78.784V7.32794C78.784 6.84794 78.72 6.45327 78.592 6.14394C78.464 5.82394 78.2667 5.5946 78 5.45594C77.7333 5.3066 77.4027 5.2426 77.008 5.26394C76.688 5.26394 76.3947 5.31727 76.128 5.42394C75.8613 5.51994 75.6267 5.6586 75.424 5.83994C75.232 6.02127 75.0773 6.2346 74.96 6.47994C74.8533 6.7146 74.8 6.9706 74.8 7.24794V12.3359H73.984C73.8453 12.3359 73.7067 12.3359 73.568 12.3359C73.4293 12.3359 73.2907 12.3359 73.152 12.3359ZM85.4676 12.4959C84.7636 12.4959 84.129 12.3733 83.5636 12.1279C82.9983 11.8826 82.529 11.5199 82.1556 11.0399L83.2756 10.0799C83.5956 10.4533 83.9423 10.7253 84.3156 10.8959C84.6996 11.0559 85.1316 11.1359 85.6116 11.1359C85.8036 11.1359 85.9796 11.1146 86.1396 11.0719C86.3103 11.0186 86.4543 10.9439 86.5716 10.8479C86.6996 10.7519 86.7956 10.6399 86.8596 10.5119C86.9236 10.3733 86.9556 10.2239 86.9556 10.0639C86.9556 9.7866 86.8543 9.5626 86.6516 9.39194C86.545 9.31727 86.3743 9.23727 86.1396 9.15194C85.9156 9.05594 85.6223 8.95994 85.2596 8.86394C84.641 8.70394 84.1343 8.5226 83.7396 8.31994C83.345 8.11727 83.041 7.88794 82.8276 7.63194C82.6676 7.42927 82.5503 7.2106 82.4756 6.97594C82.401 6.7306 82.3636 6.46394 82.3636 6.17594C82.3636 5.82394 82.4383 5.50394 82.5876 5.21594C82.7476 4.91727 82.961 4.66127 83.2276 4.44794C83.505 4.22394 83.825 4.05327 84.1876 3.93594C84.561 3.8186 84.9556 3.75994 85.3716 3.75994C85.7663 3.75994 86.1556 3.81327 86.5396 3.91994C86.9343 4.0266 87.297 4.18127 87.6276 4.38394C87.9583 4.5866 88.2356 4.8266 88.4596 5.10394L87.5156 6.14394C87.313 5.94127 87.089 5.76527 86.8436 5.61594C86.609 5.45594 86.369 5.33327 86.1236 5.24794C85.8783 5.1626 85.6543 5.11994 85.4516 5.11994C85.2276 5.11994 85.025 5.14127 84.8436 5.18394C84.6623 5.2266 84.5076 5.2906 84.3796 5.37594C84.2623 5.46127 84.1716 5.56794 84.1076 5.69594C84.0436 5.82394 84.0116 5.96794 84.0116 6.12794C84.0223 6.2666 84.0543 6.39994 84.1076 6.52794C84.1716 6.64527 84.257 6.7466 84.3636 6.83194C84.481 6.91727 84.657 7.00794 84.8916 7.10394C85.1263 7.19994 85.425 7.2906 85.7876 7.37594C86.321 7.5146 86.7583 7.66927 87.0996 7.83994C87.4516 7.99994 87.729 8.1866 87.9316 8.39994C88.145 8.6026 88.2943 8.83727 88.3796 9.10394C88.465 9.3706 88.5076 9.66927 88.5076 9.99994C88.5076 10.4799 88.369 10.9119 88.0916 11.2959C87.825 11.6693 87.4623 11.9626 87.0036 12.1759C86.545 12.3893 86.033 12.4959 85.4676 12.4959ZM94.5043 8.57594V6.94394H99.1123V8.57594H94.5043ZM106.006 12.3359V1.13594H110.678C111.392 1.13594 111.995 1.2426 112.486 1.45594C112.976 1.66927 113.344 1.98927 113.59 2.41594C113.846 2.83194 113.974 3.34394 113.974 3.95194C113.974 4.55994 113.803 5.07727 113.462 5.50394C113.131 5.9306 112.667 6.22394 112.07 6.38394V6.06394C112.571 6.1706 113.008 6.3626 113.382 6.63994C113.755 6.9066 114.043 7.2426 114.246 7.64794C114.459 8.05327 114.566 8.51727 114.566 9.03994C114.566 9.57327 114.48 10.0479 114.31 10.4639C114.15 10.8693 113.904 11.2106 113.574 11.4879C113.254 11.7653 112.864 11.9786 112.406 12.1279C111.947 12.2666 111.424 12.3359 110.838 12.3359H106.006ZM107.734 10.6719H110.742C111.179 10.6719 111.547 10.6079 111.846 10.4799C112.155 10.3519 112.39 10.1653 112.55 9.91994C112.72 9.66394 112.806 9.35994 112.806 9.00794C112.806 8.67727 112.715 8.3946 112.534 8.15994C112.363 7.92527 112.118 7.74927 111.798 7.63194C111.478 7.50394 111.099 7.43994 110.662 7.43994H107.734V10.6719ZM107.734 5.77594H110.582C110.902 5.77594 111.184 5.71194 111.43 5.58394C111.686 5.45594 111.883 5.27994 112.022 5.05594C112.171 4.83194 112.246 4.57594 112.246 4.28794C112.246 3.80794 112.086 3.43994 111.766 3.18394C111.446 2.92794 110.987 2.79994 110.39 2.79994H107.734V5.77594ZM118.79 12.3359V2.79994H115.654V1.13594H123.75V2.79994H120.518V12.3359H118.79ZM130.365 12.3359V1.13594H134.749C135.549 1.13594 136.269 1.26927 136.909 1.53594C137.56 1.8026 138.114 2.1866 138.573 2.68794C139.032 3.18927 139.384 3.78127 139.629 4.46394C139.874 5.1466 139.997 5.90394 139.997 6.73594C139.997 7.56794 139.874 8.3306 139.629 9.02394C139.384 9.7066 139.032 10.2986 138.573 10.7999C138.125 11.2906 137.576 11.6693 136.925 11.9359C136.274 12.2026 135.549 12.3359 134.749 12.3359H130.365ZM132.093 10.8479L132.045 10.6719H134.669C135.234 10.6719 135.736 10.5813 136.173 10.3999C136.621 10.2186 136.994 9.9626 137.293 9.63194C137.602 9.2906 137.837 8.8746 137.997 8.38394C138.157 7.89327 138.237 7.34394 138.237 6.73594C138.237 6.12794 138.157 5.58394 137.997 5.10394C137.837 4.61327 137.602 4.19727 137.293 3.85594C136.984 3.5146 136.61 3.25327 136.173 3.07194C135.736 2.8906 135.234 2.79994 134.669 2.79994H131.997L132.093 2.65594V10.8479ZM146.878 12.4959C146.099 12.4959 145.384 12.3573 144.734 12.0799C144.083 11.8026 143.518 11.4079 143.038 10.8959C142.558 10.3733 142.184 9.75994 141.918 9.05594C141.662 8.35194 141.534 7.5786 141.534 6.73594C141.534 5.93594 141.672 5.1946 141.95 4.51194C142.238 3.8186 142.632 3.2106 143.134 2.68794C143.635 2.16527 144.216 1.75994 144.878 1.47194C145.539 1.18394 146.254 1.03994 147.022 1.03994C147.566 1.03994 148.094 1.12527 148.606 1.29594C149.128 1.45594 149.598 1.68527 150.014 1.98394C150.44 2.27194 150.787 2.6026 151.054 2.97594L149.902 4.17594C149.592 3.8666 149.278 3.6106 148.958 3.40794C148.648 3.1946 148.328 3.0346 147.998 2.92794C147.678 2.82127 147.352 2.76794 147.022 2.76794C146.499 2.76794 146.008 2.86927 145.55 3.07194C145.102 3.26394 144.707 3.53594 144.366 3.88794C144.035 4.23994 143.774 4.66127 143.582 5.15194C143.39 5.63194 143.294 6.15994 143.294 6.73594C143.294 7.34394 143.384 7.8986 143.566 8.39994C143.758 8.8906 144.024 9.31194 144.366 9.66394C144.707 10.0159 145.112 10.2879 145.582 10.4799C146.062 10.6613 146.59 10.7519 147.166 10.7519C147.518 10.7519 147.864 10.7039 148.206 10.6079C148.547 10.5119 148.867 10.3733 149.166 10.1919C149.464 10.0106 149.736 9.79727 149.982 9.55194L150.846 10.9599C150.6 11.2479 150.264 11.5093 149.838 11.7439C149.422 11.9786 148.952 12.1653 148.43 12.3039C147.918 12.4319 147.4 12.4959 146.878 12.4959ZM156.649 12.4959C156.041 12.4959 155.476 12.4159 154.953 12.2559C154.441 12.0959 153.972 11.8559 153.545 11.5359C153.129 11.2053 152.756 10.7999 152.425 10.3199L153.609 8.95994C154.132 9.7066 154.633 10.2239 155.113 10.5119C155.593 10.7999 156.164 10.9439 156.825 10.9439C157.23 10.9439 157.598 10.8799 157.929 10.7519C158.26 10.6239 158.521 10.4479 158.713 10.2239C158.905 9.99994 159.001 9.74394 159.001 9.45594C159.001 9.26394 158.969 9.0826 158.905 8.91194C158.841 8.74127 158.74 8.5866 158.601 8.44794C158.473 8.30927 158.302 8.18127 158.089 8.06394C157.886 7.9466 157.646 7.84527 157.369 7.75994C157.092 7.66394 156.772 7.58394 156.409 7.51994C155.833 7.4026 155.332 7.24794 154.905 7.05594C154.478 6.86394 154.121 6.62394 153.833 6.33594C153.545 6.04794 153.332 5.7226 153.193 5.35994C153.054 4.9866 152.985 4.5706 152.985 4.11194C152.985 3.66394 153.081 3.24794 153.273 2.86394C153.476 2.47994 153.748 2.14927 154.089 1.87194C154.441 1.58394 154.852 1.36527 155.321 1.21594C155.79 1.05594 156.297 0.975937 156.841 0.975937C157.417 0.975937 157.945 1.0506 158.425 1.19994C158.905 1.34927 159.332 1.57327 159.705 1.87194C160.078 2.15994 160.388 2.51727 160.633 2.94394L159.417 4.14394C159.204 3.79194 158.964 3.4986 158.697 3.26394C158.43 3.0186 158.137 2.83727 157.817 2.71994C157.497 2.59194 157.156 2.52794 156.793 2.52794C156.377 2.52794 156.014 2.59194 155.705 2.71994C155.396 2.84794 155.15 3.02927 154.969 3.26394C154.798 3.48794 154.713 3.7546 154.713 4.06394C154.713 4.28794 154.756 4.49594 154.841 4.68794C154.926 4.86927 155.054 5.0346 155.225 5.18394C155.406 5.3226 155.646 5.4506 155.945 5.56794C156.244 5.6746 156.601 5.7706 157.017 5.85594C157.604 5.98394 158.126 6.14927 158.585 6.35194C159.044 6.54394 159.433 6.77327 159.753 7.03994C160.073 7.3066 160.313 7.60527 160.473 7.93594C160.644 8.2666 160.729 8.62394 160.729 9.00794C160.729 9.7226 160.564 10.3413 160.233 10.8639C159.902 11.3866 159.433 11.7919 158.825 12.0799C158.217 12.3573 157.492 12.4959 156.649 12.4959ZM163.177 12.3359V1.13594H167.945C168.585 1.13594 169.172 1.29594 169.705 1.61594C170.249 1.92527 170.681 2.35194 171.001 2.89594C171.321 3.42927 171.481 4.03194 171.481 4.70394C171.481 5.31194 171.321 5.87727 171.001 6.39994C170.681 6.9226 170.255 7.34394 169.721 7.66394C169.188 7.97327 168.596 8.12794 167.945 8.12794H164.905V12.3359H163.177ZM169.833 12.3359L166.985 7.27994L168.761 6.87994L171.929 12.3519L169.833 12.3359ZM164.905 6.46394H168.105C168.415 6.46394 168.692 6.38927 168.937 6.23994C169.183 6.07994 169.375 5.8666 169.513 5.59994C169.652 5.3226 169.721 5.0186 169.721 4.68794C169.721 4.3146 169.631 3.98927 169.449 3.71194C169.279 3.42394 169.033 3.19994 168.713 3.03994C168.404 2.87994 168.052 2.79994 167.657 2.79994H164.905V6.46394ZM182.083 12.3359L177.603 1.13594H179.571L182.243 7.93594C182.371 8.2666 182.483 8.56527 182.579 8.83194C182.685 9.0986 182.776 9.34394 182.851 9.56794C182.925 9.78127 182.995 9.98394 183.059 10.1759C183.123 10.3679 183.187 10.5599 183.251 10.7519L182.835 10.7679C182.909 10.5119 182.989 10.2453 183.075 9.96794C183.16 9.6906 183.256 9.3866 183.363 9.05594C183.48 8.72527 183.619 8.35194 183.779 7.93594L186.259 1.13594H188.275L183.763 12.3359H182.083ZM190.144 12.3359L189.616 11.0239L193.04 7.16794C193.222 6.97594 193.408 6.75727 193.6 6.51194C193.803 6.25594 193.995 5.9946 194.176 5.72794C194.358 5.46127 194.502 5.19994 194.608 4.94394C194.726 4.67727 194.784 4.4266 194.784 4.19194C194.784 3.8506 194.715 3.5626 194.576 3.32794C194.448 3.0826 194.256 2.89594 194 2.76794C193.755 2.63994 193.456 2.57594 193.104 2.57594C192.795 2.57594 192.491 2.6666 192.192 2.84794C191.894 3.02927 191.622 3.28527 191.376 3.61594C191.131 3.9466 190.939 4.3306 190.8 4.76794L189.472 3.93594C189.654 3.31727 189.926 2.78927 190.288 2.35194C190.662 1.90394 191.104 1.5626 191.616 1.32794C192.139 1.09327 192.704 0.975937 193.312 0.975937C193.942 0.975937 194.502 1.10927 194.992 1.37594C195.483 1.63194 195.867 1.9946 196.144 2.46394C196.422 2.9226 196.56 3.45594 196.56 4.06394C196.56 4.30927 196.534 4.55994 196.48 4.81594C196.427 5.07194 196.342 5.3386 196.224 5.61594C196.107 5.8826 195.958 6.16527 195.776 6.46394C195.595 6.75194 195.376 7.05594 195.12 7.37594C194.875 7.69594 194.592 8.03194 194.272 8.38394L191.728 11.1519L191.408 10.6719H196.912V12.3359H190.144ZM201.118 12.3359V2.79994H197.982V1.13594H206.078V2.79994H202.846V12.3359H201.118ZM208.209 12.3359V1.13594H215.265V2.79994H209.937V10.6719H215.265V12.3359H208.209ZM208.993 7.42394V5.75994H214.385V7.42394H208.993ZM222.521 12.3359V1.13594H226.905C227.705 1.13594 228.425 1.26927 229.065 1.53594C229.716 1.8026 230.27 2.1866 230.729 2.68794C231.188 3.18927 231.54 3.78127 231.785 4.46394C232.03 5.1466 232.153 5.90394 232.153 6.73594C232.153 7.56794 232.03 8.3306 231.785 9.02394C231.54 9.7066 231.188 10.2986 230.729 10.7999C230.281 11.2906 229.732 11.6693 229.081 11.9359C228.43 12.2026 227.705 12.3359 226.905 12.3359H222.521ZM224.249 10.8479L224.201 10.6719H226.825C227.39 10.6719 227.892 10.5813 228.329 10.3999C228.777 10.2186 229.15 9.9626 229.449 9.63194C229.758 9.2906 229.993 8.8746 230.153 8.38394C230.313 7.89327 230.393 7.34394 230.393 6.73594C230.393 6.12794 230.313 5.58394 230.153 5.10394C229.993 4.61327 229.758 4.19727 229.449 3.85594C229.14 3.5146 228.766 3.25327 228.329 3.07194C227.892 2.8906 227.39 2.79994 226.825 2.79994H224.153L224.249 2.65594V10.8479ZM234.346 12.3359V3.93594H235.994V12.3359H234.346ZM235.146 2.07994C234.794 2.07994 234.522 1.98927 234.33 1.80794C234.138 1.6266 234.042 1.3706 234.042 1.03994C234.042 0.730604 234.138 0.479937 234.33 0.287937C234.533 0.0959371 234.805 -6.29425e-05 235.146 -6.29425e-05C235.498 -6.29425e-05 235.77 0.0906038 235.962 0.271937C236.154 0.45327 236.25 0.70927 236.25 1.03994C236.25 1.34927 236.149 1.59994 235.946 1.79194C235.754 1.98394 235.487 2.07994 235.146 2.07994ZM238.527 12.3359V3.93594H240.191V6.57594L240.031 5.93594C240.148 5.5306 240.346 5.1626 240.623 4.83194C240.911 4.50127 241.236 4.23994 241.599 4.04794C241.972 3.85594 242.356 3.75994 242.751 3.75994C242.932 3.75994 243.103 3.77594 243.263 3.80794C243.434 3.83994 243.567 3.87727 243.663 3.91994L243.231 5.71194C243.103 5.6586 242.959 5.61594 242.799 5.58394C242.65 5.54127 242.5 5.51994 242.351 5.51994C242.063 5.51994 241.786 5.5786 241.519 5.69594C241.263 5.8026 241.034 5.95727 240.831 6.15994C240.639 6.35194 240.484 6.58127 240.367 6.84794C240.25 7.10394 240.191 7.3866 240.191 7.69594V12.3359H238.527ZM248.541 12.4959C247.677 12.4959 246.909 12.3146 246.237 11.9519C245.575 11.5786 245.053 11.0719 244.669 10.4319C244.295 9.79194 244.109 9.05594 244.109 8.22394C244.109 7.5626 244.215 6.95994 244.429 6.41594C244.642 5.87194 244.935 5.4026 245.309 5.00794C245.693 4.6026 246.146 4.29327 246.669 4.07994C247.202 3.85594 247.778 3.74394 248.397 3.74394C248.941 3.74394 249.447 3.8506 249.917 4.06394C250.386 4.2666 250.791 4.54927 251.133 4.91194C251.485 5.2746 251.751 5.7066 251.933 6.20794C252.125 6.6986 252.215 7.23727 252.205 7.82394L252.189 8.52794H245.325L244.957 7.21594H250.765L250.525 7.48794V7.10394C250.493 6.75194 250.375 6.43727 250.173 6.15994C249.97 5.8826 249.714 5.66394 249.405 5.50394C249.095 5.34394 248.759 5.26394 248.397 5.26394C247.821 5.26394 247.335 5.37594 246.941 5.59994C246.546 5.81327 246.247 6.13327 246.045 6.55994C245.842 6.97594 245.741 7.49327 245.741 8.11194C245.741 8.6986 245.863 9.2106 246.109 9.64794C246.354 10.0746 246.701 10.4053 247.149 10.6399C247.597 10.8746 248.114 10.9919 248.701 10.9919C249.117 10.9919 249.501 10.9226 249.853 10.7839C250.215 10.6453 250.605 10.3946 251.021 10.0319L251.853 11.1999C251.597 11.4559 251.282 11.6799 250.909 11.8719C250.546 12.0639 250.157 12.2186 249.741 12.3359C249.335 12.4426 248.935 12.4959 248.541 12.4959ZM257.564 12.4959C256.785 12.4959 256.086 12.3039 255.468 11.9199C254.86 11.5359 254.374 11.0133 254.012 10.3519C253.66 9.6906 253.484 8.94927 253.484 8.12794C253.484 7.3066 253.66 6.56527 254.012 5.90394C254.374 5.2426 254.86 4.71994 255.468 4.33594C256.086 3.95194 256.785 3.75994 257.564 3.75994C258.31 3.75994 258.988 3.9146 259.596 4.22394C260.214 4.5226 260.684 4.93327 261.004 5.45594L260.092 6.57594C259.921 6.3306 259.702 6.1066 259.436 5.90394C259.169 5.70127 258.886 5.54127 258.588 5.42394C258.289 5.3066 258.001 5.24794 257.724 5.24794C257.212 5.24794 256.753 5.37594 256.348 5.63194C255.953 5.87727 255.638 6.2186 255.404 6.65594C255.169 7.09327 255.052 7.58394 255.052 8.12794C255.052 8.67194 255.174 9.1626 255.42 9.59994C255.665 10.0266 255.99 10.3679 256.396 10.6239C256.801 10.8799 257.249 11.0079 257.74 11.0079C258.028 11.0079 258.305 10.9599 258.572 10.8639C258.849 10.7679 259.116 10.6239 259.372 10.4319C259.628 10.2399 259.868 10.0053 260.092 9.72794L261.004 10.8479C260.662 11.3279 260.172 11.7226 259.532 12.0319C258.902 12.3413 258.246 12.4959 257.564 12.4959ZM263.598 12.3359V1.79194H265.246V12.3359H263.598ZM261.854 5.53594V3.93594H267.198V5.53594H261.854ZM273.599 12.3359V1.13594H277.983C278.783 1.13594 279.503 1.26927 280.143 1.53594C280.794 1.8026 281.349 2.1866 281.807 2.68794C282.266 3.18927 282.618 3.78127 282.863 4.46394C283.109 5.1466 283.231 5.90394 283.231 6.73594C283.231 7.56794 283.109 8.3306 282.863 9.02394C282.618 9.7066 282.266 10.2986 281.807 10.7999C281.359 11.2906 280.81 11.6693 280.159 11.9359C279.509 12.2026 278.783 12.3359 277.983 12.3359H273.599ZM275.327 10.8479L275.279 10.6719H277.903C278.469 10.6719 278.97 10.5813 279.407 10.3999C279.855 10.2186 280.229 9.9626 280.527 9.63194C280.837 9.2906 281.071 8.8746 281.231 8.38394C281.391 7.89327 281.471 7.34394 281.471 6.73594C281.471 6.12794 281.391 5.58394 281.231 5.10394C281.071 4.61327 280.837 4.19727 280.527 3.85594C280.218 3.5146 279.845 3.25327 279.407 3.07194C278.97 2.8906 278.469 2.79994 277.903 2.79994H275.231L275.327 2.65594V10.8479ZM285.152 12.3359V3.93594H286.816V6.57594L286.656 5.93594C286.773 5.5306 286.971 5.1626 287.248 4.83194C287.536 4.50127 287.861 4.23994 288.224 4.04794C288.597 3.85594 288.981 3.75994 289.376 3.75994C289.557 3.75994 289.728 3.77594 289.888 3.80794C290.059 3.83994 290.192 3.87727 290.288 3.91994L289.856 5.71194C289.728 5.6586 289.584 5.61594 289.424 5.58394C289.275 5.54127 289.125 5.51994 288.976 5.51994C288.688 5.51994 288.411 5.5786 288.144 5.69594C287.888 5.8026 287.659 5.95727 287.456 6.15994C287.264 6.35194 287.109 6.58127 286.992 6.84794C286.875 7.10394 286.816 7.3866 286.816 7.69594V12.3359H285.152ZM291.877 12.3359V3.93594H293.525V12.3359H291.877ZM292.677 2.07994C292.325 2.07994 292.053 1.98927 291.861 1.80794C291.669 1.6266 291.573 1.3706 291.573 1.03994C291.573 0.730604 291.669 0.479937 291.861 0.287937C292.064 0.0959371 292.336 -6.29425e-05 292.677 -6.29425e-05C293.029 -6.29425e-05 293.301 0.0906038 293.493 0.271937C293.685 0.45327 293.781 0.70927 293.781 1.03994C293.781 1.34927 293.68 1.59994 293.477 1.79194C293.285 1.98394 293.018 2.07994 292.677 2.07994ZM298.81 12.3359L295.258 3.93594H297.034L299.594 10.2239L299.29 10.3679L302.026 3.93594H303.722L299.994 12.3359H298.81ZM308.916 12.4959C308.052 12.4959 307.284 12.3146 306.612 11.9519C305.95 11.5786 305.428 11.0719 305.044 10.4319C304.67 9.79194 304.484 9.05594 304.484 8.22394C304.484 7.5626 304.59 6.95994 304.804 6.41594C305.017 5.87194 305.31 5.4026 305.684 5.00794C306.068 4.6026 306.521 4.29327 307.044 4.07994C307.577 3.85594 308.153 3.74394 308.772 3.74394C309.316 3.74394 309.822 3.8506 310.292 4.06394C310.761 4.2666 311.166 4.54927 311.508 4.91194C311.86 5.2746 312.126 5.7066 312.308 6.20794C312.5 6.6986 312.59 7.23727 312.58 7.82394L312.564 8.52794H305.7L305.332 7.21594H311.14L310.9 7.48794V7.10394C310.868 6.75194 310.75 6.43727 310.548 6.15994C310.345 5.8826 310.089 5.66394 309.78 5.50394C309.47 5.34394 309.134 5.26394 308.772 5.26394C308.196 5.26394 307.71 5.37594 307.316 5.59994C306.921 5.81327 306.622 6.13327 306.42 6.55994C306.217 6.97594 306.116 7.49327 306.116 8.11194C306.116 8.6986 306.238 9.2106 306.484 9.64794C306.729 10.0746 307.076 10.4053 307.524 10.6399C307.972 10.8746 308.489 10.9919 309.076 10.9919C309.492 10.9919 309.876 10.9226 310.228 10.7839C310.59 10.6453 310.98 10.3946 311.396 10.0319L312.228 11.1999C311.972 11.4559 311.657 11.6799 311.284 11.8719C310.921 12.0639 310.532 12.2186 310.116 12.3359C309.71 12.4426 309.31 12.4959 308.916 12.4959Z" fill="white"/>
</svg>
