<svg width="340" height="16" viewBox="0 0 340 16" fill="none" xmlns="http://www.w3.org/2000/svg">
<path d="M1.568 12.3359V1.13594H5.952C6.752 1.13594 7.472 1.26927 8.112 1.53594C8.76267 1.8026 9.31733 2.1866 9.776 2.68794C10.2347 3.18927 10.5867 3.78127 10.832 4.46394C11.0773 5.1466 11.2 5.90394 11.2 6.73594C11.2 7.56794 11.0773 8.3306 10.832 9.02394C10.5867 9.7066 10.2347 10.2986 9.776 10.7999C9.328 11.2906 8.77867 11.6693 8.128 11.9359C7.47733 12.2026 6.752 12.3359 5.952 12.3359H1.568ZM3.296 10.8479L3.248 10.6719H5.872C6.43733 10.6719 6.93867 10.5813 7.376 10.3999C7.824 10.2186 8.19733 9.9626 8.496 9.63194C8.80533 9.2906 9.04 8.8746 9.2 8.38394C9.36 7.89327 9.44 7.34394 9.44 6.73594C9.44 6.12794 9.36 5.58394 9.2 5.10394C9.04 4.61327 8.80533 4.19727 8.496 3.85594C8.18667 3.5146 7.81333 3.25327 7.376 3.07194C6.93867 2.8906 6.43733 2.79994 5.872 2.79994H3.2L3.296 2.65594V10.8479ZM13.3928 12.3359V3.93594H15.0408V12.3359H13.3928ZM14.1928 2.07994C13.8408 2.07994 13.5688 1.98927 13.3768 1.80794C13.1848 1.6266 13.0888 1.3706 13.0888 1.03994C13.0888 0.730604 13.1848 0.479937 13.3768 0.287937C13.5794 0.0959371 13.8514 -6.29425e-05 14.1928 -6.29425e-05C14.5448 -6.29425e-05 14.8168 0.0906038 15.0088 0.271937C15.2008 0.45327 15.2968 0.70927 15.2968 1.03994C15.2968 1.34927 15.1954 1.59994 14.9928 1.79194C14.8008 1.98394 14.5341 2.07994 14.1928 2.07994ZM17.5419 12.3359V3.93594H19.2059V5.72794L18.9019 5.91994C18.9872 5.6426 19.1205 5.37594 19.3019 5.11994C19.4939 4.86394 19.7232 4.63994 19.9899 4.44794C20.2672 4.24527 20.5605 4.08527 20.8699 3.96794C21.1899 3.8506 21.5152 3.79194 21.8459 3.79194C22.3259 3.79194 22.7472 3.87194 23.1099 4.03194C23.4725 4.19194 23.7712 4.43194 24.0059 4.75194C24.2405 5.07194 24.4112 5.47194 24.5179 5.95194L24.2619 5.88794L24.3739 5.61594C24.4912 5.3706 24.6512 5.14127 24.8539 4.92794C25.0672 4.70394 25.3072 4.5066 25.5739 4.33594C25.8405 4.16527 26.1232 4.03194 26.4219 3.93594C26.7205 3.83994 27.0139 3.79194 27.3019 3.79194C27.9312 3.79194 28.4485 3.91994 28.8539 4.17594C29.2699 4.43194 29.5792 4.82127 29.7819 5.34394C29.9952 5.8666 30.1019 6.51727 30.1019 7.29594V12.3359H28.4379V7.39194C28.4379 6.91194 28.3739 6.5226 28.2459 6.22394C28.1285 5.9146 27.9472 5.68527 27.7019 5.53594C27.4565 5.3866 27.1419 5.31194 26.7579 5.31194C26.4592 5.31194 26.1765 5.36527 25.9099 5.47194C25.6539 5.56794 25.4299 5.7066 25.2379 5.88794C25.0459 6.06927 24.8965 6.2826 24.7899 6.52794C24.6832 6.7626 24.6299 7.02394 24.6299 7.31194V12.3359H22.9659V7.35994C22.9659 6.9226 22.9019 6.5546 22.7739 6.25594C22.6459 5.9466 22.4592 5.71194 22.2139 5.55194C21.9685 5.39194 21.6699 5.31194 21.3179 5.31194C21.0192 5.31194 20.7419 5.36527 20.4859 5.47194C20.2299 5.56794 20.0059 5.7066 19.8139 5.88794C19.6219 6.0586 19.4725 6.2666 19.3659 6.51194C19.2592 6.7466 19.2059 7.0026 19.2059 7.27994V12.3359H17.5419ZM36.2283 12.4959C35.3643 12.4959 34.5963 12.3146 33.9243 11.9519C33.2629 11.5786 32.7403 11.0719 32.3563 10.4319C31.9829 9.79194 31.7963 9.05594 31.7963 8.22394C31.7963 7.5626 31.9029 6.95994 32.1163 6.41594C32.3296 5.87194 32.6229 5.4026 32.9963 5.00794C33.3803 4.6026 33.8336 4.29327 34.3563 4.07994C34.8896 3.85594 35.4656 3.74394 36.0843 3.74394C36.6283 3.74394 37.1349 3.8506 37.6043 4.06394C38.0736 4.2666 38.4789 4.54927 38.8203 4.91194C39.1723 5.2746 39.4389 5.7066 39.6203 6.20794C39.8123 6.6986 39.9029 7.23727 39.8923 7.82394L39.8763 8.52794H33.0123L32.6443 7.21594H38.4523L38.2123 7.48794V7.10394C38.1803 6.75194 38.0629 6.43727 37.8603 6.15994C37.6576 5.8826 37.4016 5.66394 37.0923 5.50394C36.7829 5.34394 36.4469 5.26394 36.0843 5.26394C35.5083 5.26394 35.0229 5.37594 34.6283 5.59994C34.2336 5.81327 33.9349 6.13327 33.7323 6.55994C33.5296 6.97594 33.4283 7.49327 33.4283 8.11194C33.4283 8.6986 33.5509 9.2106 33.7963 9.64794C34.0416 10.0746 34.3883 10.4053 34.8363 10.6399C35.2843 10.8746 35.8016 10.9919 36.3883 10.9919C36.8043 10.9919 37.1883 10.9226 37.5403 10.7839C37.9029 10.6453 38.2923 10.3946 38.7083 10.0319L39.5403 11.1999C39.2843 11.4559 38.9696 11.6799 38.5963 11.8719C38.2336 12.0639 37.8443 12.2186 37.4283 12.3359C37.0229 12.4426 36.6229 12.4959 36.2283 12.4959ZM41.6833 12.3359V3.93594H43.3313V5.66394L43.0433 5.85594C43.1499 5.4826 43.3579 5.14127 43.6673 4.83194C43.9766 4.51194 44.3446 4.25594 44.7713 4.06394C45.1979 3.86127 45.6353 3.75994 46.0833 3.75994C46.7233 3.75994 47.2566 3.88794 47.6833 4.14394C48.1099 4.38927 48.4299 4.76794 48.6433 5.27994C48.8566 5.79194 48.9633 6.43727 48.9633 7.21594V12.3359H47.3153V7.32794C47.3153 6.84794 47.2513 6.45327 47.1233 6.14394C46.9953 5.82394 46.7979 5.5946 46.5313 5.45594C46.2646 5.3066 45.9339 5.2426 45.5393 5.26394C45.2193 5.26394 44.9259 5.31727 44.6593 5.42394C44.3926 5.51994 44.1579 5.6586 43.9553 5.83994C43.7633 6.02127 43.6086 6.2346 43.4913 6.47994C43.3846 6.7146 43.3313 6.9706 43.3313 7.24794V12.3359H42.5153C42.3766 12.3359 42.2379 12.3359 42.0993 12.3359C41.9606 12.3359 41.8219 12.3359 41.6833 12.3359ZM53.9989 12.4959C53.2949 12.4959 52.6602 12.3733 52.0949 12.1279C51.5295 11.8826 51.0602 11.5199 50.6869 11.0399L51.8069 10.0799C52.1269 10.4533 52.4735 10.7253 52.8469 10.8959C53.2309 11.0559 53.6629 11.1359 54.1429 11.1359C54.3349 11.1359 54.5109 11.1146 54.6709 11.0719C54.8415 11.0186 54.9855 10.9439 55.1029 10.8479C55.2309 10.7519 55.3269 10.6399 55.3909 10.5119C55.4549 10.3733 55.4869 10.2239 55.4869 10.0639C55.4869 9.7866 55.3855 9.5626 55.1829 9.39194C55.0762 9.31727 54.9055 9.23727 54.6709 9.15194C54.4469 9.05594 54.1535 8.95994 53.7909 8.86394C53.1722 8.70394 52.6655 8.5226 52.2709 8.31994C51.8762 8.11727 51.5722 7.88794 51.3589 7.63194C51.1989 7.42927 51.0815 7.2106 51.0069 6.97594C50.9322 6.7306 50.8949 6.46394 50.8949 6.17594C50.8949 5.82394 50.9695 5.50394 51.1189 5.21594C51.2789 4.91727 51.4922 4.66127 51.7589 4.44794C52.0362 4.22394 52.3562 4.05327 52.7189 3.93594C53.0922 3.8186 53.4869 3.75994 53.9029 3.75994C54.2975 3.75994 54.6869 3.81327 55.0709 3.91994C55.4655 4.0266 55.8282 4.18127 56.1589 4.38394C56.4895 4.5866 56.7669 4.8266 56.9909 5.10394L56.0469 6.14394C55.8442 5.94127 55.6202 5.76527 55.3749 5.61594C55.1402 5.45594 54.9002 5.33327 54.6549 5.24794C54.4095 5.1626 54.1855 5.11994 53.9829 5.11994C53.7589 5.11994 53.5562 5.14127 53.3749 5.18394C53.1935 5.2266 53.0389 5.2906 52.9109 5.37594C52.7935 5.46127 52.7029 5.56794 52.6389 5.69594C52.5749 5.82394 52.5429 5.96794 52.5429 6.12794C52.5535 6.2666 52.5855 6.39994 52.6389 6.52794C52.7029 6.64527 52.7882 6.7466 52.8949 6.83194C53.0122 6.91727 53.1882 7.00794 53.4229 7.10394C53.6575 7.19994 53.9562 7.2906 54.3189 7.37594C54.8522 7.5146 55.2895 7.66927 55.6309 7.83994C55.9829 7.99994 56.2602 8.1866 56.4629 8.39994C56.6762 8.6026 56.8255 8.83727 56.9109 9.10394C56.9962 9.3706 57.0389 9.66927 57.0389 9.99994C57.0389 10.4799 56.9002 10.9119 56.6229 11.2959C56.3562 11.6693 55.9935 11.9626 55.5349 12.1759C55.0762 12.3893 54.5642 12.4959 53.9989 12.4959ZM59.1271 12.3359V3.93594H60.7751V12.3359H59.1271ZM59.9271 2.07994C59.5751 2.07994 59.3031 1.98927 59.1111 1.80794C58.9191 1.6266 58.8231 1.3706 58.8231 1.03994C58.8231 0.730604 58.9191 0.479937 59.1111 0.287937C59.3138 0.0959371 59.5858 -6.29425e-05 59.9271 -6.29425e-05C60.2791 -6.29425e-05 60.5511 0.0906038 60.7431 0.271937C60.9351 0.45327 61.0311 0.70927 61.0311 1.03994C61.0311 1.34927 60.9298 1.59994 60.7271 1.79194C60.5351 1.98394 60.2685 2.07994 59.9271 2.07994ZM67.0843 12.4959C66.2629 12.4959 65.5269 12.3093 64.8763 11.9359C64.2363 11.5519 63.7296 11.0346 63.3563 10.3839C62.9829 9.7226 62.7963 8.9706 62.7963 8.12794C62.7963 7.28527 62.9829 6.5386 63.3563 5.88794C63.7296 5.2266 64.2363 4.70927 64.8763 4.33594C65.5269 3.95194 66.2629 3.75994 67.0843 3.75994C67.8949 3.75994 68.6203 3.95194 69.2603 4.33594C69.9109 4.70927 70.4229 5.2266 70.7963 5.88794C71.1696 6.5386 71.3563 7.28527 71.3563 8.12794C71.3563 8.9706 71.1696 9.7226 70.7963 10.3839C70.4229 11.0346 69.9109 11.5519 69.2603 11.9359C68.6203 12.3093 67.8949 12.4959 67.0843 12.4959ZM67.0843 10.9919C67.5856 10.9919 68.0336 10.8693 68.4283 10.6239C68.8229 10.3679 69.1323 10.0266 69.3563 9.59994C69.5803 9.1626 69.6869 8.67194 69.6763 8.12794C69.6869 7.57327 69.5803 7.0826 69.3563 6.65594C69.1323 6.2186 68.8229 5.87727 68.4283 5.63194C68.0336 5.3866 67.5856 5.26394 67.0843 5.26394C66.5829 5.26394 66.1296 5.39194 65.7243 5.64794C65.3296 5.89327 65.0203 6.2346 64.7963 6.67194C64.5723 7.0986 64.4656 7.58394 64.4763 8.12794C64.4656 8.67194 64.5723 9.1626 64.7963 9.59994C65.0203 10.0266 65.3296 10.3679 65.7243 10.6239C66.1296 10.8693 66.5829 10.9919 67.0843 10.9919ZM73.152 12.3359V3.93594H74.8V5.66394L74.512 5.85594C74.6187 5.4826 74.8267 5.14127 75.136 4.83194C75.4453 4.51194 75.8133 4.25594 76.24 4.06394C76.6667 3.86127 77.104 3.75994 77.552 3.75994C78.192 3.75994 78.7253 3.88794 79.152 4.14394C79.5787 4.38927 79.8987 4.76794 80.112 5.27994C80.3253 5.79194 80.432 6.43727 80.432 7.21594V12.3359H78.784V7.32794C78.784 6.84794 78.72 6.45327 78.592 6.14394C78.464 5.82394 78.2667 5.5946 78 5.45594C77.7333 5.3066 77.4027 5.2426 77.008 5.26394C76.688 5.26394 76.3947 5.31727 76.128 5.42394C75.8613 5.51994 75.6267 5.6586 75.424 5.83994C75.232 6.02127 75.0773 6.2346 74.96 6.47994C74.8533 6.7146 74.8 6.9706 74.8 7.24794V12.3359H73.984C73.8453 12.3359 73.7067 12.3359 73.568 12.3359C73.4293 12.3359 73.2907 12.3359 73.152 12.3359ZM85.4676 12.4959C84.7636 12.4959 84.129 12.3733 83.5636 12.1279C82.9983 11.8826 82.529 11.5199 82.1556 11.0399L83.2756 10.0799C83.5956 10.4533 83.9423 10.7253 84.3156 10.8959C84.6996 11.0559 85.1316 11.1359 85.6116 11.1359C85.8036 11.1359 85.9796 11.1146 86.1396 11.0719C86.3103 11.0186 86.4543 10.9439 86.5716 10.8479C86.6996 10.7519 86.7956 10.6399 86.8596 10.5119C86.9236 10.3733 86.9556 10.2239 86.9556 10.0639C86.9556 9.7866 86.8543 9.5626 86.6516 9.39194C86.545 9.31727 86.3743 9.23727 86.1396 9.15194C85.9156 9.05594 85.6223 8.95994 85.2596 8.86394C84.641 8.70394 84.1343 8.5226 83.7396 8.31994C83.345 8.11727 83.041 7.88794 82.8276 7.63194C82.6676 7.42927 82.5503 7.2106 82.4756 6.97594C82.401 6.7306 82.3636 6.46394 82.3636 6.17594C82.3636 5.82394 82.4383 5.50394 82.5876 5.21594C82.7476 4.91727 82.961 4.66127 83.2276 4.44794C83.505 4.22394 83.825 4.05327 84.1876 3.93594C84.561 3.8186 84.9556 3.75994 85.3716 3.75994C85.7663 3.75994 86.1556 3.81327 86.5396 3.91994C86.9343 4.0266 87.297 4.18127 87.6276 4.38394C87.9583 4.5866 88.2356 4.8266 88.4596 5.10394L87.5156 6.14394C87.313 5.94127 87.089 5.76527 86.8436 5.61594C86.609 5.45594 86.369 5.33327 86.1236 5.24794C85.8783 5.1626 85.6543 5.11994 85.4516 5.11994C85.2276 5.11994 85.025 5.14127 84.8436 5.18394C84.6623 5.2266 84.5076 5.2906 84.3796 5.37594C84.2623 5.46127 84.1716 5.56794 84.1076 5.69594C84.0436 5.82394 84.0116 5.96794 84.0116 6.12794C84.0223 6.2666 84.0543 6.39994 84.1076 6.52794C84.1716 6.64527 84.257 6.7466 84.3636 6.83194C84.481 6.91727 84.657 7.00794 84.8916 7.10394C85.1263 7.19994 85.425 7.2906 85.7876 7.37594C86.321 7.5146 86.7583 7.66927 87.0996 7.83994C87.4516 7.99994 87.729 8.1866 87.9316 8.39994C88.145 8.6026 88.2943 8.83727 88.3796 9.10394C88.465 9.3706 88.5076 9.66927 88.5076 9.99994C88.5076 10.4799 88.369 10.9119 88.0916 11.2959C87.825 11.6693 87.4623 11.9626 87.0036 12.1759C86.545 12.3893 86.033 12.4959 85.4676 12.4959ZM95.2243 12.3359V1.13594H99.6083C100.408 1.13594 101.128 1.26927 101.768 1.53594C102.419 1.8026 102.974 2.1866 103.432 2.68794C103.891 3.18927 104.243 3.78127 104.488 4.46394C104.734 5.1466 104.856 5.90394 104.856 6.73594C104.856 7.56794 104.734 8.3306 104.488 9.02394C104.243 9.7066 103.891 10.2986 103.432 10.7999C102.984 11.2906 102.435 11.6693 101.784 11.9359C101.134 12.2026 100.408 12.3359 99.6083 12.3359H95.2243ZM96.9523 10.8479L96.9043 10.6719H99.5283C100.094 10.6719 100.595 10.5813 101.032 10.3999C101.48 10.2186 101.854 9.9626 102.152 9.63194C102.462 9.2906 102.696 8.8746 102.856 8.38394C103.016 7.89327 103.096 7.34394 103.096 6.73594C103.096 6.12794 103.016 5.58394 102.856 5.10394C102.696 4.61327 102.462 4.19727 102.152 3.85594C101.843 3.5146 101.47 3.25327 101.032 3.07194C100.595 2.8906 100.094 2.79994 99.5283 2.79994H96.8563L96.9523 2.65594V10.8479ZM108.837 12.3359V2.79994H105.701V1.13594H113.797V2.79994H110.565V12.3359H108.837ZM123.868 12.4959C123.26 12.4959 122.694 12.4159 122.172 12.2559C121.66 12.0959 121.19 11.8559 120.764 11.5359C120.348 11.2053 119.974 10.7999 119.644 10.3199L120.828 8.95994C121.35 9.7066 121.852 10.2239 122.332 10.5119C122.812 10.7999 123.382 10.9439 124.044 10.9439C124.449 10.9439 124.817 10.8799 125.148 10.7519C125.478 10.6239 125.74 10.4479 125.932 10.2239C126.124 9.99994 126.22 9.74394 126.22 9.45594C126.22 9.26394 126.188 9.0826 126.124 8.91194C126.06 8.74127 125.958 8.5866 125.82 8.44794C125.692 8.30927 125.521 8.18127 125.308 8.06394C125.105 7.9466 124.865 7.84527 124.588 7.75994C124.31 7.66394 123.99 7.58394 123.628 7.51994C123.052 7.4026 122.55 7.24794 122.124 7.05594C121.697 6.86394 121.34 6.62394 121.052 6.33594C120.764 6.04794 120.55 5.7226 120.412 5.35994C120.273 4.9866 120.204 4.5706 120.204 4.11194C120.204 3.66394 120.3 3.24794 120.492 2.86394C120.694 2.47994 120.966 2.14927 121.308 1.87194C121.66 1.58394 122.07 1.36527 122.54 1.21594C123.009 1.05594 123.516 0.975937 124.06 0.975937C124.636 0.975937 125.164 1.0506 125.644 1.19994C126.124 1.34927 126.55 1.57327 126.924 1.87194C127.297 2.15994 127.606 2.51727 127.852 2.94394L126.636 4.14394C126.422 3.79194 126.182 3.4986 125.916 3.26394C125.649 3.0186 125.356 2.83727 125.036 2.71994C124.716 2.59194 124.374 2.52794 124.012 2.52794C123.596 2.52794 123.233 2.59194 122.924 2.71994C122.614 2.84794 122.369 3.02927 122.188 3.26394C122.017 3.48794 121.932 3.7546 121.932 4.06394C121.932 4.28794 121.974 4.49594 122.06 4.68794C122.145 4.86927 122.273 5.0346 122.444 5.18394C122.625 5.3226 122.865 5.4506 123.164 5.56794C123.462 5.6746 123.82 5.7706 124.236 5.85594C124.822 5.98394 125.345 6.14927 125.804 6.35194C126.262 6.54394 126.652 6.77327 126.972 7.03994C127.292 7.3066 127.532 7.60527 127.692 7.93594C127.862 8.2666 127.948 8.62394 127.948 9.00794C127.948 9.7226 127.782 10.3413 127.452 10.8639C127.121 11.3866 126.652 11.7919 126.044 12.0799C125.436 12.3573 124.71 12.4959 123.868 12.4959ZM130.396 12.3359V1.13594H134.78C135.58 1.13594 136.3 1.26927 136.94 1.53594C137.591 1.8026 138.145 2.1866 138.604 2.68794C139.063 3.18927 139.415 3.78127 139.66 4.46394C139.905 5.1466 140.028 5.90394 140.028 6.73594C140.028 7.56794 139.905 8.3306 139.66 9.02394C139.415 9.7066 139.063 10.2986 138.604 10.7999C138.156 11.2906 137.607 11.6693 136.956 11.9359C136.305 12.2026 135.58 12.3359 134.78 12.3359H130.396ZM132.124 10.8479L132.076 10.6719H134.7C135.265 10.6719 135.767 10.5813 136.204 10.3999C136.652 10.2186 137.025 9.9626 137.324 9.63194C137.633 9.2906 137.868 8.8746 138.028 8.38394C138.188 7.89327 138.268 7.34394 138.268 6.73594C138.268 6.12794 138.188 5.58394 138.028 5.10394C137.868 4.61327 137.633 4.19727 137.324 3.85594C137.015 3.5146 136.641 3.25327 136.204 3.07194C135.767 2.8906 135.265 2.79994 134.7 2.79994H132.028L132.124 2.65594V10.8479ZM146.849 12.3359V1.13594H151.233C152.033 1.13594 152.753 1.26927 153.393 1.53594C154.044 1.8026 154.599 2.1866 155.057 2.68794C155.516 3.18927 155.868 3.78127 156.113 4.46394C156.359 5.1466 156.481 5.90394 156.481 6.73594C156.481 7.56794 156.359 8.3306 156.113 9.02394C155.868 9.7066 155.516 10.2986 155.057 10.7999C154.609 11.2906 154.06 11.6693 153.409 11.9359C152.759 12.2026 152.033 12.3359 151.233 12.3359H146.849ZM148.577 10.8479L148.529 10.6719H151.153C151.719 10.6719 152.22 10.5813 152.657 10.3999C153.105 10.2186 153.479 9.9626 153.777 9.63194C154.087 9.2906 154.321 8.8746 154.481 8.38394C154.641 7.89327 154.721 7.34394 154.721 6.73594C154.721 6.12794 154.641 5.58394 154.481 5.10394C154.321 4.61327 154.087 4.19727 153.777 3.85594C153.468 3.5146 153.095 3.25327 152.657 3.07194C152.22 2.8906 151.719 2.79994 151.153 2.79994H148.481L148.577 2.65594V10.8479ZM158.674 12.3359V3.93594H160.322V12.3359H158.674ZM159.474 2.07994C159.122 2.07994 158.85 1.98927 158.658 1.80794C158.466 1.6266 158.37 1.3706 158.37 1.03994C158.37 0.730604 158.466 0.479937 158.658 0.287937C158.861 0.0959371 159.133 -6.29425e-05 159.474 -6.29425e-05C159.826 -6.29425e-05 160.098 0.0906038 160.29 0.271937C160.482 0.45327 160.578 0.70927 160.578 1.03994C160.578 1.34927 160.477 1.59994 160.274 1.79194C160.082 1.98394 159.815 2.07994 159.474 2.07994ZM162.855 12.3359V3.93594H164.519V6.57594L164.359 5.93594C164.476 5.5306 164.674 5.1626 164.951 4.83194C165.239 4.50127 165.564 4.23994 165.927 4.04794C166.3 3.85594 166.684 3.75994 167.079 3.75994C167.26 3.75994 167.431 3.77594 167.591 3.80794C167.762 3.83994 167.895 3.87727 167.991 3.91994L167.559 5.71194C167.431 5.6586 167.287 5.61594 167.127 5.58394C166.978 5.54127 166.828 5.51994 166.679 5.51994C166.391 5.51994 166.114 5.5786 165.847 5.69594C165.591 5.8026 165.362 5.95727 165.159 6.15994C164.967 6.35194 164.812 6.58127 164.695 6.84794C164.578 7.10394 164.519 7.3866 164.519 7.69594V12.3359H162.855ZM172.869 12.4959C172.005 12.4959 171.237 12.3146 170.565 11.9519C169.904 11.5786 169.381 11.0719 168.997 10.4319C168.624 9.79194 168.437 9.05594 168.437 8.22394C168.437 7.5626 168.544 6.95994 168.757 6.41594C168.97 5.87194 169.264 5.4026 169.637 5.00794C170.021 4.6026 170.474 4.29327 170.997 4.07994C171.53 3.85594 172.106 3.74394 172.725 3.74394C173.269 3.74394 173.776 3.8506 174.245 4.06394C174.714 4.2666 175.12 4.54927 175.461 4.91194C175.813 5.2746 176.08 5.7066 176.261 6.20794C176.453 6.6986 176.544 7.23727 176.533 7.82394L176.517 8.52794H169.653L169.285 7.21594H175.093L174.853 7.48794V7.10394C174.821 6.75194 174.704 6.43727 174.501 6.15994C174.298 5.8826 174.042 5.66394 173.733 5.50394C173.424 5.34394 173.088 5.26394 172.725 5.26394C172.149 5.26394 171.664 5.37594 171.269 5.59994C170.874 5.81327 170.576 6.13327 170.373 6.55994C170.17 6.97594 170.069 7.49327 170.069 8.11194C170.069 8.6986 170.192 9.2106 170.437 9.64794C170.682 10.0746 171.029 10.4053 171.477 10.6399C171.925 10.8746 172.442 10.9919 173.029 10.9919C173.445 10.9919 173.829 10.9226 174.181 10.7839C174.544 10.6453 174.933 10.3946 175.349 10.0319L176.181 11.1999C175.925 11.4559 175.61 11.6799 175.237 11.8719C174.874 12.0639 174.485 12.2186 174.069 12.3359C173.664 12.4426 173.264 12.4959 172.869 12.4959ZM181.892 12.4959C181.113 12.4959 180.415 12.3039 179.796 11.9199C179.188 11.5359 178.703 11.0133 178.34 10.3519C177.988 9.6906 177.812 8.94927 177.812 8.12794C177.812 7.3066 177.988 6.56527 178.34 5.90394C178.703 5.2426 179.188 4.71994 179.796 4.33594C180.415 3.95194 181.113 3.75994 181.892 3.75994C182.639 3.75994 183.316 3.9146 183.924 4.22394C184.543 4.5226 185.012 4.93327 185.332 5.45594L184.42 6.57594C184.249 6.3306 184.031 6.1066 183.764 5.90394C183.497 5.70127 183.215 5.54127 182.916 5.42394C182.617 5.3066 182.329 5.24794 182.052 5.24794C181.54 5.24794 181.081 5.37594 180.676 5.63194C180.281 5.87727 179.967 6.2186 179.732 6.65594C179.497 7.09327 179.38 7.58394 179.38 8.12794C179.38 8.67194 179.503 9.1626 179.748 9.59994C179.993 10.0266 180.319 10.3679 180.724 10.6239C181.129 10.8799 181.577 11.0079 182.068 11.0079C182.356 11.0079 182.633 10.9599 182.9 10.8639C183.177 10.7679 183.444 10.6239 183.7 10.4319C183.956 10.2399 184.196 10.0053 184.42 9.72794L185.332 10.8479C184.991 11.3279 184.5 11.7226 183.86 12.0319C183.231 12.3413 182.575 12.4959 181.892 12.4959ZM187.926 12.3359V1.79194H189.574V12.3359H187.926ZM186.182 5.53594V3.93594H191.526V5.53594H186.182ZM197.927 12.3359V1.13594H202.311C203.111 1.13594 203.831 1.26927 204.471 1.53594C205.122 1.8026 205.677 2.1866 206.135 2.68794C206.594 3.18927 206.946 3.78127 207.191 4.46394C207.437 5.1466 207.559 5.90394 207.559 6.73594C207.559 7.56794 207.437 8.3306 207.191 9.02394C206.946 9.7066 206.594 10.2986 206.135 10.7999C205.687 11.2906 205.138 11.6693 204.487 11.9359C203.837 12.2026 203.111 12.3359 202.311 12.3359H197.927ZM199.655 10.8479L199.607 10.6719H202.231C202.797 10.6719 203.298 10.5813 203.735 10.3999C204.183 10.2186 204.557 9.9626 204.855 9.63194C205.165 9.2906 205.399 8.8746 205.559 8.38394C205.719 7.89327 205.799 7.34394 205.799 6.73594C205.799 6.12794 205.719 5.58394 205.559 5.10394C205.399 4.61327 205.165 4.19727 204.855 3.85594C204.546 3.5146 204.173 3.25327 203.735 3.07194C203.298 2.8906 202.797 2.79994 202.231 2.79994H199.559L199.655 2.65594V10.8479ZM209.48 12.3359V3.93594H211.144V6.57594L210.984 5.93594C211.101 5.5306 211.299 5.1626 211.576 4.83194C211.864 4.50127 212.189 4.23994 212.552 4.04794C212.925 3.85594 213.309 3.75994 213.704 3.75994C213.885 3.75994 214.056 3.77594 214.216 3.80794C214.387 3.83994 214.52 3.87727 214.616 3.91994L214.184 5.71194C214.056 5.6586 213.912 5.61594 213.752 5.58394C213.603 5.54127 213.453 5.51994 213.304 5.51994C213.016 5.51994 212.739 5.5786 212.472 5.69594C212.216 5.8026 211.987 5.95727 211.784 6.15994C211.592 6.35194 211.437 6.58127 211.32 6.84794C211.203 7.10394 211.144 7.3866 211.144 7.69594V12.3359H209.48ZM216.205 12.3359V3.93594H217.853V12.3359H216.205ZM217.005 2.07994C216.653 2.07994 216.381 1.98927 216.189 1.80794C215.997 1.6266 215.901 1.3706 215.901 1.03994C215.901 0.730604 215.997 0.479937 216.189 0.287937C216.392 0.0959371 216.664 -6.29425e-05 217.005 -6.29425e-05C217.357 -6.29425e-05 217.629 0.0906038 217.821 0.271937C218.013 0.45327 218.109 0.70927 218.109 1.03994C218.109 1.34927 218.008 1.59994 217.805 1.79194C217.613 1.98394 217.347 2.07994 217.005 2.07994ZM223.138 12.3359L219.586 3.93594H221.362L223.922 10.2239L223.618 10.3679L226.354 3.93594H228.05L224.322 12.3359H223.138ZM233.244 12.4959C232.38 12.4959 231.612 12.3146 230.94 11.9519C230.279 11.5786 229.756 11.0719 229.372 10.4319C228.999 9.79194 228.812 9.05594 228.812 8.22394C228.812 7.5626 228.919 6.95994 229.132 6.41594C229.345 5.87194 229.639 5.4026 230.012 5.00794C230.396 4.6026 230.849 4.29327 231.372 4.07994C231.905 3.85594 232.481 3.74394 233.1 3.74394C233.644 3.74394 234.151 3.8506 234.62 4.06394C235.089 4.2666 235.495 4.54927 235.836 4.91194C236.188 5.2746 236.455 5.7066 236.636 6.20794C236.828 6.6986 236.919 7.23727 236.908 7.82394L236.892 8.52794H230.028L229.66 7.21594H235.468L235.228 7.48794V7.10394C235.196 6.75194 235.079 6.43727 234.876 6.15994C234.673 5.8826 234.417 5.66394 234.108 5.50394C233.799 5.34394 233.463 5.26394 233.1 5.26394C232.524 5.26394 232.039 5.37594 231.644 5.59994C231.249 5.81327 230.951 6.13327 230.748 6.55994C230.545 6.97594 230.444 7.49327 230.444 8.11194C230.444 8.6986 230.567 9.2106 230.812 9.64794C231.057 10.0746 231.404 10.4053 231.852 10.6399C232.3 10.8746 232.817 10.9919 233.404 10.9919C233.82 10.9919 234.204 10.9226 234.556 10.7839C234.919 10.6453 235.308 10.3946 235.724 10.0319L236.556 11.1999C236.3 11.4559 235.985 11.6799 235.612 11.8719C235.249 12.0639 234.86 12.2186 234.444 12.3359C234.039 12.4426 233.639 12.4959 233.244 12.4959ZM246.671 15.3119C245.37 14.5013 244.378 13.4879 243.695 12.2719C243.013 11.0559 242.671 9.70127 242.671 8.20794C242.671 6.72527 243.013 5.37594 243.695 4.15994C244.389 2.93327 245.386 1.9146 246.687 1.10394L247.567 2.09594C246.479 2.85327 245.647 3.75994 245.071 4.81594C244.506 5.86127 244.223 6.99194 244.223 8.20794C244.223 9.42394 244.506 10.5599 245.071 11.6159C245.647 12.6613 246.479 13.5626 247.567 14.3199L246.671 15.3119ZM252.915 12.4959C252.307 12.4959 251.741 12.4159 251.219 12.2559C250.707 12.0959 250.237 11.8559 249.811 11.5359C249.395 11.2053 249.021 10.7999 248.691 10.3199L249.875 8.95994C250.397 9.7066 250.899 10.2239 251.379 10.5119C251.859 10.7999 252.429 10.9439 253.091 10.9439C253.496 10.9439 253.864 10.8799 254.195 10.7519C254.525 10.6239 254.787 10.4479 254.979 10.2239C255.171 9.99994 255.267 9.74394 255.267 9.45594C255.267 9.26394 255.235 9.0826 255.171 8.91194C255.107 8.74127 255.005 8.5866 254.867 8.44794C254.739 8.30927 254.568 8.18127 254.355 8.06394C254.152 7.9466 253.912 7.84527 253.635 7.75994C253.357 7.66394 253.037 7.58394 252.675 7.51994C252.099 7.4026 251.597 7.24794 251.171 7.05594C250.744 6.86394 250.387 6.62394 250.099 6.33594C249.811 6.04794 249.597 5.7226 249.459 5.35994C249.32 4.9866 249.251 4.5706 249.251 4.11194C249.251 3.66394 249.347 3.24794 249.539 2.86394C249.741 2.47994 250.013 2.14927 250.355 1.87194C250.707 1.58394 251.117 1.36527 251.587 1.21594C252.056 1.05594 252.563 0.975937 253.107 0.975937C253.683 0.975937 254.211 1.0506 254.691 1.19994C255.171 1.34927 255.597 1.57327 255.971 1.87194C256.344 2.15994 256.653 2.51727 256.899 2.94394L255.683 4.14394C255.469 3.79194 255.229 3.4986 254.963 3.26394C254.696 3.0186 254.403 2.83727 254.083 2.71994C253.763 2.59194 253.421 2.52794 253.059 2.52794C252.643 2.52794 252.28 2.59194 251.971 2.71994C251.661 2.84794 251.416 3.02927 251.235 3.26394C251.064 3.48794 250.979 3.7546 250.979 4.06394C250.979 4.28794 251.021 4.49594 251.107 4.68794C251.192 4.86927 251.32 5.0346 251.491 5.18394C251.672 5.3226 251.912 5.4506 252.211 5.56794C252.509 5.6746 252.867 5.7706 253.283 5.85594C253.869 5.98394 254.392 6.14927 254.851 6.35194C255.309 6.54394 255.699 6.77327 256.019 7.03994C256.339 7.3066 256.579 7.60527 256.739 7.93594C256.909 8.2666 256.995 8.62394 256.995 9.00794C256.995 9.7226 256.829 10.3413 256.499 10.8639C256.168 11.3866 255.699 11.7919 255.091 12.0799C254.483 12.3573 253.757 12.4959 252.915 12.4959ZM259.443 12.3359V1.13594H266.499V2.79994H261.171V10.6719H266.499V12.3359H259.443ZM260.227 7.42394V5.75994H265.619V7.42394H260.227ZM271.655 12.3359L268.087 1.13594H269.927L272.087 8.14394C272.151 8.3146 272.21 8.51727 272.263 8.75194C272.316 8.97594 272.364 9.20527 272.407 9.43994C272.45 9.6746 272.487 9.89327 272.519 10.0959C272.562 10.2986 272.599 10.4639 272.631 10.5919L272.167 10.5759C272.327 10.0106 272.45 9.57327 272.535 9.26394C272.631 8.9546 272.706 8.71994 272.759 8.55994C272.812 8.38927 272.86 8.24527 272.903 8.12794L274.919 3.07194H276.471L278.423 8.12794C278.53 8.38394 278.62 8.63994 278.695 8.89594C278.78 9.14127 278.855 9.39194 278.919 9.64794C278.983 9.89327 279.052 10.1546 279.127 10.4319L278.711 10.5439C278.764 10.2559 278.802 10.0319 278.823 9.87194C278.855 9.70127 278.882 9.5626 278.903 9.45594C278.924 9.34927 278.946 9.24794 278.967 9.15194C278.988 9.04527 279.02 8.91194 279.063 8.75194C279.116 8.59194 279.186 8.37327 279.271 8.09594L281.399 1.13594H283.255L279.687 12.3359H278.487L275.527 5.32794L275.671 5.39194L272.823 12.3359H271.655ZM284.841 15.3119L283.961 14.3199C285.049 13.5626 285.875 12.6613 286.441 11.6159C287.017 10.5599 287.305 9.42394 287.305 8.20794C287.305 6.99194 287.017 5.86127 286.441 4.81594C285.875 3.75994 285.049 2.85327 283.961 2.09594L284.857 1.10394C286.158 1.9146 287.15 2.92794 287.833 4.14394C288.515 5.35994 288.857 6.7146 288.857 8.20794C288.857 9.6906 288.51 11.0453 287.817 12.2719C287.134 13.4879 286.142 14.5013 284.841 15.3119Z" fill="white"/>
</svg>
