<svg width="340" height="16" viewBox="0 0 340 16" fill="none" xmlns="http://www.w3.org/2000/svg">
<path d="M1.568 12.3359V1.13594H5.952C6.752 1.13594 7.472 1.26927 8.112 1.53594C8.76267 1.8026 9.31733 2.1866 9.776 2.68794C10.2347 3.18927 10.5867 3.78127 10.832 4.46394C11.0773 5.1466 11.2 5.90394 11.2 6.73594C11.2 7.56794 11.0773 8.3306 10.832 9.02394C10.5867 9.7066 10.2347 10.2986 9.776 10.7999C9.328 11.2906 8.77867 11.6693 8.128 11.9359C7.47733 12.2026 6.752 12.3359 5.952 12.3359H1.568ZM3.296 10.8479L3.248 10.6719H5.872C6.43733 10.6719 6.93867 10.5813 7.376 10.3999C7.824 10.2186 8.19733 9.9626 8.496 9.63194C8.80533 9.2906 9.04 8.8746 9.2 8.38394C9.36 7.89327 9.44 7.34394 9.44 6.73594C9.44 6.12794 9.36 5.58394 9.2 5.10394C9.04 4.61327 8.80533 4.19727 8.496 3.85594C8.18667 3.5146 7.81333 3.25327 7.376 3.07194C6.93867 2.8906 6.43733 2.79994 5.872 2.79994H3.2L3.296 2.65594V10.8479ZM13.3928 12.3359V3.93594H15.0408V12.3359H13.3928ZM14.1928 2.07994C13.8408 2.07994 13.5688 1.98927 13.3768 1.80794C13.1848 1.6266 13.0888 1.3706 13.0888 1.03994C13.0888 0.730604 13.1848 0.479937 13.3768 0.287937C13.5794 0.0959371 13.8514 -6.29425e-05 14.1928 -6.29425e-05C14.5448 -6.29425e-05 14.8168 0.0906038 15.0088 0.271937C15.2008 0.45327 15.2968 0.70927 15.2968 1.03994C15.2968 1.34927 15.1954 1.59994 14.9928 1.79194C14.8008 1.98394 14.5341 2.07994 14.1928 2.07994ZM17.5419 12.3359V3.93594H19.2059V5.72794L18.9019 5.91994C18.9872 5.6426 19.1205 5.37594 19.3019 5.11994C19.4939 4.86394 19.7232 4.63994 19.9899 4.44794C20.2672 4.24527 20.5605 4.08527 20.8699 3.96794C21.1899 3.8506 21.5152 3.79194 21.8459 3.79194C22.3259 3.79194 22.7472 3.87194 23.1099 4.03194C23.4725 4.19194 23.7712 4.43194 24.0059 4.75194C24.2405 5.07194 24.4112 5.47194 24.5179 5.95194L24.2619 5.88794L24.3739 5.61594C24.4912 5.3706 24.6512 5.14127 24.8539 4.92794C25.0672 4.70394 25.3072 4.5066 25.5739 4.33594C25.8405 4.16527 26.1232 4.03194 26.4219 3.93594C26.7205 3.83994 27.0139 3.79194 27.3019 3.79194C27.9312 3.79194 28.4485 3.91994 28.8539 4.17594C29.2699 4.43194 29.5792 4.82127 29.7819 5.34394C29.9952 5.8666 30.1019 6.51727 30.1019 7.29594V12.3359H28.4379V7.39194C28.4379 6.91194 28.3739 6.5226 28.2459 6.22394C28.1285 5.9146 27.9472 5.68527 27.7019 5.53594C27.4565 5.3866 27.1419 5.31194 26.7579 5.31194C26.4592 5.31194 26.1765 5.36527 25.9099 5.47194C25.6539 5.56794 25.4299 5.7066 25.2379 5.88794C25.0459 6.06927 24.8965 6.2826 24.7899 6.52794C24.6832 6.7626 24.6299 7.02394 24.6299 7.31194V12.3359H22.9659V7.35994C22.9659 6.9226 22.9019 6.5546 22.7739 6.25594C22.6459 5.9466 22.4592 5.71194 22.2139 5.55194C21.9685 5.39194 21.6699 5.31194 21.3179 5.31194C21.0192 5.31194 20.7419 5.36527 20.4859 5.47194C20.2299 5.56794 20.0059 5.7066 19.8139 5.88794C19.6219 6.0586 19.4725 6.2666 19.3659 6.51194C19.2592 6.7466 19.2059 7.0026 19.2059 7.27994V12.3359H17.5419ZM36.2283 12.4959C35.3643 12.4959 34.5963 12.3146 33.9243 11.9519C33.2629 11.5786 32.7403 11.0719 32.3563 10.4319C31.9829 9.79194 31.7963 9.05594 31.7963 8.22394C31.7963 7.5626 31.9029 6.95994 32.1163 6.41594C32.3296 5.87194 32.6229 5.4026 32.9963 5.00794C33.3803 4.6026 33.8336 4.29327 34.3563 4.07994C34.8896 3.85594 35.4656 3.74394 36.0843 3.74394C36.6283 3.74394 37.1349 3.8506 37.6043 4.06394C38.0736 4.2666 38.4789 4.54927 38.8203 4.91194C39.1723 5.2746 39.4389 5.7066 39.6203 6.20794C39.8123 6.6986 39.9029 7.23727 39.8923 7.82394L39.8763 8.52794H33.0123L32.6443 7.21594H38.4523L38.2123 7.48794V7.10394C38.1803 6.75194 38.0629 6.43727 37.8603 6.15994C37.6576 5.8826 37.4016 5.66394 37.0923 5.50394C36.7829 5.34394 36.4469 5.26394 36.0843 5.26394C35.5083 5.26394 35.0229 5.37594 34.6283 5.59994C34.2336 5.81327 33.9349 6.13327 33.7323 6.55994C33.5296 6.97594 33.4283 7.49327 33.4283 8.11194C33.4283 8.6986 33.5509 9.2106 33.7963 9.64794C34.0416 10.0746 34.3883 10.4053 34.8363 10.6399C35.2843 10.8746 35.8016 10.9919 36.3883 10.9919C36.8043 10.9919 37.1883 10.9226 37.5403 10.7839C37.9029 10.6453 38.2923 10.3946 38.7083 10.0319L39.5403 11.1999C39.2843 11.4559 38.9696 11.6799 38.5963 11.8719C38.2336 12.0639 37.8443 12.2186 37.4283 12.3359C37.0229 12.4426 36.6229 12.4959 36.2283 12.4959ZM41.6833 12.3359V3.93594H43.3313V5.66394L43.0433 5.85594C43.1499 5.4826 43.3579 5.14127 43.6673 4.83194C43.9766 4.51194 44.3446 4.25594 44.7713 4.06394C45.1979 3.86127 45.6353 3.75994 46.0833 3.75994C46.7233 3.75994 47.2566 3.88794 47.6833 4.14394C48.1099 4.38927 48.4299 4.76794 48.6433 5.27994C48.8566 5.79194 48.9633 6.43727 48.9633 7.21594V12.3359H47.3153V7.32794C47.3153 6.84794 47.2513 6.45327 47.1233 6.14394C46.9953 5.82394 46.7979 5.5946 46.5313 5.45594C46.2646 5.3066 45.9339 5.2426 45.5393 5.26394C45.2193 5.26394 44.9259 5.31727 44.6593 5.42394C44.3926 5.51994 44.1579 5.6586 43.9553 5.83994C43.7633 6.02127 43.6086 6.2346 43.4913 6.47994C43.3846 6.7146 43.3313 6.9706 43.3313 7.24794V12.3359H42.5153C42.3766 12.3359 42.2379 12.3359 42.0993 12.3359C41.9606 12.3359 41.8219 12.3359 41.6833 12.3359ZM53.9989 12.4959C53.2949 12.4959 52.6602 12.3733 52.0949 12.1279C51.5295 11.8826 51.0602 11.5199 50.6869 11.0399L51.8069 10.0799C52.1269 10.4533 52.4735 10.7253 52.8469 10.8959C53.2309 11.0559 53.6629 11.1359 54.1429 11.1359C54.3349 11.1359 54.5109 11.1146 54.6709 11.0719C54.8415 11.0186 54.9855 10.9439 55.1029 10.8479C55.2309 10.7519 55.3269 10.6399 55.3909 10.5119C55.4549 10.3733 55.4869 10.2239 55.4869 10.0639C55.4869 9.7866 55.3855 9.5626 55.1829 9.39194C55.0762 9.31727 54.9055 9.23727 54.6709 9.15194C54.4469 9.05594 54.1535 8.95994 53.7909 8.86394C53.1722 8.70394 52.6655 8.5226 52.2709 8.31994C51.8762 8.11727 51.5722 7.88794 51.3589 7.63194C51.1989 7.42927 51.0815 7.2106 51.0069 6.97594C50.9322 6.7306 50.8949 6.46394 50.8949 6.17594C50.8949 5.82394 50.9695 5.50394 51.1189 5.21594C51.2789 4.91727 51.4922 4.66127 51.7589 4.44794C52.0362 4.22394 52.3562 4.05327 52.7189 3.93594C53.0922 3.8186 53.4869 3.75994 53.9029 3.75994C54.2975 3.75994 54.6869 3.81327 55.0709 3.91994C55.4655 4.0266 55.8282 4.18127 56.1589 4.38394C56.4895 4.5866 56.7669 4.8266 56.9909 5.10394L56.0469 6.14394C55.8442 5.94127 55.6202 5.76527 55.3749 5.61594C55.1402 5.45594 54.9002 5.33327 54.6549 5.24794C54.4095 5.1626 54.1855 5.11994 53.9829 5.11994C53.7589 5.11994 53.5562 5.14127 53.3749 5.18394C53.1935 5.2266 53.0389 5.2906 52.9109 5.37594C52.7935 5.46127 52.7029 5.56794 52.6389 5.69594C52.5749 5.82394 52.5429 5.96794 52.5429 6.12794C52.5535 6.2666 52.5855 6.39994 52.6389 6.52794C52.7029 6.64527 52.7882 6.7466 52.8949 6.83194C53.0122 6.91727 53.1882 7.00794 53.4229 7.10394C53.6575 7.19994 53.9562 7.2906 54.3189 7.37594C54.8522 7.5146 55.2895 7.66927 55.6309 7.83994C55.9829 7.99994 56.2602 8.1866 56.4629 8.39994C56.6762 8.6026 56.8255 8.83727 56.9109 9.10394C56.9962 9.3706 57.0389 9.66927 57.0389 9.99994C57.0389 10.4799 56.9002 10.9119 56.6229 11.2959C56.3562 11.6693 55.9935 11.9626 55.5349 12.1759C55.0762 12.3893 54.5642 12.4959 53.9989 12.4959ZM59.1271 12.3359V3.93594H60.7751V12.3359H59.1271ZM59.9271 2.07994C59.5751 2.07994 59.3031 1.98927 59.1111 1.80794C58.9191 1.6266 58.8231 1.3706 58.8231 1.03994C58.8231 0.730604 58.9191 0.479937 59.1111 0.287937C59.3138 0.0959371 59.5858 -6.29425e-05 59.9271 -6.29425e-05C60.2791 -6.29425e-05 60.5511 0.0906038 60.7431 0.271937C60.9351 0.45327 61.0311 0.70927 61.0311 1.03994C61.0311 1.34927 60.9298 1.59994 60.7271 1.79194C60.5351 1.98394 60.2685 2.07994 59.9271 2.07994ZM67.0843 12.4959C66.2629 12.4959 65.5269 12.3093 64.8763 11.9359C64.2363 11.5519 63.7296 11.0346 63.3563 10.3839C62.9829 9.7226 62.7963 8.9706 62.7963 8.12794C62.7963 7.28527 62.9829 6.5386 63.3563 5.88794C63.7296 5.2266 64.2363 4.70927 64.8763 4.33594C65.5269 3.95194 66.2629 3.75994 67.0843 3.75994C67.8949 3.75994 68.6203 3.95194 69.2603 4.33594C69.9109 4.70927 70.4229 5.2266 70.7963 5.88794C71.1696 6.5386 71.3563 7.28527 71.3563 8.12794C71.3563 8.9706 71.1696 9.7226 70.7963 10.3839C70.4229 11.0346 69.9109 11.5519 69.2603 11.9359C68.6203 12.3093 67.8949 12.4959 67.0843 12.4959ZM67.0843 10.9919C67.5856 10.9919 68.0336 10.8693 68.4283 10.6239C68.8229 10.3679 69.1323 10.0266 69.3563 9.59994C69.5803 9.1626 69.6869 8.67194 69.6763 8.12794C69.6869 7.57327 69.5803 7.0826 69.3563 6.65594C69.1323 6.2186 68.8229 5.87727 68.4283 5.63194C68.0336 5.3866 67.5856 5.26394 67.0843 5.26394C66.5829 5.26394 66.1296 5.39194 65.7243 5.64794C65.3296 5.89327 65.0203 6.2346 64.7963 6.67194C64.5723 7.0986 64.4656 7.58394 64.4763 8.12794C64.4656 8.67194 64.5723 9.1626 64.7963 9.59994C65.0203 10.0266 65.3296 10.3679 65.7243 10.6239C66.1296 10.8693 66.5829 10.9919 67.0843 10.9919ZM73.152 12.3359V3.93594H74.8V5.66394L74.512 5.85594C74.6187 5.4826 74.8267 5.14127 75.136 4.83194C75.4453 4.51194 75.8133 4.25594 76.24 4.06394C76.6667 3.86127 77.104 3.75994 77.552 3.75994C78.192 3.75994 78.7253 3.88794 79.152 4.14394C79.5787 4.38927 79.8987 4.76794 80.112 5.27994C80.3253 5.79194 80.432 6.43727 80.432 7.21594V12.3359H78.784V7.32794C78.784 6.84794 78.72 6.45327 78.592 6.14394C78.464 5.82394 78.2667 5.5946 78 5.45594C77.7333 5.3066 77.4027 5.2426 77.008 5.26394C76.688 5.26394 76.3947 5.31727 76.128 5.42394C75.8613 5.51994 75.6267 5.6586 75.424 5.83994C75.232 6.02127 75.0773 6.2346 74.96 6.47994C74.8533 6.7146 74.8 6.9706 74.8 7.24794V12.3359H73.984C73.8453 12.3359 73.7067 12.3359 73.568 12.3359C73.4293 12.3359 73.2907 12.3359 73.152 12.3359ZM85.4676 12.4959C84.7636 12.4959 84.129 12.3733 83.5636 12.1279C82.9983 11.8826 82.529 11.5199 82.1556 11.0399L83.2756 10.0799C83.5956 10.4533 83.9423 10.7253 84.3156 10.8959C84.6996 11.0559 85.1316 11.1359 85.6116 11.1359C85.8036 11.1359 85.9796 11.1146 86.1396 11.0719C86.3103 11.0186 86.4543 10.9439 86.5716 10.8479C86.6996 10.7519 86.7956 10.6399 86.8596 10.5119C86.9236 10.3733 86.9556 10.2239 86.9556 10.0639C86.9556 9.7866 86.8543 9.5626 86.6516 9.39194C86.545 9.31727 86.3743 9.23727 86.1396 9.15194C85.9156 9.05594 85.6223 8.95994 85.2596 8.86394C84.641 8.70394 84.1343 8.5226 83.7396 8.31994C83.345 8.11727 83.041 7.88794 82.8276 7.63194C82.6676 7.42927 82.5503 7.2106 82.4756 6.97594C82.401 6.7306 82.3636 6.46394 82.3636 6.17594C82.3636 5.82394 82.4383 5.50394 82.5876 5.21594C82.7476 4.91727 82.961 4.66127 83.2276 4.44794C83.505 4.22394 83.825 4.05327 84.1876 3.93594C84.561 3.8186 84.9556 3.75994 85.3716 3.75994C85.7663 3.75994 86.1556 3.81327 86.5396 3.91994C86.9343 4.0266 87.297 4.18127 87.6276 4.38394C87.9583 4.5866 88.2356 4.8266 88.4596 5.10394L87.5156 6.14394C87.313 5.94127 87.089 5.76527 86.8436 5.61594C86.609 5.45594 86.369 5.33327 86.1236 5.24794C85.8783 5.1626 85.6543 5.11994 85.4516 5.11994C85.2276 5.11994 85.025 5.14127 84.8436 5.18394C84.6623 5.2266 84.5076 5.2906 84.3796 5.37594C84.2623 5.46127 84.1716 5.56794 84.1076 5.69594C84.0436 5.82394 84.0116 5.96794 84.0116 6.12794C84.0223 6.2666 84.0543 6.39994 84.1076 6.52794C84.1716 6.64527 84.257 6.7466 84.3636 6.83194C84.481 6.91727 84.657 7.00794 84.8916 7.10394C85.1263 7.19994 85.425 7.2906 85.7876 7.37594C86.321 7.5146 86.7583 7.66927 87.0996 7.83994C87.4516 7.99994 87.729 8.1866 87.9316 8.39994C88.145 8.6026 88.2943 8.83727 88.3796 9.10394C88.465 9.3706 88.5076 9.66927 88.5076 9.99994C88.5076 10.4799 88.369 10.9119 88.0916 11.2959C87.825 11.6693 87.4623 11.9626 87.0036 12.1759C86.545 12.3893 86.033 12.4959 85.4676 12.4959ZM95.2243 12.3359V1.13594H99.8963C100.611 1.13594 101.214 1.2426 101.704 1.45594C102.195 1.66927 102.563 1.98927 102.808 2.41594C103.064 2.83194 103.192 3.34394 103.192 3.95194C103.192 4.55994 103.022 5.07727 102.68 5.50394C102.35 5.9306 101.886 6.22394 101.288 6.38394V6.06394C101.79 6.1706 102.227 6.3626 102.6 6.63994C102.974 6.9066 103.262 7.2426 103.464 7.64794C103.678 8.05327 103.784 8.51727 103.784 9.03994C103.784 9.57327 103.699 10.0479 103.528 10.4639C103.368 10.8693 103.123 11.2106 102.792 11.4879C102.472 11.7653 102.083 11.9786 101.624 12.1279C101.166 12.2666 100.643 12.3359 100.056 12.3359H95.2243ZM96.9523 10.6719H99.9603C100.398 10.6719 100.766 10.6079 101.064 10.4799C101.374 10.3519 101.608 10.1653 101.768 9.91994C101.939 9.66394 102.024 9.35994 102.024 9.00794C102.024 8.67727 101.934 8.3946 101.752 8.15994C101.582 7.92527 101.336 7.74927 101.016 7.63194C100.696 7.50394 100.318 7.43994 99.8803 7.43994H96.9523V10.6719ZM96.9523 5.77594H99.8003C100.12 5.77594 100.403 5.71194 100.648 5.58394C100.904 5.45594 101.102 5.27994 101.24 5.05594C101.39 4.83194 101.464 4.57594 101.464 4.28794C101.464 3.80794 101.304 3.43994 100.984 3.18394C100.664 2.92794 100.206 2.79994 99.6083 2.79994H96.9523V5.77594ZM109.286 12.3359L104.806 1.13594H106.774L109.446 7.93594C109.574 8.2666 109.686 8.56527 109.782 8.83194C109.889 9.0986 109.979 9.34394 110.054 9.56794C110.129 9.78127 110.198 9.98394 110.262 10.1759C110.326 10.3679 110.39 10.5599 110.454 10.7519L110.038 10.7679C110.113 10.5119 110.193 10.2453 110.278 9.96794C110.363 9.6906 110.459 9.3866 110.566 9.05594C110.683 8.72527 110.822 8.35194 110.982 7.93594L113.462 1.13594H115.478L110.966 12.3359H109.286ZM119.712 12.3359V2.79994H116.576V1.13594H124.672V2.79994H121.44V12.3359H119.712ZM134.743 12.4959C134.135 12.4959 133.569 12.4159 133.047 12.2559C132.535 12.0959 132.065 11.8559 131.639 11.5359C131.223 11.2053 130.849 10.7999 130.519 10.3199L131.703 8.95994C132.225 9.7066 132.727 10.2239 133.207 10.5119C133.687 10.7999 134.257 10.9439 134.919 10.9439C135.324 10.9439 135.692 10.8799 136.023 10.7519C136.353 10.6239 136.615 10.4479 136.807 10.2239C136.999 9.99994 137.095 9.74394 137.095 9.45594C137.095 9.26394 137.063 9.0826 136.999 8.91194C136.935 8.74127 136.833 8.5866 136.695 8.44794C136.567 8.30927 136.396 8.18127 136.183 8.06394C135.98 7.9466 135.74 7.84527 135.463 7.75994C135.185 7.66394 134.865 7.58394 134.503 7.51994C133.927 7.4026 133.425 7.24794 132.999 7.05594C132.572 6.86394 132.215 6.62394 131.927 6.33594C131.639 6.04794 131.425 5.7226 131.287 5.35994C131.148 4.9866 131.079 4.5706 131.079 4.11194C131.079 3.66394 131.175 3.24794 131.367 2.86394C131.569 2.47994 131.841 2.14927 132.183 1.87194C132.535 1.58394 132.945 1.36527 133.415 1.21594C133.884 1.05594 134.391 0.975937 134.935 0.975937C135.511 0.975937 136.039 1.0506 136.519 1.19994C136.999 1.34927 137.425 1.57327 137.799 1.87194C138.172 2.15994 138.481 2.51727 138.727 2.94394L137.511 4.14394C137.297 3.79194 137.057 3.4986 136.791 3.26394C136.524 3.0186 136.231 2.83727 135.911 2.71994C135.591 2.59194 135.249 2.52794 134.887 2.52794C134.471 2.52794 134.108 2.59194 133.799 2.71994C133.489 2.84794 133.244 3.02927 133.063 3.26394C132.892 3.48794 132.807 3.7546 132.807 4.06394C132.807 4.28794 132.849 4.49594 132.935 4.68794C133.02 4.86927 133.148 5.0346 133.319 5.18394C133.5 5.3226 133.74 5.4506 134.039 5.56794C134.337 5.6746 134.695 5.7706 135.111 5.85594C135.697 5.98394 136.22 6.14927 136.679 6.35194C137.137 6.54394 137.527 6.77327 137.847 7.03994C138.167 7.3066 138.407 7.60527 138.567 7.93594C138.737 8.2666 138.823 8.62394 138.823 9.00794C138.823 9.7226 138.657 10.3413 138.327 10.8639C137.996 11.3866 137.527 11.7919 136.919 12.0799C136.311 12.3573 135.585 12.4959 134.743 12.4959ZM141.271 12.3359V1.13594H145.655C146.455 1.13594 147.175 1.26927 147.815 1.53594C148.466 1.8026 149.02 2.1866 149.479 2.68794C149.938 3.18927 150.29 3.78127 150.535 4.46394C150.78 5.1466 150.903 5.90394 150.903 6.73594C150.903 7.56794 150.78 8.3306 150.535 9.02394C150.29 9.7066 149.938 10.2986 149.479 10.7999C149.031 11.2906 148.482 11.6693 147.831 11.9359C147.18 12.2026 146.455 12.3359 145.655 12.3359H141.271ZM142.999 10.8479L142.951 10.6719H145.575C146.14 10.6719 146.642 10.5813 147.079 10.3999C147.527 10.2186 147.9 9.9626 148.199 9.63194C148.508 9.2906 148.743 8.8746 148.903 8.38394C149.063 7.89327 149.143 7.34394 149.143 6.73594C149.143 6.12794 149.063 5.58394 148.903 5.10394C148.743 4.61327 148.508 4.19727 148.199 3.85594C147.89 3.5146 147.516 3.25327 147.079 3.07194C146.642 2.8906 146.14 2.79994 145.575 2.79994H142.903L142.999 2.65594V10.8479ZM152.52 8.57594V6.94394H157.128V8.57594H152.52ZM164.081 12.4959C163.302 12.4959 162.587 12.3573 161.937 12.0799C161.286 11.8026 160.721 11.4079 160.241 10.8959C159.761 10.3733 159.387 9.75994 159.121 9.05594C158.865 8.35194 158.737 7.5786 158.737 6.73594C158.737 5.93594 158.875 5.1946 159.153 4.51194C159.441 3.8186 159.835 3.2106 160.337 2.68794C160.838 2.16527 161.419 1.75994 162.081 1.47194C162.742 1.18394 163.457 1.03994 164.225 1.03994C164.769 1.03994 165.297 1.12527 165.809 1.29594C166.331 1.45594 166.801 1.68527 167.217 1.98394C167.643 2.27194 167.99 2.6026 168.257 2.97594L167.105 4.17594C166.795 3.8666 166.481 3.6106 166.161 3.40794C165.851 3.1946 165.531 3.0346 165.201 2.92794C164.881 2.82127 164.555 2.76794 164.225 2.76794C163.702 2.76794 163.211 2.86927 162.753 3.07194C162.305 3.26394 161.91 3.53594 161.569 3.88794C161.238 4.23994 160.977 4.66127 160.785 5.15194C160.593 5.63194 160.497 6.15994 160.497 6.73594C160.497 7.34394 160.587 7.8986 160.769 8.39994C160.961 8.8906 161.227 9.31194 161.569 9.66394C161.91 10.0159 162.315 10.2879 162.785 10.4799C163.265 10.6613 163.793 10.7519 164.369 10.7519C164.721 10.7519 165.067 10.7039 165.409 10.6079C165.75 10.5119 166.07 10.3733 166.369 10.1919C166.667 10.0106 166.939 9.79727 167.185 9.55194L168.049 10.9599C167.803 11.2479 167.467 11.5093 167.041 11.7439C166.625 11.9786 166.155 12.1653 165.633 12.3039C165.121 12.4319 164.603 12.4959 164.081 12.4959ZM173.852 12.4959C173.244 12.4959 172.679 12.4159 172.156 12.2559C171.644 12.0959 171.175 11.8559 170.748 11.5359C170.332 11.2053 169.959 10.7999 169.628 10.3199L170.812 8.95994C171.335 9.7066 171.836 10.2239 172.316 10.5119C172.796 10.7999 173.367 10.9439 174.028 10.9439C174.433 10.9439 174.801 10.8799 175.132 10.7519C175.463 10.6239 175.724 10.4479 175.916 10.2239C176.108 9.99994 176.204 9.74394 176.204 9.45594C176.204 9.26394 176.172 9.0826 176.108 8.91194C176.044 8.74127 175.943 8.5866 175.804 8.44794C175.676 8.30927 175.505 8.18127 175.292 8.06394C175.089 7.9466 174.849 7.84527 174.572 7.75994C174.295 7.66394 173.975 7.58394 173.612 7.51994C173.036 7.4026 172.535 7.24794 172.108 7.05594C171.681 6.86394 171.324 6.62394 171.036 6.33594C170.748 6.04794 170.535 5.7226 170.396 5.35994C170.257 4.9866 170.188 4.5706 170.188 4.11194C170.188 3.66394 170.284 3.24794 170.476 2.86394C170.679 2.47994 170.951 2.14927 171.292 1.87194C171.644 1.58394 172.055 1.36527 172.524 1.21594C172.993 1.05594 173.5 0.975937 174.044 0.975937C174.62 0.975937 175.148 1.0506 175.628 1.19994C176.108 1.34927 176.535 1.57327 176.908 1.87194C177.281 2.15994 177.591 2.51727 177.836 2.94394L176.62 4.14394C176.407 3.79194 176.167 3.4986 175.9 3.26394C175.633 3.0186 175.34 2.83727 175.02 2.71994C174.7 2.59194 174.359 2.52794 173.996 2.52794C173.58 2.52794 173.217 2.59194 172.908 2.71994C172.599 2.84794 172.353 3.02927 172.172 3.26394C172.001 3.48794 171.916 3.7546 171.916 4.06394C171.916 4.28794 171.959 4.49594 172.044 4.68794C172.129 4.86927 172.257 5.0346 172.428 5.18394C172.609 5.3226 172.849 5.4506 173.148 5.56794C173.447 5.6746 173.804 5.7706 174.22 5.85594C174.807 5.98394 175.329 6.14927 175.788 6.35194C176.247 6.54394 176.636 6.77327 176.956 7.03994C177.276 7.3066 177.516 7.60527 177.676 7.93594C177.847 8.2666 177.932 8.62394 177.932 9.00794C177.932 9.7226 177.767 10.3413 177.436 10.8639C177.105 11.3866 176.636 11.7919 176.028 12.0799C175.42 12.3573 174.695 12.4959 173.852 12.4959ZM180.381 12.3359V1.13594H185.149C185.789 1.13594 186.375 1.29594 186.909 1.61594C187.453 1.92527 187.885 2.35194 188.205 2.89594C188.525 3.42927 188.685 4.03194 188.685 4.70394C188.685 5.31194 188.525 5.87727 188.205 6.39994C187.885 6.9226 187.458 7.34394 186.925 7.66394C186.391 7.97327 185.799 8.12794 185.149 8.12794H182.109V12.3359H180.381ZM187.036 12.3359L184.189 7.27994L185.965 6.87994L189.133 12.3519L187.036 12.3359ZM182.109 6.46394H185.309C185.618 6.46394 185.895 6.38927 186.141 6.23994C186.386 6.07994 186.578 5.8666 186.717 5.59994C186.855 5.3226 186.925 5.0186 186.925 4.68794C186.925 4.3146 186.834 3.98927 186.653 3.71194C186.482 3.42394 186.237 3.19994 185.917 3.03994C185.607 2.87994 185.255 2.79994 184.861 2.79994H182.109V6.46394ZM195.99 12.3359V1.13594H200.374C201.174 1.13594 201.894 1.26927 202.534 1.53594C203.185 1.8026 203.739 2.1866 204.198 2.68794C204.657 3.18927 205.009 3.78127 205.254 4.46394C205.499 5.1466 205.622 5.90394 205.622 6.73594C205.622 7.56794 205.499 8.3306 205.254 9.02394C205.009 9.7066 204.657 10.2986 204.198 10.7999C203.75 11.2906 203.201 11.6693 202.55 11.9359C201.899 12.2026 201.174 12.3359 200.374 12.3359H195.99ZM197.718 10.8479L197.67 10.6719H200.294C200.859 10.6719 201.361 10.5813 201.798 10.3999C202.246 10.2186 202.619 9.9626 202.918 9.63194C203.227 9.2906 203.462 8.8746 203.622 8.38394C203.782 7.89327 203.862 7.34394 203.862 6.73594C203.862 6.12794 203.782 5.58394 203.622 5.10394C203.462 4.61327 203.227 4.19727 202.918 3.85594C202.609 3.5146 202.235 3.25327 201.798 3.07194C201.361 2.8906 200.859 2.79994 200.294 2.79994H197.622L197.718 2.65594V10.8479ZM207.815 12.3359V3.93594H209.463V12.3359H207.815ZM208.615 2.07994C208.263 2.07994 207.991 1.98927 207.799 1.80794C207.607 1.6266 207.511 1.3706 207.511 1.03994C207.511 0.730604 207.607 0.479937 207.799 0.287937C208.001 0.0959371 208.273 -6.29425e-05 208.615 -6.29425e-05C208.967 -6.29425e-05 209.239 0.0906038 209.431 0.271937C209.623 0.45327 209.719 0.70927 209.719 1.03994C209.719 1.34927 209.617 1.59994 209.415 1.79194C209.223 1.98394 208.956 2.07994 208.615 2.07994ZM211.996 12.3359V3.93594H213.66V6.57594L213.5 5.93594C213.617 5.5306 213.814 5.1626 214.092 4.83194C214.38 4.50127 214.705 4.23994 215.068 4.04794C215.441 3.85594 215.825 3.75994 216.22 3.75994C216.401 3.75994 216.572 3.77594 216.732 3.80794C216.902 3.83994 217.036 3.87727 217.132 3.91994L216.7 5.71194C216.572 5.6586 216.428 5.61594 216.268 5.58394C216.118 5.54127 215.969 5.51994 215.82 5.51994C215.532 5.51994 215.254 5.5786 214.988 5.69594C214.732 5.8026 214.502 5.95727 214.3 6.15994C214.108 6.35194 213.953 6.58127 213.836 6.84794C213.718 7.10394 213.66 7.3866 213.66 7.69594V12.3359H211.996ZM222.01 12.4959C221.146 12.4959 220.378 12.3146 219.706 11.9519C219.044 11.5786 218.522 11.0719 218.138 10.4319C217.764 9.79194 217.578 9.05594 217.578 8.22394C217.578 7.5626 217.684 6.95994 217.898 6.41594C218.111 5.87194 218.404 5.4026 218.778 5.00794C219.162 4.6026 219.615 4.29327 220.138 4.07994C220.671 3.85594 221.247 3.74394 221.866 3.74394C222.41 3.74394 222.916 3.8506 223.386 4.06394C223.855 4.2666 224.26 4.54927 224.602 4.91194C224.954 5.2746 225.22 5.7066 225.402 6.20794C225.594 6.6986 225.684 7.23727 225.674 7.82394L225.658 8.52794H218.794L218.426 7.21594H224.234L223.994 7.48794V7.10394C223.962 6.75194 223.844 6.43727 223.642 6.15994C223.439 5.8826 223.183 5.66394 222.874 5.50394C222.564 5.34394 222.228 5.26394 221.866 5.26394C221.29 5.26394 220.804 5.37594 220.41 5.59994C220.015 5.81327 219.716 6.13327 219.514 6.55994C219.311 6.97594 219.21 7.49327 219.21 8.11194C219.21 8.6986 219.332 9.2106 219.578 9.64794C219.823 10.0746 220.17 10.4053 220.618 10.6399C221.066 10.8746 221.583 10.9919 222.17 10.9919C222.586 10.9919 222.97 10.9226 223.322 10.7839C223.684 10.6453 224.074 10.3946 224.49 10.0319L225.322 11.1999C225.066 11.4559 224.751 11.6799 224.378 11.8719C224.015 12.0639 223.626 12.2186 223.21 12.3359C222.804 12.4426 222.404 12.4959 222.01 12.4959ZM231.033 12.4959C230.254 12.4959 229.555 12.3039 228.937 11.9199C228.329 11.5359 227.843 11.0133 227.481 10.3519C227.129 9.6906 226.953 8.94927 226.953 8.12794C226.953 7.3066 227.129 6.56527 227.481 5.90394C227.843 5.2426 228.329 4.71994 228.937 4.33594C229.555 3.95194 230.254 3.75994 231.033 3.75994C231.779 3.75994 232.457 3.9146 233.065 4.22394C233.683 4.5226 234.153 4.93327 234.473 5.45594L233.561 6.57594C233.39 6.3306 233.171 6.1066 232.905 5.90394C232.638 5.70127 232.355 5.54127 232.057 5.42394C231.758 5.3066 231.47 5.24794 231.193 5.24794C230.681 5.24794 230.222 5.37594 229.817 5.63194C229.422 5.87727 229.107 6.2186 228.873 6.65594C228.638 7.09327 228.521 7.58394 228.521 8.12794C228.521 8.67194 228.643 9.1626 228.889 9.59994C229.134 10.0266 229.459 10.3679 229.865 10.6239C230.27 10.8799 230.718 11.0079 231.209 11.0079C231.497 11.0079 231.774 10.9599 232.041 10.8639C232.318 10.7679 232.585 10.6239 232.841 10.4319C233.097 10.2399 233.337 10.0053 233.561 9.72794L234.473 10.8479C234.131 11.3279 233.641 11.7226 233.001 12.0319C232.371 12.3413 231.715 12.4959 231.033 12.4959ZM237.067 12.3359V1.79194H238.715V12.3359H237.067ZM235.323 5.53594V3.93594H240.667V5.53594H235.323ZM247.068 12.3359V1.13594H251.452C252.252 1.13594 252.972 1.26927 253.612 1.53594C254.263 1.8026 254.817 2.1866 255.276 2.68794C255.735 3.18927 256.087 3.78127 256.332 4.46394C256.577 5.1466 256.7 5.90394 256.7 6.73594C256.7 7.56794 256.577 8.3306 256.332 9.02394C256.087 9.7066 255.735 10.2986 255.276 10.7999C254.828 11.2906 254.279 11.6693 253.628 11.9359C252.977 12.2026 252.252 12.3359 251.452 12.3359H247.068ZM248.796 10.8479L248.748 10.6719H251.372C251.937 10.6719 252.439 10.5813 252.876 10.3999C253.324 10.2186 253.697 9.9626 253.996 9.63194C254.305 9.2906 254.54 8.8746 254.7 8.38394C254.86 7.89327 254.94 7.34394 254.94 6.73594C254.94 6.12794 254.86 5.58394 254.7 5.10394C254.54 4.61327 254.305 4.19727 253.996 3.85594C253.687 3.5146 253.313 3.25327 252.876 3.07194C252.439 2.8906 251.937 2.79994 251.372 2.79994H248.7L248.796 2.65594V10.8479ZM258.621 12.3359V3.93594H260.285V6.57594L260.125 5.93594C260.242 5.5306 260.439 5.1626 260.717 4.83194C261.005 4.50127 261.33 4.23994 261.693 4.04794C262.066 3.85594 262.45 3.75994 262.845 3.75994C263.026 3.75994 263.197 3.77594 263.357 3.80794C263.527 3.83994 263.661 3.87727 263.757 3.91994L263.325 5.71194C263.197 5.6586 263.053 5.61594 262.893 5.58394C262.743 5.54127 262.594 5.51994 262.445 5.51994C262.157 5.51994 261.879 5.5786 261.613 5.69594C261.357 5.8026 261.127 5.95727 260.925 6.15994C260.733 6.35194 260.578 6.58127 260.461 6.84794C260.343 7.10394 260.285 7.3866 260.285 7.69594V12.3359H258.621ZM265.346 12.3359V3.93594H266.994V12.3359H265.346ZM266.146 2.07994C265.794 2.07994 265.522 1.98927 265.33 1.80794C265.138 1.6266 265.042 1.3706 265.042 1.03994C265.042 0.730604 265.138 0.479937 265.33 0.287937C265.533 0.0959371 265.805 -6.29425e-05 266.146 -6.29425e-05C266.498 -6.29425e-05 266.77 0.0906038 266.962 0.271937C267.154 0.45327 267.25 0.70927 267.25 1.03994C267.25 1.34927 267.149 1.59994 266.946 1.79194C266.754 1.98394 266.487 2.07994 266.146 2.07994ZM272.279 12.3359L268.727 3.93594H270.503L273.063 10.2239L272.759 10.3679L275.495 3.93594H277.191L273.463 12.3359H272.279ZM282.385 12.4959C281.521 12.4959 280.753 12.3146 280.081 11.9519C279.419 11.5786 278.897 11.0719 278.513 10.4319C278.139 9.79194 277.953 9.05594 277.953 8.22394C277.953 7.5626 278.059 6.95994 278.273 6.41594C278.486 5.87194 278.779 5.4026 279.153 5.00794C279.537 4.6026 279.99 4.29327 280.513 4.07994C281.046 3.85594 281.622 3.74394 282.241 3.74394C282.785 3.74394 283.291 3.8506 283.761 4.06394C284.23 4.2666 284.635 4.54927 284.977 4.91194C285.329 5.2746 285.595 5.7066 285.777 6.20794C285.969 6.6986 286.059 7.23727 286.049 7.82394L286.033 8.52794H279.169L278.801 7.21594H284.609L284.369 7.48794V7.10394C284.337 6.75194 284.219 6.43727 284.017 6.15994C283.814 5.8826 283.558 5.66394 283.249 5.50394C282.939 5.34394 282.603 5.26394 282.241 5.26394C281.665 5.26394 281.179 5.37594 280.785 5.59994C280.39 5.81327 280.091 6.13327 279.889 6.55994C279.686 6.97594 279.585 7.49327 279.585 8.11194C279.585 8.6986 279.707 9.2106 279.953 9.64794C280.198 10.0746 280.545 10.4053 280.993 10.6399C281.441 10.8746 281.958 10.9919 282.545 10.9919C282.961 10.9919 283.345 10.9226 283.697 10.7839C284.059 10.6453 284.449 10.3946 284.865 10.0319L285.697 11.1999C285.441 11.4559 285.126 11.6799 284.753 11.8719C284.39 12.0639 284.001 12.2186 283.585 12.3359C283.179 12.4426 282.779 12.4959 282.385 12.4959ZM295.812 15.3119C294.511 14.5013 293.519 13.4879 292.836 12.2719C292.153 11.0559 291.812 9.70127 291.812 8.20794C291.812 6.72527 292.153 5.37594 292.836 4.15994C293.529 2.93327 294.527 1.9146 295.828 1.10394L296.708 2.09594C295.62 2.85327 294.788 3.75994 294.212 4.81594C293.647 5.86127 293.364 6.99194 293.364 8.20794C293.364 9.42394 293.647 10.5599 294.212 11.6159C294.788 12.6613 295.62 13.5626 296.708 14.3199L295.812 15.3119ZM302.055 12.4959C301.447 12.4959 300.882 12.4159 300.359 12.2559C299.847 12.0959 299.378 11.8559 298.951 11.5359C298.535 11.2053 298.162 10.7999 297.831 10.3199L299.015 8.95994C299.538 9.7066 300.039 10.2239 300.519 10.5119C300.999 10.7999 301.57 10.9439 302.231 10.9439C302.637 10.9439 303.005 10.8799 303.335 10.7519C303.666 10.6239 303.927 10.4479 304.119 10.2239C304.311 9.99994 304.407 9.74394 304.407 9.45594C304.407 9.26394 304.375 9.0826 304.311 8.91194C304.247 8.74127 304.146 8.5866 304.007 8.44794C303.879 8.30927 303.709 8.18127 303.495 8.06394C303.293 7.9466 303.053 7.84527 302.775 7.75994C302.498 7.66394 302.178 7.58394 301.815 7.51994C301.239 7.4026 300.738 7.24794 300.311 7.05594C299.885 6.86394 299.527 6.62394 299.239 6.33594C298.951 6.04794 298.738 5.7226 298.599 5.35994C298.461 4.9866 298.391 4.5706 298.391 4.11194C298.391 3.66394 298.487 3.24794 298.679 2.86394C298.882 2.47994 299.154 2.14927 299.495 1.87194C299.847 1.58394 300.258 1.36527 300.727 1.21594C301.197 1.05594 301.703 0.975937 302.247 0.975937C302.823 0.975937 303.351 1.0506 303.831 1.19994C304.311 1.34927 304.738 1.57327 305.111 1.87194C305.485 2.15994 305.794 2.51727 306.039 2.94394L304.823 4.14394C304.61 3.79194 304.37 3.4986 304.103 3.26394C303.837 3.0186 303.543 2.83727 303.223 2.71994C302.903 2.59194 302.562 2.52794 302.199 2.52794C301.783 2.52794 301.421 2.59194 301.111 2.71994C300.802 2.84794 300.557 3.02927 300.375 3.26394C300.205 3.48794 300.119 3.7546 300.119 4.06394C300.119 4.28794 300.162 4.49594 300.247 4.68794C300.333 4.86927 300.461 5.0346 300.631 5.18394C300.813 5.3226 301.053 5.4506 301.351 5.56794C301.65 5.6746 302.007 5.7706 302.423 5.85594C303.01 5.98394 303.533 6.14927 303.991 6.35194C304.45 6.54394 304.839 6.77327 305.159 7.03994C305.479 7.3066 305.719 7.60527 305.879 7.93594C306.05 8.2666 306.135 8.62394 306.135 9.00794C306.135 9.7226 305.97 10.3413 305.639 10.8639C305.309 11.3866 304.839 11.7919 304.231 12.0799C303.623 12.3573 302.898 12.4959 302.055 12.4959ZM308.584 12.3359V1.13594H315.64V2.79994H310.312V10.6719H315.64V12.3359H308.584ZM309.368 7.42394V5.75994H314.76V7.42394H309.368ZM320.796 12.3359L317.228 1.13594H319.068L321.228 8.14394C321.292 8.3146 321.35 8.51727 321.404 8.75194C321.457 8.97594 321.505 9.20527 321.548 9.43994C321.59 9.6746 321.628 9.89327 321.66 10.0959C321.702 10.2986 321.74 10.4639 321.772 10.5919L321.308 10.5759C321.468 10.0106 321.59 9.57327 321.676 9.26394C321.772 8.9546 321.846 8.71994 321.9 8.55994C321.953 8.38927 322.001 8.24527 322.044 8.12794L324.06 3.07194H325.612L327.564 8.12794C327.67 8.38394 327.761 8.63994 327.836 8.89594C327.921 9.14127 327.996 9.39194 328.06 9.64794C328.124 9.89327 328.193 10.1546 328.268 10.4319L327.852 10.5439C327.905 10.2559 327.942 10.0319 327.964 9.87194C327.996 9.70127 328.022 9.5626 328.044 9.45594C328.065 9.34927 328.086 9.24794 328.108 9.15194C328.129 9.04527 328.161 8.91194 328.204 8.75194C328.257 8.59194 328.326 8.37327 328.412 8.09594L330.54 1.13594H332.396L328.828 12.3359H327.628L324.668 5.32794L324.812 5.39194L321.964 12.3359H320.796ZM333.981 15.3119L333.101 14.3199C334.189 13.5626 335.016 12.6613 335.581 11.6159C336.157 10.5599 336.445 9.42394 336.445 8.20794C336.445 6.99194 336.157 5.86127 335.581 4.81594C335.016 3.75994 334.189 2.85327 333.101 2.09594L333.997 1.10394C335.299 1.9146 336.291 2.92794 336.973 4.14394C337.656 5.35994 337.997 6.7146 337.997 8.20794C337.997 9.6906 337.651 11.0453 336.957 12.2719C336.275 13.4879 335.283 14.5013 333.981 15.3119Z" fill="white"/>
</svg>
