<svg width="20" height="20" viewBox="0 0 20 20" fill="none" xmlns="http://www.w3.org/2000/svg">
<circle cx="10" cy="10" r="9.5" stroke="#484E53"/>
<path d="M6.52 13V7.26L5.5 7.44V6.75L7.34 6.46V13H6.52ZM8.53711 13V12.56C8.71044 12.14 8.95711 11.7567 9.27711 11.41C9.59711 11.0633 9.94044 10.7367 10.3071 10.43C10.6738 10.1233 10.9571 9.86667 11.1571 9.66C11.3638 9.44667 11.5071 9.24333 11.5871 9.05C11.6671 8.85 11.7071 8.61667 11.7071 8.35C11.7071 7.96333 11.6071 7.67 11.4071 7.47C11.2071 7.26333 10.8338 7.16 10.2871 7.16C10.0404 7.16 9.78711 7.18667 9.52711 7.24C9.26711 7.28667 9.02044 7.35667 8.78711 7.45V6.72C9.00044 6.64667 9.25711 6.58667 9.55711 6.54C9.85711 6.48667 10.1438 6.46 10.4171 6.46C11.1104 6.46 11.6338 6.63 11.9871 6.97C12.3471 7.30333 12.5271 7.76333 12.5271 8.35C12.5271 8.67 12.4704 8.95333 12.3571 9.2C12.2438 9.44 12.0871 9.67 11.8871 9.89C11.6871 10.1033 11.4538 10.33 11.1871 10.57C10.8604 10.8567 10.5471 11.14 10.2471 11.42C9.95378 11.6933 9.72044 12.0067 9.54711 12.36H12.5971V13H8.53711Z" fill="#3D3A3A"/>
</svg>
