<svg width="340" height="16" viewBox="0 0 340 16" fill="none" xmlns="http://www.w3.org/2000/svg">
<path d="M1.568 12.3359V1.13594H5.952C6.752 1.13594 7.472 1.26927 8.112 1.53594C8.76267 1.8026 9.31733 2.1866 9.776 2.68794C10.2347 3.18927 10.5867 3.78127 10.832 4.46394C11.0773 5.1466 11.2 5.90394 11.2 6.73594C11.2 7.56794 11.0773 8.3306 10.832 9.02394C10.5867 9.7066 10.2347 10.2986 9.776 10.7999C9.328 11.2906 8.77867 11.6693 8.128 11.9359C7.47733 12.2026 6.752 12.3359 5.952 12.3359H1.568ZM3.296 10.8479L3.248 10.6719H5.872C6.43733 10.6719 6.93867 10.5813 7.376 10.3999C7.824 10.2186 8.19733 9.9626 8.496 9.63194C8.80533 9.2906 9.04 8.8746 9.2 8.38394C9.36 7.89327 9.44 7.34394 9.44 6.73594C9.44 6.12794 9.36 5.58394 9.2 5.10394C9.04 4.61327 8.80533 4.19727 8.496 3.85594C8.18667 3.5146 7.81333 3.25327 7.376 3.07194C6.93867 2.8906 6.43733 2.79994 5.872 2.79994H3.2L3.296 2.65594V10.8479ZM13.3928 12.3359V3.93594H15.0408V12.3359H13.3928ZM14.1928 2.07994C13.8408 2.07994 13.5688 1.98927 13.3768 1.80794C13.1848 1.6266 13.0888 1.3706 13.0888 1.03994C13.0888 0.730604 13.1848 0.479937 13.3768 0.287937C13.5794 0.0959371 13.8514 -6.29425e-05 14.1928 -6.29425e-05C14.5448 -6.29425e-05 14.8168 0.0906038 15.0088 0.271937C15.2008 0.45327 15.2968 0.70927 15.2968 1.03994C15.2968 1.34927 15.1954 1.59994 14.9928 1.79194C14.8008 1.98394 14.5341 2.07994 14.1928 2.07994ZM17.5419 12.3359V3.93594H19.2059V5.72794L18.9019 5.91994C18.9872 5.6426 19.1205 5.37594 19.3019 5.11994C19.4939 4.86394 19.7232 4.63994 19.9899 4.44794C20.2672 4.24527 20.5605 4.08527 20.8699 3.96794C21.1899 3.8506 21.5152 3.79194 21.8459 3.79194C22.3259 3.79194 22.7472 3.87194 23.1099 4.03194C23.4725 4.19194 23.7712 4.43194 24.0059 4.75194C24.2405 5.07194 24.4112 5.47194 24.5179 5.95194L24.2619 5.88794L24.3739 5.61594C24.4912 5.3706 24.6512 5.14127 24.8539 4.92794C25.0672 4.70394 25.3072 4.5066 25.5739 4.33594C25.8405 4.16527 26.1232 4.03194 26.4219 3.93594C26.7205 3.83994 27.0139 3.79194 27.3019 3.79194C27.9312 3.79194 28.4485 3.91994 28.8539 4.17594C29.2699 4.43194 29.5792 4.82127 29.7819 5.34394C29.9952 5.8666 30.1019 6.51727 30.1019 7.29594V12.3359H28.4379V7.39194C28.4379 6.91194 28.3739 6.5226 28.2459 6.22394C28.1285 5.9146 27.9472 5.68527 27.7019 5.53594C27.4565 5.3866 27.1419 5.31194 26.7579 5.31194C26.4592 5.31194 26.1765 5.36527 25.9099 5.47194C25.6539 5.56794 25.4299 5.7066 25.2379 5.88794C25.0459 6.06927 24.8965 6.2826 24.7899 6.52794C24.6832 6.7626 24.6299 7.02394 24.6299 7.31194V12.3359H22.9659V7.35994C22.9659 6.9226 22.9019 6.5546 22.7739 6.25594C22.6459 5.9466 22.4592 5.71194 22.2139 5.55194C21.9685 5.39194 21.6699 5.31194 21.3179 5.31194C21.0192 5.31194 20.7419 5.36527 20.4859 5.47194C20.2299 5.56794 20.0059 5.7066 19.8139 5.88794C19.6219 6.0586 19.4725 6.2666 19.3659 6.51194C19.2592 6.7466 19.2059 7.0026 19.2059 7.27994V12.3359H17.5419ZM36.2283 12.4959C35.3643 12.4959 34.5963 12.3146 33.9243 11.9519C33.2629 11.5786 32.7403 11.0719 32.3563 10.4319C31.9829 9.79194 31.7963 9.05594 31.7963 8.22394C31.7963 7.5626 31.9029 6.95994 32.1163 6.41594C32.3296 5.87194 32.6229 5.4026 32.9963 5.00794C33.3803 4.6026 33.8336 4.29327 34.3563 4.07994C34.8896 3.85594 35.4656 3.74394 36.0843 3.74394C36.6283 3.74394 37.1349 3.8506 37.6043 4.06394C38.0736 4.2666 38.4789 4.54927 38.8203 4.91194C39.1723 5.2746 39.4389 5.7066 39.6203 6.20794C39.8123 6.6986 39.9029 7.23727 39.8923 7.82394L39.8763 8.52794H33.0123L32.6443 7.21594H38.4523L38.2123 7.48794V7.10394C38.1803 6.75194 38.0629 6.43727 37.8603 6.15994C37.6576 5.8826 37.4016 5.66394 37.0923 5.50394C36.7829 5.34394 36.4469 5.26394 36.0843 5.26394C35.5083 5.26394 35.0229 5.37594 34.6283 5.59994C34.2336 5.81327 33.9349 6.13327 33.7323 6.55994C33.5296 6.97594 33.4283 7.49327 33.4283 8.11194C33.4283 8.6986 33.5509 9.2106 33.7963 9.64794C34.0416 10.0746 34.3883 10.4053 34.8363 10.6399C35.2843 10.8746 35.8016 10.9919 36.3883 10.9919C36.8043 10.9919 37.1883 10.9226 37.5403 10.7839C37.9029 10.6453 38.2923 10.3946 38.7083 10.0319L39.5403 11.1999C39.2843 11.4559 38.9696 11.6799 38.5963 11.8719C38.2336 12.0639 37.8443 12.2186 37.4283 12.3359C37.0229 12.4426 36.6229 12.4959 36.2283 12.4959ZM41.6833 12.3359V3.93594H43.3313V5.66394L43.0433 5.85594C43.1499 5.4826 43.3579 5.14127 43.6673 4.83194C43.9766 4.51194 44.3446 4.25594 44.7713 4.06394C45.1979 3.86127 45.6353 3.75994 46.0833 3.75994C46.7233 3.75994 47.2566 3.88794 47.6833 4.14394C48.1099 4.38927 48.4299 4.76794 48.6433 5.27994C48.8566 5.79194 48.9633 6.43727 48.9633 7.21594V12.3359H47.3153V7.32794C47.3153 6.84794 47.2513 6.45327 47.1233 6.14394C46.9953 5.82394 46.7979 5.5946 46.5313 5.45594C46.2646 5.3066 45.9339 5.2426 45.5393 5.26394C45.2193 5.26394 44.9259 5.31727 44.6593 5.42394C44.3926 5.51994 44.1579 5.6586 43.9553 5.83994C43.7633 6.02127 43.6086 6.2346 43.4913 6.47994C43.3846 6.7146 43.3313 6.9706 43.3313 7.24794V12.3359H42.5153C42.3766 12.3359 42.2379 12.3359 42.0993 12.3359C41.9606 12.3359 41.8219 12.3359 41.6833 12.3359ZM53.9989 12.4959C53.2949 12.4959 52.6602 12.3733 52.0949 12.1279C51.5295 11.8826 51.0602 11.5199 50.6869 11.0399L51.8069 10.0799C52.1269 10.4533 52.4735 10.7253 52.8469 10.8959C53.2309 11.0559 53.6629 11.1359 54.1429 11.1359C54.3349 11.1359 54.5109 11.1146 54.6709 11.0719C54.8415 11.0186 54.9855 10.9439 55.1029 10.8479C55.2309 10.7519 55.3269 10.6399 55.3909 10.5119C55.4549 10.3733 55.4869 10.2239 55.4869 10.0639C55.4869 9.7866 55.3855 9.5626 55.1829 9.39194C55.0762 9.31727 54.9055 9.23727 54.6709 9.15194C54.4469 9.05594 54.1535 8.95994 53.7909 8.86394C53.1722 8.70394 52.6655 8.5226 52.2709 8.31994C51.8762 8.11727 51.5722 7.88794 51.3589 7.63194C51.1989 7.42927 51.0815 7.2106 51.0069 6.97594C50.9322 6.7306 50.8949 6.46394 50.8949 6.17594C50.8949 5.82394 50.9695 5.50394 51.1189 5.21594C51.2789 4.91727 51.4922 4.66127 51.7589 4.44794C52.0362 4.22394 52.3562 4.05327 52.7189 3.93594C53.0922 3.8186 53.4869 3.75994 53.9029 3.75994C54.2975 3.75994 54.6869 3.81327 55.0709 3.91994C55.4655 4.0266 55.8282 4.18127 56.1589 4.38394C56.4895 4.5866 56.7669 4.8266 56.9909 5.10394L56.0469 6.14394C55.8442 5.94127 55.6202 5.76527 55.3749 5.61594C55.1402 5.45594 54.9002 5.33327 54.6549 5.24794C54.4095 5.1626 54.1855 5.11994 53.9829 5.11994C53.7589 5.11994 53.5562 5.14127 53.3749 5.18394C53.1935 5.2266 53.0389 5.2906 52.9109 5.37594C52.7935 5.46127 52.7029 5.56794 52.6389 5.69594C52.5749 5.82394 52.5429 5.96794 52.5429 6.12794C52.5535 6.2666 52.5855 6.39994 52.6389 6.52794C52.7029 6.64527 52.7882 6.7466 52.8949 6.83194C53.0122 6.91727 53.1882 7.00794 53.4229 7.10394C53.6575 7.19994 53.9562 7.2906 54.3189 7.37594C54.8522 7.5146 55.2895 7.66927 55.6309 7.83994C55.9829 7.99994 56.2602 8.1866 56.4629 8.39994C56.6762 8.6026 56.8255 8.83727 56.9109 9.10394C56.9962 9.3706 57.0389 9.66927 57.0389 9.99994C57.0389 10.4799 56.9002 10.9119 56.6229 11.2959C56.3562 11.6693 55.9935 11.9626 55.5349 12.1759C55.0762 12.3893 54.5642 12.4959 53.9989 12.4959ZM59.1271 12.3359V3.93594H60.7751V12.3359H59.1271ZM59.9271 2.07994C59.5751 2.07994 59.3031 1.98927 59.1111 1.80794C58.9191 1.6266 58.8231 1.3706 58.8231 1.03994C58.8231 0.730604 58.9191 0.479937 59.1111 0.287937C59.3138 0.0959371 59.5858 -6.29425e-05 59.9271 -6.29425e-05C60.2791 -6.29425e-05 60.5511 0.0906038 60.7431 0.271937C60.9351 0.45327 61.0311 0.70927 61.0311 1.03994C61.0311 1.34927 60.9298 1.59994 60.7271 1.79194C60.5351 1.98394 60.2685 2.07994 59.9271 2.07994ZM67.0843 12.4959C66.2629 12.4959 65.5269 12.3093 64.8763 11.9359C64.2363 11.5519 63.7296 11.0346 63.3563 10.3839C62.9829 9.7226 62.7963 8.9706 62.7963 8.12794C62.7963 7.28527 62.9829 6.5386 63.3563 5.88794C63.7296 5.2266 64.2363 4.70927 64.8763 4.33594C65.5269 3.95194 66.2629 3.75994 67.0843 3.75994C67.8949 3.75994 68.6203 3.95194 69.2603 4.33594C69.9109 4.70927 70.4229 5.2266 70.7963 5.88794C71.1696 6.5386 71.3563 7.28527 71.3563 8.12794C71.3563 8.9706 71.1696 9.7226 70.7963 10.3839C70.4229 11.0346 69.9109 11.5519 69.2603 11.9359C68.6203 12.3093 67.8949 12.4959 67.0843 12.4959ZM67.0843 10.9919C67.5856 10.9919 68.0336 10.8693 68.4283 10.6239C68.8229 10.3679 69.1323 10.0266 69.3563 9.59994C69.5803 9.1626 69.6869 8.67194 69.6763 8.12794C69.6869 7.57327 69.5803 7.0826 69.3563 6.65594C69.1323 6.2186 68.8229 5.87727 68.4283 5.63194C68.0336 5.3866 67.5856 5.26394 67.0843 5.26394C66.5829 5.26394 66.1296 5.39194 65.7243 5.64794C65.3296 5.89327 65.0203 6.2346 64.7963 6.67194C64.5723 7.0986 64.4656 7.58394 64.4763 8.12794C64.4656 8.67194 64.5723 9.1626 64.7963 9.59994C65.0203 10.0266 65.3296 10.3679 65.7243 10.6239C66.1296 10.8693 66.5829 10.9919 67.0843 10.9919ZM73.152 12.3359V3.93594H74.8V5.66394L74.512 5.85594C74.6187 5.4826 74.8267 5.14127 75.136 4.83194C75.4453 4.51194 75.8133 4.25594 76.24 4.06394C76.6667 3.86127 77.104 3.75994 77.552 3.75994C78.192 3.75994 78.7253 3.88794 79.152 4.14394C79.5787 4.38927 79.8987 4.76794 80.112 5.27994C80.3253 5.79194 80.432 6.43727 80.432 7.21594V12.3359H78.784V7.32794C78.784 6.84794 78.72 6.45327 78.592 6.14394C78.464 5.82394 78.2667 5.5946 78 5.45594C77.7333 5.3066 77.4027 5.2426 77.008 5.26394C76.688 5.26394 76.3947 5.31727 76.128 5.42394C75.8613 5.51994 75.6267 5.6586 75.424 5.83994C75.232 6.02127 75.0773 6.2346 74.96 6.47994C74.8533 6.7146 74.8 6.9706 74.8 7.24794V12.3359H73.984C73.8453 12.3359 73.7067 12.3359 73.568 12.3359C73.4293 12.3359 73.2907 12.3359 73.152 12.3359ZM85.4676 12.4959C84.7636 12.4959 84.129 12.3733 83.5636 12.1279C82.9983 11.8826 82.529 11.5199 82.1556 11.0399L83.2756 10.0799C83.5956 10.4533 83.9423 10.7253 84.3156 10.8959C84.6996 11.0559 85.1316 11.1359 85.6116 11.1359C85.8036 11.1359 85.9796 11.1146 86.1396 11.0719C86.3103 11.0186 86.4543 10.9439 86.5716 10.8479C86.6996 10.7519 86.7956 10.6399 86.8596 10.5119C86.9236 10.3733 86.9556 10.2239 86.9556 10.0639C86.9556 9.7866 86.8543 9.5626 86.6516 9.39194C86.545 9.31727 86.3743 9.23727 86.1396 9.15194C85.9156 9.05594 85.6223 8.95994 85.2596 8.86394C84.641 8.70394 84.1343 8.5226 83.7396 8.31994C83.345 8.11727 83.041 7.88794 82.8276 7.63194C82.6676 7.42927 82.5503 7.2106 82.4756 6.97594C82.401 6.7306 82.3636 6.46394 82.3636 6.17594C82.3636 5.82394 82.4383 5.50394 82.5876 5.21594C82.7476 4.91727 82.961 4.66127 83.2276 4.44794C83.505 4.22394 83.825 4.05327 84.1876 3.93594C84.561 3.8186 84.9556 3.75994 85.3716 3.75994C85.7663 3.75994 86.1556 3.81327 86.5396 3.91994C86.9343 4.0266 87.297 4.18127 87.6276 4.38394C87.9583 4.5866 88.2356 4.8266 88.4596 5.10394L87.5156 6.14394C87.313 5.94127 87.089 5.76527 86.8436 5.61594C86.609 5.45594 86.369 5.33327 86.1236 5.24794C85.8783 5.1626 85.6543 5.11994 85.4516 5.11994C85.2276 5.11994 85.025 5.14127 84.8436 5.18394C84.6623 5.2266 84.5076 5.2906 84.3796 5.37594C84.2623 5.46127 84.1716 5.56794 84.1076 5.69594C84.0436 5.82394 84.0116 5.96794 84.0116 6.12794C84.0223 6.2666 84.0543 6.39994 84.1076 6.52794C84.1716 6.64527 84.257 6.7466 84.3636 6.83194C84.481 6.91727 84.657 7.00794 84.8916 7.10394C85.1263 7.19994 85.425 7.2906 85.7876 7.37594C86.321 7.5146 86.7583 7.66927 87.0996 7.83994C87.4516 7.99994 87.729 8.1866 87.9316 8.39994C88.145 8.6026 88.2943 8.83727 88.3796 9.10394C88.465 9.3706 88.5076 9.66927 88.5076 9.99994C88.5076 10.4799 88.369 10.9119 88.0916 11.2959C87.825 11.6693 87.4623 11.9626 87.0036 12.1759C86.545 12.3893 86.033 12.4959 85.4676 12.4959ZM95.2243 12.3359V1.13594H99.8963C100.611 1.13594 101.214 1.2426 101.704 1.45594C102.195 1.66927 102.563 1.98927 102.808 2.41594C103.064 2.83194 103.192 3.34394 103.192 3.95194C103.192 4.55994 103.022 5.07727 102.68 5.50394C102.35 5.9306 101.886 6.22394 101.288 6.38394V6.06394C101.79 6.1706 102.227 6.3626 102.6 6.63994C102.974 6.9066 103.262 7.2426 103.464 7.64794C103.678 8.05327 103.784 8.51727 103.784 9.03994C103.784 9.57327 103.699 10.0479 103.528 10.4639C103.368 10.8693 103.123 11.2106 102.792 11.4879C102.472 11.7653 102.083 11.9786 101.624 12.1279C101.166 12.2666 100.643 12.3359 100.056 12.3359H95.2243ZM96.9523 10.6719H99.9603C100.398 10.6719 100.766 10.6079 101.064 10.4799C101.374 10.3519 101.608 10.1653 101.768 9.91994C101.939 9.66394 102.024 9.35994 102.024 9.00794C102.024 8.67727 101.934 8.3946 101.752 8.15994C101.582 7.92527 101.336 7.74927 101.016 7.63194C100.696 7.50394 100.318 7.43994 99.8803 7.43994H96.9523V10.6719ZM96.9523 5.77594H99.8003C100.12 5.77594 100.403 5.71194 100.648 5.58394C100.904 5.45594 101.102 5.27994 101.24 5.05594C101.39 4.83194 101.464 4.57594 101.464 4.28794C101.464 3.80794 101.304 3.43994 100.984 3.18394C100.664 2.92794 100.206 2.79994 99.6083 2.79994H96.9523V5.77594ZM108.009 12.3359V2.79994H104.873V1.13594H112.969V2.79994H109.737V12.3359H108.009ZM123.04 12.4959C122.432 12.4959 121.866 12.4159 121.344 12.2559C120.832 12.0959 120.362 11.8559 119.936 11.5359C119.52 11.2053 119.146 10.7999 118.816 10.3199L120 8.95994C120.522 9.7066 121.024 10.2239 121.504 10.5119C121.984 10.7999 122.554 10.9439 123.216 10.9439C123.621 10.9439 123.989 10.8799 124.32 10.7519C124.65 10.6239 124.912 10.4479 125.104 10.2239C125.296 9.99994 125.392 9.74394 125.392 9.45594C125.392 9.26394 125.36 9.0826 125.296 8.91194C125.232 8.74127 125.13 8.5866 124.992 8.44794C124.864 8.30927 124.693 8.18127 124.48 8.06394C124.277 7.9466 124.037 7.84527 123.76 7.75994C123.482 7.66394 123.162 7.58394 122.8 7.51994C122.224 7.4026 121.722 7.24794 121.296 7.05594C120.869 6.86394 120.512 6.62394 120.224 6.33594C119.936 6.04794 119.722 5.7226 119.584 5.35994C119.445 4.9866 119.376 4.5706 119.376 4.11194C119.376 3.66394 119.472 3.24794 119.664 2.86394C119.866 2.47994 120.138 2.14927 120.48 1.87194C120.832 1.58394 121.242 1.36527 121.712 1.21594C122.181 1.05594 122.688 0.975937 123.232 0.975937C123.808 0.975937 124.336 1.0506 124.816 1.19994C125.296 1.34927 125.722 1.57327 126.096 1.87194C126.469 2.15994 126.778 2.51727 127.024 2.94394L125.808 4.14394C125.594 3.79194 125.354 3.4986 125.088 3.26394C124.821 3.0186 124.528 2.83727 124.208 2.71994C123.888 2.59194 123.546 2.52794 123.184 2.52794C122.768 2.52794 122.405 2.59194 122.096 2.71994C121.786 2.84794 121.541 3.02927 121.36 3.26394C121.189 3.48794 121.104 3.7546 121.104 4.06394C121.104 4.28794 121.146 4.49594 121.232 4.68794C121.317 4.86927 121.445 5.0346 121.616 5.18394C121.797 5.3226 122.037 5.4506 122.336 5.56794C122.634 5.6746 122.992 5.7706 123.408 5.85594C123.994 5.98394 124.517 6.14927 124.976 6.35194C125.434 6.54394 125.824 6.77327 126.144 7.03994C126.464 7.3066 126.704 7.60527 126.864 7.93594C127.034 8.2666 127.12 8.62394 127.12 9.00794C127.12 9.7226 126.954 10.3413 126.624 10.8639C126.293 11.3866 125.824 11.7919 125.216 12.0799C124.608 12.3573 123.882 12.4959 123.04 12.4959ZM129.568 12.3359V1.13594H133.952C134.752 1.13594 135.472 1.26927 136.112 1.53594C136.763 1.8026 137.317 2.1866 137.776 2.68794C138.235 3.18927 138.587 3.78127 138.832 4.46394C139.077 5.1466 139.2 5.90394 139.2 6.73594C139.2 7.56794 139.077 8.3306 138.832 9.02394C138.587 9.7066 138.235 10.2986 137.776 10.7999C137.328 11.2906 136.779 11.6693 136.128 11.9359C135.477 12.2026 134.752 12.3359 133.952 12.3359H129.568ZM131.296 10.8479L131.248 10.6719H133.872C134.437 10.6719 134.939 10.5813 135.376 10.3999C135.824 10.2186 136.197 9.9626 136.496 9.63194C136.805 9.2906 137.04 8.8746 137.2 8.38394C137.36 7.89327 137.44 7.34394 137.44 6.73594C137.44 6.12794 137.36 5.58394 137.2 5.10394C137.04 4.61327 136.805 4.19727 136.496 3.85594C136.187 3.5146 135.813 3.25327 135.376 3.07194C134.939 2.8906 134.437 2.79994 133.872 2.79994H131.2L131.296 2.65594V10.8479ZM140.817 8.57594V6.94394H145.425V8.57594H140.817ZM152.378 12.4959C151.599 12.4959 150.884 12.3573 150.234 12.0799C149.583 11.8026 149.018 11.4079 148.538 10.8959C148.058 10.3733 147.684 9.75994 147.418 9.05594C147.162 8.35194 147.034 7.5786 147.034 6.73594C147.034 5.93594 147.172 5.1946 147.45 4.51194C147.738 3.8186 148.132 3.2106 148.634 2.68794C149.135 2.16527 149.716 1.75994 150.378 1.47194C151.039 1.18394 151.754 1.03994 152.522 1.03994C153.066 1.03994 153.594 1.12527 154.106 1.29594C154.628 1.45594 155.098 1.68527 155.514 1.98394C155.94 2.27194 156.287 2.6026 156.554 2.97594L155.402 4.17594C155.092 3.8666 154.778 3.6106 154.458 3.40794C154.148 3.1946 153.828 3.0346 153.498 2.92794C153.178 2.82127 152.852 2.76794 152.522 2.76794C151.999 2.76794 151.508 2.86927 151.05 3.07194C150.602 3.26394 150.207 3.53594 149.866 3.88794C149.535 4.23994 149.274 4.66127 149.082 5.15194C148.89 5.63194 148.794 6.15994 148.794 6.73594C148.794 7.34394 148.884 7.8986 149.066 8.39994C149.258 8.8906 149.524 9.31194 149.866 9.66394C150.207 10.0159 150.612 10.2879 151.082 10.4799C151.562 10.6613 152.09 10.7519 152.666 10.7519C153.018 10.7519 153.364 10.7039 153.706 10.6079C154.047 10.5119 154.367 10.3733 154.666 10.1919C154.964 10.0106 155.236 9.79727 155.482 9.55194L156.346 10.9599C156.1 11.2479 155.764 11.5093 155.338 11.7439C154.922 11.9786 154.452 12.1653 153.93 12.3039C153.418 12.4319 152.9 12.4959 152.378 12.4959ZM162.149 12.4959C161.541 12.4959 160.976 12.4159 160.453 12.2559C159.941 12.0959 159.472 11.8559 159.045 11.5359C158.629 11.2053 158.256 10.7999 157.925 10.3199L159.109 8.95994C159.632 9.7066 160.133 10.2239 160.613 10.5119C161.093 10.7999 161.664 10.9439 162.325 10.9439C162.73 10.9439 163.098 10.8799 163.429 10.7519C163.76 10.6239 164.021 10.4479 164.213 10.2239C164.405 9.99994 164.501 9.74394 164.501 9.45594C164.501 9.26394 164.469 9.0826 164.405 8.91194C164.341 8.74127 164.24 8.5866 164.101 8.44794C163.973 8.30927 163.802 8.18127 163.589 8.06394C163.386 7.9466 163.146 7.84527 162.869 7.75994C162.592 7.66394 162.272 7.58394 161.909 7.51994C161.333 7.4026 160.832 7.24794 160.405 7.05594C159.978 6.86394 159.621 6.62394 159.333 6.33594C159.045 6.04794 158.832 5.7226 158.693 5.35994C158.554 4.9866 158.485 4.5706 158.485 4.11194C158.485 3.66394 158.581 3.24794 158.773 2.86394C158.976 2.47994 159.248 2.14927 159.589 1.87194C159.941 1.58394 160.352 1.36527 160.821 1.21594C161.29 1.05594 161.797 0.975937 162.341 0.975937C162.917 0.975937 163.445 1.0506 163.925 1.19994C164.405 1.34927 164.832 1.57327 165.205 1.87194C165.578 2.15994 165.888 2.51727 166.133 2.94394L164.917 4.14394C164.704 3.79194 164.464 3.4986 164.197 3.26394C163.93 3.0186 163.637 2.83727 163.317 2.71994C162.997 2.59194 162.656 2.52794 162.293 2.52794C161.877 2.52794 161.514 2.59194 161.205 2.71994C160.896 2.84794 160.65 3.02927 160.469 3.26394C160.298 3.48794 160.213 3.7546 160.213 4.06394C160.213 4.28794 160.256 4.49594 160.341 4.68794C160.426 4.86927 160.554 5.0346 160.725 5.18394C160.906 5.3226 161.146 5.4506 161.445 5.56794C161.744 5.6746 162.101 5.7706 162.517 5.85594C163.104 5.98394 163.626 6.14927 164.085 6.35194C164.544 6.54394 164.933 6.77327 165.253 7.03994C165.573 7.3066 165.813 7.60527 165.973 7.93594C166.144 8.2666 166.229 8.62394 166.229 9.00794C166.229 9.7226 166.064 10.3413 165.733 10.8639C165.402 11.3866 164.933 11.7919 164.325 12.0799C163.717 12.3573 162.992 12.4959 162.149 12.4959ZM168.677 12.3359V1.13594H173.445C174.085 1.13594 174.672 1.29594 175.205 1.61594C175.749 1.92527 176.181 2.35194 176.501 2.89594C176.821 3.42927 176.981 4.03194 176.981 4.70394C176.981 5.31194 176.821 5.87727 176.501 6.39994C176.181 6.9226 175.755 7.34394 175.221 7.66394C174.688 7.97327 174.096 8.12794 173.445 8.12794H170.405V12.3359H168.677ZM175.333 12.3359L172.485 7.27994L174.261 6.87994L177.429 12.3519L175.333 12.3359ZM170.405 6.46394H173.605C173.915 6.46394 174.192 6.38927 174.437 6.23994C174.683 6.07994 174.875 5.8666 175.013 5.59994C175.152 5.3226 175.221 5.0186 175.221 4.68794C175.221 4.3146 175.131 3.98927 174.949 3.71194C174.779 3.42394 174.533 3.19994 174.213 3.03994C173.904 2.87994 173.552 2.79994 173.157 2.79994H170.405V6.46394ZM184.287 12.3359V1.13594H188.671C189.471 1.13594 190.191 1.26927 190.831 1.53594C191.481 1.8026 192.036 2.1866 192.495 2.68794C192.953 3.18927 193.305 3.78127 193.551 4.46394C193.796 5.1466 193.919 5.90394 193.919 6.73594C193.919 7.56794 193.796 8.3306 193.551 9.02394C193.305 9.7066 192.953 10.2986 192.495 10.7999C192.047 11.2906 191.497 11.6693 190.847 11.9359C190.196 12.2026 189.471 12.3359 188.671 12.3359H184.287ZM186.015 10.8479L185.967 10.6719H188.591C189.156 10.6719 189.657 10.5813 190.095 10.3999C190.543 10.2186 190.916 9.9626 191.215 9.63194C191.524 9.2906 191.759 8.8746 191.919 8.38394C192.079 7.89327 192.159 7.34394 192.159 6.73594C192.159 6.12794 192.079 5.58394 191.919 5.10394C191.759 4.61327 191.524 4.19727 191.215 3.85594C190.905 3.5146 190.532 3.25327 190.095 3.07194C189.657 2.8906 189.156 2.79994 188.591 2.79994H185.919L186.015 2.65594V10.8479ZM196.112 12.3359V3.93594H197.76V12.3359H196.112ZM196.912 2.07994C196.56 2.07994 196.288 1.98927 196.096 1.80794C195.904 1.6266 195.808 1.3706 195.808 1.03994C195.808 0.730604 195.904 0.479937 196.096 0.287937C196.298 0.0959371 196.57 -6.29425e-05 196.912 -6.29425e-05C197.264 -6.29425e-05 197.536 0.0906038 197.728 0.271937C197.92 0.45327 198.016 0.70927 198.016 1.03994C198.016 1.34927 197.914 1.59994 197.712 1.79194C197.52 1.98394 197.253 2.07994 196.912 2.07994ZM200.293 12.3359V3.93594H201.957V6.57594L201.797 5.93594C201.914 5.5306 202.111 5.1626 202.389 4.83194C202.677 4.50127 203.002 4.23994 203.365 4.04794C203.738 3.85594 204.122 3.75994 204.517 3.75994C204.698 3.75994 204.869 3.77594 205.029 3.80794C205.199 3.83994 205.333 3.87727 205.429 3.91994L204.997 5.71194C204.869 5.6586 204.725 5.61594 204.565 5.58394C204.415 5.54127 204.266 5.51994 204.117 5.51994C203.829 5.51994 203.551 5.5786 203.285 5.69594C203.029 5.8026 202.799 5.95727 202.597 6.15994C202.405 6.35194 202.25 6.58127 202.133 6.84794C202.015 7.10394 201.957 7.3866 201.957 7.69594V12.3359H200.293ZM210.306 12.4959C209.442 12.4959 208.674 12.3146 208.002 11.9519C207.341 11.5786 206.818 11.0719 206.434 10.4319C206.061 9.79194 205.874 9.05594 205.874 8.22394C205.874 7.5626 205.981 6.95994 206.194 6.41594C206.408 5.87194 206.701 5.4026 207.074 5.00794C207.458 4.6026 207.912 4.29327 208.434 4.07994C208.968 3.85594 209.544 3.74394 210.162 3.74394C210.706 3.74394 211.213 3.8506 211.682 4.06394C212.152 4.2666 212.557 4.54927 212.898 4.91194C213.25 5.2746 213.517 5.7066 213.698 6.20794C213.89 6.6986 213.981 7.23727 213.97 7.82394L213.954 8.52794H207.09L206.722 7.21594H212.53L212.29 7.48794V7.10394C212.258 6.75194 212.141 6.43727 211.938 6.15994C211.736 5.8826 211.48 5.66394 211.17 5.50394C210.861 5.34394 210.525 5.26394 210.162 5.26394C209.586 5.26394 209.101 5.37594 208.706 5.59994C208.312 5.81327 208.013 6.13327 207.81 6.55994C207.608 6.97594 207.506 7.49327 207.506 8.11194C207.506 8.6986 207.629 9.2106 207.874 9.64794C208.12 10.0746 208.466 10.4053 208.914 10.6399C209.362 10.8746 209.88 10.9919 210.466 10.9919C210.882 10.9919 211.266 10.9226 211.618 10.7839C211.981 10.6453 212.37 10.3946 212.786 10.0319L213.618 11.1999C213.362 11.4559 213.048 11.6799 212.674 11.8719C212.312 12.0639 211.922 12.2186 211.506 12.3359C211.101 12.4426 210.701 12.4959 210.306 12.4959ZM219.329 12.4959C218.551 12.4959 217.852 12.3039 217.233 11.9199C216.625 11.5359 216.14 11.0133 215.777 10.3519C215.425 9.6906 215.249 8.94927 215.249 8.12794C215.249 7.3066 215.425 6.56527 215.777 5.90394C216.14 5.2426 216.625 4.71994 217.233 4.33594C217.852 3.95194 218.551 3.75994 219.329 3.75994C220.076 3.75994 220.753 3.9146 221.361 4.22394C221.98 4.5226 222.449 4.93327 222.769 5.45594L221.857 6.57594C221.687 6.3306 221.468 6.1066 221.201 5.90394C220.935 5.70127 220.652 5.54127 220.353 5.42394C220.055 5.3066 219.767 5.24794 219.489 5.24794C218.977 5.24794 218.519 5.37594 218.113 5.63194C217.719 5.87727 217.404 6.2186 217.169 6.65594C216.935 7.09327 216.817 7.58394 216.817 8.12794C216.817 8.67194 216.94 9.1626 217.185 9.59994C217.431 10.0266 217.756 10.3679 218.161 10.6239C218.567 10.8799 219.015 11.0079 219.505 11.0079C219.793 11.0079 220.071 10.9599 220.337 10.8639C220.615 10.7679 220.881 10.6239 221.137 10.4319C221.393 10.2399 221.633 10.0053 221.857 9.72794L222.769 10.8479C222.428 11.3279 221.937 11.7226 221.297 12.0319C220.668 12.3413 220.012 12.4959 219.329 12.4959ZM225.364 12.3359V1.79194H227.012V12.3359H225.364ZM223.62 5.53594V3.93594H228.964V5.53594H223.62ZM235.365 12.3359V1.13594H239.749C240.549 1.13594 241.269 1.26927 241.909 1.53594C242.56 1.8026 243.114 2.1866 243.573 2.68794C244.032 3.18927 244.384 3.78127 244.629 4.46394C244.874 5.1466 244.997 5.90394 244.997 6.73594C244.997 7.56794 244.874 8.3306 244.629 9.02394C244.384 9.7066 244.032 10.2986 243.573 10.7999C243.125 11.2906 242.576 11.6693 241.925 11.9359C241.274 12.2026 240.549 12.3359 239.749 12.3359H235.365ZM237.093 10.8479L237.045 10.6719H239.669C240.234 10.6719 240.736 10.5813 241.173 10.3999C241.621 10.2186 241.994 9.9626 242.293 9.63194C242.602 9.2906 242.837 8.8746 242.997 8.38394C243.157 7.89327 243.237 7.34394 243.237 6.73594C243.237 6.12794 243.157 5.58394 242.997 5.10394C242.837 4.61327 242.602 4.19727 242.293 3.85594C241.984 3.5146 241.61 3.25327 241.173 3.07194C240.736 2.8906 240.234 2.79994 239.669 2.79994H236.997L237.093 2.65594V10.8479ZM246.918 12.3359V3.93594H248.582V6.57594L248.422 5.93594C248.539 5.5306 248.736 5.1626 249.014 4.83194C249.302 4.50127 249.627 4.23994 249.99 4.04794C250.363 3.85594 250.747 3.75994 251.142 3.75994C251.323 3.75994 251.494 3.77594 251.654 3.80794C251.824 3.83994 251.958 3.87727 252.054 3.91994L251.622 5.71194C251.494 5.6586 251.35 5.61594 251.19 5.58394C251.04 5.54127 250.891 5.51994 250.742 5.51994C250.454 5.51994 250.176 5.5786 249.91 5.69594C249.654 5.8026 249.424 5.95727 249.222 6.15994C249.03 6.35194 248.875 6.58127 248.758 6.84794C248.64 7.10394 248.582 7.3866 248.582 7.69594V12.3359H246.918ZM253.643 12.3359V3.93594H255.291V12.3359H253.643ZM254.443 2.07994C254.091 2.07994 253.819 1.98927 253.627 1.80794C253.435 1.6266 253.339 1.3706 253.339 1.03994C253.339 0.730604 253.435 0.479937 253.627 0.287937C253.829 0.0959371 254.101 -6.29425e-05 254.443 -6.29425e-05C254.795 -6.29425e-05 255.067 0.0906038 255.259 0.271937C255.451 0.45327 255.547 0.70927 255.547 1.03994C255.547 1.34927 255.445 1.59994 255.243 1.79194C255.051 1.98394 254.784 2.07994 254.443 2.07994ZM260.576 12.3359L257.024 3.93594H258.8L261.36 10.2239L261.056 10.3679L263.792 3.93594H265.488L261.76 12.3359H260.576ZM270.681 12.4959C269.817 12.4959 269.049 12.3146 268.377 11.9519C267.716 11.5786 267.193 11.0719 266.809 10.4319C266.436 9.79194 266.249 9.05594 266.249 8.22394C266.249 7.5626 266.356 6.95994 266.569 6.41594C266.783 5.87194 267.076 5.4026 267.449 5.00794C267.833 4.6026 268.287 4.29327 268.809 4.07994C269.343 3.85594 269.919 3.74394 270.537 3.74394C271.081 3.74394 271.588 3.8506 272.057 4.06394C272.527 4.2666 272.932 4.54927 273.273 4.91194C273.625 5.2746 273.892 5.7066 274.073 6.20794C274.265 6.6986 274.356 7.23727 274.345 7.82394L274.329 8.52794H267.465L267.097 7.21594H272.905L272.665 7.48794V7.10394C272.633 6.75194 272.516 6.43727 272.313 6.15994C272.111 5.8826 271.855 5.66394 271.545 5.50394C271.236 5.34394 270.9 5.26394 270.537 5.26394C269.961 5.26394 269.476 5.37594 269.081 5.59994C268.687 5.81327 268.388 6.13327 268.185 6.55994C267.983 6.97594 267.881 7.49327 267.881 8.11194C267.881 8.6986 268.004 9.2106 268.249 9.64794C268.495 10.0746 268.841 10.4053 269.289 10.6399C269.737 10.8746 270.255 10.9919 270.841 10.9919C271.257 10.9919 271.641 10.9226 271.993 10.7839C272.356 10.6453 272.745 10.3946 273.161 10.0319L273.993 11.1999C273.737 11.4559 273.423 11.6799 273.049 11.8719C272.687 12.0639 272.297 12.2186 271.881 12.3359C271.476 12.4426 271.076 12.4959 270.681 12.4959ZM284.109 15.3119C282.807 14.5013 281.815 13.4879 281.133 12.2719C280.45 11.0559 280.109 9.70127 280.109 8.20794C280.109 6.72527 280.45 5.37594 281.133 4.15994C281.826 2.93327 282.823 1.9146 284.125 1.10394L285.005 2.09594C283.917 2.85327 283.085 3.75994 282.509 4.81594C281.943 5.86127 281.661 6.99194 281.661 8.20794C281.661 9.42394 281.943 10.5599 282.509 11.6159C283.085 12.6613 283.917 13.5626 285.005 14.3199L284.109 15.3119ZM290.352 12.4959C289.744 12.4959 289.179 12.4159 288.656 12.2559C288.144 12.0959 287.675 11.8559 287.248 11.5359C286.832 11.2053 286.459 10.7999 286.128 10.3199L287.312 8.95994C287.835 9.7066 288.336 10.2239 288.816 10.5119C289.296 10.7999 289.867 10.9439 290.528 10.9439C290.933 10.9439 291.301 10.8799 291.632 10.7519C291.963 10.6239 292.224 10.4479 292.416 10.2239C292.608 9.99994 292.704 9.74394 292.704 9.45594C292.704 9.26394 292.672 9.0826 292.608 8.91194C292.544 8.74127 292.443 8.5866 292.304 8.44794C292.176 8.30927 292.005 8.18127 291.792 8.06394C291.589 7.9466 291.349 7.84527 291.072 7.75994C290.795 7.66394 290.475 7.58394 290.112 7.51994C289.536 7.4026 289.035 7.24794 288.608 7.05594C288.181 6.86394 287.824 6.62394 287.536 6.33594C287.248 6.04794 287.035 5.7226 286.896 5.35994C286.757 4.9866 286.688 4.5706 286.688 4.11194C286.688 3.66394 286.784 3.24794 286.976 2.86394C287.179 2.47994 287.451 2.14927 287.792 1.87194C288.144 1.58394 288.555 1.36527 289.024 1.21594C289.493 1.05594 290 0.975937 290.544 0.975937C291.12 0.975937 291.648 1.0506 292.128 1.19994C292.608 1.34927 293.035 1.57327 293.408 1.87194C293.781 2.15994 294.091 2.51727 294.336 2.94394L293.12 4.14394C292.907 3.79194 292.667 3.4986 292.4 3.26394C292.133 3.0186 291.84 2.83727 291.52 2.71994C291.2 2.59194 290.859 2.52794 290.496 2.52794C290.08 2.52794 289.717 2.59194 289.408 2.71994C289.099 2.84794 288.853 3.02927 288.672 3.26394C288.501 3.48794 288.416 3.7546 288.416 4.06394C288.416 4.28794 288.459 4.49594 288.544 4.68794C288.629 4.86927 288.757 5.0346 288.928 5.18394C289.109 5.3226 289.349 5.4506 289.648 5.56794C289.947 5.6746 290.304 5.7706 290.72 5.85594C291.307 5.98394 291.829 6.14927 292.288 6.35194C292.747 6.54394 293.136 6.77327 293.456 7.03994C293.776 7.3066 294.016 7.60527 294.176 7.93594C294.347 8.2666 294.432 8.62394 294.432 9.00794C294.432 9.7226 294.267 10.3413 293.936 10.8639C293.605 11.3866 293.136 11.7919 292.528 12.0799C291.92 12.3573 291.195 12.4959 290.352 12.4959ZM296.881 12.3359V1.13594H303.937V2.79994H298.609V10.6719H303.937V12.3359H296.881ZM297.664 7.42394V5.75994H303.057V7.42394H297.664ZM309.093 12.3359L305.525 1.13594H307.365L309.525 8.14394C309.589 8.3146 309.647 8.51727 309.701 8.75194C309.754 8.97594 309.802 9.20527 309.845 9.43994C309.887 9.6746 309.925 9.89327 309.957 10.0959C309.999 10.2986 310.037 10.4639 310.069 10.5919L309.605 10.5759C309.765 10.0106 309.887 9.57327 309.973 9.26394C310.069 8.9546 310.143 8.71994 310.197 8.55994C310.25 8.38927 310.298 8.24527 310.341 8.12794L312.357 3.07194H313.909L315.861 8.12794C315.967 8.38394 316.058 8.63994 316.133 8.89594C316.218 9.14127 316.293 9.39194 316.357 9.64794C316.421 9.89327 316.49 10.1546 316.565 10.4319L316.149 10.5439C316.202 10.2559 316.239 10.0319 316.261 9.87194C316.293 9.70127 316.319 9.5626 316.341 9.45594C316.362 9.34927 316.383 9.24794 316.405 9.15194C316.426 9.04527 316.458 8.91194 316.501 8.75194C316.554 8.59194 316.623 8.37327 316.709 8.09594L318.837 1.13594H320.693L317.125 12.3359H315.925L312.965 5.32794L313.109 5.39194L310.261 12.3359H309.093ZM322.278 15.3119L321.398 14.3199C322.486 13.5626 323.313 12.6613 323.878 11.6159C324.454 10.5599 324.742 9.42394 324.742 8.20794C324.742 6.99194 324.454 5.86127 323.878 4.81594C323.313 3.75994 322.486 2.85327 321.398 2.09594L322.294 1.10394C323.595 1.9146 324.587 2.92794 325.27 4.14394C325.953 5.35994 326.294 6.7146 326.294 8.20794C326.294 9.6906 325.947 11.0453 325.254 12.2719C324.571 13.4879 323.579 14.5013 322.278 15.3119Z" fill="white"/>
</svg>
