<svg width="20" height="20" viewBox="0 0 20 20" fill="none" xmlns="http://www.w3.org/2000/svg">
<circle cx="10" cy="10" r="9.5" stroke="#484E53"/>
<path d="M6.52 13V7.26L5.5 7.44V6.75L7.34 6.46V13H6.52ZM10.2671 13.1C9.97378 13.1 9.66044 13.0733 9.32711 13.02C8.99378 12.9667 8.73044 12.9033 8.53711 12.83V12.11C8.79044 12.21 9.05378 12.2833 9.32711 12.33C9.60044 12.3767 9.88044 12.4 10.1671 12.4C10.7404 12.4 11.1638 12.3133 11.4371 12.14C11.7171 11.9667 11.8571 11.6633 11.8571 11.23C11.8571 10.8167 11.7271 10.5167 11.4671 10.33C11.2071 10.1433 10.8438 10.05 10.3771 10.05H9.44711L9.52711 9.43H10.2971C10.7771 9.43 11.1338 9.32667 11.3671 9.12C11.6004 8.90667 11.7171 8.61 11.7171 8.23C11.7171 7.86333 11.5938 7.59333 11.3471 7.42C11.1071 7.24667 10.7204 7.16 10.1871 7.16C9.92044 7.16 9.65044 7.18667 9.37711 7.24C9.11044 7.29333 8.87044 7.36333 8.65711 7.45V6.74C8.84378 6.66667 9.08711 6.60333 9.38711 6.55C9.69378 6.49 9.99711 6.46 10.2971 6.46C11.0638 6.46 11.6271 6.62667 11.9871 6.96C12.3538 7.28667 12.5371 7.70667 12.5371 8.22C12.5371 8.54667 12.4504 8.85333 12.2771 9.14C12.1104 9.42 11.8404 9.61667 11.4671 9.73C11.8938 9.82333 12.2004 10.01 12.3871 10.29C12.5804 10.5633 12.6771 10.8767 12.6771 11.23C12.6771 11.8567 12.4604 12.3267 12.0271 12.64C11.5938 12.9467 11.0071 13.1 10.2671 13.1Z" fill="#3D3A3A"/>
</svg>
