<svg width="338" height="16" viewBox="0 0 338 16" fill="none" xmlns="http://www.w3.org/2000/svg">
<path d="M-0.000359297 12.3359V1.13594H4.38364C5.18364 1.13594 5.90364 1.26927 6.54364 1.53594C7.19431 1.8026 7.74897 2.1866 8.20764 2.68794C8.66631 3.18927 9.01831 3.78127 9.26364 4.46394C9.50897 5.1466 9.63164 5.90394 9.63164 6.73594C9.63164 7.56794 9.50897 8.3306 9.26364 9.02394C9.01831 9.7066 8.66631 10.2986 8.20764 10.7999C7.75964 11.2906 7.21031 11.6693 6.55964 11.9359C5.90897 12.2026 5.18364 12.3359 4.38364 12.3359H-0.000359297ZM1.72764 10.8479L1.67964 10.6719H4.30364C4.86897 10.6719 5.37031 10.5813 5.80764 10.3999C6.25564 10.2186 6.62897 9.9626 6.92764 9.63194C7.23697 9.2906 7.47164 8.8746 7.63164 8.38394C7.79164 7.89327 7.87164 7.34394 7.87164 6.73594C7.87164 6.12794 7.79164 5.58394 7.63164 5.10394C7.47164 4.61327 7.23697 4.19727 6.92764 3.85594C6.61831 3.5146 6.24497 3.25327 5.80764 3.07194C5.37031 2.8906 4.86897 2.79994 4.30364 2.79994H1.63164L1.72764 2.65594V10.8479ZM11.8244 12.3359V3.93594H13.4724V12.3359H11.8244ZM12.6244 2.07994C12.2724 2.07994 12.0004 1.98927 11.8084 1.80794C11.6164 1.6266 11.5204 1.3706 11.5204 1.03994C11.5204 0.730604 11.6164 0.479937 11.8084 0.287937C12.0111 0.0959371 12.2831 -6.29425e-05 12.6244 -6.29425e-05C12.9764 -6.29425e-05 13.2484 0.0906038 13.4404 0.271937C13.6324 0.45327 13.7284 0.70927 13.7284 1.03994C13.7284 1.34927 13.6271 1.59994 13.4244 1.79194C13.2324 1.98394 12.9657 2.07994 12.6244 2.07994ZM15.9735 12.3359V3.93594H17.6375V5.72794L17.3335 5.91994C17.4188 5.6426 17.5522 5.37594 17.7335 5.11994C17.9255 4.86394 18.1548 4.63994 18.4215 4.44794C18.6988 4.24527 18.9922 4.08527 19.3015 3.96794C19.6215 3.8506 19.9468 3.79194 20.2775 3.79194C20.7575 3.79194 21.1788 3.87194 21.5415 4.03194C21.9042 4.19194 22.2028 4.43194 22.4375 4.75194C22.6722 5.07194 22.8428 5.47194 22.9495 5.95194L22.6935 5.88794L22.8055 5.61594C22.9228 5.3706 23.0828 5.14127 23.2855 4.92794C23.4988 4.70394 23.7388 4.5066 24.0055 4.33594C24.2722 4.16527 24.5548 4.03194 24.8535 3.93594C25.1522 3.83994 25.4455 3.79194 25.7335 3.79194C26.3628 3.79194 26.8802 3.91994 27.2855 4.17594C27.7015 4.43194 28.0108 4.82127 28.2135 5.34394C28.4268 5.8666 28.5335 6.51727 28.5335 7.29594V12.3359H26.8695V7.39194C26.8695 6.91194 26.8055 6.5226 26.6775 6.22394C26.5602 5.9146 26.3788 5.68527 26.1335 5.53594C25.8882 5.3866 25.5735 5.31194 25.1895 5.31194C24.8908 5.31194 24.6082 5.36527 24.3415 5.47194C24.0855 5.56794 23.8615 5.7066 23.6695 5.88794C23.4775 6.06927 23.3282 6.2826 23.2215 6.52794C23.1148 6.7626 23.0615 7.02394 23.0615 7.31194V12.3359H21.3975V7.35994C21.3975 6.9226 21.3335 6.5546 21.2055 6.25594C21.0775 5.9466 20.8908 5.71194 20.6455 5.55194C20.4002 5.39194 20.1015 5.31194 19.7495 5.31194C19.4508 5.31194 19.1735 5.36527 18.9175 5.47194C18.6615 5.56794 18.4375 5.7066 18.2455 5.88794C18.0535 6.0586 17.9042 6.2666 17.7975 6.51194C17.6908 6.7466 17.6375 7.0026 17.6375 7.27994V12.3359H15.9735ZM34.6599 12.4959C33.7959 12.4959 33.0279 12.3146 32.3559 11.9519C31.6946 11.5786 31.1719 11.0719 30.7879 10.4319C30.4146 9.79194 30.2279 9.05594 30.2279 8.22394C30.2279 7.5626 30.3346 6.95994 30.5479 6.41594C30.7612 5.87194 31.0546 5.4026 31.4279 5.00794C31.8119 4.6026 32.2652 4.29327 32.7879 4.07994C33.3212 3.85594 33.8972 3.74394 34.5159 3.74394C35.0599 3.74394 35.5666 3.8506 36.0359 4.06394C36.5052 4.2666 36.9106 4.54927 37.2519 4.91194C37.6039 5.2746 37.8706 5.7066 38.0519 6.20794C38.2439 6.6986 38.3346 7.23727 38.3239 7.82394L38.3079 8.52794H31.4439L31.0759 7.21594H36.8839L36.6439 7.48794V7.10394C36.6119 6.75194 36.4946 6.43727 36.2919 6.15994C36.0892 5.8826 35.8332 5.66394 35.5239 5.50394C35.2146 5.34394 34.8786 5.26394 34.5159 5.26394C33.9399 5.26394 33.4546 5.37594 33.0599 5.59994C32.6652 5.81327 32.3666 6.13327 32.1639 6.55994C31.9612 6.97594 31.8599 7.49327 31.8599 8.11194C31.8599 8.6986 31.9826 9.2106 32.2279 9.64794C32.4732 10.0746 32.8199 10.4053 33.2679 10.6399C33.7159 10.8746 34.2332 10.9919 34.8199 10.9919C35.2359 10.9919 35.6199 10.9226 35.9719 10.7839C36.3346 10.6453 36.7239 10.3946 37.1399 10.0319L37.9719 11.1999C37.7159 11.4559 37.4012 11.6799 37.0279 11.8719C36.6652 12.0639 36.2759 12.2186 35.8599 12.3359C35.4546 12.4426 35.0546 12.4959 34.6599 12.4959ZM40.1149 12.3359V3.93594H41.7629V5.66394L41.4749 5.85594C41.5816 5.4826 41.7896 5.14127 42.0989 4.83194C42.4082 4.51194 42.7762 4.25594 43.2029 4.06394C43.6296 3.86127 44.0669 3.75994 44.5149 3.75994C45.1549 3.75994 45.6882 3.88794 46.1149 4.14394C46.5416 4.38927 46.8616 4.76794 47.0749 5.27994C47.2882 5.79194 47.3949 6.43727 47.3949 7.21594V12.3359H45.7469V7.32794C45.7469 6.84794 45.6829 6.45327 45.5549 6.14394C45.4269 5.82394 45.2296 5.5946 44.9629 5.45594C44.6962 5.3066 44.3656 5.2426 43.9709 5.26394C43.6509 5.26394 43.3576 5.31727 43.0909 5.42394C42.8242 5.51994 42.5896 5.6586 42.3869 5.83994C42.1949 6.02127 42.0402 6.2346 41.9229 6.47994C41.8162 6.7146 41.7629 6.9706 41.7629 7.24794V12.3359H40.9469C40.8082 12.3359 40.6696 12.3359 40.5309 12.3359C40.3922 12.3359 40.2536 12.3359 40.1149 12.3359ZM52.4305 12.4959C51.7265 12.4959 51.0918 12.3733 50.5265 12.1279C49.9612 11.8826 49.4918 11.5199 49.1185 11.0399L50.2385 10.0799C50.5585 10.4533 50.9052 10.7253 51.2785 10.8959C51.6625 11.0559 52.0945 11.1359 52.5745 11.1359C52.7665 11.1359 52.9425 11.1146 53.1025 11.0719C53.2732 11.0186 53.4172 10.9439 53.5345 10.8479C53.6625 10.7519 53.7585 10.6399 53.8225 10.5119C53.8865 10.3733 53.9185 10.2239 53.9185 10.0639C53.9185 9.7866 53.8172 9.5626 53.6145 9.39194C53.5078 9.31727 53.3372 9.23727 53.1025 9.15194C52.8785 9.05594 52.5852 8.95994 52.2225 8.86394C51.6038 8.70394 51.0972 8.5226 50.7025 8.31994C50.3078 8.11727 50.0038 7.88794 49.7905 7.63194C49.6305 7.42927 49.5132 7.2106 49.4385 6.97594C49.3638 6.7306 49.3265 6.46394 49.3265 6.17594C49.3265 5.82394 49.4012 5.50394 49.5505 5.21594C49.7105 4.91727 49.9238 4.66127 50.1905 4.44794C50.4678 4.22394 50.7878 4.05327 51.1505 3.93594C51.5238 3.8186 51.9185 3.75994 52.3345 3.75994C52.7292 3.75994 53.1185 3.81327 53.5025 3.91994C53.8972 4.0266 54.2598 4.18127 54.5905 4.38394C54.9212 4.5866 55.1985 4.8266 55.4225 5.10394L54.4785 6.14394C54.2758 5.94127 54.0518 5.76527 53.8065 5.61594C53.5718 5.45594 53.3318 5.33327 53.0865 5.24794C52.8412 5.1626 52.6172 5.11994 52.4145 5.11994C52.1905 5.11994 51.9878 5.14127 51.8065 5.18394C51.6252 5.2266 51.4705 5.2906 51.3425 5.37594C51.2252 5.46127 51.1345 5.56794 51.0705 5.69594C51.0065 5.82394 50.9745 5.96794 50.9745 6.12794C50.9852 6.2666 51.0172 6.39994 51.0705 6.52794C51.1345 6.64527 51.2198 6.7466 51.3265 6.83194C51.4438 6.91727 51.6198 7.00794 51.8545 7.10394C52.0892 7.19994 52.3878 7.2906 52.7505 7.37594C53.2838 7.5146 53.7212 7.66927 54.0625 7.83994C54.4145 7.99994 54.6918 8.1866 54.8945 8.39994C55.1078 8.6026 55.2572 8.83727 55.3425 9.10394C55.4278 9.3706 55.4705 9.66927 55.4705 9.99994C55.4705 10.4799 55.3318 10.9119 55.0545 11.2959C54.7878 11.6693 54.4252 11.9626 53.9665 12.1759C53.5078 12.3893 52.9958 12.4959 52.4305 12.4959ZM57.5588 12.3359V3.93594H59.2068V12.3359H57.5588ZM58.3588 2.07994C58.0068 2.07994 57.7348 1.98927 57.5428 1.80794C57.3508 1.6266 57.2548 1.3706 57.2548 1.03994C57.2548 0.730604 57.3508 0.479937 57.5428 0.287937C57.7454 0.0959371 58.0174 -6.29425e-05 58.3588 -6.29425e-05C58.7108 -6.29425e-05 58.9828 0.0906038 59.1748 0.271937C59.3668 0.45327 59.4628 0.70927 59.4628 1.03994C59.4628 1.34927 59.3614 1.59994 59.1588 1.79194C58.9668 1.98394 58.7001 2.07994 58.3588 2.07994ZM65.5159 12.4959C64.6946 12.4959 63.9586 12.3093 63.3079 11.9359C62.6679 11.5519 62.1612 11.0346 61.7879 10.3839C61.4146 9.7226 61.2279 8.9706 61.2279 8.12794C61.2279 7.28527 61.4146 6.5386 61.7879 5.88794C62.1612 5.2266 62.6679 4.70927 63.3079 4.33594C63.9586 3.95194 64.6946 3.75994 65.5159 3.75994C66.3266 3.75994 67.0519 3.95194 67.6919 4.33594C68.3426 4.70927 68.8546 5.2266 69.2279 5.88794C69.6012 6.5386 69.7879 7.28527 69.7879 8.12794C69.7879 8.9706 69.6012 9.7226 69.2279 10.3839C68.8546 11.0346 68.3426 11.5519 67.6919 11.9359C67.0519 12.3093 66.3266 12.4959 65.5159 12.4959ZM65.5159 10.9919C66.0172 10.9919 66.4652 10.8693 66.8599 10.6239C67.2546 10.3679 67.5639 10.0266 67.7879 9.59994C68.0119 9.1626 68.1186 8.67194 68.1079 8.12794C68.1186 7.57327 68.0119 7.0826 67.7879 6.65594C67.5639 6.2186 67.2546 5.87727 66.8599 5.63194C66.4652 5.3866 66.0172 5.26394 65.5159 5.26394C65.0146 5.26394 64.5612 5.39194 64.1559 5.64794C63.7612 5.89327 63.4519 6.2346 63.2279 6.67194C63.0039 7.0986 62.8972 7.58394 62.9079 8.12794C62.8972 8.67194 63.0039 9.1626 63.2279 9.59994C63.4519 10.0266 63.7612 10.3679 64.1559 10.6239C64.5612 10.8693 65.0146 10.9919 65.5159 10.9919ZM71.5836 12.3359V3.93594H73.2316V5.66394L72.9436 5.85594C73.0503 5.4826 73.2583 5.14127 73.5676 4.83194C73.877 4.51194 74.245 4.25594 74.6716 4.06394C75.0983 3.86127 75.5356 3.75994 75.9836 3.75994C76.6236 3.75994 77.157 3.88794 77.5836 4.14394C78.0103 4.38927 78.3303 4.76794 78.5436 5.27994C78.757 5.79194 78.8636 6.43727 78.8636 7.21594V12.3359H77.2156V7.32794C77.2156 6.84794 77.1516 6.45327 77.0236 6.14394C76.8956 5.82394 76.6983 5.5946 76.4316 5.45594C76.165 5.3066 75.8343 5.2426 75.4396 5.26394C75.1196 5.26394 74.8263 5.31727 74.5596 5.42394C74.293 5.51994 74.0583 5.6586 73.8556 5.83994C73.6636 6.02127 73.509 6.2346 73.3916 6.47994C73.285 6.7146 73.2316 6.9706 73.2316 7.24794V12.3359H72.4156C72.277 12.3359 72.1383 12.3359 71.9996 12.3359C71.861 12.3359 71.7223 12.3359 71.5836 12.3359ZM83.8993 12.4959C83.1953 12.4959 82.5606 12.3733 81.9953 12.1279C81.4299 11.8826 80.9606 11.5199 80.5873 11.0399L81.7073 10.0799C82.0273 10.4533 82.3739 10.7253 82.7473 10.8959C83.1313 11.0559 83.5633 11.1359 84.0433 11.1359C84.2353 11.1359 84.4113 11.1146 84.5713 11.0719C84.7419 11.0186 84.8859 10.9439 85.0033 10.8479C85.1313 10.7519 85.2273 10.6399 85.2913 10.5119C85.3553 10.3733 85.3873 10.2239 85.3873 10.0639C85.3873 9.7866 85.2859 9.5626 85.0833 9.39194C84.9766 9.31727 84.8059 9.23727 84.5713 9.15194C84.3473 9.05594 84.0539 8.95994 83.6913 8.86394C83.0726 8.70394 82.5659 8.5226 82.1713 8.31994C81.7766 8.11727 81.4726 7.88794 81.2593 7.63194C81.0993 7.42927 80.9819 7.2106 80.9073 6.97594C80.8326 6.7306 80.7953 6.46394 80.7953 6.17594C80.7953 5.82394 80.8699 5.50394 81.0193 5.21594C81.1793 4.91727 81.3926 4.66127 81.6593 4.44794C81.9366 4.22394 82.2566 4.05327 82.6193 3.93594C82.9926 3.8186 83.3873 3.75994 83.8033 3.75994C84.1979 3.75994 84.5873 3.81327 84.9713 3.91994C85.3659 4.0266 85.7286 4.18127 86.0593 4.38394C86.3899 4.5866 86.6673 4.8266 86.8913 5.10394L85.9473 6.14394C85.7446 5.94127 85.5206 5.76527 85.2753 5.61594C85.0406 5.45594 84.8006 5.33327 84.5553 5.24794C84.3099 5.1626 84.0859 5.11994 83.8833 5.11994C83.6593 5.11994 83.4566 5.14127 83.2753 5.18394C83.0939 5.2266 82.9393 5.2906 82.8113 5.37594C82.6939 5.46127 82.6033 5.56794 82.5393 5.69594C82.4753 5.82394 82.4433 5.96794 82.4433 6.12794C82.4539 6.2666 82.4859 6.39994 82.5393 6.52794C82.6033 6.64527 82.6886 6.7466 82.7953 6.83194C82.9126 6.91727 83.0886 7.00794 83.3233 7.10394C83.5579 7.19994 83.8566 7.2906 84.2193 7.37594C84.7526 7.5146 85.1899 7.66927 85.5313 7.83994C85.8833 7.99994 86.1606 8.1866 86.3633 8.39994C86.5766 8.6026 86.7259 8.83727 86.8113 9.10394C86.8966 9.3706 86.9393 9.66927 86.9393 9.99994C86.9393 10.4799 86.8006 10.9119 86.5233 11.2959C86.2566 11.6693 85.8939 11.9626 85.4353 12.1759C84.9766 12.3893 84.4646 12.4959 83.8993 12.4959ZM93.6559 12.3359V1.13594H98.0399C98.8399 1.13594 99.5599 1.26927 100.2 1.53594C100.851 1.8026 101.405 2.1866 101.864 2.68794C102.323 3.18927 102.675 3.78127 102.92 4.46394C103.165 5.1466 103.288 5.90394 103.288 6.73594C103.288 7.56794 103.165 8.3306 102.92 9.02394C102.675 9.7066 102.323 10.2986 101.864 10.7999C101.416 11.2906 100.867 11.6693 100.216 11.9359C99.5652 12.2026 98.8399 12.3359 98.0399 12.3359H93.6559ZM95.3839 10.8479L95.3359 10.6719H97.9599C98.5252 10.6719 99.0266 10.5813 99.4639 10.3999C99.9119 10.2186 100.285 9.9626 100.584 9.63194C100.893 9.2906 101.128 8.8746 101.288 8.38394C101.448 7.89327 101.528 7.34394 101.528 6.73594C101.528 6.12794 101.448 5.58394 101.288 5.10394C101.128 4.61327 100.893 4.19727 100.584 3.85594C100.275 3.5146 99.9012 3.25327 99.4639 3.07194C99.0266 2.8906 98.5252 2.79994 97.9599 2.79994H95.2879L95.3839 2.65594V10.8479ZM108.436 12.3359L103.956 1.13594H105.924L108.596 7.93594C108.724 8.2666 108.836 8.56527 108.932 8.83194C109.039 9.0986 109.13 9.34394 109.204 9.56794C109.279 9.78127 109.348 9.98394 109.412 10.1759C109.476 10.3679 109.54 10.5599 109.604 10.7519L109.188 10.7679C109.263 10.5119 109.343 10.2453 109.428 9.96794C109.514 9.6906 109.61 9.3866 109.716 9.05594C109.834 8.72527 109.972 8.35194 110.132 7.93594L112.612 1.13594H114.628L110.116 12.3359H108.436ZM118.862 12.3359V2.79994H115.726V1.13594H123.822V2.79994H120.59V12.3359H118.862ZM133.893 12.4959C133.285 12.4959 132.72 12.4159 132.197 12.2559C131.685 12.0959 131.216 11.8559 130.789 11.5359C130.373 11.2053 130 10.7999 129.669 10.3199L130.853 8.95994C131.376 9.7066 131.877 10.2239 132.357 10.5119C132.837 10.7999 133.408 10.9439 134.069 10.9439C134.474 10.9439 134.842 10.8799 135.173 10.7519C135.504 10.6239 135.765 10.4479 135.957 10.2239C136.149 9.99994 136.245 9.74394 136.245 9.45594C136.245 9.26394 136.213 9.0826 136.149 8.91194C136.085 8.74127 135.984 8.5866 135.845 8.44794C135.717 8.30927 135.546 8.18127 135.333 8.06394C135.13 7.9466 134.89 7.84527 134.613 7.75994C134.336 7.66394 134.016 7.58394 133.653 7.51994C133.077 7.4026 132.576 7.24794 132.149 7.05594C131.722 6.86394 131.365 6.62394 131.077 6.33594C130.789 6.04794 130.576 5.7226 130.437 5.35994C130.298 4.9866 130.229 4.5706 130.229 4.11194C130.229 3.66394 130.325 3.24794 130.517 2.86394C130.72 2.47994 130.992 2.14927 131.333 1.87194C131.685 1.58394 132.096 1.36527 132.565 1.21594C133.034 1.05594 133.541 0.975937 134.085 0.975937C134.661 0.975937 135.189 1.0506 135.669 1.19994C136.149 1.34927 136.576 1.57327 136.949 1.87194C137.322 2.15994 137.632 2.51727 137.877 2.94394L136.661 4.14394C136.448 3.79194 136.208 3.4986 135.941 3.26394C135.674 3.0186 135.381 2.83727 135.061 2.71994C134.741 2.59194 134.4 2.52794 134.037 2.52794C133.621 2.52794 133.258 2.59194 132.949 2.71994C132.64 2.84794 132.394 3.02927 132.213 3.26394C132.042 3.48794 131.957 3.7546 131.957 4.06394C131.957 4.28794 132 4.49594 132.085 4.68794C132.17 4.86927 132.298 5.0346 132.469 5.18394C132.65 5.3226 132.89 5.4506 133.189 5.56794C133.488 5.6746 133.845 5.7706 134.261 5.85594C134.848 5.98394 135.37 6.14927 135.829 6.35194C136.288 6.54394 136.677 6.77327 136.997 7.03994C137.317 7.3066 137.557 7.60527 137.717 7.93594C137.888 8.2666 137.973 8.62394 137.973 9.00794C137.973 9.7226 137.808 10.3413 137.477 10.8639C137.146 11.3866 136.677 11.7919 136.069 12.0799C135.461 12.3573 134.736 12.4959 133.893 12.4959ZM140.422 12.3359V1.13594H144.806C145.606 1.13594 146.326 1.26927 146.966 1.53594C147.616 1.8026 148.171 2.1866 148.63 2.68794C149.088 3.18927 149.44 3.78127 149.686 4.46394C149.931 5.1466 150.054 5.90394 150.054 6.73594C150.054 7.56794 149.931 8.3306 149.686 9.02394C149.44 9.7066 149.088 10.2986 148.63 10.7999C148.182 11.2906 147.632 11.6693 146.982 11.9359C146.331 12.2026 145.606 12.3359 144.806 12.3359H140.422ZM142.15 10.8479L142.102 10.6719H144.726C145.291 10.6719 145.792 10.5813 146.23 10.3999C146.678 10.2186 147.051 9.9626 147.35 9.63194C147.659 9.2906 147.894 8.8746 148.054 8.38394C148.214 7.89327 148.294 7.34394 148.294 6.73594C148.294 6.12794 148.214 5.58394 148.054 5.10394C147.894 4.61327 147.659 4.19727 147.35 3.85594C147.04 3.5146 146.667 3.25327 146.23 3.07194C145.792 2.8906 145.291 2.79994 144.726 2.79994H142.054L142.15 2.65594V10.8479ZM151.67 8.57594V6.94394H156.278V8.57594H151.67ZM163.231 12.4959C162.452 12.4959 161.738 12.3573 161.087 12.0799C160.436 11.8026 159.871 11.4079 159.391 10.8959C158.911 10.3733 158.538 9.75994 158.271 9.05594C158.015 8.35194 157.887 7.5786 157.887 6.73594C157.887 5.93594 158.026 5.1946 158.303 4.51194C158.591 3.8186 158.986 3.2106 159.487 2.68794C159.988 2.16527 160.57 1.75994 161.231 1.47194C161.892 1.18394 162.607 1.03994 163.375 1.03994C163.919 1.03994 164.447 1.12527 164.959 1.29594C165.482 1.45594 165.951 1.68527 166.367 1.98394C166.794 2.27194 167.14 2.6026 167.407 2.97594L166.255 4.17594C165.946 3.8666 165.631 3.6106 165.311 3.40794C165.002 3.1946 164.682 3.0346 164.351 2.92794C164.031 2.82127 163.706 2.76794 163.375 2.76794C162.852 2.76794 162.362 2.86927 161.903 3.07194C161.455 3.26394 161.06 3.53594 160.719 3.88794C160.388 4.23994 160.127 4.66127 159.935 5.15194C159.743 5.63194 159.647 6.15994 159.647 6.73594C159.647 7.34394 159.738 7.8986 159.919 8.39994C160.111 8.8906 160.378 9.31194 160.719 9.66394C161.06 10.0159 161.466 10.2879 161.935 10.4799C162.415 10.6613 162.943 10.7519 163.519 10.7519C163.871 10.7519 164.218 10.7039 164.559 10.6079C164.9 10.5119 165.22 10.3733 165.519 10.1919C165.818 10.0106 166.09 9.79727 166.335 9.55194L167.199 10.9599C166.954 11.2479 166.618 11.5093 166.191 11.7439C165.775 11.9786 165.306 12.1653 164.783 12.3039C164.271 12.4319 163.754 12.4959 163.231 12.4959ZM173.003 12.4959C172.395 12.4959 171.829 12.4159 171.307 12.2559C170.795 12.0959 170.325 11.8559 169.899 11.5359C169.483 11.2053 169.109 10.7999 168.779 10.3199L169.963 8.95994C170.485 9.7066 170.987 10.2239 171.467 10.5119C171.947 10.7999 172.517 10.9439 173.179 10.9439C173.584 10.9439 173.952 10.8799 174.283 10.7519C174.613 10.6239 174.875 10.4479 175.067 10.2239C175.259 9.99994 175.355 9.74394 175.355 9.45594C175.355 9.26394 175.323 9.0826 175.259 8.91194C175.195 8.74127 175.093 8.5866 174.955 8.44794C174.827 8.30927 174.656 8.18127 174.443 8.06394C174.24 7.9466 174 7.84527 173.723 7.75994C173.445 7.66394 173.125 7.58394 172.763 7.51994C172.187 7.4026 171.685 7.24794 171.259 7.05594C170.832 6.86394 170.475 6.62394 170.187 6.33594C169.899 6.04794 169.685 5.7226 169.547 5.35994C169.408 4.9866 169.339 4.5706 169.339 4.11194C169.339 3.66394 169.435 3.24794 169.627 2.86394C169.829 2.47994 170.101 2.14927 170.443 1.87194C170.795 1.58394 171.205 1.36527 171.675 1.21594C172.144 1.05594 172.651 0.975937 173.195 0.975937C173.771 0.975937 174.299 1.0506 174.779 1.19994C175.259 1.34927 175.685 1.57327 176.059 1.87194C176.432 2.15994 176.741 2.51727 176.987 2.94394L175.771 4.14394C175.557 3.79194 175.317 3.4986 175.051 3.26394C174.784 3.0186 174.491 2.83727 174.171 2.71994C173.851 2.59194 173.509 2.52794 173.147 2.52794C172.731 2.52794 172.368 2.59194 172.059 2.71994C171.749 2.84794 171.504 3.02927 171.323 3.26394C171.152 3.48794 171.067 3.7546 171.067 4.06394C171.067 4.28794 171.109 4.49594 171.195 4.68794C171.28 4.86927 171.408 5.0346 171.579 5.18394C171.76 5.3226 172 5.4506 172.299 5.56794C172.597 5.6746 172.955 5.7706 173.371 5.85594C173.957 5.98394 174.48 6.14927 174.939 6.35194C175.397 6.54394 175.787 6.77327 176.107 7.03994C176.427 7.3066 176.667 7.60527 176.827 7.93594C176.997 8.2666 177.083 8.62394 177.083 9.00794C177.083 9.7226 176.917 10.3413 176.587 10.8639C176.256 11.3866 175.787 11.7919 175.179 12.0799C174.571 12.3573 173.845 12.4959 173.003 12.4959ZM179.531 12.3359V1.13594H184.299C184.939 1.13594 185.526 1.29594 186.059 1.61594C186.603 1.92527 187.035 2.35194 187.355 2.89594C187.675 3.42927 187.835 4.03194 187.835 4.70394C187.835 5.31194 187.675 5.87727 187.355 6.39994C187.035 6.9226 186.608 7.34394 186.075 7.66394C185.542 7.97327 184.95 8.12794 184.299 8.12794H181.259V12.3359H179.531ZM186.187 12.3359L183.339 7.27994L185.115 6.87994L188.283 12.3519L186.187 12.3359ZM181.259 6.46394H184.459C184.768 6.46394 185.046 6.38927 185.291 6.23994C185.536 6.07994 185.728 5.8666 185.867 5.59994C186.006 5.3226 186.075 5.0186 186.075 4.68794C186.075 4.3146 185.984 3.98927 185.803 3.71194C185.632 3.42394 185.387 3.19994 185.067 3.03994C184.758 2.87994 184.406 2.79994 184.011 2.79994H181.259V6.46394ZM195.14 12.3359V1.13594H199.524C200.324 1.13594 201.044 1.26927 201.684 1.53594C202.335 1.8026 202.89 2.1866 203.348 2.68794C203.807 3.18927 204.159 3.78127 204.404 4.46394C204.65 5.1466 204.772 5.90394 204.772 6.73594C204.772 7.56794 204.65 8.3306 204.404 9.02394C204.159 9.7066 203.807 10.2986 203.348 10.7999C202.9 11.2906 202.351 11.6693 201.7 11.9359C201.05 12.2026 200.324 12.3359 199.524 12.3359H195.14ZM196.868 10.8479L196.82 10.6719H199.444C200.01 10.6719 200.511 10.5813 200.948 10.3999C201.396 10.2186 201.77 9.9626 202.068 9.63194C202.378 9.2906 202.612 8.8746 202.772 8.38394C202.932 7.89327 203.012 7.34394 203.012 6.73594C203.012 6.12794 202.932 5.58394 202.772 5.10394C202.612 4.61327 202.378 4.19727 202.068 3.85594C201.759 3.5146 201.386 3.25327 200.948 3.07194C200.511 2.8906 200.01 2.79994 199.444 2.79994H196.772L196.868 2.65594V10.8479ZM206.965 12.3359V3.93594H208.613V12.3359H206.965ZM207.765 2.07994C207.413 2.07994 207.141 1.98927 206.949 1.80794C206.757 1.6266 206.661 1.3706 206.661 1.03994C206.661 0.730604 206.757 0.479937 206.949 0.287937C207.152 0.0959371 207.424 -6.29425e-05 207.765 -6.29425e-05C208.117 -6.29425e-05 208.389 0.0906038 208.581 0.271937C208.773 0.45327 208.869 0.70927 208.869 1.03994C208.869 1.34927 208.768 1.59994 208.565 1.79194C208.373 1.98394 208.106 2.07994 207.765 2.07994ZM211.146 12.3359V3.93594H212.81V6.57594L212.65 5.93594C212.767 5.5306 212.965 5.1626 213.242 4.83194C213.53 4.50127 213.855 4.23994 214.218 4.04794C214.591 3.85594 214.975 3.75994 215.37 3.75994C215.551 3.75994 215.722 3.77594 215.882 3.80794C216.053 3.83994 216.186 3.87727 216.282 3.91994L215.85 5.71194C215.722 5.6586 215.578 5.61594 215.418 5.58394C215.269 5.54127 215.119 5.51994 214.97 5.51994C214.682 5.51994 214.405 5.5786 214.138 5.69594C213.882 5.8026 213.653 5.95727 213.45 6.15994C213.258 6.35194 213.103 6.58127 212.986 6.84794C212.869 7.10394 212.81 7.3866 212.81 7.69594V12.3359H211.146ZM221.16 12.4959C220.296 12.4959 219.528 12.3146 218.856 11.9519C218.195 11.5786 217.672 11.0719 217.288 10.4319C216.915 9.79194 216.728 9.05594 216.728 8.22394C216.728 7.5626 216.835 6.95994 217.048 6.41594C217.261 5.87194 217.555 5.4026 217.928 5.00794C218.312 4.6026 218.765 4.29327 219.288 4.07994C219.821 3.85594 220.397 3.74394 221.016 3.74394C221.56 3.74394 222.067 3.8506 222.536 4.06394C223.005 4.2666 223.411 4.54927 223.752 4.91194C224.104 5.2746 224.371 5.7066 224.552 6.20794C224.744 6.6986 224.835 7.23727 224.824 7.82394L224.808 8.52794H217.944L217.576 7.21594H223.384L223.144 7.48794V7.10394C223.112 6.75194 222.995 6.43727 222.792 6.15994C222.589 5.8826 222.333 5.66394 222.024 5.50394C221.715 5.34394 221.379 5.26394 221.016 5.26394C220.44 5.26394 219.955 5.37594 219.56 5.59994C219.165 5.81327 218.867 6.13327 218.664 6.55994C218.461 6.97594 218.36 7.49327 218.36 8.11194C218.36 8.6986 218.483 9.2106 218.728 9.64794C218.973 10.0746 219.32 10.4053 219.768 10.6399C220.216 10.8746 220.733 10.9919 221.32 10.9919C221.736 10.9919 222.12 10.9226 222.472 10.7839C222.835 10.6453 223.224 10.3946 223.64 10.0319L224.472 11.1999C224.216 11.4559 223.901 11.6799 223.528 11.8719C223.165 12.0639 222.776 12.2186 222.36 12.3359C221.955 12.4426 221.555 12.4959 221.16 12.4959ZM230.183 12.4959C229.404 12.4959 228.706 12.3039 228.087 11.9199C227.479 11.5359 226.994 11.0133 226.631 10.3519C226.279 9.6906 226.103 8.94927 226.103 8.12794C226.103 7.3066 226.279 6.56527 226.631 5.90394C226.994 5.2426 227.479 4.71994 228.087 4.33594C228.706 3.95194 229.404 3.75994 230.183 3.75994C230.93 3.75994 231.607 3.9146 232.215 4.22394C232.834 4.5226 233.303 4.93327 233.623 5.45594L232.711 6.57594C232.54 6.3306 232.322 6.1066 232.055 5.90394C231.788 5.70127 231.506 5.54127 231.207 5.42394C230.908 5.3066 230.62 5.24794 230.343 5.24794C229.831 5.24794 229.372 5.37594 228.967 5.63194C228.572 5.87727 228.258 6.2186 228.023 6.65594C227.788 7.09327 227.671 7.58394 227.671 8.12794C227.671 8.67194 227.794 9.1626 228.039 9.59994C228.284 10.0266 228.61 10.3679 229.015 10.6239C229.42 10.8799 229.868 11.0079 230.359 11.0079C230.647 11.0079 230.924 10.9599 231.191 10.8639C231.468 10.7679 231.735 10.6239 231.991 10.4319C232.247 10.2399 232.487 10.0053 232.711 9.72794L233.623 10.8479C233.282 11.3279 232.791 11.7226 232.151 12.0319C231.522 12.3413 230.866 12.4959 230.183 12.4959ZM236.217 12.3359V1.79194H237.865V12.3359H236.217ZM234.473 5.53594V3.93594H239.817V5.53594H234.473ZM246.218 12.3359V1.13594H250.602C251.402 1.13594 252.122 1.26927 252.762 1.53594C253.413 1.8026 253.968 2.1866 254.426 2.68794C254.885 3.18927 255.237 3.78127 255.482 4.46394C255.728 5.1466 255.85 5.90394 255.85 6.73594C255.85 7.56794 255.728 8.3306 255.482 9.02394C255.237 9.7066 254.885 10.2986 254.426 10.7999C253.978 11.2906 253.429 11.6693 252.778 11.9359C252.128 12.2026 251.402 12.3359 250.602 12.3359H246.218ZM247.946 10.8479L247.898 10.6719H250.522C251.088 10.6719 251.589 10.5813 252.026 10.3999C252.474 10.2186 252.848 9.9626 253.146 9.63194C253.456 9.2906 253.69 8.8746 253.85 8.38394C254.01 7.89327 254.09 7.34394 254.09 6.73594C254.09 6.12794 254.01 5.58394 253.85 5.10394C253.69 4.61327 253.456 4.19727 253.146 3.85594C252.837 3.5146 252.464 3.25327 252.026 3.07194C251.589 2.8906 251.088 2.79994 250.522 2.79994H247.85L247.946 2.65594V10.8479ZM257.771 12.3359V3.93594H259.435V6.57594L259.275 5.93594C259.392 5.5306 259.59 5.1626 259.867 4.83194C260.155 4.50127 260.48 4.23994 260.843 4.04794C261.216 3.85594 261.6 3.75994 261.995 3.75994C262.176 3.75994 262.347 3.77594 262.507 3.80794C262.678 3.83994 262.811 3.87727 262.907 3.91994L262.475 5.71194C262.347 5.6586 262.203 5.61594 262.043 5.58394C261.894 5.54127 261.744 5.51994 261.595 5.51994C261.307 5.51994 261.03 5.5786 260.763 5.69594C260.507 5.8026 260.278 5.95727 260.075 6.15994C259.883 6.35194 259.728 6.58127 259.611 6.84794C259.494 7.10394 259.435 7.3866 259.435 7.69594V12.3359H257.771ZM264.496 12.3359V3.93594H266.144V12.3359H264.496ZM265.296 2.07994C264.944 2.07994 264.672 1.98927 264.48 1.80794C264.288 1.6266 264.192 1.3706 264.192 1.03994C264.192 0.730604 264.288 0.479937 264.48 0.287937C264.683 0.0959371 264.955 -6.29425e-05 265.296 -6.29425e-05C265.648 -6.29425e-05 265.92 0.0906038 266.112 0.271937C266.304 0.45327 266.4 0.70927 266.4 1.03994C266.4 1.34927 266.299 1.59994 266.096 1.79194C265.904 1.98394 265.638 2.07994 265.296 2.07994ZM271.429 12.3359L267.877 3.93594H269.653L272.213 10.2239L271.909 10.3679L274.645 3.93594H276.341L272.613 12.3359H271.429ZM281.535 12.4959C280.671 12.4959 279.903 12.3146 279.231 11.9519C278.57 11.5786 278.047 11.0719 277.663 10.4319C277.29 9.79194 277.103 9.05594 277.103 8.22394C277.103 7.5626 277.21 6.95994 277.423 6.41594C277.636 5.87194 277.93 5.4026 278.303 5.00794C278.687 4.6026 279.14 4.29327 279.663 4.07994C280.196 3.85594 280.772 3.74394 281.391 3.74394C281.935 3.74394 282.442 3.8506 282.911 4.06394C283.38 4.2666 283.786 4.54927 284.127 4.91194C284.479 5.2746 284.746 5.7066 284.927 6.20794C285.119 6.6986 285.21 7.23727 285.199 7.82394L285.183 8.52794H278.319L277.951 7.21594H283.759L283.519 7.48794V7.10394C283.487 6.75194 283.37 6.43727 283.167 6.15994C282.964 5.8826 282.708 5.66394 282.399 5.50394C282.09 5.34394 281.754 5.26394 281.391 5.26394C280.815 5.26394 280.33 5.37594 279.935 5.59994C279.54 5.81327 279.242 6.13327 279.039 6.55994C278.836 6.97594 278.735 7.49327 278.735 8.11194C278.735 8.6986 278.858 9.2106 279.103 9.64794C279.348 10.0746 279.695 10.4053 280.143 10.6399C280.591 10.8746 281.108 10.9919 281.695 10.9919C282.111 10.9919 282.495 10.9226 282.847 10.7839C283.21 10.6453 283.599 10.3946 284.015 10.0319L284.847 11.1999C284.591 11.4559 284.276 11.6799 283.903 11.8719C283.54 12.0639 283.151 12.2186 282.735 12.3359C282.33 12.4426 281.93 12.4959 281.535 12.4959ZM294.962 15.3119C293.661 14.5013 292.669 13.4879 291.986 12.2719C291.304 11.0559 290.962 9.70127 290.962 8.20794C290.962 6.72527 291.304 5.37594 291.986 4.15994C292.68 2.93327 293.677 1.9146 294.978 1.10394L295.858 2.09594C294.77 2.85327 293.938 3.75994 293.362 4.81594C292.797 5.86127 292.514 6.99194 292.514 8.20794C292.514 9.42394 292.797 10.5599 293.362 11.6159C293.938 12.6613 294.77 13.5626 295.858 14.3199L294.962 15.3119ZM301.206 12.4959C300.598 12.4959 300.032 12.4159 299.51 12.2559C298.998 12.0959 298.528 11.8559 298.102 11.5359C297.686 11.2053 297.312 10.7999 296.982 10.3199L298.166 8.95994C298.688 9.7066 299.19 10.2239 299.67 10.5119C300.15 10.7999 300.72 10.9439 301.382 10.9439C301.787 10.9439 302.155 10.8799 302.486 10.7519C302.816 10.6239 303.078 10.4479 303.27 10.2239C303.462 9.99994 303.558 9.74394 303.558 9.45594C303.558 9.26394 303.526 9.0826 303.462 8.91194C303.398 8.74127 303.296 8.5866 303.158 8.44794C303.03 8.30927 302.859 8.18127 302.646 8.06394C302.443 7.9466 302.203 7.84527 301.926 7.75994C301.648 7.66394 301.328 7.58394 300.966 7.51994C300.39 7.4026 299.888 7.24794 299.462 7.05594C299.035 6.86394 298.678 6.62394 298.39 6.33594C298.102 6.04794 297.888 5.7226 297.75 5.35994C297.611 4.9866 297.542 4.5706 297.542 4.11194C297.542 3.66394 297.638 3.24794 297.83 2.86394C298.032 2.47994 298.304 2.14927 298.646 1.87194C298.998 1.58394 299.408 1.36527 299.878 1.21594C300.347 1.05594 300.854 0.975937 301.398 0.975937C301.974 0.975937 302.502 1.0506 302.982 1.19994C303.462 1.34927 303.888 1.57327 304.262 1.87194C304.635 2.15994 304.944 2.51727 305.19 2.94394L303.974 4.14394C303.76 3.79194 303.52 3.4986 303.254 3.26394C302.987 3.0186 302.694 2.83727 302.374 2.71994C302.054 2.59194 301.712 2.52794 301.35 2.52794C300.934 2.52794 300.571 2.59194 300.262 2.71994C299.952 2.84794 299.707 3.02927 299.526 3.26394C299.355 3.48794 299.27 3.7546 299.27 4.06394C299.27 4.28794 299.312 4.49594 299.398 4.68794C299.483 4.86927 299.611 5.0346 299.782 5.18394C299.963 5.3226 300.203 5.4506 300.502 5.56794C300.8 5.6746 301.158 5.7706 301.574 5.85594C302.16 5.98394 302.683 6.14927 303.142 6.35194C303.6 6.54394 303.99 6.77327 304.31 7.03994C304.63 7.3066 304.87 7.60527 305.03 7.93594C305.2 8.2666 305.286 8.62394 305.286 9.00794C305.286 9.7226 305.12 10.3413 304.79 10.8639C304.459 11.3866 303.99 11.7919 303.382 12.0799C302.774 12.3573 302.048 12.4959 301.206 12.4959ZM307.734 12.3359V1.13594H314.79V2.79994H309.462V10.6719H314.79V12.3359H307.734ZM308.518 7.42394V5.75994H313.91V7.42394H308.518ZM319.946 12.3359L316.378 1.13594H318.218L320.378 8.14394C320.442 8.3146 320.501 8.51727 320.554 8.75194C320.607 8.97594 320.655 9.20527 320.698 9.43994C320.741 9.6746 320.778 9.89327 320.81 10.0959C320.853 10.2986 320.89 10.4639 320.922 10.5919L320.458 10.5759C320.618 10.0106 320.741 9.57327 320.826 9.26394C320.922 8.9546 320.997 8.71994 321.05 8.55994C321.103 8.38927 321.151 8.24527 321.194 8.12794L323.21 3.07194H324.762L326.714 8.12794C326.821 8.38394 326.911 8.63994 326.986 8.89594C327.071 9.14127 327.146 9.39194 327.21 9.64794C327.274 9.89327 327.343 10.1546 327.418 10.4319L327.002 10.5439C327.055 10.2559 327.093 10.0319 327.114 9.87194C327.146 9.70127 327.173 9.5626 327.194 9.45594C327.215 9.34927 327.237 9.24794 327.258 9.15194C327.279 9.04527 327.311 8.91194 327.354 8.75194C327.407 8.59194 327.477 8.37327 327.562 8.09594L329.69 1.13594H331.546L327.978 12.3359H326.778L323.818 5.32794L323.962 5.39194L321.114 12.3359H319.946ZM333.132 15.3119L332.252 14.3199C333.34 13.5626 334.166 12.6613 334.732 11.6159C335.308 10.5599 335.596 9.42394 335.596 8.20794C335.596 6.99194 335.308 5.86127 334.732 4.81594C334.166 3.75994 333.34 2.85327 332.252 2.09594L333.148 1.10394C334.449 1.9146 335.441 2.92794 336.124 4.14394C336.806 5.35994 337.148 6.7146 337.148 8.20794C337.148 9.6906 336.801 11.0453 336.108 12.2719C335.425 13.4879 334.433 14.5013 333.132 15.3119Z" fill="white"/>
</svg>
